<?xml version="1.0" encoding="utf-8"?>
<!-- Generator: Adobe Illustrator 24.0.1, SVG Export Plug-In . SVG Version: 6.00 Build 0)  -->
<svg version="1.1" id="Layer_1" xmlns="http://www.w3.org/2000/svg" xmlns:xlink="http://www.w3.org/1999/xlink" x="0px" y="0px"
	viewBox="0 0 60 60" enable-background="new 0 0 60 60" xml:space="preserve">
<g id="small_icon_add">
	<g id="Polygon_25">
		<g>
			<g>
				<path fill="#FFFFFF" d="M27.5,1.4c1.5-0.9,3.5-0.9,5,0l21,12.1C55,14.4,56,16,56,17.8V42c0,1.8-1,3.4-2.5,4.3l-21,12.1
					c-1.5,0.9-3.5,0.9-5,0l-21-12.1C5,45.6,4,43.9,4,42.1V17.9c0-1.8,1-3.4,2.5-4.3L27.5,1.4z"/>
			</g>
		</g>
		<g>

				<linearGradient id="SVGID_1_" gradientUnits="userSpaceOnUse" x1="10.0855" y1="788.3737" x2="46.311" y2="831.3915" gradientTransform="matrix(1 0 0 1 0 -782)">
				<stop  offset="0" style="stop-color:#005888"/>
					<stop  offset="1" style="stop-color:#5CB3E2"/>
			</linearGradient>
			<path fill="url(#SVGID_1_)" d="M30,59.2c-0.9,0-1.7-0.2-2.5-0.7l-21-12.1C5,45.6,4,43.9,4,42.1V17.9c0-1.8,1-3.4,2.5-4.3l21-12.1
				c1.5-0.9,3.5-0.9,5,0l21,12.1c1.5,0.9,2.5,2.5,2.5,4.3v24.2c0,1.8-1,3.4-2.5,4.3l-21,12.1C31.7,59,30.9,59.2,30,59.2z M28.5,3.2
				l-21,12.1C6.6,15.8,6,16.8,6,17.9v24.2c0,1.1,0.6,2.1,1.5,2.6l21,12.1c0.9,0.5,2.1,0.5,3,0l21-12.1c0.9-0.5,1.5-1.5,1.5-2.6V17.9
				c0-1.1-0.6-2.1-1.5-2.6l-21-12.1C30.6,2.6,29.4,2.6,28.5,3.2L28.5,3.2z"/>
		</g>
	</g>
	<g id="Vector">
		<path fill="#005888" d="M41,30.1h-9.9V40h-3.3v-9.9H18v-3.3h9.9V17h3.3v9.9H41V30.1z"/>
	</g>
</g>
</svg>
