<?xml version="1.0" encoding="utf-8"?>
<!-- Generator: Adobe Illustrator 24.0.1, SVG Export Plug-In . SVG Version: 6.00 Build 0)  -->
<svg version="1.1" id="Layer_1" xmlns="http://www.w3.org/2000/svg" xmlns:xlink="http://www.w3.org/1999/xlink" x="0px" y="0px"
	 viewBox="0 0 125 128" enable-background="new 0 0 125 128" xml:space="preserve">
<g opacity="0.5">
	<path d="M64.1,15.9c0.6-0.4,1.4-0.4,2,0l41.1,23.7c0.6,0.4,1,1,1,1.7v47.5c0,0.7-0.4,1.4-1,1.7l-41.1,23.7c-0.6,0.4-1.4,0.4-2,0
		L23,90.5c-0.6-0.4-1-1-1-1.7V41.3c0-0.7,0.4-1.4,1-1.7L64.1,15.9z"/>
	<g>
		<path d="M65.1,126.8c-0.3,0-0.7-0.1-1-0.3L12.3,96.7c-0.6-0.4-1-1-1-1.7V35.2c0-0.7,0.4-1.4,1-1.7L64.1,3.6l0,0
			c0.6-0.4,1.4-0.4,2,0l51.7,29.9c0.6,0.4,1,1,1,1.7V95c0,0.7-0.4,1.4-1,1.7l-51.7,29.9C65.8,126.7,65.4,126.8,65.1,126.8z
			 M65.1,5.3L13.3,35.2V95L65,124.9L116.7,95V35.2L65.1,5.3z"/>
	</g>
</g>
<g>
	
		<linearGradient id="SVGID_1_" gradientUnits="userSpaceOnUse" x1="62.1" y1="726.3008" x2="62.1" y2="825.825" gradientTransform="matrix(1 0 0 1 0 -714)">
		<stop  offset="0" style="stop-color:#1DA0EA"/>
		<stop  offset="1" style="stop-color:#FFFFFF"/>
	</linearGradient>
	<path fill="url(#SVGID_1_)" d="M61.1,12.9c0.6-0.4,1.4-0.4,2,0l41.1,23.7c0.6,0.4,1,1,1,1.7v47.5c0,0.7-0.4,1.4-1,1.7l-41.1,23.7
		c-0.6,0.4-1.4,0.4-2,0L20,87.5c-0.6-0.4-1-1-1-1.7V38.3c0-0.7,0.4-1.4,1-1.7L61.1,12.9z"/>
	<path fill="#005888" d="M51.3,51.3h8v8h-8V51.3z M72.7,51.3v8h-8v-8H72.7z M64.7,66h2.7v-2.7h-2.7v-2.7h2.7v2.7H70v-2.7h2.7v2.7H70
		V66h2.7v4H70v2.7h-2.7V70h-4v2.7h-2.7v-5.3h4V66H64.7z M67.3,66v4H70v-4H67.3z M51.3,72.7v-8h8v8H51.3z M54,54v2.7h2.7V54H54z
		 M67.3,54v2.7H70V54H67.3z M54,67.3V70h2.7v-2.7H54z M51.3,60.7H54v2.7h-2.7V60.7z M58,60.7h5.3V66h-2.7v-2.7H58V60.7z M60.7,54
		h2.7v5.3h-2.7V54z M48.7,48.7V54H46v-5.3c0-0.7,0.3-1.4,0.8-1.9S48,46,48.7,46H54v2.7H48.7z M75.3,46c0.7,0,1.4,0.3,1.9,0.8
		S78,48,78,48.7V54h-2.7v-5.3H70V46H75.3z M48.7,70v5.3H54V78h-5.3c-0.7,0-1.4-0.3-1.9-0.8S46,76,46,75.3V70H48.7z M75.3,75.3V70H78
		v5.3c0,0.7-0.3,1.4-0.8,1.9C76.7,77.7,76,78,75.3,78H70v-2.7H75.3z"/>
	<g>
		<path fill="#FFFFFF" d="M62.1,123.8c-0.3,0-0.7-0.1-1-0.3L9.3,93.7c-0.6-0.4-1-1-1-1.7V32.2c0-0.7,0.4-1.4,1-1.7L61.1,0.6l0,0
			c0.6-0.4,1.4-0.4,2,0l51.7,29.9c0.6,0.4,1,1,1,1.7V92c0,0.7-0.4,1.4-1,1.7l-51.7,29.9C62.8,123.7,62.4,123.8,62.1,123.8z
			 M62.1,2.3L10.3,32.2V92L62,121.9L113.7,92V32.2L62.1,2.3z"/>
	</g>
</g>
</svg>
