<?xml version="1.0" encoding="utf-8"?>
<!-- Generator: Adobe Illustrator 24.0.1, SVG Export Plug-In . SVG Version: 6.00 Build 0)  -->
<svg version="1.1" id="Layer_1" xmlns="http://www.w3.org/2000/svg" xmlns:xlink="http://www.w3.org/1999/xlink" x="0px" y="0px"
	 viewBox="0 0 127 131" enable-background="new 0 0 127 131" xml:space="preserve">
<g opacity="0.5">
	<path d="M65.5,22.6c0.6-0.4,1.4-0.4,2,0L104,43.7c0.6,0.4,1,1,1,1.7v42.2c0,0.7-0.4,1.4-1,1.7l-36.5,21.1c-0.6,0.4-1.4,0.4-2,0
		L29,89.3c-0.6-0.4-1-1-1-1.7V45.4c0-0.7,0.4-1.4,1-1.7L65.5,22.6z"/>
	<g>
		<path d="M66.5,129.7c-0.3,0-0.7-0.1-1-0.3l-53-30.6c-0.6-0.4-1-1-1-1.7V35.9c0-0.7,0.4-1.4,1-1.7l53-30.6c0.6-0.4,1.4-0.4,2,0
			l53,30.6c0.6,0.4,1,1,1,1.7v61.2c0,0.7-0.4,1.4-1,1.7l-53,30.6C67.2,129.6,66.8,129.7,66.5,129.7z M66.5,4.3c-0.2,0-0.3,0-0.5,0.1
			L13,35c-0.3,0.2-0.5,0.5-0.5,0.9v61.2c0,0.4,0.2,0.7,0.5,0.9l53,30.6c0.3,0.2,0.7,0.2,1,0L120,98c0.3-0.2,0.5-0.5,0.5-0.9V35.9
			c0-0.4-0.2-0.7-0.5-0.9L67,4.4C66.8,4.4,66.7,4.3,66.5,4.3z"/>
	</g>
	<g>
		<path d="M66.5,121.7c-0.3,0-0.7-0.1-1-0.3L19.4,94.8c-0.6-0.4-1-1-1-1.7V39.9c0-0.7,0.4-1.4,1-1.7l46.1-26.6c0.6-0.4,1.4-0.4,2,0
			l46.1,26.6c0.6,0.4,1,1,1,1.7v53.2c0,0.7-0.4,1.4-1,1.7l-46.1,26.6C67.2,121.6,66.8,121.7,66.5,121.7z M66.5,12.3
			c-0.2,0-0.3,0-0.5,0.1L19.9,39c-0.3,0.2-0.5,0.5-0.5,0.9v53.2c0,0.4,0.2,0.7,0.5,0.9L66,120.6c0.3,0.2,0.7,0.2,1,0L113.1,94
			c0.3-0.2,0.5-0.5,0.5-0.9V39.9c0-0.4-0.2-0.7-0.5-0.9L67,12.4C66.8,12.4,66.7,12.3,66.5,12.3z"/>
	</g>
</g>
<g>
	
		<linearGradient id="SVGID_1_" gradientUnits="userSpaceOnUse" x1="63.5" y1="-597.1101" x2="63.5" y2="-686.1101" gradientTransform="matrix(1 0 0 -1 0 -578.1102)">
		<stop  offset="0" style="stop-color:#00A3FF"/>
		<stop  offset="1" style="stop-color:#FFFFFF"/>
	</linearGradient>
	<path fill="url(#SVGID_1_)" d="M62.5,19.6c0.6-0.4,1.4-0.4,2,0L101,40.7c0.6,0.4,1,1,1,1.7v42.2c0,0.7-0.4,1.4-1,1.7l-36.5,21.1
		c-0.6,0.4-1.4,0.4-2,0L26,86.3c-0.6-0.4-1-1-1-1.7V42.4c0-0.7,0.4-1.4,1-1.7L62.5,19.6z"/>
	<path fill="none" stroke="#30CAFF" d="M62.8,1c0.5-0.3,1-0.3,1.5,0l53,30.6c0.5,0.3,0.8,0.8,0.8,1.3v61.2c0,0.5-0.3,1-0.8,1.3
		l-53,30.6c-0.5,0.3-1,0.3-1.5,0l-53-30.6C9.3,95.1,9,94.6,9,94.1V32.9c0-0.5,0.3-1,0.8-1.3L62.8,1z"/>
	<path fill="none" stroke="#FFFFFF" d="M62.8,9c0.5-0.3,1-0.3,1.5,0l46.1,26.6c0.5,0.3,0.8,0.8,0.8,1.3v53.2c0,0.5-0.3,1-0.8,1.3
		L64.3,118c-0.5,0.3-1,0.3-1.5,0L16.7,91.4c-0.5-0.3-0.8-0.8-0.8-1.3V36.9c0-0.5,0.3-1,0.8-1.3L62.8,9z"/>
	<path fill="#005888" d="M46.3,68.1c-0.7,0-1.3-0.1-1.9-0.2c-0.6-0.2-1.1-0.4-1.4-0.7c-0.1-0.1-0.2-0.2-0.3-0.3
		c-0.1-0.1-0.1-0.3-0.1-0.4c0-0.2,0.1-0.4,0.2-0.6c0.1-0.2,0.3-0.2,0.5-0.2c0.1,0,0.2,0,0.3,0.1c0.1,0,0.2,0.1,0.3,0.2
		c0.4,0.2,0.7,0.4,1.1,0.5c0.4,0.1,0.8,0.2,1.3,0.2c0.6,0,1-0.1,1.3-0.3c0.3-0.2,0.5-0.5,0.5-0.8S48,65.1,47.7,65
		c-0.3-0.2-0.8-0.3-1.5-0.5c-0.8-0.2-1.5-0.4-1.9-0.6c-0.5-0.2-0.8-0.5-1.1-0.9c-0.2-0.3-0.3-0.8-0.3-1.3s0.2-1,0.5-1.5
		c0.3-0.4,0.8-0.8,1.3-1c0.6-0.3,1.2-0.4,1.9-0.4c1.2,0,2.2,0.3,3,0.9c0.1,0.1,0.2,0.2,0.3,0.3s0.1,0.2,0.1,0.4s-0.1,0.4-0.2,0.6
		c-0.1,0.2-0.3,0.2-0.5,0.2c-0.1,0-0.2,0-0.3,0s-0.2-0.1-0.3-0.2c-0.4-0.2-0.7-0.4-1-0.5s-0.7-0.2-1.1-0.2c-0.5,0-0.9,0.1-1.2,0.3
		s-0.5,0.5-0.5,0.8c0,0.2,0.1,0.4,0.2,0.5c0.1,0.1,0.3,0.2,0.6,0.4c0.3,0.1,0.7,0.2,1.2,0.3c1.2,0.3,2,0.6,2.5,1s0.8,1,0.8,1.7
		c0,0.6-0.2,1-0.5,1.5c-0.3,0.4-0.7,0.8-1.3,1C47.6,68,47,68.1,46.3,68.1z"/>
	<path fill="#005888" d="M54.4,68.1c-0.3,0-0.6-0.1-0.7-0.3c-0.2-0.2-0.3-0.4-0.3-0.7v-6.6h-2.1c-0.6,0-1-0.3-1-0.8s0.3-0.8,1-0.8
		h6.2c0.6,0,1,0.3,1,0.8c0,0.6-0.3,0.8-1,0.8h-2.1v6.6c0,0.3-0.1,0.5-0.3,0.7C54.9,68,54.7,68.1,54.4,68.1z"/>
	<path fill="#005888" d="M66.7,66.8c0.1,0.2,0.1,0.3,0.1,0.4c0,0.2-0.1,0.5-0.3,0.6C66.3,68,66.1,68,65.8,68c-0.2,0-0.3,0-0.5-0.1
		c-0.1-0.1-0.3-0.2-0.3-0.4L64.3,66h-4.4l-0.7,1.5c-0.1,0.2-0.2,0.3-0.3,0.4S58.6,68,58.4,68c-0.3,0-0.5-0.1-0.7-0.2
		c-0.2-0.2-0.3-0.4-0.3-0.6c0-0.1,0-0.3,0.1-0.4l3.5-7.4c0.1-0.2,0.2-0.4,0.4-0.5s0.4-0.2,0.6-0.2c0.2,0,0.4,0.1,0.6,0.2
		c0.2,0.1,0.3,0.3,0.4,0.5L66.7,66.8z M60.6,64.4h3L62.1,61L60.6,64.4z"/>
	<path fill="#005888" d="M75.4,66.7c0.1,0.2,0.2,0.4,0.2,0.6s-0.1,0.4-0.3,0.6c-0.2,0.2-0.4,0.2-0.7,0.2c-0.2,0-0.3,0-0.5-0.1
		s-0.3-0.2-0.4-0.4L72,65.1c-0.1-0.2-0.3-0.4-0.5-0.5s-0.4-0.2-0.6-0.2h-1.1V67c0,0.3-0.1,0.6-0.3,0.7c-0.2,0.2-0.4,0.3-0.7,0.3
		c-0.3,0-0.6-0.1-0.7-0.3s-0.3-0.4-0.3-0.7v-7.3c0-0.3,0.1-0.5,0.2-0.7c0.2-0.2,0.4-0.2,0.7-0.2H72c1.1,0,1.9,0.2,2.4,0.7
		c0.6,0.5,0.8,1.1,0.8,2c0,0.7-0.2,1.3-0.6,1.8s-0.9,0.8-1.7,0.9c0.3,0.1,0.5,0.2,0.7,0.3c0.2,0.1,0.4,0.4,0.6,0.6L75.4,66.7z
		 M71.8,62.9c0.6,0,1-0.1,1.3-0.3s0.4-0.5,0.4-1c0-0.4-0.1-0.8-0.4-1s-0.7-0.3-1.3-0.3h-1.9v2.5L71.8,62.9L71.8,62.9z"/>
	<path fill="#005888" d="M79.9,68.1c-0.3,0-0.6-0.1-0.7-0.3c-0.2-0.2-0.3-0.4-0.3-0.7v-6.6h-2.1c-0.6,0-1-0.3-1-0.8s0.3-0.8,1-0.8
		H83c0.6,0,1,0.3,1,0.8c0,0.6-0.3,0.8-1,0.8h-2.1v6.6c0,0.3-0.1,0.5-0.3,0.7S80.2,68.1,79.9,68.1z"/>
</g>
</svg>
