<?xml version="1.0" encoding="utf-8"?>
<!-- Generator: Adobe Illustrator 24.0.1, SVG Export Plug-In . SVG Version: 6.00 Build 0)  -->
<svg version="1.1" id="Layer_1" xmlns="http://www.w3.org/2000/svg" xmlns:xlink="http://www.w3.org/1999/xlink" x="0px" y="0px"
	 viewBox="0 0 127 131" enable-background="new 0 0 127 131" xml:space="preserve">
<g opacity="0.5">
	<path d="M65.5,22.6c0.6-0.4,1.4-0.4,2,0L104,43.7c0.6,0.4,1,1,1,1.7v42.2c0,0.7-0.4,1.4-1,1.7l-36.5,21.1c-0.6,0.4-1.4,0.4-2,0
		L29,89.3c-0.6-0.4-1-1-1-1.7V45.4c0-0.7,0.4-1.4,1-1.7L65.5,22.6z"/>
	<g>
		<path d="M66.5,129.7c-0.3,0-0.7-0.1-1-0.3l-53-30.6c-0.6-0.4-1-1-1-1.7V35.9c0-0.7,0.4-1.4,1-1.7l53-30.6c0.6-0.4,1.4-0.4,2,0
			l53,30.6c0.6,0.4,1,1,1,1.7v61.2c0,0.7-0.4,1.4-1,1.7l-53,30.6C67.2,129.6,66.8,129.7,66.5,129.7z M66.5,4.3c-0.2,0-0.3,0-0.5,0.1
			L13,35c-0.3,0.2-0.5,0.5-0.5,0.9v61.2c0,0.4,0.2,0.7,0.5,0.9l53,30.6c0.3,0.2,0.7,0.2,1,0L120,98c0.3-0.2,0.5-0.5,0.5-0.9V35.9
			c0-0.4-0.2-0.7-0.5-0.9L67,4.4C66.8,4.4,66.7,4.3,66.5,4.3z"/>
	</g>
	<g>
		<path d="M66.5,121.7c-0.3,0-0.7-0.1-1-0.3L19.4,94.8c-0.6-0.4-1-1-1-1.7V39.9c0-0.7,0.4-1.4,1-1.7l46.1-26.6c0.6-0.4,1.4-0.4,2,0
			l46.1,26.6c0.6,0.4,1,1,1,1.7v53.2c0,0.7-0.4,1.4-1,1.7l-46.1,26.6C67.2,121.6,66.8,121.7,66.5,121.7z M66.5,12.3
			c-0.2,0-0.3,0-0.5,0.1L19.9,39c-0.3,0.2-0.5,0.5-0.5,0.9v53.2c0,0.4,0.2,0.7,0.5,0.9L66,120.6c0.3,0.2,0.7,0.2,1,0L113.1,94
			c0.3-0.2,0.5-0.5,0.5-0.9V39.9c0-0.4-0.2-0.7-0.5-0.9L67,12.4C66.8,12.4,66.7,12.3,66.5,12.3z"/>
	</g>
</g>
<g>
	
		<linearGradient id="SVGID_1_" gradientUnits="userSpaceOnUse" x1="63.5" y1="112.8898" x2="63.5" y2="23.8898" gradientTransform="matrix(1 0 0 -1 0 131.8898)">
		<stop  offset="0" style="stop-color:#00A3FF"/>
		<stop  offset="1" style="stop-color:#FFFFFF"/>
	</linearGradient>
	<path fill="url(#SVGID_1_)" d="M62.5,19.6c0.6-0.4,1.4-0.4,2,0L101,40.7c0.6,0.4,1,1,1,1.7v42.2c0,0.7-0.4,1.4-1,1.7l-36.5,21.1
		c-0.6,0.4-1.4,0.4-2,0L26,86.3c-0.6-0.4-1-1-1-1.7V42.4c0-0.7,0.4-1.4,1-1.7L62.5,19.6z"/>
	<g>
		<path fill="#30CAFF" d="M63.5,126.7c-0.3,0-0.7-0.1-1-0.3l-53-30.6c-0.6-0.4-1-1-1-1.7V32.9c0-0.7,0.4-1.4,1-1.7l53-30.6
			c0.6-0.4,1.4-0.4,2,0l53,30.6c0.6,0.4,1,1,1,1.7v61.2c0,0.7-0.4,1.4-1,1.7l-53,30.6C64.2,126.6,63.8,126.7,63.5,126.7z M63.5,1.3
			c-0.2,0-0.3,0-0.5,0.1L10,32c-0.3,0.2-0.5,0.5-0.5,0.9v61.2c0,0.4,0.2,0.7,0.5,0.9l53,30.6c0.3,0.2,0.7,0.2,1,0L117,95
			c0.3-0.2,0.5-0.5,0.5-0.9V32.9c0-0.4-0.2-0.7-0.5-0.9L64,1.4C63.8,1.4,63.7,1.3,63.5,1.3z"/>
	</g>
	<g>
		<path fill="#FFFFFF" d="M63.5,118.7c-0.3,0-0.7-0.1-1-0.3L16.4,91.8c-0.6-0.4-1-1-1-1.7V36.9c0-0.7,0.4-1.4,1-1.7L62.5,8.6
			c0.6-0.4,1.4-0.4,2,0l46.1,26.6c0.6,0.4,1,1,1,1.7v53.2c0,0.7-0.4,1.4-1,1.7l-46.1,26.6C64.2,118.6,63.8,118.7,63.5,118.7z
			 M63.5,9.3c-0.2,0-0.3,0-0.5,0.1L16.9,36c-0.3,0.2-0.5,0.5-0.5,0.9v53.2c0,0.4,0.2,0.7,0.5,0.9L63,117.6c0.3,0.2,0.7,0.2,1,0
			L110.1,91c0.3-0.2,0.5-0.5,0.5-0.9V36.9c0-0.4-0.2-0.7-0.5-0.9L64,9.4C63.8,9.4,63.7,9.3,63.5,9.3z"/>
	</g>
	<path fill="#005888" d="M42.1,67.1c-1.3,0-2.3-0.3-2.9-1c-0.7-0.7-1-1.6-1-2.9v-4.4c0-0.3,0.1-0.5,0.3-0.7s0.4-0.3,0.7-0.3
		c0.3,0,0.5,0.1,0.7,0.3c0.2,0.2,0.3,0.4,0.3,0.7v4.5c0,0.7,0.2,1.3,0.5,1.7c0.3,0.4,0.8,0.6,1.5,0.6c0.6,0,1.1-0.2,1.5-0.6
		c0.3-0.4,0.5-0.9,0.5-1.7v-4.5c0-0.3,0.1-0.5,0.3-0.7c0.2-0.2,0.4-0.3,0.7-0.3c0.3,0,0.5,0.1,0.7,0.3s0.3,0.4,0.3,0.7v4.4
		c0,1.3-0.3,2.2-1,2.9C44.4,66.8,43.4,67.1,42.1,67.1z"/>
	<path fill="#005888" d="M48.9,67.1c-0.3,0-0.6-0.1-0.7-0.3c-0.2-0.2-0.3-0.4-0.3-0.7v-7.3c0-0.3,0.1-0.5,0.2-0.7
		c0.2-0.2,0.4-0.2,0.7-0.2h3.3c1,0,1.8,0.3,2.3,0.8c0.6,0.5,0.8,1.2,0.8,2.1c0,0.9-0.3,1.6-0.8,2.1c-0.6,0.5-1.3,0.8-2.3,0.8h-2.2
		v2.5c0,0.3-0.1,0.6-0.3,0.7S49.2,67.1,48.9,67.1z M51.8,62c1,0,1.5-0.4,1.5-1.3c0-0.9-0.5-1.3-1.5-1.3h-1.9V62H51.8z"/>
	<path fill="#005888" d="M57.5,67c-0.3,0-0.5-0.1-0.7-0.2c-0.2-0.2-0.2-0.4-0.2-0.7v-7.3c0-0.3,0.1-0.5,0.2-0.7
		c0.2-0.2,0.4-0.2,0.7-0.2h2.6c1,0,1.9,0.2,2.6,0.5c0.7,0.4,1.3,0.9,1.7,1.6c0.4,0.7,0.6,1.5,0.6,2.5c0,1-0.2,1.8-0.6,2.5
		c-0.4,0.7-0.9,1.2-1.6,1.6C62,66.8,61.1,67,60.1,67H57.5z M60,65.4c2,0,2.9-1,2.9-3c0-2-1-2.9-2.9-2.9h-1.4v5.9H60z"/>
	<path fill="#005888" d="M74.7,65.8c0.1,0.2,0.1,0.3,0.1,0.4c0,0.2-0.1,0.5-0.3,0.6c-0.2,0.2-0.4,0.2-0.7,0.2c-0.2,0-0.3,0-0.5-0.1
		c-0.1-0.1-0.3-0.2-0.3-0.4L72.4,65H68l-0.7,1.5c-0.1,0.2-0.2,0.3-0.3,0.4c-0.1,0.1-0.3,0.1-0.5,0.1c-0.3,0-0.5-0.1-0.7-0.2
		c-0.2-0.2-0.3-0.4-0.3-0.6c0-0.1,0-0.3,0.1-0.4l3.5-7.4c0.1-0.2,0.2-0.4,0.4-0.5c0.2-0.1,0.4-0.2,0.6-0.2c0.2,0,0.4,0.1,0.6,0.2
		c0.2,0.1,0.3,0.3,0.4,0.5L74.7,65.8z M68.7,63.4h3l-1.5-3.4L68.7,63.4z"/>
	<path fill="#005888" d="M77.9,67.1c-0.3,0-0.6-0.1-0.7-0.3c-0.2-0.2-0.3-0.4-0.3-0.7v-6.6h-2.1c-0.6,0-1-0.3-1-0.8
		c0-0.5,0.3-0.8,1-0.8H81c0.6,0,1,0.3,1,0.8c0,0.6-0.3,0.8-1,0.8h-2.1v6.6c0,0.3-0.1,0.5-0.3,0.7S78.2,67.1,77.9,67.1z"/>
	<path fill="#005888" d="M83.8,67c-0.3,0-0.5-0.1-0.7-0.2c-0.2-0.2-0.2-0.4-0.2-0.7v-7.3c0-0.3,0.1-0.5,0.2-0.7
		c0.2-0.2,0.4-0.2,0.7-0.2h4.6c0.6,0,1,0.3,1,0.8c0,0.5-0.3,0.8-1,0.8h-3.6v2.1h3.3c0.6,0,1,0.3,1,0.8c0,0.5-0.3,0.8-1,0.8h-3.3v2.3
		h3.6c0.6,0,1,0.3,1,0.8c0,0.5-0.3,0.8-1,0.8H83.8z"/>
</g>
</svg>
