<?xml version="1.0" encoding="utf-8"?>
<!-- Generator: Adobe Illustrator 24.0.1, SVG Export Plug-In . SVG Version: 6.00 Build 0)  -->
<svg version="1.1" id="Layer_1" xmlns="http://www.w3.org/2000/svg" xmlns:xlink="http://www.w3.org/1999/xlink" x="0px" y="0px"
	 viewBox="0 0 60 60" enable-background="new 0 0 60 60" xml:space="preserve">
<g>
	<path fill="#FFFFFF" d="M28,2.3c1.2-0.7,2.8-0.7,4,0l21,12.1c1.2,0.7,2,2,2,3.5v24.2c0,1.4-0.8,2.7-2,3.5L32,57.7
		c-1.2,0.7-2.8,0.7-4,0L7,45.6c-1.2-0.7-2-2-2-3.5V17.9c0-1.4,0.8-2.7,2-3.5L28,2.3z"/>
	
		<linearGradient id="SVGID_1_" gradientUnits="userSpaceOnUse" x1="10.0964" y1="53.5253" x2="46.3219" y2="10.5075" gradientTransform="matrix(1 0 0 -1 0 59.8898)">
		<stop  offset="0" style="stop-color:#005888"/>
		<stop  offset="1" style="stop-color:#5CB3E2"/>
	</linearGradient>
	<path fill="url(#SVGID_1_)" d="M30,59.2c-0.9,0-1.7-0.2-2.5-0.7l-21-12.1C5,45.6,4,43.9,4,42.1V17.9c0-1.8,1-3.4,2.5-4.3l21-12.1
		c1.5-0.9,3.5-0.9,5,0l21,12.1c1.5,0.9,2.5,2.5,2.5,4.3v24.2c0,1.8-1,3.4-2.5,4.3l-21,12.1C31.7,59,30.9,59.2,30,59.2z M28.5,3.2
		l-21,12.1C6.6,15.8,6,16.8,6,17.9v24.2c0,1.1,0.6,2.1,1.5,2.6l21,12.1c0.9,0.5,2.1,0.5,3,0l21-12.1c0.9-0.5,1.5-1.5,1.5-2.6V17.9
		c0-1.1-0.6-2.1-1.5-2.6l-21-12.1C30.6,2.6,29.4,2.6,28.5,3.2L28.5,3.2z"/>
</g>
<path fill="#005888" d="M22.2,20C21,20,20,20.9,20,22.1v14.8c0,0.6,0.2,1.1,0.7,1.5c0.4,0.4,1,0.6,1.6,0.6h15.6
	c0.6,0,1.2-0.2,1.6-0.6c0.4-0.4,0.7-0.9,0.7-1.5v-7.4h-2.2v7.4H22.2V22.1H30V20H22.2z M36.4,21.1c-0.2,0-0.4,0.1-0.5,0.2l-1.4,1.3
	l2.8,2.6l1.4-1.3c0.3-0.3,0.3-0.7,0-1l-1.7-1.6C36.8,21.1,36.6,21.1,36.4,21.1z M33.7,23.3l-8.2,7.8v2.6h2.8l8.2-7.8L33.7,23.3z"/>
</svg>
