<?xml version="1.0" encoding="utf-8"?>
<!-- Generator: Adobe Illustrator 24.0.1, SVG Export Plug-In . SVG Version: 6.00 Build 0)  -->
<svg version="1.1" id="Layer_1" xmlns="http://www.w3.org/2000/svg" xmlns:xlink="http://www.w3.org/1999/xlink" x="0px" y="0px"
	 viewBox="0 0 127 131" enable-background="new 0 0 127 131" xml:space="preserve">
<g opacity="0.5">
	<path d="M65.5,22.6c0.6-0.4,1.4-0.4,2,0L104,43.7c0.6,0.4,1,1,1,1.7v42.2c0,0.7-0.4,1.4-1,1.7l-36.5,21.1c-0.6,0.4-1.4,0.4-2,0
		L29,89.3c-0.6-0.4-1-1-1-1.7V45.4c0-0.7,0.4-1.4,1-1.7L65.5,22.6z"/>
	<g>
		<path d="M66.5,129.7c-0.3,0-0.7-0.1-1-0.3l-53-30.6c-0.6-0.4-1-1-1-1.7V35.9c0-0.7,0.4-1.4,1-1.7l53-30.6c0.6-0.4,1.4-0.4,2,0
			l53,30.6c0.6,0.4,1,1,1,1.7v61.2c0,0.7-0.4,1.4-1,1.7l-53,30.6C67.2,129.6,66.8,129.7,66.5,129.7z M66.5,4.3c-0.2,0-0.3,0-0.5,0.1
			L13,35c-0.3,0.2-0.5,0.5-0.5,0.9v61.2c0,0.4,0.2,0.7,0.5,0.9l53,30.6c0.3,0.2,0.7,0.2,1,0L120,98c0.3-0.2,0.5-0.5,0.5-0.9V35.9
			c0-0.4-0.2-0.7-0.5-0.9L67,4.4C66.8,4.4,66.7,4.3,66.5,4.3z"/>
	</g>
	<g>
		<path d="M66.5,121.7c-0.3,0-0.7-0.1-1-0.3L19.4,94.8c-0.6-0.4-1-1-1-1.7V39.9c0-0.7,0.4-1.4,1-1.7l46.1-26.6c0.6-0.4,1.4-0.4,2,0
			l46.1,26.6c0.6,0.4,1,1,1,1.7v53.2c0,0.7-0.4,1.4-1,1.7l-46.1,26.6C67.2,121.6,66.8,121.7,66.5,121.7z M66.5,12.3
			c-0.2,0-0.3,0-0.5,0.1L19.9,39c-0.3,0.2-0.5,0.5-0.5,0.9v53.2c0,0.4,0.2,0.7,0.5,0.9L66,120.6c0.3,0.2,0.7,0.2,1,0L113.1,94
			c0.3-0.2,0.5-0.5,0.5-0.9V39.9c0-0.4-0.2-0.7-0.5-0.9L67,12.4C66.8,12.4,66.7,12.3,66.5,12.3z"/>
	</g>
</g>
<g>
	
		<linearGradient id="SVGID_1_" gradientUnits="userSpaceOnUse" x1="63.5" y1="728.9999" x2="63.5" y2="817.9999" gradientTransform="matrix(1 0 0 1 0 -710)">
		<stop  offset="0" style="stop-color:#00A3FF"/>
		<stop  offset="1" style="stop-color:#FFFFFF"/>
	</linearGradient>
	<path fill="url(#SVGID_1_)" d="M62.5,19.6c0.6-0.4,1.4-0.4,2,0L101,40.7c0.6,0.4,1,1,1,1.7v42.2c0,0.7-0.4,1.4-1,1.7l-36.5,21.1
		c-0.6,0.4-1.4,0.4-2,0L26,86.3c-0.6-0.4-1-1-1-1.7V42.4c0-0.7,0.4-1.4,1-1.7L62.5,19.6z"/>
	<path fill="none" stroke="#30CAFF" d="M62.8,1c0.5-0.3,1-0.3,1.5,0l53,30.6c0.5,0.3,0.8,0.8,0.8,1.3v61.2c0,0.5-0.3,1-0.8,1.3
		l-53,30.6c-0.5,0.3-1,0.3-1.5,0l-53-30.6C9.3,95.1,9,94.6,9,94.1V32.9c0-0.5,0.3-1,0.8-1.3L62.8,1z"/>
	<path fill="none" stroke="#FFFFFF" d="M62.8,9c0.5-0.3,1-0.3,1.5,0l46.1,26.6c0.5,0.3,0.8,0.8,0.8,1.3v53.2c0,0.5-0.3,1-0.8,1.3
		L64.3,118c-0.5,0.3-1,0.3-1.5,0L16.7,91.4c-0.5-0.3-0.8-0.8-0.8-1.3V36.9c0-0.5,0.3-1,0.8-1.3L62.8,9z"/>
	<path fill="#005888" d="M40.4,68.1c-0.7,0-1.3-0.1-1.9-0.2c-0.6-0.2-1.1-0.4-1.4-0.7c-0.1-0.1-0.2-0.2-0.3-0.3
		c-0.1-0.1-0.1-0.3-0.1-0.4c0-0.2,0.1-0.4,0.2-0.6c0.1-0.2,0.3-0.2,0.5-0.2c0.1,0,0.2,0,0.3,0.1c0.1,0,0.2,0.1,0.3,0.2
		c0.4,0.2,0.7,0.4,1.1,0.5c0.4,0.1,0.8,0.2,1.3,0.2c0.6,0,1-0.1,1.3-0.3c0.3-0.2,0.5-0.5,0.5-0.8s-0.1-0.5-0.4-0.6
		c-0.3-0.2-0.8-0.3-1.5-0.5c-0.8-0.2-1.5-0.4-1.9-0.6c-0.5-0.2-0.8-0.5-1.1-0.9c-0.2-0.3-0.3-0.8-0.3-1.3s0.2-1,0.5-1.5
		c0.3-0.4,0.8-0.8,1.3-1c0.6-0.3,1.2-0.4,1.9-0.4c1.2,0,2.2,0.3,3,0.9c0.1,0.1,0.2,0.2,0.3,0.3s0.1,0.2,0.1,0.4S44,60.8,43.9,61
		c-0.1,0.2-0.3,0.2-0.5,0.2c-0.1,0-0.2,0-0.3,0s-0.2-0.1-0.3-0.2c-0.4-0.2-0.7-0.4-1-0.5s-0.7-0.2-1.1-0.2c-0.5,0-0.9,0.1-1.2,0.3
		S39,61.1,39,61.4c0,0.2,0.1,0.4,0.2,0.5c0.1,0.1,0.3,0.2,0.6,0.4c0.3,0.1,0.7,0.2,1.2,0.3c1.2,0.3,2,0.6,2.5,1s0.8,1,0.8,1.7
		c0,0.6-0.2,1-0.5,1.5c-0.3,0.4-0.7,0.8-1.3,1C41.8,68,41.1,68.1,40.4,68.1z"/>
	<path fill="#005888" d="M46.6,68.1c-0.3,0-0.6-0.1-0.7-0.3s-0.3-0.4-0.3-0.7v-7.3c0-0.3,0.1-0.5,0.3-0.7s0.4-0.3,0.7-0.3
		s0.6,0.1,0.7,0.3c0.2,0.2,0.3,0.4,0.3,0.7v7.3c0,0.3-0.1,0.6-0.3,0.7C47.1,68,46.9,68.1,46.6,68.1z"/>
	<path fill="#005888" d="M56.5,62.9c0.2,0,0.4,0.1,0.6,0.2c0.1,0.1,0.2,0.3,0.2,0.5v2.5c0,0.3,0,0.6-0.1,0.8
		c-0.1,0.2-0.1,0.3-0.3,0.5c-0.1,0.1-0.3,0.2-0.6,0.3C56,67.9,55.6,68,55.1,68c-0.4,0.1-0.8,0.1-1.2,0.1c-1,0-1.8-0.2-2.5-0.6
		s-1.3-0.9-1.6-1.6c-0.4-0.7-0.6-1.6-0.6-2.5c0-1,0.2-1.8,0.6-2.5c0.4-0.7,0.9-1.3,1.6-1.6c0.7-0.4,1.5-0.6,2.5-0.6
		c1.2,0,2.2,0.3,3,0.9c0.1,0.1,0.2,0.2,0.3,0.3s0.1,0.2,0.1,0.4s-0.1,0.4-0.2,0.6c-0.1,0.2-0.3,0.2-0.4,0.2c-0.1,0-0.2,0-0.3-0.1
		c-0.1,0-0.2-0.1-0.3-0.2c-0.4-0.2-0.7-0.4-1-0.5s-0.6-0.1-1-0.1c-1.8,0-2.7,1-2.7,3.1c0,1.1,0.2,1.8,0.7,2.4
		c0.5,0.5,1.2,0.8,2.1,0.8c0.5,0,1-0.1,1.5-0.2v-2h-1.2c-0.3,0-0.4-0.1-0.6-0.2c-0.1-0.1-0.2-0.3-0.2-0.5s0.1-0.4,0.2-0.5
		c0.1-0.1,0.3-0.2,0.6-0.2L56.5,62.9L56.5,62.9z"/>
	<path fill="#005888" d="M66,58.8c0.3,0,0.5,0.1,0.7,0.3s0.3,0.4,0.3,0.7v7.3c0,0.3-0.1,0.6-0.3,0.7c-0.2,0.2-0.4,0.3-0.7,0.3
		c-0.3,0-0.6-0.1-0.8-0.3l-4.4-5.6v4.9c0,0.3-0.1,0.6-0.3,0.7c-0.2,0.2-0.4,0.3-0.7,0.3s-0.5-0.1-0.7-0.3c-0.2-0.2-0.3-0.4-0.3-0.7
		v-7.3c0-0.3,0.1-0.5,0.3-0.7s0.4-0.3,0.7-0.3s0.6,0.1,0.7,0.3l4.4,5.5v-4.9c0-0.3,0.1-0.5,0.3-0.7C65.5,58.9,65.7,58.8,66,58.8z"/>
	<path fill="#005888" d="M76.3,68.1c-1.3,0-2.3-0.3-2.9-1c-0.7-0.7-1-1.6-1-2.9v-4.4c0-0.3,0.1-0.5,0.3-0.7s0.4-0.3,0.7-0.3
		c0.3,0,0.5,0.1,0.7,0.3s0.3,0.4,0.3,0.7v4.5c0,0.7,0.2,1.3,0.5,1.7c0.3,0.4,0.8,0.6,1.5,0.6c0.6,0,1.1-0.2,1.5-0.6
		c0.3-0.4,0.5-0.9,0.5-1.7v-4.5c0-0.3,0.1-0.5,0.3-0.7c0.2-0.2,0.4-0.3,0.7-0.3c0.3,0,0.5,0.1,0.7,0.3s0.3,0.4,0.3,0.7v4.4
		c0,1.3-0.3,2.2-1,2.9C78.6,67.8,77.6,68.1,76.3,68.1z"/>
	<path fill="#005888" d="M83,68.1c-0.3,0-0.6-0.1-0.7-0.3S82,67.4,82,67.1v-7.3c0-0.3,0.1-0.5,0.2-0.7c0.2-0.2,0.4-0.2,0.7-0.2h3.3
		c1,0,1.8,0.3,2.3,0.8c0.6,0.5,0.8,1.2,0.8,2.1c0,0.9-0.3,1.6-0.8,2.1c-0.6,0.5-1.3,0.8-2.3,0.8H84v2.5c0,0.3-0.1,0.6-0.3,0.7
		C83.6,68,83.4,68.1,83,68.1z M86,63c1,0,1.5-0.4,1.5-1.3c0-0.9-0.5-1.3-1.5-1.3h-1.9V63H86z"/>
</g>
</svg>
