<?xml version="1.0" encoding="utf-8"?>
<!-- Generator: Adobe Illustrator 24.0.1, SVG Export Plug-In . SVG Version: 6.00 Build 0)  -->
<svg version="1.1" id="Layer_1" xmlns="http://www.w3.org/2000/svg" xmlns:xlink="http://www.w3.org/1999/xlink" x="0px" y="0px"
    viewBox="0 0 149 153" enable-background="new 0 0 149 153" xml:space="preserve">
<g opacity="0.5">
	<path d="M77,17.6c0.6-0.4,1.4-0.4,2,0l50,28.8c0.6,0.4,1,1,1,1.7v57.7c0,0.7-0.4,1.4-1,1.7l-50,28.8c-0.6,0.4-1.4,0.4-2,0l-50-28.8
		c-0.6-0.4-1-1-1-1.7V48.2c0-0.7,0.4-1.4,1-1.7L77,17.6z"/>
    <g>
		<path d="M77.5,151.7c-0.3,0-0.7-0.1-1-0.3L14,115.3c-0.6-0.4-1-1-1-1.7V41.4c0-0.7,0.4-1.4,1-1.7L76.5,3.6l0,0l0,0h0.1l1.2-0.7
			l0.3,0.6c0.1,0,0.2,0.1,0.4,0.2l62.5,36c0.6,0.4,1,1,1,1.7v72.2c0,0.7-0.4,1.4-1,1.7l-62.5,36.1C78.2,151.6,77.8,151.7,77.5,151.7
			z M16,113l61.5,35.5L139,113V42L77.5,6.5L16,42V113z"/>
	</g>
</g>
    <g>

		<linearGradient id="SVGID_1_" gradientUnits="userSpaceOnUse" x1="75" y1="701.9999" x2="75" y2="821.9999" gradientTransform="matrix(1 0 0 1 0 -688)">
		<stop  offset="0" style="stop-color:#FFFFFF"/>
            <stop  offset="1" style="stop-color:#C4C4C4"/>
	</linearGradient>
        <path fill="url(#SVGID_1_)" d="M74,14.6c0.6-0.4,1.4-0.4,2,0l50,28.8c0.6,0.4,1,1,1,1.7v57.7c0,0.7-0.4,1.4-1,1.7l-50,28.8
		c-0.6,0.4-1.4,0.4-2,0l-50-28.8c-0.6-0.4-1-1-1-1.7V45.2c0-0.7,0.4-1.4,1-1.7L74,14.6z"/>
        <path fill="none" stroke="#005888" stroke-width="3" stroke-linecap="round" stroke-linejoin="round" stroke-miterlimit="10" d="
		M51,44.2h10.7c1.5,0,2.7,1.2,2.7,2.7v9.8"/>
        <path fill="none" stroke="#005888" stroke-width="3" stroke-linecap="round" stroke-linejoin="round" stroke-miterlimit="10" d="
		M82.1,57.1V46.4c0-1.5,1.2-2.6,2.7-2.6h9.8"/>
        <path fill="#005888" d="M91.3,39v10.9l8.7-6.1L91.3,39z"/>
        <path fill="#7AC4EC" stroke="#005888" stroke-width="2" stroke-miterlimit="10" d="M54.5,78.6V55c0-1.8,1.6-3.3,3.3-3l32.1,5
		c1.4,0.2,2.4,1.5,2.4,3v13.7c0,1.5-1,2.8-2.4,3l-32.1,4.9C56,81.9,54.5,80.5,54.5,78.6z"/>
        <g>
		<path fill="#FFFFFF" d="M74.5,148.7c-0.3,0-0.7-0.1-1-0.3L11,112.3c-0.6-0.4-1-1-1-1.7V38.4c0-0.7,0.4-1.4,1-1.7L73.5,0.6l0,0l0,0
			h0.1l1.2-0.7l0.3,0.6c0.1,0,0.2,0.1,0.4,0.2l62.5,36c0.6,0.4,1,1,1,1.7v72.2c0,0.7-0.4,1.4-1,1.7l-62.5,36.1
			C75.2,148.6,74.8,148.7,74.5,148.7z M13,110l61.5,35.5L136,110V39L74.5,3.5L13,39V110z"/>
	</g>
        <path fill="#3E3E3E" d="M40.6,101.1c-0.8,0-1.4-0.2-2-0.5s-1-0.8-1.3-1.4s-0.5-1.3-0.5-2.1c0-0.8,0.2-1.5,0.5-2.1s0.7-1.1,1.3-1.4
		s1.2-0.5,2-0.5c1,0,1.8,0.3,2.5,0.8c0.1,0.1,0.2,0.2,0.2,0.3c0,0.1,0.1,0.2,0.1,0.3c0,0.2-0.1,0.4-0.2,0.5
		c-0.1,0.1-0.2,0.2-0.4,0.2c-0.1,0-0.2,0-0.3,0s-0.2-0.1-0.3-0.1c-0.3-0.2-0.6-0.3-0.8-0.4s-0.5-0.1-0.8-0.1c-0.7,0-1.2,0.2-1.6,0.7
		c-0.4,0.4-0.5,1.1-0.5,1.9c0,1.7,0.7,2.6,2.1,2.6c0.3,0,0.5,0,0.8-0.1c0.2-0.1,0.5-0.2,0.8-0.4c0.1-0.1,0.2-0.1,0.3-0.1
		s0.2,0,0.3,0c0.2,0,0.3,0.1,0.4,0.2c0.1,0.1,0.2,0.3,0.2,0.5c0,0.1,0,0.2-0.1,0.3c0,0.1-0.1,0.2-0.2,0.3
		C42.4,100.8,41.6,101.1,40.6,101.1z"/>
        <path fill="#3E3E3E" d="M47.9,101.1c-0.8,0-1.4-0.2-2-0.5s-1-0.8-1.3-1.4s-0.5-1.3-0.5-2.1c0-0.8,0.2-1.5,0.5-2.1s0.7-1.1,1.3-1.4
		s1.2-0.5,2-0.5s1.4,0.2,2,0.5s1,0.8,1.3,1.4s0.5,1.3,0.5,2.1c0,0.8-0.2,1.5-0.5,2.1s-0.7,1.1-1.3,1.4
		C49.4,100.9,48.7,101.1,47.9,101.1z M47.9,99.8c0.6,0,1.2-0.2,1.5-0.7c0.4-0.5,0.6-1.1,0.6-2s-0.2-1.5-0.5-2
		c-0.4-0.5-0.9-0.7-1.5-0.7c-0.7,0-1.2,0.2-1.5,0.7c-0.4,0.4-0.5,1.1-0.5,2s0.2,1.5,0.5,2C46.8,99.5,47.3,99.8,47.9,99.8z"/>
        <path fill="#3E3E3E" d="M59.9,93.2c0.2,0,0.4,0.1,0.6,0.2c0.2,0.2,0.2,0.4,0.2,0.6v6.2c0,0.2-0.1,0.4-0.2,0.6S60.2,101,60,101
		s-0.4-0.1-0.5-0.2s-0.2-0.3-0.2-0.6v-3.9l-1.6,2.9c-0.1,0.2-0.2,0.3-0.3,0.4s-0.3,0.1-0.4,0.1c-0.2,0-0.3,0-0.4-0.1
		c-0.1-0.1-0.2-0.2-0.3-0.4l-1.6-2.9v3.8c0,0.2-0.1,0.4-0.2,0.6c-0.1,0.1-0.3,0.2-0.5,0.2s-0.4-0.1-0.5-0.2s-0.2-0.3-0.2-0.6V94
		c0-0.2,0.1-0.5,0.2-0.6c0.2-0.2,0.4-0.2,0.6-0.2c0.4,0,0.6,0.2,0.8,0.6l2.2,4.2l2.2-4.2C59.3,93.4,59.6,93.2,59.9,93.2z"/>
        <path fill="#3E3E3E" d="M63.1,101.1c-0.3,0-0.5-0.1-0.6-0.2c-0.2-0.2-0.2-0.4-0.2-0.6V94c0-0.3,0.1-0.5,0.2-0.6
		c0.1-0.1,0.3-0.2,0.6-0.2h2.8c0.8,0,1.5,0.2,2,0.6s0.7,1,0.7,1.8s-0.2,1.4-0.7,1.8s-1.1,0.6-2,0.6H64v2.1c0,0.3-0.1,0.5-0.2,0.6
		S63.4,101.1,63.1,101.1z M65.6,96.8c0.9,0,1.3-0.4,1.3-1.1s-0.4-1.1-1.3-1.1H64v2.2H65.6z"/>
        <path fill="#3E3E3E" d="M76,99.9c0.1,0.2,0.2,0.3,0.2,0.5s-0.1,0.4-0.3,0.5c-0.2,0.1-0.4,0.2-0.6,0.2c-0.1,0-0.3,0-0.4-0.1
		s-0.2-0.2-0.3-0.3l-1.5-2.2c-0.1-0.2-0.3-0.3-0.4-0.4C72.6,98,72.4,98,72.2,98h-0.9v2.2c0,0.3-0.1,0.5-0.2,0.6
		c-0.1,0.2-0.3,0.2-0.6,0.2c-0.3,0-0.5-0.1-0.6-0.2c-0.2-0.2-0.2-0.4-0.2-0.6V94c0-0.3,0.1-0.5,0.2-0.6s0.3-0.2,0.6-0.2h2.8
		c0.9,0,1.6,0.2,2.1,0.6s0.7,1,0.7,1.7c0,0.6-0.2,1.1-0.5,1.5s-0.8,0.7-1.4,0.8c0.2,0,0.4,0.1,0.6,0.3c0.2,0.1,0.3,0.3,0.5,0.5
		L76,99.9z M72.9,96.7c0.5,0,0.8-0.1,1.1-0.3c0.2-0.2,0.3-0.4,0.3-0.8S74.2,95,74,94.8s-0.6-0.3-1.1-0.3h-1.6v2.1h1.6V96.7z"/>
        <path fill="#3E3E3E" d="M78.2,101c-0.3,0-0.5-0.1-0.6-0.2s-0.2-0.3-0.2-0.6V94c0-0.3,0.1-0.5,0.2-0.6s0.3-0.2,0.6-0.2H82
		c0.5,0,0.8,0.2,0.8,0.7c0,0.4-0.3,0.7-0.8,0.7h-3v1.8h2.8c0.5,0,0.8,0.2,0.8,0.7c0,0.4-0.3,0.7-0.8,0.7H79v1.9h3
		c0.5,0,0.8,0.2,0.8,0.7c0,0.4-0.3,0.7-0.8,0.7h-3.8V101z"/>
        <path fill="#3E3E3E" d="M86.6,101.1c-0.6,0-1.1-0.1-1.6-0.2s-0.9-0.3-1.2-0.6c-0.1-0.1-0.2-0.2-0.2-0.3c0-0.1-0.1-0.2-0.1-0.4
		c0-0.2,0.1-0.3,0.2-0.5c0.1-0.1,0.2-0.2,0.4-0.2c0.1,0,0.2,0,0.2,0c0.1,0,0.2,0.1,0.3,0.1c0.3,0.2,0.6,0.3,1,0.4
		c0.3,0.1,0.7,0.1,1.1,0.1c0.5,0,0.9-0.1,1.1-0.2s0.4-0.4,0.4-0.7c0-0.2-0.1-0.4-0.4-0.6c-0.2-0.1-0.7-0.3-1.3-0.4
		c-0.7-0.1-1.2-0.3-1.6-0.5s-0.7-0.4-0.9-0.7c-0.2-0.3-0.3-0.6-0.3-1.1s0.1-0.9,0.4-1.2c0.3-0.4,0.6-0.7,1.1-0.9
		c0.5-0.2,1-0.3,1.6-0.3c1,0,1.9,0.3,2.6,0.8c0.1,0.1,0.2,0.2,0.2,0.3c0.1,0.1,0.1,0.2,0.1,0.3c0,0.2-0.1,0.3-0.2,0.5
		c-0.1,0.1-0.2,0.2-0.4,0.2c-0.1,0-0.2,0-0.2,0c-0.1,0-0.2-0.1-0.3-0.1c-0.3-0.2-0.6-0.3-0.8-0.4c-0.2-0.1-0.6-0.1-1-0.1
		s-0.8,0.1-1.1,0.3c-0.3,0.2-0.4,0.4-0.4,0.7c0,0.2,0,0.3,0.1,0.4s0.3,0.2,0.5,0.3c0.2,0.1,0.6,0.2,1,0.3c1,0.2,1.7,0.5,2.1,0.8
		s0.7,0.8,0.7,1.4c0,0.5-0.1,0.9-0.4,1.2c-0.3,0.4-0.6,0.6-1.1,0.8C87.7,101,87.2,101.1,86.6,101.1z"/>
        <path fill="#3E3E3E" d="M93.7,101.1c-0.6,0-1.1-0.1-1.6-0.2s-0.9-0.3-1.2-0.6c-0.1-0.1-0.2-0.2-0.2-0.3c0-0.1-0.1-0.2-0.1-0.4
		c0-0.2,0.1-0.3,0.2-0.5c0.1-0.1,0.2-0.2,0.4-0.2c0.1,0,0.2,0,0.2,0c0.1,0,0.2,0.1,0.3,0.1c0.3,0.2,0.6,0.3,1,0.4
		c0.3,0.1,0.7,0.1,1.1,0.1c0.5,0,0.9-0.1,1.1-0.2c0.3-0.2,0.4-0.4,0.4-0.7c0-0.2-0.1-0.4-0.4-0.6c-0.2-0.1-0.7-0.3-1.3-0.4
		c-0.7-0.1-1.2-0.3-1.6-0.5s-0.7-0.4-0.9-0.7c-0.2-0.3-0.3-0.6-0.3-1.1s0.1-0.9,0.4-1.2c0.3-0.4,0.6-0.7,1.1-0.9
		c0.5-0.2,1-0.3,1.6-0.3c1,0,1.9,0.3,2.6,0.8c0.1,0.1,0.2,0.2,0.2,0.3c0.1,0.1,0.1,0.2,0.1,0.3c0,0.2-0.1,0.3-0.2,0.5
		c-0.1,0.1-0.2,0.2-0.4,0.2c-0.1,0-0.2,0-0.2,0c-0.1,0-0.2-0.1-0.3-0.1c-0.3-0.2-0.6-0.3-0.8-0.4c-0.2-0.1-0.6-0.1-1-0.1
		s-0.8,0.1-1.1,0.3c-0.3,0.2-0.4,0.4-0.4,0.7c0,0.2,0,0.3,0.1,0.4s0.3,0.2,0.5,0.3c0.2,0.1,0.6,0.2,1,0.3c1,0.2,1.7,0.5,2.1,0.8
		s0.7,0.8,0.7,1.4c0,0.5-0.1,0.9-0.4,1.2c-0.3,0.4-0.6,0.6-1.1,0.8C94.9,101,94.3,101.1,93.7,101.1z"/>
        <path fill="#3E3E3E" d="M101.7,101.1c-0.8,0-1.4-0.2-2-0.5s-1-0.8-1.3-1.4s-0.5-1.3-0.5-2.1c0-0.8,0.2-1.5,0.5-2.1s0.7-1.1,1.3-1.4
		c0.6-0.3,1.2-0.5,2-0.5s1.4,0.2,2,0.5s1,0.8,1.3,1.4s0.5,1.3,0.5,2.1c0,0.8-0.2,1.5-0.5,2.1s-0.7,1.1-1.3,1.4
		C103.1,100.9,102.4,101.1,101.7,101.1z M101.7,99.8c0.6,0,1.2-0.2,1.5-0.7c0.4-0.5,0.6-1.1,0.6-2s-0.2-1.5-0.6-2s-0.9-0.7-1.5-0.7
		s-1.2,0.2-1.5,0.7c-0.4,0.4-0.5,1.1-0.5,2s0.2,1.5,0.5,2C100.5,99.5,101,99.8,101.7,99.8z"/>
        <path fill="#3E3E3E" d="M113.1,99.9c0.1,0.2,0.2,0.3,0.2,0.5s-0.1,0.4-0.3,0.5c-0.2,0.1-0.4,0.2-0.6,0.2c-0.1,0-0.3,0-0.4-0.1
		s-0.2-0.2-0.3-0.3l-1.5-2.2c-0.1-0.2-0.3-0.3-0.4-0.4s-0.3-0.1-0.5-0.1h-0.9v2.2c0,0.3-0.1,0.5-0.2,0.6c-0.1,0.2-0.3,0.2-0.6,0.2
		c-0.3,0-0.5-0.1-0.6-0.2s-0.2-0.4-0.2-0.6V94c0-0.3,0.1-0.5,0.2-0.6s0.3-0.2,0.6-0.2h2.8c0.9,0,1.6,0.2,2.1,0.6s0.7,1,0.7,1.7
		c0,0.6-0.2,1.1-0.5,1.5s-0.8,0.7-1.4,0.8c0.2,0,0.4,0.1,0.6,0.3c0.2,0.1,0.3,0.3,0.5,0.5L113.1,99.9z M110.1,96.7
		c0.5,0,0.8-0.1,1.1-0.3c0.2-0.2,0.3-0.4,0.3-0.8s-0.1-0.6-0.3-0.8s-0.6-0.3-1.1-0.3h-1.6v2.1h1.6V96.7z"/>
</g>
</svg>
