<?xml version="1.0" encoding="utf-8"?>
<!-- Generator: Adobe Illustrator 24.0.1, SVG Export Plug-In . SVG Version: 6.00 Build 0)  -->
<svg version="1.1" id="Layer_1" xmlns="http://www.w3.org/2000/svg" xmlns:xlink="http://www.w3.org/1999/xlink" x="0px" y="0px"
    viewBox="0 0 149 153" enable-background="new 0 0 149 153" xml:space="preserve">
<g opacity="0.5">
	<path d="M77,17.6c0.6-0.4,1.4-0.4,2,0l50,28.8c0.6,0.4,1,1,1,1.7v57.7c0,0.7-0.4,1.4-1,1.7l-50,28.8c-0.6,0.4-1.4,0.4-2,0l-50-28.8
		c-0.6-0.4-1-1-1-1.7V48.2c0-0.7,0.4-1.4,1-1.7L77,17.6z"/>
    <g>
		<path d="M77.5,151.7c-0.3,0-0.7-0.1-1-0.3L14,115.3c-0.6-0.4-1-1-1-1.7V41.4c0-0.7,0.4-1.4,1-1.7L76.5,3.6l0,0l0,0h0.1l1.2-0.7
			l0.3,0.6c0.1,0,0.2,0.1,0.4,0.2l62.5,36c0.6,0.4,1,1,1,1.7v72.2c0,0.7-0.4,1.4-1,1.7l-62.5,36.1C78.2,151.6,77.8,151.7,77.5,151.7
			z M16,113l61.5,35.5L139,113V42L77.5,6.5L16,42V113z"/>
	</g>
</g>
    <g>

		<linearGradient id="SVGID_1_" gradientUnits="userSpaceOnUse" x1="75.0003" y1="139.8903" x2="75.0003" y2="19.8898" gradientTransform="matrix(1 0 0 -1 0 153.8898)">
		<stop  offset="0" style="stop-color:#FFFFFF"/>
            <stop  offset="1" style="stop-color:#C4C4C4"/>
	</linearGradient>
        <path fill="url(#SVGID_1_)" d="M74,14.58c0.62-0.36,1.38-0.36,2,0l49.96,28.85c0.62,0.36,1,1.02,1,1.73v57.69
		c0,0.71-0.38,1.38-1,1.73L76,133.42c-0.62,0.36-1.38,0.36-2,0l-49.96-28.85c-0.62-0.36-1-1.02-1-1.73V45.15
		c0-0.71,0.38-1.37,1-1.73L74,14.58z"/>
        <path fill-rule="evenodd" clip-rule="evenodd" fill="#5CB3E2" d="M66.68,37.36h-4.13c-0.31,0-0.58,0.12-0.78,0.32
		c-0.2,0.2-0.32,0.48-0.32,0.78v33.29c0,0.31,0.12,0.58,0.32,0.78c0.2,0.2,0.48,0.32,0.78,0.32h26.9c0.31,0,0.58-0.12,0.78-0.32
		c0.2-0.2,0.32-0.48,0.32-0.78V38.48c0-0.31-0.12-0.58-0.32-0.78c-0.2-0.2-0.48-0.32-0.78-0.32h-3.77H66.68V37.36z"/>
        <path fill="#005888" d="M85.49,37.36c0.4,0,0.72-0.32,0.72-0.72s-0.32-0.72-0.72-0.72H62.55c-0.7,0.01-1.34,0.3-1.8,0.76
		c-0.46,0.46-0.75,1.09-0.75,1.8v33.29c0,0.7,0.29,1.34,0.75,1.8s1.09,0.75,1.8,0.75h26.9c0.7,0,1.34-0.29,1.8-0.75
		c0.46-0.46,0.75-1.09,0.75-1.8V38.48c0-0.7-0.29-1.34-0.75-1.8c-0.46-0.46-1.09-0.75-1.8-0.75h-4.46c-0.4,0-0.72,0.32-0.72,0.72
		s0.32,0.72,0.72,0.72h4.46c0.31,0,0.58,0.12,0.78,0.32c0.2,0.2,0.32,0.48,0.32,0.78v33.29c0,0.31-0.12,0.58-0.32,0.78
		c-0.2,0.2-0.48,0.32-0.78,0.32h-26.9c-0.31,0-0.58-0.12-0.78-0.32c-0.2-0.2-0.32-0.48-0.32-0.78V38.48c0-0.31,0.12-0.58,0.32-0.78
		c0.2-0.2,0.48-0.32,0.78-0.32h22.94V37.36z"/>
        <path fill="#005888" d="M75.43,41.91c-0.4,0-0.72,0.32-0.72,0.72c0,0.4,0.32,0.72,0.72,0.72h11.29c0.4,0,0.72-0.32,0.72-0.72
		c0-0.4-0.32-0.72-0.72-0.72H75.43z"/>
        <path fill="#005888" d="M75.43,45.33c-0.4,0-0.72,0.32-0.72,0.72s0.32,0.72,0.72,0.72h11.29c0.4,0,0.72-0.32,0.72-0.72
		s-0.32-0.72-0.72-0.72H75.43z"/>
        <path fill-rule="evenodd" clip-rule="evenodd" fill="#FFFFFF" d="M68.29,44.56l2.03-1.75c0.3-0.26,0.75-0.22,1.01,0.07
		s0.22,0.75-0.07,1.01l-2.57,2.23c-0.3,0.25-0.76,0.21-1.01-0.09l-0.86-1.02c-0.25-0.3-0.21-0.75,0.09-1.01
		c0.3-0.25,0.75-0.21,1.01,0.09L68.29,44.56z M66.27,48.23h5.59c0.61,0,1.09-0.5,1.09-1.09v-5.59c0-0.61-0.5-1.09-1.09-1.09h-5.59
		c-0.61,0-1.09,0.5-1.09,1.09v5.59C65.17,47.74,65.67,48.23,66.27,48.23z"/>
        <path fill="#005888" d="M75.43,52.5c-0.4,0-0.72,0.32-0.72,0.72c0,0.4,0.32,0.72,0.72,0.72h11.29c0.4,0,0.72-0.32,0.72-0.72
		c0-0.4-0.32-0.72-0.72-0.72H75.43z"/>
        <path fill="#005888" d="M75.43,55.92c-0.4,0-0.72,0.32-0.72,0.72c0,0.4,0.32,0.72,0.72,0.72h11.29c0.4,0,0.72-0.32,0.72-0.72
		c0-0.4-0.32-0.72-0.72-0.72H75.43z"/>
        <path fill-rule="evenodd" clip-rule="evenodd" fill="#FFFFFF" d="M68.29,55.14l2.03-1.74c0.3-0.26,0.75-0.22,1.01,0.07
		s0.22,0.75-0.07,1.01l-2.57,2.21c-0.3,0.25-0.76,0.21-1.01-0.09l-0.86-1.02c-0.25-0.3-0.21-0.75,0.09-1.01
		c0.3-0.25,0.75-0.21,1.01,0.09L68.29,55.14z M66.27,58.82h5.59c0.61,0,1.09-0.5,1.09-1.09v-5.59c0-0.61-0.5-1.09-1.09-1.09h-5.59
		c-0.61,0-1.09,0.5-1.09,1.09v5.59C65.17,58.33,65.67,58.82,66.27,58.82z"/>
        <path fill="#005888" d="M75.43,63.08c-0.4,0-0.72,0.32-0.72,0.72c0,0.4,0.32,0.72,0.72,0.72h11.29c0.4,0,0.72-0.32,0.72-0.72
		c0-0.4-0.32-0.72-0.72-0.72H75.43z"/>
        <path fill="#005888" d="M75.43,66.52c-0.4,0-0.72,0.32-0.72,0.72c0,0.4,0.32,0.72,0.72,0.72h11.29c0.4,0,0.72-0.32,0.72-0.72
		c0-0.4-0.32-0.72-0.72-0.72H75.43z"/>
        <path fill-rule="evenodd" clip-rule="evenodd" fill="#FFFFFF" d="M68.29,65.73l2.03-1.74c0.3-0.26,0.75-0.22,1.01,0.07
		c0.26,0.3,0.22,0.75-0.07,1.01l-2.57,2.21c-0.3,0.25-0.76,0.21-1.01-0.09l-0.86-1.02c-0.25-0.3-0.21-0.75,0.09-1.01
		c0.3-0.25,0.75-0.21,1.01,0.09L68.29,65.73z M66.27,69.41h5.59c0.61,0,1.09-0.5,1.09-1.09v-5.59c0-0.61-0.5-1.09-1.09-1.09h-5.59
		c-0.61,0-1.09,0.5-1.09,1.09v5.59C65.17,68.91,65.67,69.41,66.27,69.41z"/>
        <g>
		<path fill="#FFFFFF" d="M74.5,148.69c-0.34,0-0.69-0.09-1-0.26l-62.52-36.1c-0.62-0.36-1-1.02-1-1.73V38.4
			c0-0.71,0.38-1.38,1-1.73L73.5,0.58c0.62-0.36,1.38-0.36,2,0v0l62.52,36.1c0.62,0.35,1,1.02,1,1.73v72.19c0,0.71-0.38,1.38-1,1.73
			l-62.52,36.1C75.19,148.6,74.84,148.69,74.5,148.69z M12.98,110.02l61.52,35.52l61.52-35.52V38.98L74.5,3.46L12.98,38.98V110.02z"
        />
	</g>
        <path fill="#3E3E3E" d="M33.89,90.1c-0.76,0-1.43-0.16-2-0.48c-0.57-0.32-1.01-0.78-1.32-1.39c-0.31-0.6-0.46-1.31-0.46-2.11
		s0.15-1.51,0.46-2.1c0.31-0.6,0.75-1.06,1.32-1.39c0.57-0.32,1.24-0.48,2-0.48c0.96,0,1.79,0.26,2.49,0.79
		c0.11,0.09,0.19,0.18,0.23,0.26c0.04,0.09,0.07,0.2,0.07,0.33c0,0.19-0.06,0.36-0.17,0.49c-0.1,0.13-0.23,0.2-0.38,0.2
		c-0.1,0-0.19-0.01-0.28-0.03c-0.07-0.03-0.16-0.08-0.25-0.14c-0.29-0.19-0.56-0.33-0.81-0.41c-0.25-0.09-0.52-0.13-0.8-0.13
		c-0.7,0-1.24,0.22-1.6,0.66c-0.35,0.43-0.53,1.08-0.53,1.95c0,1.75,0.71,2.62,2.12,2.62c0.27,0,0.53-0.04,0.77-0.12
		c0.24-0.09,0.52-0.23,0.85-0.42c0.11-0.07,0.2-0.11,0.27-0.13c0.07-0.03,0.16-0.04,0.25-0.04c0.15,0,0.28,0.07,0.38,0.21
		c0.11,0.13,0.17,0.29,0.17,0.48c0,0.13-0.03,0.25-0.08,0.34c-0.04,0.09-0.12,0.17-0.22,0.25C35.68,89.83,34.85,90.1,33.89,90.1z"/>
        <path fill="#3E3E3E" d="M41.18,90.1c-0.77,0-1.44-0.16-2.01-0.48c-0.56-0.33-1-0.79-1.31-1.39c-0.31-0.6-0.46-1.31-0.46-2.11
		s0.15-1.51,0.46-2.1c0.31-0.6,0.74-1.06,1.31-1.39c0.57-0.32,1.24-0.48,2.01-0.48s1.44,0.16,2,0.48c0.57,0.32,1.01,0.78,1.32,1.39
		c0.31,0.59,0.46,1.29,0.46,2.1s-0.15,1.51-0.46,2.11c-0.31,0.59-0.75,1.06-1.32,1.39C42.62,89.94,41.95,90.1,41.18,90.1z
		 M41.18,88.77c0.65,0,1.15-0.23,1.52-0.68c0.37-0.45,0.56-1.11,0.56-1.97s-0.18-1.51-0.55-1.96c-0.37-0.45-0.88-0.68-1.53-0.68
		c-0.65,0-1.16,0.23-1.53,0.68c-0.36,0.45-0.54,1.1-0.54,1.96s0.18,1.51,0.55,1.97C40.03,88.54,40.54,88.77,41.18,88.77z"/>
        <path fill="#3E3E3E" d="M52.2,82.19c0.24,0,0.44,0.08,0.58,0.24c0.15,0.15,0.23,0.36,0.23,0.6v6.17c0,0.26-0.08,0.47-0.23,0.63
		c-0.15,0.15-0.34,0.23-0.58,0.23c-0.26,0-0.48-0.1-0.64-0.29l-3.68-4.72v4.15c0,0.26-0.07,0.47-0.22,0.63
		c-0.14,0.15-0.33,0.23-0.57,0.23s-0.44-0.08-0.58-0.23c-0.15-0.16-0.22-0.37-0.22-0.63v-6.17c0-0.25,0.07-0.45,0.22-0.6
		c0.15-0.16,0.35-0.24,0.59-0.24c0.27,0,0.48,0.1,0.63,0.29l3.68,4.69v-4.13c0-0.25,0.07-0.45,0.22-0.6
		C51.77,82.27,51.96,82.19,52.2,82.19z"/>
        <path fill="#3E3E3E" d="M57.2,90.05c-0.26,0-0.47-0.08-0.63-0.23c-0.15-0.15-0.23-0.36-0.23-0.62v-5.57h-1.78
		c-0.54,0-0.81-0.23-0.81-0.7c0-0.46,0.27-0.69,0.81-0.69h5.28c0.54,0,0.81,0.23,0.81,0.69c0,0.47-0.27,0.7-0.81,0.7h-1.78v5.57
		c0,0.26-0.08,0.46-0.23,0.62S57.46,90.05,57.2,90.05z"/>
        <path fill="#3E3E3E" d="M67.75,88.91c0.11,0.16,0.17,0.32,0.17,0.47c0,0.21-0.08,0.37-0.25,0.51c-0.16,0.13-0.35,0.2-0.57,0.2
		c-0.14,0-0.28-0.03-0.41-0.1c-0.13-0.07-0.24-0.17-0.33-0.31l-1.45-2.16c-0.12-0.19-0.26-0.33-0.4-0.41
		c-0.14-0.09-0.32-0.13-0.53-0.13h-0.89v2.22c0,0.26-0.08,0.47-0.23,0.63c-0.15,0.15-0.35,0.23-0.6,0.23
		c-0.26,0-0.47-0.08-0.63-0.23c-0.15-0.15-0.23-0.36-0.23-0.63v-6.16c0-0.26,0.07-0.45,0.21-0.59c0.14-0.14,0.34-0.21,0.59-0.21
		h2.76c0.91,0,1.6,0.2,2.06,0.61c0.47,0.4,0.7,0.97,0.7,1.73c0,0.59-0.17,1.09-0.5,1.49c-0.33,0.4-0.8,0.66-1.4,0.78
		c0.22,0.04,0.41,0.13,0.58,0.26c0.18,0.12,0.34,0.31,0.51,0.55L67.75,88.91z M64.7,85.69c0.49,0,0.85-0.08,1.07-0.25
		c0.22-0.18,0.33-0.45,0.33-0.81c0-0.37-0.11-0.65-0.33-0.81c-0.22-0.17-0.58-0.25-1.07-0.25h-1.64v2.13H64.7z"/>
        <path fill="#3E3E3E" d="M72.61,90.1c-0.77,0-1.44-0.16-2.01-0.48c-0.56-0.33-1-0.79-1.31-1.39c-0.31-0.6-0.46-1.31-0.46-2.11
		s0.15-1.51,0.46-2.1c0.31-0.6,0.74-1.06,1.31-1.39c0.57-0.32,1.24-0.48,2.01-0.48c0.77,0,1.44,0.16,2,0.48
		c0.57,0.32,1.01,0.78,1.32,1.39c0.31,0.59,0.46,1.29,0.46,2.1s-0.15,1.51-0.46,2.11c-0.31,0.59-0.75,1.06-1.32,1.39
		C74.05,89.94,73.38,90.1,72.61,90.1z M72.61,88.77c0.65,0,1.15-0.23,1.52-0.68c0.37-0.45,0.56-1.11,0.56-1.97s-0.18-1.51-0.55-1.96
		c-0.37-0.45-0.88-0.68-1.53-0.68c-0.65,0-1.16,0.23-1.53,0.68c-0.36,0.45-0.54,1.1-0.54,1.96s0.18,1.51,0.55,1.97
		C71.46,88.54,71.97,88.77,72.61,88.77z"/>
        <path fill="#3E3E3E" d="M78.51,90c-0.26,0-0.45-0.07-0.59-0.21c-0.14-0.14-0.21-0.34-0.21-0.59v-6.16c0-0.26,0.08-0.46,0.23-0.62
		c0.15-0.15,0.36-0.23,0.63-0.23s0.47,0.08,0.63,0.23s0.23,0.36,0.23,0.62v5.57h2.82c0.54,0,0.8,0.23,0.8,0.7
		c0,0.46-0.27,0.69-0.8,0.69H78.51z"/>
        <path fill="#3E3E3E" d="M93.34,88.91c0.11,0.16,0.16,0.32,0.16,0.47c0,0.21-0.08,0.37-0.25,0.51c-0.16,0.13-0.35,0.2-0.57,0.2
		c-0.14,0-0.28-0.03-0.41-0.1c-0.13-0.07-0.24-0.17-0.33-0.31l-1.45-2.16c-0.12-0.19-0.26-0.33-0.4-0.41
		c-0.14-0.09-0.32-0.13-0.53-0.13h-0.89v2.22c0,0.26-0.08,0.47-0.23,0.63c-0.15,0.15-0.35,0.23-0.6,0.23
		c-0.26,0-0.47-0.08-0.63-0.23c-0.15-0.15-0.23-0.36-0.23-0.63v-6.16c0-0.26,0.07-0.45,0.21-0.59c0.14-0.14,0.34-0.21,0.59-0.21
		h2.76c0.91,0,1.6,0.2,2.06,0.61c0.47,0.4,0.7,0.97,0.7,1.73c0,0.59-0.17,1.09-0.49,1.49c-0.33,0.4-0.8,0.66-1.4,0.78
		c0.22,0.04,0.41,0.13,0.58,0.26c0.18,0.12,0.34,0.31,0.51,0.55L93.34,88.91z M90.29,85.69c0.49,0,0.85-0.08,1.07-0.25
		c0.22-0.18,0.33-0.45,0.33-0.81c0-0.37-0.11-0.65-0.33-0.81c-0.22-0.17-0.58-0.25-1.07-0.25h-1.64v2.13H90.29z"/>
        <path fill="#3E3E3E" d="M98.2,90.1c-0.77,0-1.44-0.16-2.01-0.48c-0.56-0.33-1-0.79-1.31-1.39c-0.31-0.6-0.46-1.31-0.46-2.11
		s0.15-1.51,0.46-2.1c0.31-0.6,0.74-1.06,1.31-1.39c0.57-0.32,1.24-0.48,2.01-0.48c0.77,0,1.44,0.16,2,0.48
		c0.57,0.32,1.01,0.78,1.32,1.39c0.31,0.59,0.46,1.29,0.46,2.1s-0.15,1.51-0.46,2.11c-0.31,0.59-0.75,1.06-1.32,1.39
		C99.64,89.94,98.97,90.1,98.2,90.1z M98.2,88.77c0.65,0,1.15-0.23,1.52-0.68c0.37-0.45,0.56-1.11,0.56-1.97s-0.18-1.51-0.55-1.96
		c-0.37-0.45-0.88-0.68-1.53-0.68c-0.65,0-1.16,0.23-1.53,0.68c-0.36,0.45-0.54,1.1-0.54,1.96s0.18,1.51,0.55,1.97
		C97.05,88.54,97.56,88.77,98.2,88.77z"/>
        <path fill="#3E3E3E" d="M106.86,90.1c-0.77,0-1.44-0.16-2.01-0.48c-0.57-0.33-1-0.79-1.31-1.39c-0.31-0.6-0.46-1.31-0.46-2.11
		s0.15-1.51,0.46-2.1c0.31-0.6,0.74-1.06,1.31-1.39c0.57-0.32,1.24-0.48,2.01-0.48s1.44,0.16,2,0.48c0.57,0.32,1.01,0.78,1.32,1.39
		c0.31,0.59,0.46,1.29,0.46,2.1s-0.15,1.51-0.46,2.11c-0.31,0.59-0.75,1.06-1.32,1.39C108.3,89.94,107.63,90.1,106.86,90.1z
		 M106.86,88.77c0.64,0,1.15-0.23,1.52-0.68c0.37-0.45,0.56-1.11,0.56-1.97s-0.18-1.51-0.55-1.96c-0.37-0.45-0.88-0.68-1.53-0.68
		c-0.65,0-1.16,0.23-1.53,0.68c-0.36,0.45-0.54,1.1-0.54,1.96s0.18,1.51,0.55,1.97C105.71,88.54,106.21,88.77,106.86,88.77z"/>
        <path fill="#3E3E3E" d="M118.84,82.19c0.24,0,0.44,0.08,0.58,0.24c0.15,0.15,0.23,0.36,0.23,0.6v6.25c0,0.24-0.07,0.43-0.21,0.57
		s-0.32,0.21-0.55,0.21c-0.22,0-0.4-0.07-0.54-0.21s-0.21-0.33-0.21-0.57V85.4l-1.56,2.94c-0.1,0.19-0.22,0.33-0.34,0.42
		c-0.12,0.09-0.26,0.13-0.43,0.13c-0.16,0-0.3-0.04-0.43-0.13s-0.24-0.23-0.34-0.42l-1.56-2.88v3.83c0,0.23-0.07,0.43-0.21,0.57
		c-0.14,0.14-0.32,0.21-0.55,0.21c-0.22,0-0.4-0.07-0.54-0.21s-0.21-0.33-0.21-0.57v-6.25c0-0.25,0.07-0.45,0.22-0.6
		c0.15-0.16,0.35-0.24,0.59-0.24c0.35,0,0.62,0.19,0.8,0.56l2.23,4.23l2.22-4.23C118.25,82.38,118.51,82.19,118.84,82.19z"/>
        <path fill="#3E3E3E" d="M41.33,105c-0.26,0-0.45-0.07-0.59-0.21c-0.14-0.14-0.21-0.34-0.21-0.59v-6.15c0-0.26,0.07-0.45,0.21-0.59
		c0.14-0.14,0.34-0.21,0.59-0.21h2.21c0.84,0,1.57,0.15,2.18,0.46c0.61,0.31,1.07,0.75,1.4,1.33c0.32,0.58,0.48,1.27,0.48,2.08
		c0,0.81-0.16,1.5-0.48,2.09c-0.32,0.58-0.78,1.02-1.39,1.33c-0.61,0.31-1.34,0.46-2.19,0.46H41.33z M43.42,103.61
		c1.65,0,2.48-0.83,2.48-2.5c0-1.66-0.83-2.49-2.48-2.49h-1.18v4.98H43.42z"/>
        <path fill="#3E3E3E" d="M52.48,105.1c-0.77,0-1.44-0.16-2.01-0.48c-0.56-0.33-1-0.79-1.31-1.39c-0.31-0.6-0.46-1.31-0.46-2.11
		c0-0.81,0.15-1.51,0.46-2.1c0.31-0.6,0.74-1.06,1.31-1.39c0.57-0.32,1.24-0.48,2.01-0.48s1.44,0.16,2,0.48
		c0.57,0.32,1.01,0.78,1.32,1.39c0.31,0.59,0.46,1.29,0.46,2.1c0,0.81-0.15,1.51-0.46,2.11c-0.31,0.59-0.75,1.06-1.32,1.39
		C53.92,104.94,53.25,105.1,52.48,105.1z M52.48,103.77c0.65,0,1.15-0.23,1.52-0.68c0.37-0.46,0.56-1.11,0.56-1.97
		c0-0.86-0.18-1.51-0.55-1.96c-0.37-0.45-0.88-0.68-1.53-0.68s-1.16,0.23-1.53,0.68c-0.36,0.45-0.54,1.1-0.54,1.96
		c0,0.86,0.18,1.51,0.55,1.97C51.33,103.54,51.84,103.77,52.48,103.77z"/>
        <path fill="#3E3E3E" d="M61.14,105.1c-0.76,0-1.43-0.16-2-0.48c-0.57-0.32-1.01-0.78-1.32-1.39c-0.31-0.6-0.46-1.31-0.46-2.11
		c0-0.81,0.15-1.51,0.46-2.1c0.31-0.6,0.75-1.06,1.32-1.39s1.24-0.48,2-0.48c0.96,0,1.79,0.26,2.49,0.79
		c0.11,0.09,0.19,0.18,0.23,0.26c0.04,0.09,0.07,0.2,0.07,0.33c0,0.19-0.06,0.36-0.17,0.49c-0.1,0.13-0.23,0.2-0.38,0.2
		c-0.1,0-0.19-0.01-0.28-0.03c-0.07-0.03-0.16-0.08-0.25-0.14c-0.29-0.19-0.56-0.33-0.81-0.41c-0.25-0.09-0.52-0.13-0.8-0.13
		c-0.7,0-1.24,0.22-1.6,0.66c-0.35,0.43-0.53,1.08-0.53,1.95c0,1.75,0.71,2.62,2.12,2.62c0.27,0,0.53-0.04,0.77-0.12
		c0.24-0.09,0.52-0.23,0.85-0.42c0.11-0.07,0.2-0.11,0.27-0.13c0.07-0.03,0.16-0.04,0.25-0.04c0.15,0,0.28,0.07,0.38,0.21
		c0.11,0.13,0.17,0.29,0.17,0.48c0,0.13-0.03,0.25-0.08,0.34c-0.04,0.09-0.12,0.17-0.22,0.25C62.93,104.83,62.1,105.1,61.14,105.1z"
        />
        <path fill="#3E3E3E" d="M68.32,105.1c-1.09,0-1.91-0.28-2.49-0.84c-0.56-0.57-0.85-1.39-0.85-2.46v-3.76
		c0-0.26,0.08-0.46,0.23-0.62s0.36-0.23,0.62-0.23s0.46,0.08,0.61,0.23c0.15,0.15,0.23,0.36,0.23,0.62v3.84
		c0,0.62,0.14,1.08,0.42,1.41c0.29,0.32,0.7,0.48,1.23,0.48s0.95-0.16,1.23-0.48c0.29-0.33,0.43-0.8,0.43-1.41v-3.84
		c0-0.26,0.07-0.46,0.22-0.62c0.15-0.15,0.36-0.23,0.62-0.23s0.46,0.08,0.62,0.23s0.23,0.36,0.23,0.62v3.76
		c0,1.07-0.29,1.89-0.86,2.45C70.24,104.82,69.41,105.1,68.32,105.1z"/>
        <path fill="#3E3E3E" d="M80.05,97.19c0.24,0,0.44,0.08,0.58,0.24c0.15,0.15,0.23,0.36,0.23,0.6v6.25c0,0.24-0.07,0.43-0.21,0.57
		c-0.14,0.14-0.32,0.21-0.55,0.21c-0.22,0-0.4-0.07-0.54-0.21c-0.14-0.14-0.21-0.33-0.21-0.57v-3.88l-1.56,2.94
		c-0.1,0.19-0.22,0.33-0.34,0.42c-0.12,0.09-0.26,0.13-0.43,0.13c-0.16,0-0.3-0.04-0.43-0.13c-0.12-0.09-0.24-0.23-0.34-0.42
		l-1.56-2.88v3.83c0,0.23-0.07,0.42-0.21,0.57c-0.14,0.14-0.32,0.21-0.55,0.21c-0.22,0-0.4-0.07-0.54-0.21
		c-0.14-0.14-0.21-0.33-0.21-0.57v-6.25c0-0.25,0.07-0.45,0.22-0.6c0.15-0.16,0.35-0.24,0.59-0.24c0.35,0,0.62,0.19,0.8,0.56
		l2.23,4.24l2.22-4.24C79.46,97.38,79.72,97.19,80.05,97.19z"/>
        <path fill="#3E3E3E" d="M83.23,105c-0.26,0-0.45-0.07-0.59-0.21c-0.14-0.14-0.21-0.34-0.21-0.59v-6.15c0-0.26,0.07-0.45,0.21-0.59
		c0.14-0.14,0.34-0.21,0.59-0.21h3.89c0.54,0,0.81,0.22,0.81,0.66c0,0.45-0.27,0.67-0.81,0.67H84.1v1.82h2.81
		c0.54,0,0.81,0.22,0.81,0.67c0,0.44-0.27,0.66-0.81,0.66H84.1v1.95h3.02c0.54,0,0.81,0.22,0.81,0.67c0,0.44-0.27,0.66-0.81,0.66
		H83.23z"/>
        <path fill="#3E3E3E" d="M94.86,97.19c0.24,0,0.44,0.08,0.58,0.24c0.15,0.15,0.23,0.36,0.23,0.6v6.17c0,0.26-0.08,0.46-0.23,0.63
		c-0.15,0.15-0.34,0.23-0.58,0.23c-0.26,0-0.48-0.1-0.64-0.29l-3.68-4.72v4.15c0,0.26-0.07,0.46-0.22,0.63
		c-0.14,0.15-0.33,0.23-0.57,0.23s-0.44-0.08-0.58-0.23c-0.15-0.16-0.22-0.37-0.22-0.63v-6.17c0-0.25,0.07-0.45,0.22-0.6
		c0.15-0.16,0.35-0.24,0.59-0.24c0.27,0,0.48,0.1,0.63,0.29l3.68,4.69v-4.13c0-0.25,0.07-0.45,0.22-0.6
		C94.44,97.27,94.63,97.19,94.86,97.19z"/>
        <path fill="#3E3E3E" d="M99.87,105.05c-0.26,0-0.47-0.08-0.63-0.23c-0.15-0.15-0.23-0.36-0.23-0.62v-5.57h-1.78
		c-0.54,0-0.81-0.23-0.81-0.7c0-0.46,0.27-0.69,0.81-0.69h5.28c0.54,0,0.81,0.23,0.81,0.69c0,0.47-0.27,0.7-0.81,0.7h-1.78v5.57
		c0,0.26-0.08,0.46-0.23,0.62S100.13,105.05,99.87,105.05z"/>
        <path fill="#3E3E3E" d="M106.64,105.1c-0.58,0-1.12-0.07-1.62-0.2c-0.5-0.14-0.91-0.33-1.22-0.58c-0.11-0.08-0.19-0.17-0.24-0.25
		c-0.04-0.1-0.07-0.21-0.07-0.35c0-0.18,0.06-0.35,0.17-0.48c0.12-0.14,0.25-0.21,0.4-0.21c0.08,0,0.16,0.01,0.23,0.04
		c0.08,0.02,0.18,0.07,0.29,0.13c0.32,0.2,0.63,0.34,0.96,0.44c0.32,0.09,0.68,0.13,1.07,0.13c0.48,0,0.85-0.08,1.11-0.24
		c0.26-0.16,0.39-0.39,0.39-0.69c0-0.23-0.12-0.41-0.36-0.55c-0.24-0.14-0.66-0.27-1.26-0.4c-0.68-0.14-1.23-0.31-1.64-0.51
		c-0.4-0.2-0.7-0.44-0.89-0.74c-0.18-0.29-0.28-0.65-0.28-1.07c0-0.46,0.13-0.88,0.4-1.24c0.27-0.37,0.64-0.66,1.11-0.87
		c0.48-0.21,1.01-0.32,1.61-0.32c1.04,0,1.9,0.26,2.57,0.78c0.11,0.09,0.19,0.18,0.23,0.28c0.05,0.09,0.08,0.2,0.08,0.33
		c0,0.18-0.06,0.34-0.18,0.48c-0.11,0.14-0.24,0.21-0.38,0.21c-0.08,0-0.16-0.01-0.23-0.03c-0.07-0.02-0.16-0.07-0.29-0.14
		c-0.3-0.19-0.58-0.33-0.84-0.43c-0.25-0.1-0.57-0.14-0.96-0.14c-0.45,0-0.8,0.09-1.06,0.26c-0.26,0.17-0.38,0.4-0.38,0.7
		c0,0.18,0.05,0.32,0.14,0.44c0.1,0.11,0.27,0.21,0.49,0.3c0.23,0.09,0.56,0.18,0.99,0.28c1,0.22,1.71,0.5,2.14,0.85
		c0.44,0.34,0.66,0.82,0.66,1.42c0,0.47-0.13,0.88-0.4,1.24c-0.26,0.36-0.62,0.64-1.1,0.84C107.81,105,107.26,105.1,106.64,105.1z"
        />
</g>
</svg>
