<?xml version="1.0" encoding="utf-8"?><!-- Generator: Adobe Illustrator 24.0.1, SVG Export Plug-In . SVG Version: 6.00 Build 0)  -->
<svg version="1.1" id="Layer_1" xmlns="http://www.w3.org/2000/svg" x="0px" y="0px"
    viewBox="0 0 149 153" enable-background="new 0 0 149 153" xml:space="preserve">
<g opacity="0.5">
	<path d="M77,17.6c0.6-0.4,1.4-0.4,2,0l50,28.8c0.6,0.4,1,1,1,1.7v57.7c0,0.7-0.4,1.4-1,1.7l-50,28.8c-0.6,0.4-1.4,0.4-2,0l-50-28.8
		c-0.6-0.4-1-1-1-1.7V48.2c0-0.7,0.4-1.4,1-1.7L77,17.6z" />
    <g>
		<path d="M77.5,151.7c-0.3,0-0.7-0.1-1-0.3L14,115.3c-0.6-0.4-1-1-1-1.7V41.4c0-0.7,0.4-1.4,1-1.7L76.5,3.6l0,0l0,0h0.1l1.2-0.7
			l0.3,0.6c0.1,0,0.2,0.1,0.4,0.2l62.5,36c0.6,0.4,1,1,1,1.7v72.2c0,0.7-0.4,1.4-1,1.7l-62.5,36.1C78.2,151.6,77.8,151.7,77.5,151.7
			z M16,113l61.5,35.5L139,113V42L77.5,6.5L16,42V113z" />
	</g>
</g>
    <g>

		<linearGradient id="SVGID_1_" gradientUnits="userSpaceOnUse" x1="75" y1="701.9999" x2="75"
            y2="821.9999" gradientTransform="matrix(1 0 0 1 0 -688)">
		<stop offset="0" style="stop-color:#FFFFFF" />
            <stop offset="1" style="stop-color:#C4C4C4" />
	</linearGradient>
        <path fill="url(#SVGID_1_)" d="M74,14.6c0.6-0.4,1.4-0.4,2,0l50,28.8c0.6,0.4,1,1,1,1.7v57.7c0,0.7-0.4,1.4-1,1.7l-50,28.8
		c-0.6,0.4-1.4,0.4-2,0l-50-28.8c-0.6-0.4-1-1-1-1.7V45.2c0-0.7,0.4-1.4,1-1.7L74,14.6z" />
        <path fill="#7AC4EC"
            d="M47,42.8h50.5c3.2,0,5.8,2.6,5.8,5.8v25.9c0,3.2-2.6,5.8-5.8,5.8H47" />
        <path fill="none" stroke="#005888" stroke-width="2" stroke-miterlimit="10" d="M47,42.8h50.5c3.2,0,5.8,2.6,5.8,5.8v25.9
		c0,3.2-2.6,5.8-5.8,5.8H47" />
        <path fill="none" stroke="#005888" stroke-width="2" stroke-linecap="round"
            stroke-miterlimit="10" d="M56.6,71V50.3h35.7V71" />
        <path fill="none" stroke="#005888" stroke-width="2" stroke-linecap="round"
            stroke-linejoin="round" stroke-miterlimit="10" d="
		M51.2,58.6h8.3l3-3l2.8,2.9l2.7-2.8l2.8,2.8l2.5-2.5l2.8,2.7L79,56l2.7,2.7l3.2-3.2l3.1,3.1h8.3" />
        <path fill="#005888" d="M95.7,56.6v4.1l3.3-2.4L95.7,56.6z" />
        <path fill="#005888" stroke="#005888" stroke-miterlimit="10" d="M86.5,61.7l-12.2,1.6l-12.4-1.6c-0.8,0-1.5,0.8-1.5,1.7
		s0.7,1.7,1.5,1.7l12.2-1.6l12.4,1.6c0.8,0,1.5-0.8,1.5-1.7S87.3,61.7,86.5,61.7z" />
        <path fill="none" stroke="#005888" stroke-width="2" stroke-linecap="round"
            stroke-miterlimit="10" d="M74.2,64.1v10.1" />
        <g>
		<path fill="#FFFFFF" d="M74.5,148.7c-0.3,0-0.7-0.1-1-0.3L11,112.3c-0.6-0.4-1-1-1-1.7V38.4c0-0.7,0.4-1.4,1-1.7L73.5,0.6l0,0l0,0
			h0.1l1.2-0.7l0.3,0.6c0.1,0,0.2,0.1,0.4,0.2l62.5,36c0.6,0.4,1,1,1,1.7v72.2c0,0.7-0.4,1.4-1,1.7l-62.5,36.1
			C75.2,148.6,74.8,148.7,74.5,148.7z M13,110l61.5,35.5L136,110V39L74.5,3.5L13,39V110z" />
	</g>
        <path fill="#3E3E3E" d="M53.3,101.1c-0.8,0-1.4-0.2-2-0.5s-1-0.8-1.3-1.4s-0.5-1.3-0.5-2.1c0-0.8,0.2-1.5,0.5-2.1s0.7-1.1,1.3-1.4
		s1.2-0.5,2-0.5c1,0,1.8,0.3,2.5,0.8c0.1,0.1,0.2,0.2,0.2,0.3c0,0.1,0.1,0.2,0.1,0.3c0,0.2-0.1,0.4-0.2,0.5
		c-0.1,0.1-0.2,0.2-0.4,0.2c-0.1,0-0.2,0-0.3,0s-0.2-0.1-0.3-0.1c-0.3-0.2-0.6-0.3-0.8-0.4s-0.5-0.1-0.8-0.1c-0.7,0-1.2,0.2-1.6,0.7
		c-0.4,0.4-0.5,1.1-0.5,1.9c0,1.7,0.7,2.6,2.1,2.6c0.3,0,0.5,0,0.8-0.1c0.2-0.1,0.5-0.2,0.8-0.4c0.1-0.1,0.2-0.1,0.3-0.1
		s0.2,0,0.3,0c0.2,0,0.3,0.1,0.4,0.2c0.1,0.1,0.2,0.3,0.2,0.5c0,0.1,0,0.2-0.1,0.3c0,0.1-0.1,0.2-0.2,0.3
		C55,100.8,54.2,101.1,53.3,101.1z" />
        <path fill="#3E3E3E" d="M60.6,101.1c-0.8,0-1.4-0.2-2-0.5s-1-0.8-1.3-1.4s-0.5-1.3-0.5-2.1c0-0.8,0.2-1.5,0.5-2.1s0.7-1.1,1.3-1.4
		s1.2-0.5,2-0.5s1.4,0.2,2,0.5s1,0.8,1.3,1.4s0.5,1.3,0.5,2.1c0,0.8-0.2,1.5-0.5,2.1c-0.3,0.6-0.7,1.1-1.3,1.4
		C62,100.9,61.3,101.1,60.6,101.1z M60.6,99.8c0.6,0,1.2-0.2,1.5-0.7c0.4-0.5,0.6-1.1,0.6-2s-0.2-1.5-0.5-2
		c-0.4-0.5-0.9-0.7-1.5-0.7c-0.7,0-1.2,0.2-1.5,0.7c-0.4,0.4-0.5,1.1-0.5,2s0.2,1.5,0.5,2C59.4,99.5,59.9,99.8,60.6,99.8z" />
        <path fill="#3E3E3E" d="M69.2,101.1c-0.8,0-1.4-0.2-2-0.5s-1-0.8-1.3-1.4s-0.5-1.3-0.5-2.1c0-0.8,0.2-1.5,0.5-2.1s0.7-1.1,1.3-1.4
		c0.6-0.3,1.2-0.5,2-0.5s1.4,0.2,2,0.5s1,0.8,1.3,1.4s0.5,1.3,0.5,2.1c0,0.8-0.2,1.5-0.5,2.1s-0.7,1.1-1.3,1.4
		C70.6,100.9,70,101.1,69.2,101.1z M69.2,99.8c0.6,0,1.2-0.2,1.5-0.7c0.4-0.5,0.6-1.1,0.6-2s-0.2-1.5-0.6-2s-0.9-0.7-1.5-0.7
		c-0.7,0-1.2,0.2-1.5,0.7c-0.4,0.4-0.5,1.1-0.5,2s0.2,1.5,0.6,2C68.1,99.5,68.6,99.8,69.2,99.8z" />
        <path fill="#3E3E3E" d="M75.1,101c-0.3,0-0.5-0.1-0.6-0.2s-0.2-0.3-0.2-0.6V94c0-0.3,0.1-0.5,0.2-0.6s0.4-0.2,0.6-0.2
		s0.5,0.1,0.6,0.2S76,93.8,76,94v5.6h2.8c0.5,0,0.8,0.2,0.8,0.7s-0.3,0.7-0.8,0.7C78.8,101,75.1,101,75.1,101z" />
        <path fill="#3E3E3E" d="M81.3,101c-0.3,0-0.5-0.1-0.6-0.2s-0.2-0.3-0.2-0.6V94c0-0.3,0.1-0.5,0.2-0.6s0.3-0.2,0.6-0.2h3.9
		c0.5,0,0.8,0.2,0.8,0.7c0,0.4-0.3,0.7-0.8,0.7h-3v1.8H85c0.5,0,0.8,0.2,0.8,0.7c0,0.4-0.3,0.7-0.8,0.7h-2.8v1.9h3
		c0.5,0,0.8,0.2,0.8,0.7c0,0.4-0.3,0.7-0.8,0.7h-3.9V101z" />
        <path fill="#3E3E3E" d="M93.4,99.9c0.1,0.2,0.2,0.3,0.2,0.5s-0.1,0.4-0.3,0.5c-0.2,0.1-0.4,0.2-0.6,0.2c-0.1,0-0.3,0-0.4-0.1
		s-0.2-0.2-0.3-0.3l-1.5-2.2c-0.1-0.2-0.3-0.3-0.4-0.4C90,98,89.8,98,89.6,98h-0.9v2.2c0,0.3-0.1,0.5-0.2,0.6
		c-0.1,0.2-0.3,0.2-0.6,0.2c-0.3,0-0.5-0.1-0.6-0.2c-0.2-0.2-0.2-0.4-0.2-0.6V94c0-0.3,0.1-0.5,0.2-0.6s0.3-0.2,0.6-0.2h2.8
		c0.9,0,1.6,0.2,2.1,0.6s0.7,1,0.7,1.7c0,0.6-0.2,1.1-0.5,1.5s-0.8,0.7-1.4,0.8c0.2,0,0.4,0.1,0.6,0.3c0.2,0.1,0.3,0.3,0.5,0.5
		L93.4,99.9z M90.3,96.7c0.5,0,0.8-0.1,1.1-0.3c0.2-0.2,0.3-0.4,0.3-0.8s-0.1-0.6-0.3-0.8s-0.6-0.3-1.1-0.3h-1.6v2.1h1.6V96.7z" />
        <path fill="#3E3E3E" d="M97.5,101.1c-0.6,0-1.1-0.1-1.6-0.2s-0.9-0.3-1.2-0.6c-0.1-0.1-0.2-0.2-0.2-0.3c0-0.1-0.1-0.2-0.1-0.4
		c0-0.2,0.1-0.3,0.2-0.5c0.1-0.1,0.2-0.2,0.4-0.2c0.1,0,0.2,0,0.2,0c0.1,0,0.2,0.1,0.3,0.1c0.3,0.2,0.6,0.3,1,0.4
		c0.3,0.1,0.7,0.1,1.1,0.1c0.5,0,0.9-0.1,1.1-0.2c0.3-0.2,0.4-0.4,0.4-0.7c0-0.2-0.1-0.4-0.4-0.6c-0.2-0.1-0.7-0.3-1.3-0.4
		c-0.7-0.1-1.2-0.3-1.6-0.5s-0.7-0.4-0.9-0.7c-0.2-0.3-0.3-0.6-0.3-1.1s0.1-0.9,0.4-1.2c0.3-0.4,0.6-0.7,1.1-0.9
		c0.5-0.2,1-0.3,1.6-0.3c1,0,1.9,0.3,2.6,0.8c0.1,0.1,0.2,0.2,0.2,0.3c0.1,0.1,0.1,0.2,0.1,0.3c0,0.2-0.1,0.3-0.2,0.5
		c-0.1,0.1-0.2,0.2-0.4,0.2c-0.1,0-0.2,0-0.2,0c-0.1,0-0.2-0.1-0.3-0.1c-0.3-0.2-0.6-0.3-0.8-0.4c-0.2-0.1-0.6-0.1-1-0.1
		s-0.8,0.1-1.1,0.3c-0.3,0.2-0.4,0.4-0.4,0.7c0,0.2,0,0.3,0.1,0.4s0.3,0.2,0.5,0.3c0.2,0.1,0.6,0.2,1,0.3c1,0.2,1.7,0.5,2.1,0.8
		s0.7,0.8,0.7,1.4c0,0.5-0.1,0.9-0.4,1.2c-0.3,0.4-0.6,0.6-1.1,0.8C98.6,101,98.1,101.1,97.5,101.1z" />
</g>
</svg>
