<?xml version="1.0" encoding="utf-8"?>
<!-- Generator: Adobe Illustrator 24.0.1, SVG Export Plug-In . SVG Version: 6.00 Build 0)  -->
<svg version="1.1" id="Layer_1" xmlns="http://www.w3.org/2000/svg" xmlns:xlink="http://www.w3.org/1999/xlink" x="0px" y="0px"
    viewBox="0 0 149 153" enable-background="new 0 0 149 153" xml:space="preserve">
<g opacity="0.5">
	<path d="M77,17.6c0.6-0.4,1.4-0.4,2,0l50,28.8c0.6,0.4,1,1,1,1.7v57.7c0,0.7-0.4,1.4-1,1.7l-50,28.8c-0.6,0.4-1.4,0.4-2,0l-50-28.8
		c-0.6-0.4-1-1-1-1.7V48.2c0-0.7,0.4-1.4,1-1.7L77,17.6z"/>
    <g>
		<path d="M77.5,151.7c-0.3,0-0.7-0.1-1-0.3L14,115.3c-0.6-0.4-1-1-1-1.7V41.4c0-0.7,0.4-1.4,1-1.7L76.5,3.6l0,0l0,0h0.1l1.2-0.7
			l0.3,0.6c0.1,0,0.2,0.1,0.4,0.2l62.5,36c0.6,0.4,1,1,1,1.7v72.2c0,0.7-0.4,1.4-1,1.7l-62.5,36.1C78.2,151.6,77.8,151.7,77.5,151.7
			z M16,113l61.5,35.5L139,113V42L77.5,6.5L16,42V113z"/>
	</g>
</g>
    <g>

		<linearGradient id="SVGID_1_" gradientUnits="userSpaceOnUse" x1="75.0003" y1="139.8898" x2="75.0003" y2="19.8898" gradientTransform="matrix(1 0 0 -1 0 153.8898)">
		<stop  offset="0" style="stop-color:#FFFFFF"/>
            <stop  offset="1" style="stop-color:#C4C4C4"/>
	</linearGradient>
        <path fill="url(#SVGID_1_)" d="M74,14.6c0.6-0.4,1.4-0.4,2,0l50,28.8c0.6,0.4,1,1,1,1.7v57.7c0,0.7-0.4,1.4-1,1.7l-50,28.8
		c-0.6,0.4-1.4,0.4-2,0l-50-28.8c-0.6-0.4-1-1-1-1.7V45.2c0-0.7,0.4-1.4,1-1.7L74,14.6z"/>
        <g>
		<path fill="#FFFFFF" d="M74.5,148.7c-0.3,0-0.7-0.1-1-0.3L11,112.3c-0.6-0.4-1-1-1-1.7V38.4c0-0.7,0.4-1.4,1-1.7L73.5,0.6
			c0.6-0.4,1.4-0.4,2,0L138,36.7c0.6,0.4,1,1,1,1.7v72.2c0,0.7-0.4,1.4-1,1.7l-62.5,36.1C75.2,148.6,74.8,148.7,74.5,148.7z M13,110
			l61.5,35.5L136,110V39L74.5,3.5L13,39V110z M74,3.2C74,3.2,74,3.2,74,3.2L74,3.2L74,3.2z"/>
	</g>
        <path fill="#3E3E3E" d="M58.9,89.1c-0.3,0-0.5-0.1-0.6-0.2c-0.2-0.2-0.2-0.4-0.2-0.6V82c0-0.3,0.1-0.5,0.2-0.6
		c0.1-0.1,0.3-0.2,0.6-0.2h3.8c0.3,0,0.5,0.1,0.6,0.2s0.2,0.3,0.2,0.5c0,0.2-0.1,0.4-0.2,0.5s-0.3,0.2-0.6,0.2h-2.9v1.8h2.7
		c0.3,0,0.5,0.1,0.6,0.2s0.2,0.3,0.2,0.5c0,0.2-0.1,0.4-0.2,0.5s-0.3,0.2-0.6,0.2h-2.7v2.5c0,0.3-0.1,0.5-0.2,0.6
		C59.4,89,59.2,89.1,58.9,89.1z"/>
        <path fill="#3E3E3E" d="M65.2,89.1c-0.3,0-0.5-0.1-0.6-0.2s-0.2-0.4-0.2-0.6V82c0-0.3,0.1-0.5,0.2-0.6s0.4-0.2,0.6-0.2
		s0.5,0.1,0.6,0.2c0.2,0.2,0.2,0.4,0.2,0.6v6.2c0,0.3-0.1,0.5-0.2,0.6C65.7,89,65.5,89.1,65.2,89.1z"/>
        <path fill="#3E3E3E" d="M68.4,89c-0.3,0-0.5-0.1-0.6-0.2c-0.1-0.1-0.2-0.3-0.2-0.6V82c0-0.3,0.1-0.5,0.2-0.6
		c0.2-0.2,0.4-0.2,0.6-0.2s0.5,0.1,0.6,0.2s0.2,0.4,0.2,0.6v5.6h2.8c0.5,0,0.8,0.2,0.8,0.7c0,0.5-0.3,0.7-0.8,0.7H68.4z"/>
        <path fill="#3E3E3E" d="M75.1,89.1c-0.3,0-0.5-0.1-0.6-0.2c-0.2-0.2-0.2-0.4-0.2-0.6v-5.6h-1.8c-0.5,0-0.8-0.2-0.8-0.7
		c0-0.5,0.3-0.7,0.8-0.7h5.3c0.5,0,0.8,0.2,0.8,0.7c0,0.5-0.3,0.7-0.8,0.7h-1.8v5.6c0,0.3-0.1,0.5-0.2,0.6S75.3,89.1,75.1,89.1z"/>
        <path fill="#3E3E3E" d="M80.1,89c-0.3,0-0.5-0.1-0.6-0.2c-0.1-0.1-0.2-0.3-0.2-0.6V82c0-0.3,0.1-0.5,0.2-0.6
		c0.1-0.1,0.3-0.2,0.6-0.2H84c0.5,0,0.8,0.2,0.8,0.7c0,0.4-0.3,0.7-0.8,0.7h-3v1.8h2.8c0.5,0,0.8,0.2,0.8,0.7c0,0.4-0.3,0.7-0.8,0.7
		h-2.8v1.9h3c0.5,0,0.8,0.2,0.8,0.7c0,0.4-0.3,0.7-0.8,0.7H80.1z"/>
        <path fill="#3E3E3E" d="M92.1,87.9c0.1,0.2,0.2,0.3,0.2,0.5c0,0.2-0.1,0.4-0.3,0.5c-0.2,0.1-0.4,0.2-0.6,0.2c-0.1,0-0.3,0-0.4-0.1
		c-0.1-0.1-0.2-0.2-0.3-0.3l-1.5-2.2c-0.1-0.2-0.3-0.3-0.4-0.4C88.8,86,88.6,86,88.4,86h-0.9v2.2c0,0.3-0.1,0.5-0.2,0.6
		c-0.1,0.2-0.3,0.2-0.6,0.2c-0.3,0-0.5-0.1-0.6-0.2s-0.2-0.4-0.2-0.6V82c0-0.3,0.1-0.5,0.2-0.6c0.1-0.1,0.3-0.2,0.6-0.2h2.8
		c0.9,0,1.6,0.2,2.1,0.6c0.5,0.4,0.7,1,0.7,1.7c0,0.6-0.2,1.1-0.5,1.5c-0.3,0.4-0.8,0.7-1.4,0.8c0.2,0,0.4,0.1,0.6,0.3
		c0.2,0.1,0.3,0.3,0.5,0.5L92.1,87.9z M89.1,84.7c0.5,0,0.8-0.1,1.1-0.3c0.2-0.2,0.3-0.4,0.3-0.8c0-0.4-0.1-0.6-0.3-0.8
		c-0.2-0.2-0.6-0.3-1.1-0.3h-1.6v2.1H89.1z"/>
        <path fill="#3E3E3E" d="M55.8,104.1c-0.8,0-1.4-0.2-2-0.5c-0.6-0.3-1-0.8-1.3-1.4c-0.3-0.6-0.5-1.3-0.5-2.1c0-0.8,0.2-1.5,0.5-2.1
		c0.3-0.6,0.7-1.1,1.3-1.4c0.6-0.3,1.2-0.5,2-0.5c1,0,1.8,0.3,2.5,0.8c0.1,0.1,0.2,0.2,0.2,0.3c0,0.1,0.1,0.2,0.1,0.3
		c0,0.2-0.1,0.4-0.2,0.5c-0.1,0.1-0.2,0.2-0.4,0.2c-0.1,0-0.2,0-0.3,0c-0.1,0-0.2-0.1-0.3-0.1c-0.3-0.2-0.6-0.3-0.8-0.4
		c-0.2-0.1-0.5-0.1-0.8-0.1c-0.7,0-1.2,0.2-1.6,0.7c-0.4,0.4-0.5,1.1-0.5,1.9c0,1.7,0.7,2.6,2.1,2.6c0.3,0,0.5,0,0.8-0.1
		c0.2-0.1,0.5-0.2,0.8-0.4c0.1-0.1,0.2-0.1,0.3-0.1c0.1,0,0.2,0,0.3,0c0.2,0,0.3,0.1,0.4,0.2c0.1,0.1,0.2,0.3,0.2,0.5
		c0,0.1,0,0.2-0.1,0.3c0,0.1-0.1,0.2-0.2,0.3C57.6,103.8,56.7,104.1,55.8,104.1z"/>
        <path fill="#3E3E3E" d="M65.8,96.2c0.3,0,0.5,0.1,0.6,0.2c0.2,0.2,0.2,0.4,0.2,0.6v6.2c0,0.3-0.1,0.5-0.2,0.6
		c-0.2,0.2-0.4,0.2-0.6,0.2c-0.3,0-0.5-0.1-0.6-0.2c-0.1-0.2-0.2-0.4-0.2-0.6v-2.5h-3.6v2.5c0,0.3-0.1,0.5-0.2,0.6
		c-0.2,0.2-0.4,0.2-0.6,0.2c-0.3,0-0.5-0.1-0.6-0.2s-0.2-0.4-0.2-0.6V97c0-0.3,0.1-0.5,0.2-0.6s0.4-0.2,0.6-0.2
		c0.3,0,0.5,0.1,0.6,0.2c0.2,0.2,0.2,0.4,0.2,0.6v2.3h3.6V97c0-0.3,0.1-0.5,0.2-0.6C65.3,96.3,65.5,96.2,65.8,96.2z"/>
        <path fill="#3E3E3E" d="M75.4,103c0.1,0.1,0.1,0.2,0.1,0.4c0,0.2-0.1,0.4-0.3,0.5c-0.2,0.1-0.3,0.2-0.6,0.2c-0.1,0-0.3,0-0.4-0.1
		c-0.1-0.1-0.2-0.2-0.3-0.4l-0.6-1.3h-3.7l-0.6,1.3c-0.1,0.2-0.2,0.3-0.3,0.4c-0.1,0.1-0.2,0.1-0.4,0.1c-0.2,0-0.4-0.1-0.6-0.2
		c-0.2-0.1-0.3-0.3-0.3-0.5c0-0.1,0-0.2,0.1-0.4l3-6.2c0.1-0.2,0.2-0.3,0.4-0.4c0.2-0.1,0.3-0.1,0.5-0.1c0.2,0,0.4,0,0.5,0.1
		c0.2,0.1,0.3,0.2,0.4,0.4L75.4,103z M70.2,101h2.6l-1.3-2.9L70.2,101z"/>
        <path fill="#3E3E3E" d="M82.3,96.2c0.2,0,0.4,0.1,0.6,0.2c0.2,0.2,0.2,0.4,0.2,0.6v6.2c0,0.3-0.1,0.5-0.2,0.6
		c-0.1,0.2-0.3,0.2-0.6,0.2c-0.3,0-0.5-0.1-0.6-0.3L78,99.1v4.1c0,0.3-0.1,0.5-0.2,0.6c-0.1,0.2-0.3,0.2-0.6,0.2s-0.4-0.1-0.6-0.2
		c-0.1-0.2-0.2-0.4-0.2-0.6V97c0-0.2,0.1-0.5,0.2-0.6c0.2-0.2,0.4-0.2,0.6-0.2c0.3,0,0.5,0.1,0.6,0.3l3.7,4.7V97
		c0-0.2,0.1-0.5,0.2-0.6C81.9,96.3,82.1,96.2,82.3,96.2z"/>
        <path fill="#3E3E3E" d="M90.7,99.7c0.2,0,0.4,0.1,0.5,0.2c0.1,0.1,0.2,0.3,0.2,0.5v2.1c0,0.3,0,0.5-0.1,0.7c0,0.2-0.1,0.3-0.2,0.4
		c-0.1,0.1-0.3,0.2-0.5,0.2c-0.3,0.1-0.6,0.2-1,0.2c-0.4,0.1-0.7,0.1-1,0.1c-0.8,0-1.5-0.2-2.1-0.5c-0.6-0.3-1.1-0.8-1.4-1.4
		c-0.3-0.6-0.5-1.3-0.5-2.1c0-0.8,0.2-1.5,0.5-2.1c0.3-0.6,0.8-1.1,1.4-1.4c0.6-0.3,1.3-0.5,2.1-0.5c1,0,1.9,0.3,2.5,0.8
		c0.1,0.1,0.2,0.2,0.2,0.3c0,0.1,0.1,0.2,0.1,0.3c0,0.2-0.1,0.4-0.2,0.5c-0.1,0.1-0.2,0.2-0.4,0.2c-0.1,0-0.2,0-0.3,0
		c-0.1,0-0.2-0.1-0.3-0.1c-0.3-0.2-0.6-0.3-0.8-0.4c-0.3-0.1-0.5-0.1-0.8-0.1c-1.5,0-2.2,0.9-2.2,2.6c0,0.9,0.2,1.6,0.6,2
		c0.4,0.4,1,0.7,1.8,0.7c0.4,0,0.8-0.1,1.3-0.2v-1.7h-1c-0.2,0-0.4-0.1-0.5-0.2c-0.1-0.1-0.2-0.2-0.2-0.4c0-0.2,0.1-0.3,0.2-0.4
		c0.1-0.1,0.3-0.2,0.5-0.2H90.7z"/>
        <path fill="#3E3E3E" d="M93.6,104c-0.3,0-0.5-0.1-0.6-0.2s-0.2-0.3-0.2-0.6V97c0-0.3,0.1-0.5,0.2-0.6c0.1-0.1,0.3-0.2,0.6-0.2h3.9
		c0.5,0,0.8,0.2,0.8,0.7c0,0.4-0.3,0.7-0.8,0.7h-3v1.8h2.8c0.5,0,0.8,0.2,0.8,0.7c0,0.4-0.3,0.7-0.8,0.7h-2.8v1.9h3
		c0.5,0,0.8,0.2,0.8,0.7c0,0.4-0.3,0.7-0.8,0.7H93.6z"/>
        <path fill="#FFFFFF" d="M74.5,52c2.6-2.6,2.6-6.7,0-9.3s-6.8-2.6-9.4,0c-2.6,2.6-2.6,6.7,0,9.3S71.9,54.6,74.5,52z"/>
        <path fill="#5CB3E2" d="M62,51.9c0.1,0.2,0.2,0.4,0.3,0.6l-1.2,2l2.8,2.7l2.1-1.2c0.5,0.2,0.9,0.4,1.4,0.6L68,59h3.9l0.6-2.3
		c0.5-0.2,0.9-0.3,1.4-0.6l2.1,1.2l2.8-2.7l-1.2-2c0.1-0.2,0.2-0.4,0.3-0.6c0.1-0.3,0.2-0.5,0.3-0.8l2.3-0.6v-3.4L78,46.6
		c-0.1-0.3-0.2-0.5-0.3-0.8c-0.1-0.2-0.2-0.4-0.3-0.6l1.2-2l-2.8-2.7l-2.1,1.2c-0.4-0.2-0.9-0.4-1.4-0.6l-0.6-2.3H68l-0.6,2.3
		c-0.5,0.2-1,0.3-1.4,0.6l-2.1-1.2l-2.8,2.7l1.2,2c-0.1,0.2-0.2,0.4-0.3,0.6c-0.1,0.3-0.2,0.5-0.3,0.8l-2.3,0.6v3.4l2.3,0.6
		C61.8,51.4,61.9,51.7,62,51.9z M69.9,44.6c2.3,0,4.3,1.9,4.3,4.2c0,2.3-1.9,4.2-4.3,4.2s-4.3-1.9-4.3-4.2
		C65.6,46.5,67.5,44.6,69.9,44.6z"/>
        <path fill="#005888" d="M67.1,57.2c-0.4-0.1-0.8-0.3-1.1-0.5L63.8,58l-3.2-3.2l1.3-2.1c-0.1-0.2-0.2-0.3-0.2-0.5
		c-0.1-0.2-0.2-0.4-0.3-0.7L59,50.9v-4l2.4-0.6c0.1-0.2,0.2-0.4,0.3-0.7c0.1-0.2,0.1-0.3,0.2-0.5l-1.3-2.1l3.2-3.2l2.2,1.2
		c0.4-0.2,0.7-0.3,1.1-0.5l0.6-2.4h4.6l0.6,2.4c0.4,0.1,0.7,0.3,1,0.4l2.2-1.2l3.2,3.2l-1.3,2.1c0.1,0.2,0.2,0.3,0.2,0.5
		c0.1,0.2,0.2,0.4,0.3,0.7L81,47v4l-2.4,0.6c-0.1,0.2-0.2,0.4-0.3,0.7c-0.1,0.2-0.1,0.3-0.2,0.5l1.3,2.1L76.1,58L74,56.7
		c-0.3,0.2-0.7,0.3-1,0.4l-0.6,2.4h-4.6L67.1,57.2z M72.3,56.6l0.2-0.1c0.4-0.1,0.9-0.3,1.3-0.5l0.2-0.1l2,1.2l2.4-2.4l-1.2-2
		l0.1-0.2c0.1-0.2,0.2-0.4,0.3-0.6c0.1-0.3,0.2-0.5,0.3-0.8l0.1-0.2l2.2-0.6v-2.8L77.9,47l-0.1-0.2c-0.1-0.3-0.2-0.5-0.3-0.8
		c-0.1-0.2-0.2-0.4-0.3-0.6l-0.1-0.2l1.2-2L76,40.8L74,42l-0.2-0.1c-0.4-0.2-0.9-0.4-1.3-0.5l-0.2-0.1l-0.6-2.2h-3.4l-0.6,2.2
		l-0.2,0.1c-0.5,0.1-0.9,0.3-1.4,0.6L66,42l-2-1.1l-2.4,2.4l1.2,2l-0.1,0.2c-0.1,0.2-0.2,0.4-0.3,0.6c-0.1,0.3-0.2,0.5-0.3,0.8
		L62,47l-2.2,0.6v2.8l2.2,0.6l0.1,0.2c0.1,0.3,0.2,0.5,0.3,0.8c0.1,0.2,0.2,0.4,0.3,0.6l0.1,0.2l-1.2,2l2.4,2.4l2-1.2l0.2,0.1
		c0.4,0.2,0.9,0.4,1.4,0.6l0.2,0.1l0.6,2.2h3.4L72.3,56.6z M65.3,48.9c0-2.5,2.1-4.6,4.7-4.6c2.6,0,4.7,2.1,4.7,4.6
		c0,2.5-2.1,4.6-4.7,4.6C67.4,53.6,65.3,51.5,65.3,48.9z M66.1,48.9c0,2.1,1.8,3.9,3.9,3.9c2.2,0,3.9-1.7,3.9-3.9
		c0-2.1-1.8-3.9-3.9-3.9C67.8,45.1,66.1,46.8,66.1,48.9z"/>
        <path fill="#6FBCE2" d="M81.2,51.9h3.4v20.6h-3.4h-7.5V51.9H81.2z"/>
        <path fill="#5CB3E2" d="M70.4,51.9h5.8v20.6h-5.8V51.9z"/>
        <path fill="#005888" d="M70,72.8c0.1,0.1,0.2,0.1,0.3,0.1h14.2c0.3,0,0.5-0.2,0.5-0.5V51.9c0-0.3-0.2-0.5-0.5-0.5H70.4
		c-0.3,0-0.5,0.2-0.5,0.5v20.6C69.9,72.6,69.9,72.7,70,72.8z M84.1,72H70.9V52.3h13.2V72L84.1,72z"/>
        <path fill="#5CB3E2" d="M68.2,50.3c0,0.9,0.7,1.6,1.6,1.6h15.3c0.9,0,1.6-0.7,1.6-1.6c0-0.9-0.7-1.6-1.6-1.6H69.8
		C68.9,48.6,68.2,49.4,68.2,50.3z"/>
        <path fill="#005888" d="M68.3,51.7c0.4,0.4,0.9,0.6,1.5,0.6h15.3c1.2,0,2.1-0.9,2.1-2.1c0-0.6-0.2-1.1-0.6-1.5
		c-0.4-0.4-0.9-0.6-1.5-0.6H69.8c-1.2,0-2.1,0.9-2.1,2.1C67.7,50.8,68,51.4,68.3,51.7z M85.9,49.5c0.2,0.2,0.3,0.5,0.3,0.8
		c0,0.6-0.5,1.1-1.1,1.1H69.8c-0.6,0-1.1-0.5-1.1-1.1s0.5-1.1,1.1-1.1h15.3C85.4,49.1,85.7,49.2,85.9,49.5z"/>
        <path fill="#5CB3E2" d="M68.2,72.1c0,0.9,0.7,1.6,1.6,1.6h15.3c0.9,0,1.6-0.7,1.6-1.6c0-0.9-0.7-1.6-1.6-1.6H69.8
		C68.9,70.5,68.2,71.2,68.2,72.1z"/>
        <path fill="#005888" d="M68.3,73.6c0.4,0.4,0.9,0.6,1.5,0.6h15.3c1.2,0,2.1-0.9,2.1-2.1c0-0.6-0.2-1.1-0.6-1.5
		c-0.4-0.4-0.9-0.6-1.5-0.6H69.8c-1.2,0-2.1,0.9-2.1,2.1C67.7,72.7,68,73.2,68.3,73.6z M85.9,71.3c0.2,0.2,0.3,0.5,0.3,0.8
		c0,0.6-0.5,1.1-1.1,1.1H69.8c-0.6,0-1.1-0.5-1.1-1.1c0-0.6,0.5-1.1,1.1-1.1h15.3C85.4,71,85.7,71.1,85.9,71.3z"/>
        <path fill="#005888" d="M80.6,63.6v4.8c0,0.4,0.3,0.7,0.7,0.7s0.7-0.3,0.7-0.7v-4.8c0-0.4-0.3-0.7-0.7-0.7S80.6,63.2,80.6,63.6z"/>
        <path fill="#005888" d="M76.8,63.6v4.8c0,0.4,0.3,0.7,0.7,0.7c0.4,0,0.7-0.3,0.7-0.7v-4.8c0-0.4-0.3-0.7-0.7-0.7
		C77.1,62.9,76.8,63.2,76.8,63.6z"/>
        <path fill="#005888" d="M73,63.6v4.8c0,0.4,0.3,0.7,0.7,0.7c0.4,0,0.7-0.3,0.7-0.7v-4.8c0-0.4-0.3-0.7-0.7-0.7
		C73.3,62.9,73,63.2,73,63.6z"/>
        <path fill="#005888" d="M80.6,54.7v4.8c0,0.4,0.3,0.7,0.7,0.7s0.7-0.3,0.7-0.7v-4.8c0-0.4-0.3-0.7-0.7-0.7S80.6,54.3,80.6,54.7z"/>
        <path fill="#005888" d="M76.8,54.7v4.8c0,0.4,0.3,0.7,0.7,0.7c0.4,0,0.7-0.3,0.7-0.7v-4.8c0-0.4-0.3-0.7-0.7-0.7
		C77.1,54,76.8,54.3,76.8,54.7z"/>
        <path fill="#005888" d="M73,54.7v4.8c0,0.4,0.3,0.7,0.7,0.7c0.4,0,0.7-0.3,0.7-0.7v-4.8c0-0.4-0.3-0.7-0.7-0.7
		C73.3,54,73,54.3,73,54.7z"/>
</g>
</svg>
