<?xml version="1.0" encoding="utf-8"?>
<!-- Generator: Adobe Illustrator 24.0.1, SVG Export Plug-In . SVG Version: 6.00 Build 0)  -->
<svg version="1.1" id="Layer_1" xmlns="http://www.w3.org/2000/svg" xmlns:xlink="http://www.w3.org/1999/xlink" x="0px" y="0px"
    viewBox="0 0 149 153" enable-background="new 0 0 149 153" xml:space="preserve">
<g opacity="0.5">
	<path d="M77,17.6c0.6-0.4,1.4-0.4,2,0l50,28.8c0.6,0.4,1,1,1,1.7v57.7c0,0.7-0.4,1.4-1,1.7l-50,28.8c-0.6,0.4-1.4,0.4-2,0l-50-28.8
		c-0.6-0.4-1-1-1-1.7V48.2c0-0.7,0.4-1.4,1-1.7L77,17.6z"/>
    <g>
		<path d="M77.5,151.7c-0.3,0-0.7-0.1-1-0.3L14,115.3c-0.6-0.4-1-1-1-1.7V41.4c0-0.7,0.4-1.4,1-1.7L76.5,3.6l0,0l0,0h0.1l1.2-0.7
			l0.3,0.6c0.1,0,0.2,0.1,0.4,0.2l62.5,36c0.6,0.4,1,1,1,1.7v72.2c0,0.7-0.4,1.4-1,1.7l-62.5,36.1C78.2,151.6,77.8,151.7,77.5,151.7
			z M16,113l61.5,35.5L139,113V42L77.5,6.5L16,42V113z"/>
	</g>
</g>
    <g>

		<linearGradient id="SVGID_1_" gradientUnits="userSpaceOnUse" x1="75" y1="701.9999" x2="75" y2="821.9999" gradientTransform="matrix(1 0 0 1 0 -688)">
		<stop  offset="0" style="stop-color:#FFFFFF"/>
            <stop  offset="1" style="stop-color:#C4C4C4"/>
	</linearGradient>
        <path fill="url(#SVGID_1_)" d="M74,14.6c0.6-0.4,1.4-0.4,2,0l50,28.8c0.6,0.4,1,1,1,1.7v57.7c0,0.7-0.4,1.4-1,1.7l-50,28.8
		c-0.6,0.4-1.4,0.4-2,0l-50-28.8c-0.6-0.4-1-1-1-1.7V45.2c0-0.7,0.4-1.4,1-1.7L74,14.6z"/>
        <path fill="#6FBCE2" d="M88,48.3h3.4V79H88h-7.5V48.3H88z"/>
        <path fill="#5CB3E2" d="M77.1,48.3h5.8V79h-5.8V48.3z"/>
        <path fill="#005888" d="M76.8,79.4c0.1,0.1,0.2,0.1,0.3,0.1h14.2c0.3,0,0.5-0.2,0.5-0.5V48.3c0-0.3-0.2-0.5-0.5-0.5H77.1
		c-0.3,0-0.5,0.2-0.5,0.5V79C76.6,79.2,76.7,79.3,76.8,79.4z M90.9,78.6H77.6V48.8h13.2v29.8H90.9z"/>
        <path fill="#5CB3E2" d="M75,46.7c0,0.9,0.7,1.6,1.6,1.6h15.3c0.9,0,1.6-0.7,1.6-1.6c0-0.9-0.7-1.6-1.6-1.6H76.6
		C75.7,45.1,75,45.8,75,46.7z"/>
        <path fill="#005888" d="M75.1,48.2c0.4,0.4,0.9,0.6,1.5,0.6h15.3c1.2,0,2.1-0.9,2.1-2.1c0-0.6-0.2-1.1-0.6-1.5s-0.9-0.6-1.5-0.6
		H76.6c-1.2,0-2.1,0.9-2.1,2.1C74.5,47.3,74.7,47.8,75.1,48.2z M92.7,45.9c0.2,0.2,0.3,0.5,0.3,0.8c0,0.6-0.5,1.1-1.1,1.1H76.6
		c-0.6,0-1.1-0.5-1.1-1.1s0.5-1.1,1.1-1.1h15.3C92.2,45.6,92.5,45.7,92.7,45.9z"/>
        <path fill="#005888" d="M87.4,70.2V75c0,0.4,0.3,0.7,0.7,0.7s0.7-0.3,0.7-0.7v-4.8c0-0.4-0.3-0.7-0.7-0.7S87.4,69.9,87.4,70.2z"/>
        <path fill="#005888" d="M83.5,70.2V75c0,0.4,0.3,0.7,0.7,0.7c0.4,0,0.7-0.3,0.7-0.7v-4.8c0-0.4-0.3-0.7-0.7-0.7
		C83.9,69.5,83.5,69.9,83.5,70.2z"/>
        <path fill="#005888" d="M79.7,70.2V75c0,0.4,0.3,0.7,0.7,0.7c0.4,0,0.7-0.3,0.7-0.7v-4.8c0-0.4-0.3-0.7-0.7-0.7
		S79.7,69.9,79.7,70.2z"/>
        <path fill="#005888" d="M87.4,61.3v4.8c0,0.4,0.3,0.7,0.7,0.7s0.7-0.3,0.7-0.7v-4.8c0-0.4-0.3-0.7-0.7-0.7S87.4,60.9,87.4,61.3z"/>
        <path fill="#005888" d="M83.5,61.3v4.8c0,0.4,0.3,0.7,0.7,0.7c0.4,0,0.7-0.3,0.7-0.7v-4.8c0-0.4-0.3-0.7-0.7-0.7
		C83.9,60.6,83.5,60.9,83.5,61.3z"/>
        <path fill="#005888" d="M79.7,61.3v4.8c0,0.4,0.3,0.7,0.7,0.7c0.4,0,0.7-0.3,0.7-0.7v-4.8c0-0.4-0.3-0.7-0.7-0.7
		S79.7,60.9,79.7,61.3z"/>
        <path fill="#005888" d="M87.4,52.4v4.8c0,0.4,0.3,0.7,0.7,0.7s0.7-0.3,0.7-0.7v-4.8c0-0.4-0.3-0.7-0.7-0.7S87.4,52,87.4,52.4z"/>
        <path fill="#005888" d="M83.5,52.4v4.8c0,0.4,0.3,0.7,0.7,0.7c0.4,0,0.7-0.3,0.7-0.7v-4.8c0-0.4-0.3-0.7-0.7-0.7
		C83.9,51.7,83.5,52,83.5,52.4z"/>
        <path fill="#005888" d="M79.7,52.4v4.8c0,0.4,0.3,0.7,0.7,0.7c0.4,0,0.7-0.3,0.7-0.7v-4.8c0-0.4-0.3-0.7-0.7-0.7S79.7,52,79.7,52.4
		z"/>
        <path fill="#6FBCE2" d="M68.2,58.5h3.4v20.6h-3.4h-7.5V58.5H68.2z"/>
        <path fill="#5CB3E2" d="M57.4,58.5h5.8v20.6h-5.8V58.5z"/>
        <path fill="#005888" d="M57,79.4c0.1,0.1,0.2,0.1,0.3,0.1h14.2c0.3,0,0.5-0.2,0.5-0.5V58.5c0-0.3-0.2-0.5-0.5-0.5H57.4
		c-0.3,0-0.5,0.2-0.5,0.5v20.6C56.9,79.2,56.9,79.3,57,79.4z M71.1,78.6H57.9V59h13.2V78.6z"/>
        <path fill="#5CB3E2" d="M55.2,56.9c0,0.9,0.7,1.6,1.6,1.6h15.3c0.9,0,1.6-0.7,1.6-1.6c0-0.9-0.7-1.6-1.6-1.6H56.8
		C55.9,55.3,55.2,56,55.2,56.9z"/>
        <path fill="#005888" d="M55.3,58.4c0.4,0.4,0.9,0.6,1.5,0.6h15.3c1.2,0,2.1-0.9,2.1-2.1c0-0.6-0.2-1.1-0.6-1.5s-0.9-0.6-1.5-0.6
		H56.8c-1.2,0-2.1,0.9-2.1,2.1C54.7,57.5,55,58,55.3,58.4z M72.9,56.1c0.2,0.2,0.3,0.5,0.3,0.8c0,0.6-0.5,1.1-1.1,1.1H56.8
		c-0.6,0-1.1-0.5-1.1-1.1s0.5-1.1,1.1-1.1h15.3C72.4,55.8,72.7,55.9,72.9,56.1z"/>
        <path fill="#005888" d="M67.6,70.2V75c0,0.4,0.3,0.7,0.7,0.7S69,75.4,69,75v-4.8c0-0.4-0.3-0.7-0.7-0.7S67.6,69.9,67.6,70.2z"/>
        <path fill="#005888" d="M63.8,70.2V75c0,0.4,0.3,0.7,0.7,0.7s0.7-0.3,0.7-0.7v-4.8c0-0.4-0.3-0.7-0.7-0.7
		C64.1,69.5,63.8,69.9,63.8,70.2z"/>
        <path fill="#005888" d="M60,70.2V75c0,0.4,0.3,0.7,0.7,0.7s0.7-0.3,0.7-0.7v-4.8c0-0.4-0.3-0.7-0.7-0.7S60,69.9,60,70.2z"/>
        <path fill="#005888" d="M67.6,61.3v4.8c0,0.4,0.3,0.7,0.7,0.7s0.7-0.3,0.7-0.7v-4.8c0-0.4-0.3-0.7-0.7-0.7S67.6,60.9,67.6,61.3z"/>
        <path fill="#005888" d="M63.8,61.3v4.8c0,0.4,0.3,0.7,0.7,0.7s0.7-0.3,0.7-0.7v-4.8c0-0.4-0.3-0.7-0.7-0.7
		C64.1,60.6,63.8,60.9,63.8,61.3z"/>
        <path fill="#005888" d="M60,61.3v4.8c0,0.4,0.3,0.7,0.7,0.7s0.7-0.3,0.7-0.7v-4.8c0-0.4-0.3-0.7-0.7-0.7S60,60.9,60,61.3z"/>
        <g>
		<path fill="#FFFFFF" d="M74.5,148.7c-0.3,0-0.7-0.1-1-0.3L11,112.3c-0.6-0.4-1-1-1-1.7V38.4c0-0.7,0.4-1.4,1-1.7L73.5,0.6l0,0l0,0
			h0.1l1.2-0.7l0.3,0.6c0.1,0,0.2,0.1,0.4,0.2l62.5,36c0.6,0.4,1,1,1,1.7v72.2c0,0.7-0.4,1.4-1,1.7l-62.5,36.1
			C75.2,148.6,74.8,148.7,74.5,148.7z M13,110l61.5,35.5L136,110V39L74.5,3.5L13,39V110z"/>
	</g>
        <path fill="#3E3E3E" d="M55.3,101.1c-0.3,0-0.5-0.1-0.6-0.2c-0.2-0.2-0.2-0.4-0.2-0.6V94c0-0.3,0.1-0.5,0.2-0.6
		c0.1-0.1,0.3-0.2,0.6-0.2h3.8c0.3,0,0.5,0.1,0.6,0.2s0.2,0.3,0.2,0.5s-0.1,0.4-0.2,0.5s-0.3,0.2-0.6,0.2h-2.9v1.8h2.7
		c0.3,0,0.5,0.1,0.6,0.2s0.2,0.3,0.2,0.5s-0.1,0.4-0.2,0.5s-0.3,0.2-0.6,0.2h-2.7v2.5c0,0.3-0.1,0.5-0.2,0.6
		C55.8,101,55.6,101.1,55.3,101.1z"/>
        <path fill="#3E3E3E" d="M61.6,101.1c-0.3,0-0.5-0.1-0.6-0.2c-0.2-0.2-0.2-0.4-0.2-0.6V94c0-0.3,0.1-0.5,0.2-0.6
		c0.2-0.2,0.4-0.2,0.6-0.2s0.5,0.1,0.6,0.2s0.2,0.4,0.2,0.6v6.2c0,0.3-0.1,0.5-0.2,0.6S61.9,101.1,61.6,101.1z"/>
        <path fill="#3E3E3E" d="M64.8,101c-0.3,0-0.5-0.1-0.6-0.2s-0.2-0.3-0.2-0.6V94c0-0.3,0.1-0.5,0.2-0.6c0.2-0.2,0.4-0.2,0.6-0.2
		s0.5,0.1,0.6,0.2s0.2,0.4,0.2,0.6v5.6h2.8c0.5,0,0.8,0.2,0.8,0.7s-0.3,0.7-0.8,0.7C68.4,101,64.8,101,64.8,101z"/>
        <path fill="#3E3E3E" d="M71.5,101.1c-0.3,0-0.5-0.1-0.6-0.2c-0.2-0.2-0.2-0.4-0.2-0.6v-5.6h-1.8c-0.5,0-0.8-0.2-0.8-0.7
		s0.3-0.7,0.8-0.7h5.3c0.5,0,0.8,0.2,0.8,0.7s-0.3,0.7-0.8,0.7h-1.8v5.6c0,0.3-0.1,0.5-0.2,0.6S71.8,101.1,71.5,101.1z"/>
        <path fill="#3E3E3E" d="M76.5,101c-0.3,0-0.5-0.1-0.6-0.2s-0.2-0.3-0.2-0.6V94c0-0.3,0.1-0.5,0.2-0.6s0.3-0.2,0.6-0.2h3.9
		c0.5,0,0.8,0.2,0.8,0.7c0,0.4-0.3,0.7-0.8,0.7h-3v1.8h2.8c0.5,0,0.8,0.2,0.8,0.7c0,0.4-0.3,0.7-0.8,0.7h-2.8v1.9h3
		c0.5,0,0.8,0.2,0.8,0.7c0,0.4-0.3,0.7-0.8,0.7h-3.9V101z"/>
        <path fill="#3E3E3E" d="M88.6,99.9c0.1,0.2,0.2,0.3,0.2,0.5s-0.1,0.4-0.3,0.5c-0.2,0.1-0.4,0.2-0.6,0.2c-0.1,0-0.3,0-0.4-0.1
		s-0.2-0.2-0.3-0.3l-1.5-2.2c-0.1-0.2-0.3-0.3-0.4-0.4C85.2,98,85,98,84.8,98h-0.9v2.2c0,0.3-0.1,0.5-0.2,0.6
		c-0.1,0.2-0.3,0.2-0.6,0.2c-0.3,0-0.5-0.1-0.6-0.2s-0.2-0.4-0.2-0.6V94c0-0.3,0.1-0.5,0.2-0.6s0.3-0.2,0.6-0.2h2.8
		c0.9,0,1.6,0.2,2.1,0.6s0.7,1,0.7,1.7c0,0.6-0.2,1.1-0.5,1.5s-0.8,0.7-1.4,0.8c0.2,0,0.4,0.1,0.6,0.3c0.2,0.1,0.3,0.3,0.5,0.5
		L88.6,99.9z M85.5,96.7c0.5,0,0.8-0.1,1.1-0.3c0.2-0.2,0.3-0.4,0.3-0.8s-0.1-0.6-0.3-0.8c-0.2-0.2-0.6-0.3-1.1-0.3h-1.6v2.1h1.6
		V96.7z"/>
        <path fill="#3E3E3E" d="M92.7,101.1c-0.6,0-1.1-0.1-1.6-0.2s-0.9-0.3-1.2-0.6c-0.1-0.1-0.2-0.2-0.2-0.3c0-0.1-0.1-0.2-0.1-0.4
		c0-0.2,0.1-0.3,0.2-0.5c0.1-0.1,0.2-0.2,0.4-0.2c0.1,0,0.2,0,0.2,0c0.1,0,0.2,0.1,0.3,0.1c0.3,0.2,0.6,0.3,1,0.4
		c0.3,0.1,0.7,0.1,1.1,0.1c0.5,0,0.9-0.1,1.1-0.2c0.3-0.2,0.4-0.4,0.4-0.7c0-0.2-0.1-0.4-0.4-0.6c-0.2-0.1-0.7-0.3-1.3-0.4
		c-0.7-0.1-1.2-0.3-1.6-0.5s-0.7-0.4-0.9-0.7c-0.2-0.3-0.3-0.6-0.3-1.1s0.1-0.9,0.4-1.2c0.3-0.4,0.6-0.7,1.1-0.9
		c0.5-0.2,1-0.3,1.6-0.3c1,0,1.9,0.3,2.6,0.8c0.1,0.1,0.2,0.2,0.2,0.3c0.1,0.1,0.1,0.2,0.1,0.3c0,0.2-0.1,0.3-0.2,0.5
		c-0.1,0.1-0.2,0.2-0.4,0.2c-0.1,0-0.2,0-0.2,0c-0.1,0-0.2-0.1-0.3-0.1c-0.3-0.2-0.6-0.3-0.8-0.4c-0.2-0.1-0.6-0.1-1-0.1
		s-0.8,0.1-1.1,0.3c-0.3,0.2-0.4,0.4-0.4,0.7c0,0.2,0,0.3,0.1,0.4s0.3,0.2,0.5,0.3c0.2,0.1,0.6,0.2,1,0.3c1,0.2,1.7,0.5,2.1,0.8
		s0.7,0.8,0.7,1.4c0,0.5-0.1,0.9-0.4,1.2c-0.3,0.4-0.6,0.6-1.1,0.8C93.8,101,93.3,101.1,92.7,101.1z"/>
</g>
</svg>
