<?xml version="1.0" encoding="utf-8"?>
<!-- Generator: Adobe Illustrator 24.0.1, SVG Export Plug-In . SVG Version: 6.00 Build 0)  -->
<svg version="1.1" id="Layer_1" xmlns="http://www.w3.org/2000/svg" xmlns:xlink="http://www.w3.org/1999/xlink" x="0px" y="0px"
    viewBox="0 0 61 60" enable-background="new 0 0 61 60" xml:space="preserve">
<g id="small_icon_home">
	<g id="Polygon_25">
		<g>
			<g>
				<path fill="#FFFFFF" d="M28.3,1.4c1.5-0.9,3.5-0.9,5,0l21,12.1c1.5,0.9,2.5,2.5,2.5,4.3V42c0,1.8-1,3.4-2.5,4.3l-21,12.1
					c-1.5,0.9-3.5,0.9-5,0l-21-12.1c-1.5-0.9-2.5-2.5-2.5-4.3V17.9c0-1.8,1-3.4,2.5-4.3L28.3,1.4z"/>
			</g>
		</g>
        <g>

				<linearGradient id="SVGID_1_" gradientUnits="userSpaceOnUse" x1="10.9114" y1="788.3932" x2="47.137" y2="831.4111" gradientTransform="matrix(1 0 0 1 0 -782)">
				<stop  offset="0" style="stop-color:#005888"/>
                    <stop  offset="1" style="stop-color:#5CB3E2"/>
			</linearGradient>
            <path fill="url(#SVGID_1_)" d="M30.8,59.2c-0.9,0-1.7-0.2-2.5-0.7l-21-12.1c-1.5-0.9-2.5-2.5-2.5-4.3V17.9c0-1.8,1-3.4,2.5-4.3
				l21-12.1c1.5-0.9,3.5-0.9,5,0l21,12.1c1.5,0.9,2.5,2.6,2.5,4.3v24.2c0,1.8-1,3.4-2.5,4.3l-21,12.1C32.6,59,31.7,59.2,30.8,59.2z
				 M29.3,3.2l-21,12.1c-0.9,0.5-1.5,1.5-1.5,2.6v24.2c0,1.1,0.6,2.1,1.5,2.6l21,12.1c0.9,0.5,2.1,0.5,3,0l21-12.1
				c0.9-0.5,1.5-1.5,1.5-2.6V17.9c0-1.1-0.6-2.1-1.5-2.6l-21-12.1C31.4,2.6,30.3,2.6,29.3,3.2L29.3,3.2z"/>
		</g>
	</g>
    <g id="Vector">
		<g>
			<path fill="#005888" d="M34.8,29.4l-4.5-4.5v3.4H20.1v2.3h10.2V34L34.8,29.4z M42.7,28.3h-2.3v10.2h-18v-5.7h2.3v3.4h13.6v-9.1
				l-6.8-6.8L25.8,26h-3.4l9.1-9.1L42.7,28.3z"/>
		</g>
	</g>
</g>
</svg>
