<svg width="33" height="13" viewBox="0 0 33 13" fill="none" xmlns="http://www.w3.org/2000/svg">
<path d="M6.93099 3.22126C6.65606 3.22126 6.42041 2.98561 6.42041 2.71068V0.746909C6.42041 0.471981 6.65606 0.236328 6.93099 0.236328C7.20592 0.236328 7.44157 0.471981 7.44157 0.746909V2.67141C7.44157 2.98561 7.20592 3.22126 6.93099 3.22126Z" fill="#005888"/>
<path d="M8.4232 0.510581C8.4232 0.78551 8.18755 1.02116 7.91262 1.02116H5.98812C5.71319 1.02116 5.47754 0.78551 5.47754 0.510581C5.47754 0.235653 5.71319 0 5.98812 0H7.91262C8.18755 0 8.4232 0.235653 8.4232 0.510581Z" fill="#005888"/>
<path d="M13.7254 3.22126C13.4505 3.22126 13.2148 2.98561 13.2148 2.71068V0.746909C13.2148 0.471981 13.4505 0.236328 13.7254 0.236328C14.0004 0.236328 14.236 0.471981 14.236 0.746909V2.67141C14.2753 2.98561 14.0004 3.22126 13.7254 3.22126Z" fill="#005888"/>
<path d="M15.2175 0.510581C15.2175 0.78551 14.9819 1.02116 14.7069 1.02116H12.7824C12.5075 1.02116 12.2719 0.78551 12.2719 0.510581C12.2326 0.235653 12.4682 0 12.7824 0H14.7069C14.9819 0 15.2175 0.235653 15.2175 0.510581Z" fill="#005888"/>
<path d="M6.93088 9.81934C7.20581 9.81934 7.44146 10.055 7.44146 10.3299V12.2544C7.44146 12.5293 7.20581 12.765 6.93088 12.765C6.65595 12.765 6.4203 12.5293 6.4203 12.2544V10.3299C6.38102 10.055 6.61668 9.81934 6.93088 9.81934Z" fill="#005888"/>
<path d="M5.43799 12.4901C5.43799 12.2151 5.67364 11.9795 5.94857 11.9795H7.87307C8.148 11.9795 8.38365 12.2151 8.38365 12.4901C8.38365 12.765 8.148 13.0007 7.87307 13.0007H5.94857C5.67364 13.0007 5.43799 12.765 5.43799 12.4901Z" fill="#005888"/>
<path d="M20.4808 9.81934C20.7557 9.81934 20.9914 10.055 20.9914 10.3299V12.2544C20.9914 12.5293 20.7557 12.765 20.4808 12.765C20.2059 12.765 19.9702 12.5293 19.9702 12.2544V10.3299C19.9702 10.055 20.2059 9.81934 20.4808 9.81934Z" fill="#005888"/>
<path d="M18.9878 12.4901C18.9878 12.2151 19.2234 11.9795 19.4984 11.9795H21.4229C21.6978 11.9795 21.9335 12.2151 21.9335 12.4901C21.9335 12.765 21.6978 13.0007 21.4229 13.0007H19.4984C19.2234 13.0007 18.9878 12.765 18.9878 12.4901Z" fill="#005888"/>
<path d="M9.16895 1.33594V12.3331" stroke="#005888" stroke-miterlimit="10" stroke-linecap="round"/>
<path d="M11.4082 1.33594V12.3331" stroke="#005888" stroke-miterlimit="10" stroke-linecap="round"/>
<path d="M1 6.56002C1 8.75945 2.80667 10.5661 5.0061 10.5661H9.13003V2.51465H5.0061C2.80667 2.51465 1 4.32132 1 6.56002Z" fill="#7AC4EC" stroke="#005888" stroke-miterlimit="10"/>
<path d="M27.9824 2.51367H25.7437V10.5651H27.9824C30.1818 10.5651 31.9885 8.75848 31.9885 6.55905C31.9885 4.32034 30.1818 2.51367 27.9824 2.51367Z" fill="#7AC4EC" stroke="#005888" stroke-miterlimit="10"/>
<path d="M23.4658 2.51367H11.4082V10.5651H23.4658V2.51367Z" fill="#7AC4EC" stroke="#005888" stroke-miterlimit="10"/>
<path d="M23.4658 1.33594V12.3331" stroke="#005888" stroke-miterlimit="10" stroke-linecap="round"/>
<path d="M25.7437 1.33594V12.3331" stroke="#005888" stroke-miterlimit="10" stroke-linecap="round"/>
</svg>
