<svg width="34" height="19" viewBox="0 0 34 19" fill="none" xmlns="http://www.w3.org/2000/svg">
<path d="M32.6507 5.26534H28.2432C27.5237 5.26534 26.894 4.63695 26.894 3.9188C26.894 3.20065 27.5237 2.57227 28.2432 2.57227H32.6507C33.3702 2.57227 33.9999 3.20065 33.9999 3.9188C33.9999 4.63695 33.3702 5.26534 32.6507 5.26534Z" fill="#005888"/>
<path d="M22.0212 17.655L22.0254 17.6659L22.0301 17.6765C22.2455 18.1602 21.938 18.4992 21.5874 18.4992H9.80434C9.34416 18.4992 9.04766 18.0414 9.19207 17.6516L11.1353 12.6768H20.0766L22.0212 17.655Z" fill="#5CB3E2" stroke="#005888"/>
<path d="M7.10582 9.84444H1.34921C0.62963 9.84444 0 9.30582 0 8.4979C0 7.77975 0.62963 7.15137 1.34921 7.15137H7.10582V9.84444Z" fill="#005888"/>
<path d="M23.0264 6.56125H22.4162L22.5361 7.15949C22.6243 7.59959 22.7063 8.09925 22.7063 8.58732C22.7063 12.5332 19.5093 15.8075 15.4708 15.8075C11.5147 15.8075 8.23535 12.6154 8.23535 8.58732C8.23535 4.64894 11.426 1.45403 15.3863 1.36719H26.984C27.7729 1.36719 28.3729 2.02639 28.3729 2.75234V5.1761C28.3729 5.97625 27.7882 6.56125 26.984 6.56125H23.0264Z" fill="#7AC4EC" stroke="#005888"/>
<path d="M15.7408 10.9599H6.74608C6.30171 10.9599 5.98682 10.6442 5.98682 10.2031V6.79192C5.98682 6.35085 6.30171 6.03516 6.74608 6.03516H15.6508C16.9947 6.03516 18.1191 7.15877 18.1191 8.49753C18.1191 9.85655 17.0648 10.9599 15.7408 10.9599Z" fill="#5CB3E2" stroke="#005888"/>
</svg>
