<svg width="22" height="27" viewBox="0 0 22 27" fill="none" xmlns="http://www.w3.org/2000/svg">
<path fill-rule="evenodd" clip-rule="evenodd" d="M4.51962 1.05078H1.72518C1.51476 1.05078 1.32959 1.13495 1.19492 1.26962C1.06024 1.40429 0.976074 1.59788 0.976074 1.79989V24.3405C0.976074 24.5509 1.06024 24.7361 1.19492 24.8708C1.32959 25.0055 1.52318 25.0896 1.72518 25.0896H19.9395C20.1499 25.0896 20.3351 25.0055 20.4698 24.8708C20.6044 24.7361 20.6886 24.5425 20.6886 24.3405V1.80831C20.6886 1.59788 20.6044 1.41271 20.4698 1.27804C20.3351 1.14337 20.1415 1.0592 19.9395 1.0592H17.3892H4.51962V1.05078Z" fill="#5CB3E2"/>
<path d="M17.2548 1.05059C17.5241 1.05059 17.743 0.831745 17.743 0.562403C17.743 0.29306 17.5241 0.0742188 17.2548 0.0742188H1.72548C1.25413 0.0826357 0.816445 0.276226 0.505018 0.587654C0.19359 0.899081 0 1.32835 0 1.80811V24.3487C0 24.8201 0.19359 25.2578 0.505018 25.5692C0.816445 25.8806 1.24571 26.0742 1.72548 26.0742H19.9398C20.4111 26.0742 20.8488 25.8806 21.1602 25.5692C21.4717 25.2578 21.6653 24.8285 21.6653 24.3487V1.80811C21.6653 1.33676 21.4717 0.899081 21.1602 0.587654C20.8488 0.276226 20.4196 0.0826357 19.9398 0.0826357H16.9181C16.6488 0.0826357 16.4299 0.301477 16.4299 0.57082C16.4299 0.840162 16.6488 1.059 16.9181 1.059H19.9398C20.1502 1.059 20.3354 1.14317 20.4701 1.27784C20.6047 1.41252 20.6889 1.60611 20.6889 1.80811V24.3487C20.6889 24.5592 20.6047 24.7443 20.4701 24.879C20.3354 25.0137 20.1418 25.0979 19.9398 25.0979H1.72548C1.51505 25.0979 1.32988 25.0137 1.19521 24.879C1.06054 24.7443 0.976368 24.5507 0.976368 24.3487V1.80811C0.976368 1.59769 1.06054 1.41252 1.19521 1.27784C1.32988 1.14317 1.52347 1.059 1.72548 1.059H17.2548V1.05059Z" fill="#005888"/>
<path d="M10.4452 4.13086C10.1759 4.13086 9.95703 4.3497 9.95703 4.61904C9.95703 4.88839 10.1759 5.10723 10.4452 5.10723H18.0878C18.3572 5.10723 18.576 4.88839 18.576 4.61904C18.576 4.3497 18.3572 4.13086 18.0878 4.13086H10.4452Z" fill="#005888"/>
<path d="M10.4452 6.44531C10.1759 6.44531 9.95703 6.66415 9.95703 6.9335C9.95703 7.20284 10.1759 7.42168 10.4452 7.42168H18.0878C18.3572 7.42168 18.576 7.20284 18.576 6.9335C18.576 6.66415 18.3572 6.44531 18.0878 6.44531H10.4452Z" fill="#005888"/>
<path fill-rule="evenodd" clip-rule="evenodd" d="M5.61412 5.92371L6.98609 4.73692C7.18809 4.56016 7.49111 4.58541 7.66786 4.78742C7.84462 4.98943 7.81937 5.29244 7.61736 5.46919L5.87505 6.97583C5.67304 7.14417 5.36161 7.11892 5.19327 6.91691L4.6125 6.22672C4.44416 6.02471 4.46942 5.7217 4.67142 5.54495C4.87343 5.37661 5.17644 5.40186 5.3532 5.60387L5.61412 5.92371ZM4.24216 8.40671H8.02979C8.44222 8.40671 8.77048 8.07004 8.77048 7.66602V3.87839C8.77048 3.46596 8.43381 3.1377 8.02979 3.1377H4.24216C3.82973 3.1377 3.50146 3.47437 3.50146 3.87839V7.66602C3.50146 8.07845 3.83814 8.40671 4.24216 8.40671Z" fill="white"/>
<path d="M10.4452 11.3018C10.1759 11.3018 9.95703 11.5206 9.95703 11.7899C9.95703 12.0593 10.1759 12.2781 10.4452 12.2781H18.0878C18.3572 12.2781 18.576 12.0593 18.576 11.7899C18.576 11.5206 18.3572 11.3018 18.0878 11.3018H10.4452Z" fill="#005888"/>
<path d="M10.4452 13.6172C10.1759 13.6172 9.95703 13.836 9.95703 14.1054C9.95703 14.3747 10.1759 14.5936 10.4452 14.5936H18.0878C18.3572 14.5936 18.576 14.3747 18.576 14.1054C18.576 13.836 18.3572 13.6172 18.0878 13.6172H10.4452Z" fill="#005888"/>
<path fill-rule="evenodd" clip-rule="evenodd" d="M5.61412 13.0872L6.98609 11.9088C7.18809 11.732 7.49111 11.7573 7.66786 11.9593C7.84462 12.1613 7.81937 12.4643 7.61736 12.6411L5.87505 14.1393C5.67304 14.3076 5.36161 14.2824 5.19327 14.0804L4.6125 13.3902C4.44416 13.1882 4.46942 12.8852 4.67142 12.7084C4.87343 12.5401 5.17644 12.5653 5.3532 12.7673L5.61412 13.0872ZM4.24216 15.5786H8.02979C8.44222 15.5786 8.77048 15.2419 8.77048 14.8379V11.0503C8.77048 10.6378 8.43381 10.3096 8.02979 10.3096H4.24216C3.82973 10.3096 3.50146 10.6462 3.50146 11.0503V14.8379C3.50146 15.2503 3.83814 15.5786 4.24216 15.5786Z" fill="white"/>
<path d="M10.4452 18.4648C10.1759 18.4648 9.95703 18.6837 9.95703 18.953C9.95703 19.2224 10.1759 19.4412 10.4452 19.4412H18.0878C18.3572 19.4412 18.576 19.2224 18.576 18.953C18.576 18.6837 18.3572 18.4648 18.0878 18.4648H10.4452Z" fill="#005888"/>
<path d="M10.4452 20.7881C10.1759 20.7881 9.95703 21.0069 9.95703 21.2763C9.95703 21.5456 10.1759 21.7645 10.4452 21.7645H18.0878C18.3572 21.7645 18.576 21.5456 18.576 21.2763C18.576 21.0069 18.3572 20.7881 18.0878 20.7881H10.4452Z" fill="#005888"/>
<path fill-rule="evenodd" clip-rule="evenodd" d="M5.61412 20.2581L6.98609 19.0797C7.18809 18.9029 7.49111 18.9282 7.66786 19.1302C7.84462 19.3322 7.81937 19.6352 7.61736 19.812L5.87505 21.3102C5.67304 21.4785 5.36161 21.4533 5.19327 21.2513L4.6125 20.5611C4.44416 20.3591 4.46942 20.0561 4.67142 19.8793C4.87343 19.711 5.17644 19.7362 5.3532 19.9382L5.61412 20.2581ZM4.24216 22.7495H8.02979C8.44222 22.7495 8.77048 22.4128 8.77048 22.0088V18.2212C8.77048 17.8087 8.43381 17.4805 8.02979 17.4805H4.24216C3.82973 17.4805 3.50146 17.8171 3.50146 18.2212V22.0088C3.50146 22.4128 3.83814 22.7495 4.24216 22.7495Z" fill="white"/>
</svg>
