<svg width="26" height="24" viewBox="0 0 26 24" fill="none" xmlns="http://www.w3.org/2000/svg">
<path d="M1.42188 2.64844V21.3512C1.42188 22.2608 6.6594 22.9998 13.1114 22.9998C19.5634 22.9998 24.801 22.2608 24.801 21.3512V2.64844H1.42188Z" fill="#5CB3E2" stroke="#005888" stroke-miterlimit="10"/>
<path d="M13.7187 2.76213H14.6295V22.9808C15.0091 22.9808 15.4076 22.9619 15.7681 22.9429V2.76213H16.679V22.924C17.0775 22.9051 17.457 22.8861 17.8176 22.8672V2.76213H18.7285V22.7914C19.127 22.7535 19.5065 22.7345 19.8671 22.6966V2.76213H20.7779V22.5829C21.1764 22.5261 21.575 22.4692 21.9165 22.4124V2.76213H22.8274V22.2608C23.2828 22.166 23.6624 22.0523 23.966 21.9386V2.76213H24.744V2.64844H1.42188V2.76213H2.27582V21.9576C2.57944 22.0713 2.95897 22.166 3.41441 22.2608V2.74318H4.32528V22.4124C4.68584 22.4692 5.06537 22.5261 5.46388 22.564V2.76213H6.37475V22.6966C6.7353 22.7345 7.11483 22.7724 7.51334 22.7914V2.76213H8.42422V22.8672C8.80375 22.8861 9.18328 22.9051 9.56281 22.924V2.76213H10.4737V22.9619C10.8532 22.9808 11.2327 22.9808 11.6123 22.9808V2.76213H12.5231V22.9998C12.6939 22.9998 12.8837 22.9998 13.0545 22.9998C13.2632 22.9998 13.453 22.9998 13.6617 22.9998V2.76213H13.7187Z" fill="#005888"/>
<path d="M13.1114 4.29715C19.5674 4.29715 24.801 3.55906 24.801 2.64857C24.801 1.73809 19.5674 1 13.1114 1C6.65546 1 1.42188 1.73809 1.42188 2.64857C1.42188 3.55906 6.65546 4.29715 13.1114 4.29715Z" fill="#5CB3E2" stroke="#005888" stroke-miterlimit="10"/>
<path d="M13.1116 3.27408C15.5326 3.27408 17.4952 2.99411 17.4952 2.64876C17.4952 2.3034 15.5326 2.02344 13.1116 2.02344C10.6906 2.02344 8.72803 2.3034 8.72803 2.64876C8.72803 2.99411 10.6906 3.27408 13.1116 3.27408Z" fill="#5CB3E2" stroke="#005888" stroke-miterlimit="10"/>
</svg>
