<svg width="25" height="17" viewBox="0 0 25 17" fill="none" xmlns="http://www.w3.org/2000/svg">
<path d="M24.3121 8.49147L20.4286 1.93066H17.622L20.8441 7.38946H11.271V9.59348H20.8441L17.5372 15.0523L20.5134 15.0608L24.3121 8.49147Z" fill="#005888"/>
<path d="M15.1885 10.5332L12.9246 14.4799H6.07329L2.64766 8.5L6.07329 2.5201H12.933L15.197 6.46683H18.0969L14.8663 0.828643C14.5695 0.31608 14.0269 0 13.4418 0H5.57301C4.98794 0 4.43679 0.31608 4.14849 0.828643L0.222581 7.66281C-0.0741938 8.17538 -0.0741938 8.80754 0.222581 9.3201L4.14849 16.1714C4.44527 16.6839 4.98794 17 5.57301 17H13.4248C14.0099 17 14.5611 16.6839 14.8493 16.1714L18.08 10.5332H15.1885Z" fill="#5CB3E2"/>
</svg>
