<svg width="27" height="24" viewBox="0 0 27 24" fill="none" xmlns="http://www.w3.org/2000/svg">
<path d="M22.8545 2.54395H25.1719V23.667H22.8545H17.7269V2.54395H22.8545Z" fill="#6FBCE2"/>
<path d="M15.4095 2.54395H19.3784V23.667H15.4095V2.54395Z" fill="#5CB3E2"/>
<path d="M15.1698 23.9066C15.2364 23.9732 15.3163 23.9999 15.4095 23.9999H25.1719C25.3584 23.9999 25.5049 23.8534 25.5049 23.6669V2.5439C25.5049 2.35744 25.3584 2.21094 25.1719 2.21094H15.4095C15.2231 2.21094 15.0766 2.35744 15.0766 2.5439V23.6669C15.0766 23.7601 15.1165 23.84 15.1698 23.9066ZM24.839 23.3339H15.7425V2.87686H24.839V23.3339Z" fill="#005888"/>
<path d="M13.9178 1.43844C13.9178 2.05108 14.4106 2.54387 15.0233 2.54387H25.5581C26.1708 2.54387 26.6636 2.05108 26.6636 1.43844C26.6636 0.825789 26.1708 0.333008 25.5581 0.333008H15.0233C14.4106 0.333008 13.9178 0.825789 13.9178 1.43844Z" fill="#5CB3E2"/>
<path d="M14.0111 2.45059C14.2775 2.71696 14.6371 2.87678 15.0233 2.87678H25.5582C26.3573 2.87678 26.9966 2.23749 26.9966 1.43839C26.9966 1.05216 26.8501 0.692558 26.5704 0.426189C26.304 0.159821 25.9311 0 25.5582 0H15.0233C14.2242 0 13.5849 0.639284 13.5849 1.43839C13.5849 1.83794 13.7448 2.19754 14.0111 2.45059ZM26.1042 0.892334C26.2508 1.03884 26.3307 1.23861 26.3307 1.43839C26.3307 1.86458 25.9844 2.21086 25.5582 2.21086H15.0233C14.5971 2.21086 14.2509 1.86458 14.2509 1.43839C14.2509 1.0122 14.5971 0.665921 15.0233 0.665921H25.5582C25.758 0.665921 25.9577 0.745831 26.1042 0.892334Z" fill="#005888"/>
<path d="M22.4546 17.5937V20.8701C22.4546 21.1364 22.6677 21.3495 22.9341 21.3495C23.2005 21.3495 23.4136 21.1364 23.4136 20.8701V17.5937C23.4136 17.3274 23.2005 17.1143 22.9341 17.1143C22.6677 17.1143 22.4546 17.3274 22.4546 17.5937Z" fill="#005888"/>
<path d="M19.8174 17.5937V20.8701C19.8174 21.1364 20.0305 21.3495 20.2969 21.3495C20.5633 21.3495 20.7764 21.1364 20.7764 20.8701V17.5937C20.7764 17.3274 20.5633 17.1143 20.2969 17.1143C20.0305 17.1143 19.8174 17.3274 19.8174 17.5937Z" fill="#005888"/>
<path d="M17.1807 17.5937V20.8701C17.1807 21.1364 17.3938 21.3495 17.6602 21.3495C17.9266 21.3495 18.1396 21.1364 18.1396 20.8701V17.5937C18.1396 17.3274 17.9266 17.1143 17.6602 17.1143C17.3938 17.1143 17.1807 17.3274 17.1807 17.5937Z" fill="#005888"/>
<path d="M22.4546 11.4677V14.7441C22.4546 15.0104 22.6677 15.2235 22.9341 15.2235C23.2005 15.2235 23.4136 15.0104 23.4136 14.7441V11.4677C23.4136 11.2014 23.2005 10.9883 22.9341 10.9883C22.6677 10.9883 22.4546 11.2014 22.4546 11.4677Z" fill="#005888"/>
<path d="M19.8174 11.4677V14.7441C19.8174 15.0104 20.0305 15.2235 20.2969 15.2235C20.5633 15.2235 20.7764 15.0104 20.7764 14.7441V11.4677C20.7764 11.2014 20.5633 10.9883 20.2969 10.9883C20.0305 10.9883 19.8174 11.2014 19.8174 11.4677Z" fill="#005888"/>
<path d="M17.1807 11.4677V14.7441C17.1807 15.0104 17.3938 15.2235 17.6602 15.2235C17.9266 15.2235 18.1396 15.0104 18.1396 14.7441V11.4677C18.1396 11.2014 17.9266 10.9883 17.6602 10.9883C17.3938 10.9883 17.1807 11.2014 17.1807 11.4677Z" fill="#005888"/>
<path d="M22.4546 5.34079V8.61712C22.4546 8.88349 22.6677 9.09659 22.9341 9.09659C23.2005 9.09659 23.4136 8.88349 23.4136 8.61712V5.34079C23.4136 5.07442 23.2005 4.86133 22.9341 4.86133C22.6677 4.86133 22.4546 5.07442 22.4546 5.34079Z" fill="#005888"/>
<path d="M19.8174 5.34079V8.61712C19.8174 8.88349 20.0305 9.09659 20.2969 9.09659C20.5633 9.09659 20.7764 8.88349 20.7764 8.61712V5.34079C20.7764 5.07442 20.5633 4.86133 20.2969 4.86133C20.0305 4.86133 19.8174 5.07442 19.8174 5.34079Z" fill="#005888"/>
<path d="M17.1807 5.34079V8.61712C17.1807 8.88349 17.3938 9.09659 17.6602 9.09659C17.9266 9.09659 18.1396 8.88349 18.1396 8.61712V5.34079C18.1396 5.07442 17.9266 4.86133 17.6602 4.86133C17.3938 4.86133 17.1807 5.07442 17.1807 5.34079Z" fill="#005888"/>
<path d="M9.28269 9.52246H11.6001V23.6666H9.28269H4.14178V9.52246H9.28269Z" fill="#6FBCE2"/>
<path d="M1.82457 9.52246H5.79346V23.6666H1.82457V9.52246Z" fill="#5CB3E2"/>
<path d="M1.59801 23.9063C1.66461 23.9729 1.74452 23.9995 1.83775 23.9995H11.6001C11.7866 23.9995 11.9331 23.853 11.9331 23.6666V9.52241C11.9331 9.33596 11.7866 9.18945 11.6001 9.18945H1.83775C1.65129 9.18945 1.50478 9.33596 1.50478 9.52241V23.6666C1.49147 23.7598 1.53142 23.8397 1.59801 23.9063ZM11.2672 23.3336H2.17071V9.85537H11.2672V23.3336Z" fill="#005888"/>
<path d="M0.346068 8.41695C0.346068 9.0296 0.838851 9.52238 1.4515 9.52238H11.9864C12.599 9.52238 13.0918 9.0296 13.0918 8.41695C13.0918 7.8043 12.599 7.31152 11.9864 7.31152H1.4515C0.838851 7.31152 0.346068 7.8043 0.346068 8.41695Z" fill="#5CB3E2"/>
<path d="M0.426162 9.4291C0.692531 9.69547 1.05213 9.85529 1.43836 9.85529H11.9732C12.7723 9.85529 13.4116 9.21601 13.4116 8.4169C13.4116 8.03067 13.2651 7.67107 12.9854 7.4047C12.7191 7.13834 12.3461 6.97852 11.9732 6.97852H1.43836C0.639257 6.97852 -2.67029e-05 7.6178 -2.67029e-05 8.4169C0.0132914 8.81646 0.173112 9.17605 0.426162 9.4291ZM12.5193 7.87085C12.6658 8.01735 12.7457 8.21713 12.7457 8.4169C12.7457 8.84309 12.3994 9.18937 11.9732 9.18937H1.43836C1.01217 9.18937 0.665895 8.84309 0.665895 8.4169C0.665895 7.99072 1.01217 7.64444 1.43836 7.64444H11.9732C12.1863 7.64444 12.3728 7.72435 12.5193 7.87085Z" fill="#005888"/>
<path d="M8.87017 17.5937V20.8701C8.87017 21.1364 9.08327 21.3495 9.34964 21.3495C9.61601 21.3495 9.8291 21.1364 9.8291 20.8701V17.5937C9.8291 17.3274 9.61601 17.1143 9.34964 17.1143C9.08327 17.1143 8.87017 17.3274 8.87017 17.5937Z" fill="#005888"/>
<path d="M6.23297 17.5937V20.8701C6.23297 21.1364 6.44606 21.3495 6.71243 21.3495C6.9788 21.3495 7.19189 21.1364 7.19189 20.8701V17.5937C7.19189 17.3274 6.9788 17.1143 6.71243 17.1143C6.44606 17.1143 6.23297 17.3274 6.23297 17.5937Z" fill="#005888"/>
<path d="M3.60943 17.5937V20.8701C3.60943 21.1364 3.82253 21.3495 4.0889 21.3495C4.35526 21.3495 4.56836 21.1364 4.56836 20.8701V17.5937C4.56836 17.3274 4.35526 17.1143 4.0889 17.1143C3.82253 17.1143 3.60943 17.3274 3.60943 17.5937Z" fill="#005888"/>
<path d="M8.87017 11.4668V14.7431C8.87017 15.0095 9.08327 15.2226 9.34964 15.2226C9.61601 15.2226 9.8291 15.0095 9.8291 14.7431V11.4668C9.8291 11.2004 9.61601 10.9873 9.34964 10.9873C9.08327 10.9873 8.87017 11.2004 8.87017 11.4668Z" fill="#005888"/>
<path d="M6.23297 11.4668V14.7431C6.23297 15.0095 6.44606 15.2226 6.71243 15.2226C6.9788 15.2226 7.19189 15.0095 7.19189 14.7431V11.4668C7.19189 11.2004 6.9788 10.9873 6.71243 10.9873C6.44606 10.9873 6.23297 11.2004 6.23297 11.4668Z" fill="#005888"/>
<path d="M3.60943 11.4668V14.7431C3.60943 15.0095 3.82253 15.2226 4.0889 15.2226C4.35526 15.2226 4.56836 15.0095 4.56836 14.7431V11.4668C4.56836 11.2004 4.35526 10.9873 4.0889 10.9873C3.82253 10.9873 3.60943 11.2004 3.60943 11.4668Z" fill="#005888"/>
</svg>
