<svg width="28" height="25" viewBox="0 0 28 25" fill="none" xmlns="http://www.w3.org/2000/svg">
<path d="M1 2.84668H6.87213C7.68771 2.84668 8.38094 3.49425 8.38094 4.34419V9.72712" stroke="#005888" stroke-width="2" stroke-miterlimit="10" stroke-linecap="round" stroke-linejoin="round"/>
<path d="M18.1274 9.97062V4.06153C18.1274 3.25206 18.7799 2.60449 19.5955 2.60449H25.019" stroke="#005888" stroke-width="2" stroke-miterlimit="10" stroke-linecap="round" stroke-linejoin="round"/>
<path d="M23.2031 0V5.99622L28.0001 2.61374L23.2031 0Z" fill="#005888"/>
<path d="M2.9165 21.8283V8.83636C2.9165 7.82453 3.77286 7.01506 4.71077 7.17696L22.4087 9.92913C23.1835 10.0506 23.7544 10.7386 23.7544 11.5885V19.157C23.7544 20.007 23.1835 20.695 22.4087 20.8164L4.71077 23.5281C3.77286 23.6496 2.9165 22.8401 2.9165 21.8283Z" fill="#7AC4EC" stroke="#005888" stroke-width="2" stroke-miterlimit="10"/>
</svg>
