<svg width="29" height="20" viewBox="0 0 29 20" fill="none" xmlns="http://www.w3.org/2000/svg">
<path d="M0 1H24.2874C25.8213 1 27.0631 2.24138 27.0631 3.77485V16.2252C27.0631 17.7586 25.8213 19 24.2874 19H0" fill="#7AC4EC"/>
<path d="M0 1H24.2874C25.8213 1 27.0631 2.24138 27.0631 3.77485V16.2252C27.0631 17.7586 25.8213 19 24.2874 19H0" stroke="#005888" stroke-width="2" stroke-miterlimit="10"/>
<path d="M4.60107 14.5814V4.65039H21.7666V14.5814" stroke="#005888" stroke-miterlimit="10" stroke-linecap="round"/>
<path d="M2.0083 8.63113H6.02576L7.48666 7.17068L8.83799 8.5581L10.1528 7.20719L11.5041 8.5581L12.7094 7.35323L14.0607 8.66764L15.3755 7.35323L16.6538 8.63113L18.1877 7.09766L19.6851 8.59461H23.6661" stroke="#005888" stroke-miterlimit="10" stroke-linecap="round" stroke-linejoin="round"/>
<path d="M23.4468 7.64355V9.61516L25.0538 8.48331L23.4468 7.64355Z" fill="#005888"/>
<path d="M18.9909 10.126L13.1108 10.8927L7.15769 10.126C6.75595 10.126 6.42725 10.4911 6.42725 10.9292C6.42725 11.3674 6.75595 11.7325 7.15769 11.7325L13.0378 10.9657L18.9909 11.7325C19.3927 11.7325 19.7214 11.3674 19.7214 10.9292C19.7214 10.4911 19.3927 10.126 18.9909 10.126Z" fill="#005888" stroke="#005888" stroke-miterlimit="10"/>
<path d="M13.1108 11.2588V16.1148" stroke="#005888" stroke-miterlimit="10" stroke-linecap="round"/>
</svg>
