<svg width="23" height="30" viewBox="0 0 23 30" fill="none" xmlns="http://www.w3.org/2000/svg">
<path d="M16.1561 13.1062C18.5977 10.6933 18.5977 6.7813 16.1561 4.36846C13.7145 1.95561 9.75598 1.95561 7.31441 4.36846C4.87284 6.78131 4.87284 10.6933 7.31441 13.1062C9.75598 15.519 13.7145 15.519 16.1561 13.1062Z" fill="white"/>
<path d="M4.43746 13.0623C4.52463 13.2738 4.61972 13.4695 4.72273 13.6653L3.58166 15.5525L6.18868 18.1289L8.13008 17.0169C8.55798 17.2362 9.00965 17.4241 9.47717 17.5651L10.0477 19.6951H13.7324L14.2712 17.5416C14.7071 17.4006 15.135 17.2283 15.547 17.0169L17.4884 18.1289L20.0954 15.5525L18.9464 13.6653C19.0495 13.4695 19.1445 13.2659 19.2317 13.0623C19.3426 12.8117 19.4298 12.5533 19.5091 12.3027L21.6644 11.7389V8.59091L19.5091 8.02709C19.4298 7.7765 19.3347 7.51808 19.2317 7.2675C19.1445 7.05606 19.0495 6.86029 18.9464 6.66452L20.0954 4.77729L17.4884 2.20094L15.547 3.31292C15.135 3.10148 14.715 2.9292 14.2712 2.78825L13.7324 0.634766H10.0477L9.47717 2.76476C9.00965 2.90571 8.55798 3.08582 8.13008 3.31292L6.18868 2.20094L3.58166 4.77729L4.73065 6.66452C4.62764 6.86029 4.53255 7.05606 4.44539 7.2675C4.33445 7.51808 4.24728 7.7765 4.16804 8.02709L2.0127 8.59091V11.7389L4.16804 12.3027C4.23936 12.5533 4.33445 12.8117 4.43746 13.0623ZM11.8385 6.21816C14.0335 6.21816 15.8244 7.98793 15.8244 10.1571C15.8244 12.3341 14.0335 14.096 11.8385 14.096C9.64358 14.096 7.85274 12.3262 7.85274 10.1571C7.85274 7.98793 9.63565 6.21816 11.8385 6.21816Z" fill="#5CB3E2"/>
<path d="M9.26336 18.0035C8.89885 17.886 8.55019 17.7372 8.20946 17.5728L6.1809 18.7395L3.1539 15.7482L4.35836 13.7748C4.28704 13.626 4.21573 13.4694 4.14441 13.3206C4.05724 13.117 3.978 12.9134 3.90669 12.7098L1.65625 12.1146V8.39499L3.90669 7.79985C3.978 7.59624 4.05724 7.39264 4.14441 7.18904C4.2078 7.03242 4.27912 6.88364 4.35836 6.73485L3.14598 4.76148L6.17297 1.77009L8.20154 2.93689C8.54227 2.77244 8.89885 2.62365 9.25544 2.50619L9.85767 0.282227H14.1367L14.7072 2.53751C15.04 2.65498 15.3649 2.7881 15.6819 2.93689L17.7183 1.77009L20.7453 4.76148L19.5409 6.73485C19.6122 6.88364 19.6835 7.04025 19.7548 7.18904C19.842 7.39264 19.9212 7.59624 19.9926 7.79985L22.243 8.39499V12.1146L19.9926 12.7098C19.9212 12.9134 19.842 13.117 19.7548 13.3206C19.6914 13.4772 19.6201 13.626 19.5409 13.7748L20.7453 15.7482L17.7183 18.7395L15.6819 17.5728C15.3649 17.7294 15.04 17.8625 14.7072 17.9721L14.1367 20.2274H9.85767L9.26336 18.0035ZM14.105 17.4318L14.2951 17.3692C14.7151 17.236 15.1351 17.0637 15.5234 16.8601L15.6977 16.774L17.5916 17.8625L19.8341 15.6464L18.7168 13.8061L18.8119 13.6338C18.907 13.4459 19.0021 13.2501 19.0892 13.0465C19.1922 12.8038 19.2873 12.561 19.3586 12.3104L19.4141 12.1225L21.514 11.5743V8.94315L19.4141 8.39499L19.3586 8.20705C19.2794 7.96429 19.1922 7.71371 19.0892 7.47095C19.0021 7.26735 18.907 7.07158 18.8119 6.88364L18.7168 6.71136L19.842 4.87111L17.5995 2.65498L15.7056 3.74346L15.5313 3.65732C15.1351 3.45372 14.7231 3.28144 14.3031 3.14832L14.1129 3.08567L13.582 0.987003H10.4124L9.85767 3.06218L9.66749 3.117C9.21582 3.25012 8.77999 3.43023 8.36794 3.64166L8.19361 3.7278L6.29183 2.65498L4.04932 4.87111L5.16662 6.71136L5.07153 6.88364C4.96851 7.07158 4.88135 7.26735 4.79418 7.47095C4.69117 7.71371 4.59608 7.95646 4.52477 8.20705L4.4693 8.39499L2.36942 8.94315V11.5743L4.4693 12.1225L4.52477 12.3104C4.60401 12.5532 4.69117 12.8038 4.79418 13.0465C4.88135 13.2501 4.97644 13.4459 5.07153 13.6338L5.16662 13.8061L4.04932 15.6464L6.29183 17.8625L8.18569 16.774L8.36002 16.8601C8.77207 17.0716 9.21582 17.2517 9.65956 17.3848L9.84974 17.4396L10.4044 19.5148H13.5741L14.105 17.4318ZM7.55969 10.2587C7.55969 7.87032 9.52486 5.92044 11.9417 5.92044C14.3585 5.92044 16.3316 7.86249 16.3316 10.2587C16.3316 12.6471 14.3665 14.597 11.9417 14.597C9.52486 14.5892 7.55969 12.6471 7.55969 10.2587ZM8.27285 10.2587C8.27285 12.2556 9.92106 13.8844 11.9417 13.8844C13.9623 13.8844 15.6105 12.2556 15.6105 10.2587C15.6105 8.26187 13.9623 6.63305 11.9417 6.63305C9.92106 6.63305 8.27285 8.25404 8.27285 10.2587Z" fill="#005888"/>
<path d="M1.35563 17.338L11.7124 7.76091C11.8154 7.66694 11.966 7.66694 12.069 7.76091L22.4257 17.338C22.6001 17.4947 22.4812 17.7766 22.2514 17.7766H20.3972C20.2545 17.7766 20.1357 17.894 20.1357 18.035V29.3819C20.1357 29.5228 20.0168 29.6403 19.8742 29.6403H3.89926C3.75662 29.6403 3.63776 29.5228 3.63776 29.3819V18.035C3.63776 17.894 3.5189 17.7766 3.37627 17.7766H1.52996C1.29224 17.7766 1.1813 17.4947 1.35563 17.338Z" fill="#5CB3E2"/>
<path d="M3.27291 29.3818V18.1367H1.52961C1.26811 18.1367 1.04624 17.98 0.951151 17.7451C0.856063 17.5102 0.919455 17.2439 1.10171 17.0717L11.4585 7.49453C11.6962 7.27526 12.0686 7.27526 12.3143 7.49453L22.671 17.0717C22.8612 17.2439 22.9167 17.5102 22.8216 17.7451C22.7265 17.98 22.4967 18.1367 22.2431 18.1367H20.4919V29.3818C20.4919 29.7185 20.2146 30.0004 19.8659 30.0004H3.89891C3.55817 30.0004 3.27291 29.7185 3.27291 29.3818ZM19.7629 18.0349C19.7629 17.6981 20.0402 17.4162 20.3889 17.4162H21.9737L11.8864 8.08967L1.79903 17.4162H3.38384C3.72458 17.4162 4.00984 17.6903 4.00984 18.0349V29.28H19.7629V18.0349Z" fill="#005888"/>
<path d="M12.2454 19.8652H16.3184V15.8402H12.2454V19.8652Z" fill="white"/>
<path d="M12.2454 24.6055H16.3184V20.5804H12.2454V24.6055Z" fill="white"/>
<path d="M7.45583 24.6055H11.5288V20.5804H7.45583L7.45583 24.6055Z" fill="white"/>
<path d="M7.45583 19.8652H11.5288V15.8402H7.45583L7.45583 19.8652Z" fill="white"/>
</svg>
