<svg width="25" height="24" viewBox="0 0 25 24" fill="none" xmlns="http://www.w3.org/2000/svg">
<path d="M1.13135 2.63086V21.1425C1.13135 22.0427 6.31486 22.7742 12.7003 22.7742C19.0858 22.7742 24.2693 22.0427 24.2693 21.1425V2.63086H1.13135Z" fill="#5CB3E2" stroke="#005888" stroke-miterlimit="10"/>
<path d="M1.35693 3.41859C1.35693 3.84996 1.71377 4.20632 2.14573 4.20632C2.50256 4.20632 2.82184 3.96249 2.89696 3.6249C2.89696 3.58739 2.91574 3.53112 2.91574 3.49361C2.91574 3.47485 2.91574 3.4561 2.91574 3.41859C2.91574 2.98721 2.55891 2.63086 2.12695 2.63086C1.69499 2.63086 1.35693 2.96846 1.35693 3.41859Z" fill="#5CB3E2"/>
<path d="M3.2915 3.73812C3.2915 4.1695 3.64834 4.52585 4.0803 4.52585C4.43713 4.52585 4.73763 4.28203 4.83153 3.94443C4.83153 3.86941 4.85031 3.79439 4.86909 3.71937C4.86909 3.28799 4.51226 2.93164 4.0803 2.93164C3.62956 2.9504 3.2915 3.30675 3.2915 3.73812Z" fill="#5CB3E2"/>
<path d="M5.99583 4.78835C6.35266 4.78835 6.65316 4.54453 6.74706 4.20693C6.74706 4.16942 6.74706 4.13191 6.74706 4.0944C6.74706 4.01937 6.74706 3.94435 6.76584 3.86933C6.7095 3.49422 6.37144 3.21289 5.99583 3.21289C5.56387 3.21289 5.20703 3.56924 5.20703 4.00062C5.20703 4.43199 5.56387 4.78835 5.99583 4.78835Z" fill="#5CB3E2"/>
<path d="M7.91135 4.90065C8.26819 4.90065 8.58746 4.65683 8.66259 4.31923C8.66259 4.28172 8.66259 4.24421 8.66259 4.2067C8.66259 4.13168 8.66259 4.05666 8.68137 3.98164C8.62502 3.60653 8.28697 3.3252 7.91135 3.3252C7.47939 3.3252 7.12256 3.68155 7.12256 4.11292C7.12256 4.5443 7.47939 4.90065 7.91135 4.90065Z" fill="#5CB3E2"/>
<path d="M9.82688 4.9944C10.1837 4.9944 10.503 4.75058 10.5781 4.41298C10.5781 4.37547 10.5781 4.31921 10.5781 4.28169C10.5781 4.20667 10.5781 4.13165 10.5969 4.05663C10.5218 3.70028 10.2025 3.41895 9.82688 3.41895C9.39492 3.41895 9.03809 3.7753 9.03809 4.20667C9.03809 4.63805 9.39492 4.9944 9.82688 4.9944Z" fill="#5CB3E2"/>
<path d="M11.7429 5.0696C12.1785 5.0696 12.5317 4.71692 12.5317 4.28187C12.5317 3.84682 12.1785 3.49414 11.7429 3.49414C11.3073 3.49414 10.9541 3.84682 10.9541 4.28187C10.9541 4.71692 11.3073 5.0696 11.7429 5.0696Z" fill="#5CB3E2"/>
<path d="M13.7146 5.05104C14.1502 5.05104 14.5034 4.69836 14.5034 4.26331C14.5034 3.82826 14.1502 3.47559 13.7146 3.47559C13.2789 3.47559 12.9258 3.82826 12.9258 4.26331C12.9258 4.69836 13.2789 5.05104 13.7146 5.05104Z" fill="#5CB3E2"/>
<path d="M15.668 4.9944C16.006 4.9944 16.2877 4.78809 16.4004 4.50676C16.3629 4.37547 16.3441 4.24418 16.3441 4.1129C16.3441 4.01912 16.3629 3.92534 16.3816 3.83156C16.2502 3.58774 15.9872 3.41895 15.6867 3.41895C15.2548 3.41895 14.8979 3.7753 14.8979 4.20667C14.8979 4.63805 15.236 4.9944 15.668 4.9944Z" fill="#5CB3E2"/>
<path d="M17.5085 4.90065C17.9029 4.90065 18.2222 4.61932 18.2785 4.24421C18.2598 4.16919 18.2598 4.09417 18.2598 4.01915C18.2598 3.98164 18.2598 3.94412 18.2598 3.90661C18.1659 3.56902 17.8654 3.3252 17.5085 3.3252C17.0766 3.3252 16.7197 3.68155 16.7197 4.11292C16.7197 4.5443 17.0578 4.90065 17.5085 4.90065Z" fill="#5CB3E2"/>
<path d="M19.424 4.78855C19.856 4.78855 20.2128 4.43219 20.2128 4.00082C20.1941 3.9258 20.1753 3.85078 20.1753 3.77575C20.0814 3.43816 19.7809 3.19434 19.424 3.19434C18.9921 3.19434 18.6353 3.55069 18.6353 3.98206C18.6353 4.41344 18.9921 4.78855 19.424 4.78855Z" fill="#5CB3E2"/>
<path d="M21.3398 4.52565C21.7718 4.52565 22.1286 4.1693 22.1286 3.73792C22.1286 3.71917 22.1286 3.70041 22.1286 3.6629C22.1099 3.62539 22.1099 3.56912 22.1099 3.53161C22.0159 3.19402 21.7155 2.9502 21.3586 2.9502C20.9267 2.9502 20.5698 3.30655 20.5698 3.73792C20.5698 4.1693 20.9079 4.52565 21.3398 4.52565Z" fill="#5CB3E2"/>
<path d="M23.2551 4.20632C23.6907 4.20632 24.0439 3.85364 24.0439 3.41859C24.0439 2.98354 23.6907 2.63086 23.2551 2.63086C22.8195 2.63086 22.4663 2.98354 22.4663 3.41859C22.4663 3.85364 22.8195 4.20632 23.2551 4.20632Z" fill="#5CB3E2"/>
<path d="M1.35693 5.37074C1.35693 5.80211 1.71377 6.15846 2.14573 6.15846C2.50256 6.15846 2.82184 5.91464 2.89696 5.57705C2.89696 5.53953 2.91574 5.48327 2.91574 5.44576C2.91574 5.427 2.91574 5.40825 2.91574 5.37074C2.91574 4.93936 2.55891 4.58301 2.12695 4.58301C1.69499 4.58301 1.35693 4.93936 1.35693 5.37074Z" fill="#5CB3E2"/>
<path d="M3.2915 5.6893C3.2915 6.12067 3.64834 6.47702 4.0803 6.47702C4.43713 6.47702 4.73763 6.2332 4.83153 5.8956C4.83153 5.82058 4.85031 5.74556 4.86909 5.67054C4.86909 5.23917 4.51226 4.88281 4.0803 4.88281C3.62956 4.90157 3.2915 5.25792 3.2915 5.6893Z" fill="#5CB3E2"/>
<path d="M5.20703 5.95179C5.20703 6.38317 5.56387 6.73952 5.99583 6.73952C6.35266 6.73952 6.65316 6.4957 6.74706 6.1581C6.74706 6.12059 6.74706 6.08308 6.74706 6.04557C6.74706 5.97055 6.74706 5.89552 6.76584 5.8205C6.7095 5.44539 6.37144 5.16406 5.99583 5.16406C5.56387 5.16406 5.20703 5.52042 5.20703 5.95179Z" fill="#5CB3E2"/>
<path d="M7.12256 6.0641C7.12256 6.49547 7.47939 6.85182 7.91135 6.85182C8.26819 6.85182 8.58746 6.608 8.66259 6.2704C8.66259 6.23289 8.66259 6.19538 8.66259 6.15787C8.66259 6.08285 8.66259 6.00783 8.68137 5.93281C8.62502 5.5577 8.28697 5.27637 7.91135 5.27637C7.47939 5.27637 7.12256 5.63272 7.12256 6.0641Z" fill="#5CB3E2"/>
<path d="M9.03809 6.15785C9.03809 6.58922 9.39492 6.94557 9.82688 6.94557C10.1837 6.94557 10.503 6.70175 10.5781 6.36415C10.5781 6.32664 10.5781 6.27038 10.5781 6.23287C10.5781 6.15784 10.5781 6.08282 10.5969 6.0078C10.5218 5.65145 10.2025 5.37012 9.82688 5.37012C9.39492 5.37012 9.03809 5.72647 9.03809 6.15785Z" fill="#5CB3E2"/>
<path d="M11.7429 7.02077C12.1785 7.02077 12.5317 6.66809 12.5317 6.23304C12.5317 5.79799 12.1785 5.44531 11.7429 5.44531C11.3073 5.44531 10.9541 5.79799 10.9541 6.23304C10.9541 6.66809 11.3073 7.02077 11.7429 7.02077Z" fill="#5CB3E2"/>
<path d="M13.7146 7.00124C14.1502 7.00124 14.5034 6.64856 14.5034 6.21351C14.5034 5.77846 14.1502 5.42578 13.7146 5.42578C13.2789 5.42578 12.9258 5.77846 12.9258 6.21351C12.9258 6.64856 13.2789 7.00124 13.7146 7.00124Z" fill="#5CB3E2"/>
<path d="M14.8789 6.15785C14.8789 6.58922 15.2357 6.94557 15.6677 6.94557C16.0058 6.94557 16.2875 6.73926 16.4002 6.45793C16.3626 6.32664 16.3438 6.19536 16.3438 6.06407C16.3438 5.97029 16.3626 5.87651 16.3814 5.78274C16.2499 5.53892 15.987 5.37012 15.6865 5.37012C15.2357 5.37012 14.8789 5.72647 14.8789 6.15785Z" fill="#5CB3E2"/>
<path d="M16.7197 6.0641C16.7197 6.49547 17.0766 6.85182 17.5085 6.85182C17.9029 6.85182 18.2222 6.57049 18.2785 6.19538C18.2598 6.12036 18.2598 6.04534 18.2598 5.97032C18.2598 5.93281 18.2598 5.8953 18.2598 5.85779C18.1659 5.52019 17.8654 5.27637 17.5085 5.27637C17.0578 5.27637 16.7197 5.63272 16.7197 6.0641Z" fill="#5CB3E2"/>
<path d="M18.6353 5.95101C18.6353 6.38239 18.9921 6.73874 19.424 6.73874C19.856 6.73874 20.2128 6.38239 20.2128 5.95101C20.1941 5.87599 20.1753 5.80097 20.1753 5.72595C20.0814 5.38835 19.7809 5.14453 19.424 5.14453C18.9921 5.16329 18.6353 5.51964 18.6353 5.95101Z" fill="#5CB3E2"/>
<path d="M21.3396 4.90137C20.9076 4.90137 20.5508 5.25772 20.5508 5.6891C20.5508 6.12047 20.9076 6.47682 21.3396 6.47682C21.7715 6.47682 22.1284 6.12047 22.1284 5.6891C22.1284 5.67034 22.1284 5.65158 22.1284 5.61407C22.1096 5.57656 22.1096 5.5203 22.1096 5.48279C21.9969 5.14519 21.6964 4.90137 21.3396 4.90137Z" fill="#5CB3E2"/>
<path d="M23.2551 6.15846C23.6907 6.15846 24.0439 5.80579 24.0439 5.37074C24.0439 4.93569 23.6907 4.58301 23.2551 4.58301C22.8195 4.58301 22.4663 4.93569 22.4663 5.37074C22.4663 5.80579 22.8195 6.15846 23.2551 6.15846Z" fill="#5CB3E2"/>
<path d="M24.4197 5.37024C24.4197 4.95762 24.2131 4.60126 23.8938 4.39495C24.2131 4.18864 24.4197 3.83229 24.4197 3.41967C24.4197 2.78199 23.8938 2.25684 23.2553 2.25684C22.7858 2.25684 22.3726 2.53817 22.1848 2.95079C21.9782 2.72572 21.6777 2.57568 21.3396 2.57568C20.8701 2.57568 20.4757 2.83825 20.2879 3.23212C20.0813 2.9883 19.762 2.83825 19.424 2.83825C19.0108 2.83825 18.6352 3.06332 18.4286 3.40092C18.222 3.11959 17.884 2.95079 17.5083 2.95079C17.1139 2.95079 16.7759 3.13834 16.5505 3.43843C16.3439 3.19461 16.0247 3.04456 15.6678 3.04456C15.2546 3.04456 14.879 3.26963 14.6724 3.60723C14.4658 3.30714 14.109 3.10083 13.7146 3.10083C13.3014 3.10083 12.9258 3.3259 12.7192 3.66349C12.5126 3.34465 12.1558 3.11959 11.7426 3.11959C11.367 3.11959 11.029 3.30714 10.8036 3.58847C10.597 3.26963 10.2402 3.04456 9.82699 3.04456C9.45137 3.04456 9.11332 3.23212 8.90673 3.51345C8.70014 3.17585 8.3433 2.95079 7.91134 2.95079C7.53573 2.95079 7.19767 3.13834 6.99108 3.40092C6.78449 3.06332 6.40888 2.83825 5.9957 2.83825C5.65764 2.83825 5.33837 2.9883 5.13178 3.23212C4.94397 2.83825 4.54958 2.57568 4.08006 2.57568C3.742 2.57568 3.44151 2.72572 3.23492 2.95079C3.04711 2.53817 2.65271 2.25684 2.16441 2.25684C1.52586 2.25684 1 2.78199 1 3.41967C1 3.83229 1.20659 4.18864 1.52586 4.39495C1.20659 4.60126 1 4.95762 1 5.37024C1 5.78286 1.20659 6.13921 1.52586 6.34552C1.20659 6.55183 1 6.90818 1 7.3208C1 7.73342 1.20659 8.08977 1.52586 8.29608C1.20659 8.50239 1 8.85875 1 9.27136C1 9.68398 1.20659 10.0403 1.52586 10.2466C1.20659 10.453 1 10.8093 1 11.2219C1 11.6345 1.20659 11.9909 1.52586 12.1972C1.20659 12.4035 1 12.7599 1 13.1725C1 13.5851 1.20659 13.9415 1.52586 14.1478C1.20659 14.3541 1 14.7104 1 15.1231C1 15.5357 1.20659 15.892 1.52586 16.0983C1.20659 16.3047 1 16.661 1 17.0736C1 17.4862 1.20659 17.8426 1.52586 18.0489C1.20659 18.2552 1 18.6116 1 19.0242C1 19.4368 1.20659 19.7932 1.52586 19.9995C1.20659 20.2058 1 20.5621 1 20.9748C1 21.6124 1.52586 22.1376 2.16441 22.1376C2.50247 22.1376 2.80296 21.9875 3.00955 21.7625C3.19736 22.1751 3.59175 22.4564 4.08006 22.4564C4.41811 22.4564 4.73738 22.3064 4.94397 22.0626C5.13178 22.4564 5.52618 22.719 5.9957 22.719C6.37132 22.719 6.70937 22.5315 6.91596 22.2689C7.12255 22.6065 7.49816 22.8315 7.91134 22.8315C8.28696 22.8315 8.62501 22.644 8.8316 22.3627C9.03819 22.7003 9.39503 22.9253 9.82699 22.9253C10.2026 22.9253 10.5407 22.7378 10.766 22.4564C10.9726 22.7753 11.3295 23.0003 11.7426 23.0003C12.1558 23.0003 12.5314 22.7753 12.738 22.4377C12.9446 22.7565 13.3014 22.9816 13.7146 22.9816C14.1278 22.9816 14.5034 22.7565 14.71 22.4189C14.9166 22.719 15.2734 22.9253 15.6678 22.9253C16.0622 22.9253 16.4003 22.7378 16.6256 22.4377C16.8322 22.6815 17.1515 22.8315 17.5083 22.8315C17.9215 22.8315 18.2971 22.6065 18.5037 22.2689C18.7103 22.5502 19.0484 22.719 19.424 22.719C19.8935 22.719 20.2879 22.4564 20.4757 22.0626C20.6823 22.3064 21.0016 22.4564 21.3396 22.4564C21.8092 22.4564 22.2223 22.1751 22.4101 21.7625C22.6167 21.9875 22.9172 22.1376 23.2553 22.1376C23.8938 22.1376 24.4197 21.6124 24.4197 20.9748C24.4197 20.5621 24.2131 20.2058 23.8938 19.9995C24.2131 19.7932 24.4197 19.4368 24.4197 19.0242C24.4197 18.6116 24.2131 18.2552 23.8938 18.0489C24.2131 17.8426 24.4197 17.4862 24.4197 17.0736C24.4197 16.661 24.2131 16.3047 23.8938 16.0983C24.2131 15.892 24.4197 15.5357 24.4197 15.1231C24.4197 14.7104 24.2131 14.3541 23.8938 14.1478C24.2131 13.9415 24.4197 13.5851 24.4197 13.1725C24.4197 12.7599 24.2131 12.4035 23.8938 12.1972C24.2131 11.9909 24.4197 11.6345 24.4197 11.2219C24.4197 10.8093 24.2131 10.453 23.8938 10.2466C24.2131 10.0403 24.4197 9.68398 24.4197 9.27136C24.4197 8.85875 24.2131 8.50239 23.8938 8.29608C24.2131 8.08977 24.4197 7.73342 24.4197 7.3208C24.4197 6.90818 24.2131 6.55183 23.8938 6.34552C24.2131 6.13921 24.4197 5.78286 24.4197 5.37024ZM23.2553 21.7625C22.8233 21.7625 22.4665 21.4061 22.4665 20.9748C22.4665 20.5434 22.8233 20.187 23.2553 20.187C23.6872 20.187 24.0441 20.5434 24.0441 20.9748C24.0441 21.4061 23.6872 21.7625 23.2553 21.7625ZM22.1284 21.2373C22.1284 21.2561 22.1284 21.2748 22.1284 21.3123C22.1284 21.7437 21.7716 22.1001 21.3396 22.1001C20.9077 22.1001 20.5508 21.7437 20.5508 21.3123C20.5508 20.881 20.9077 20.5246 21.3396 20.5246C21.6965 20.5246 22.0157 20.7684 22.0909 21.106C22.1096 21.1435 22.1096 21.1998 22.1284 21.2373ZM19.424 22.3627C18.992 22.3627 18.6352 22.0063 18.6352 21.5749C18.6352 21.1435 18.992 20.7872 19.424 20.7872C19.7808 20.7872 20.0813 21.031 20.1752 21.3686C20.1752 21.4436 20.194 21.5187 20.2128 21.5937C20.194 22.0251 19.8559 22.3627 19.424 22.3627ZM18.2784 21.8C18.222 22.1751 17.884 22.4564 17.5083 22.4564C17.0764 22.4564 16.7195 22.1001 16.7195 21.6687C16.7195 21.2373 17.0764 20.881 17.5083 20.881C17.8652 20.881 18.1657 21.1248 18.2596 21.4624C18.2596 21.4999 18.2596 21.5374 18.2596 21.5749C18.2596 21.6499 18.2596 21.7437 18.2784 21.8ZM14.879 21.7625C14.879 21.3311 15.2359 20.9748 15.6678 20.9748C15.9683 20.9748 16.2312 21.1435 16.3627 21.3874C16.3439 21.4811 16.3252 21.5749 16.3252 21.6687C16.3252 21.8 16.3439 21.9313 16.4003 22.0626C16.2876 22.3439 16.0059 22.5502 15.6678 22.5502C15.2359 22.5502 14.879 22.2126 14.879 21.7625ZM12.9258 21.8187C12.9258 21.3874 13.2827 21.031 13.7146 21.031C14.1466 21.031 14.5034 21.3874 14.5034 21.8187C14.5034 22.2501 14.1466 22.6065 13.7146 22.6065C13.2827 22.6065 12.9258 22.2689 12.9258 21.8187ZM10.9538 21.8375C10.9538 21.4061 11.3107 21.0498 11.7426 21.0498C12.1746 21.0498 12.5314 21.4061 12.5314 21.8375C12.5314 22.2689 12.1746 22.6252 11.7426 22.6252C11.3107 22.6252 10.9538 22.2689 10.9538 21.8375ZM10.597 21.9688C10.5031 22.3064 10.2026 22.5502 9.84577 22.5502C9.41381 22.5502 9.05697 22.1939 9.05697 21.7625C9.05697 21.3311 9.41381 20.9748 9.84577 20.9748C10.2214 20.9748 10.5594 21.2561 10.6158 21.6124C10.597 21.6875 10.597 21.7625 10.597 21.8375C10.5782 21.8938 10.5782 21.9313 10.597 21.9688ZM8.66258 21.875C8.56867 22.2126 8.26818 22.4564 7.91134 22.4564C7.47938 22.4564 7.12255 22.1001 7.12255 21.6687C7.12255 21.2373 7.47938 20.881 7.91134 20.881C8.30574 20.881 8.62501 21.1623 8.68136 21.5374C8.66258 21.6124 8.66258 21.6875 8.66258 21.7625C8.66258 21.8 8.66258 21.8375 8.66258 21.875ZM6.74693 21.7812C6.65303 22.1188 6.35253 22.3627 5.9957 22.3627C5.56374 22.3627 5.2069 22.0063 5.2069 21.5749C5.2069 21.1435 5.56374 20.7872 5.9957 20.7872C6.3901 20.7872 6.70937 21.0685 6.76571 21.4436C6.74693 21.5187 6.74693 21.5937 6.74693 21.6687C6.74693 21.7062 6.74693 21.7437 6.74693 21.7812ZM4.83129 21.5187C4.73738 21.8563 4.43689 22.1001 4.08006 22.1001C3.6481 22.1001 3.29126 21.7437 3.29126 21.3123C3.29126 20.881 3.6481 20.5246 4.08006 20.5246C4.51201 20.5246 4.86885 20.881 4.86885 21.3123C4.85007 21.3686 4.83129 21.4436 4.83129 21.5187ZM2.91564 21.1811C2.82174 21.5187 2.52125 21.7625 2.16441 21.7625C1.73245 21.7625 1.37562 21.4061 1.37562 20.9748C1.37562 20.5434 1.73245 20.187 2.16441 20.187C2.59637 20.187 2.95321 20.5434 2.95321 20.9748C2.95321 20.9935 2.95321 21.0123 2.95321 21.0498C2.93442 21.0873 2.91564 21.1435 2.91564 21.1811ZM2.95321 3.41967C2.95321 3.43843 2.95321 3.45718 2.95321 3.49469C2.93442 3.5322 2.93442 3.58847 2.93442 3.62598C2.84052 3.96358 2.54003 4.2074 2.18319 4.2074C1.75123 4.2074 1.3944 3.85105 1.3944 3.41967C1.3944 2.9883 1.75123 2.63194 2.18319 2.63194C2.61515 2.63194 2.95321 2.96954 2.95321 3.41967ZM4.08006 2.95079C4.51201 2.95079 4.86885 3.30714 4.86885 3.73851C4.85007 3.81354 4.83129 3.88856 4.83129 3.96358C4.73738 4.30118 4.43689 4.545 4.08006 4.545C3.6481 4.545 3.29126 4.18864 3.29126 3.75727C3.29126 3.3259 3.62932 2.95079 4.08006 2.95079ZM5.2069 4.00109C5.2069 3.56972 5.56374 3.21336 5.9957 3.21336C6.3901 3.21336 6.70937 3.49469 6.76571 3.8698C6.74693 3.94482 6.74693 4.01985 6.74693 4.09487C6.74693 4.13238 6.74693 4.16989 6.74693 4.2074C6.65303 4.545 6.35253 4.78882 5.9957 4.78882C5.56374 4.78882 5.2069 4.45122 5.2069 4.00109ZM7.12255 4.11362C7.12255 3.68225 7.47938 3.3259 7.91134 3.3259C8.30574 3.3259 8.62501 3.60723 8.68136 3.98234C8.66258 4.05736 8.66258 4.13238 8.66258 4.2074C8.66258 4.24491 8.66258 4.28242 8.66258 4.31993C8.56867 4.65753 8.26818 4.90135 7.91134 4.90135C7.47938 4.90135 7.12255 4.545 7.12255 4.11362ZM9.03819 4.2074C9.03819 3.77603 9.39503 3.41967 9.82699 3.41967C10.2026 3.41967 10.5407 3.701 10.597 4.05736C10.5782 4.13238 10.5782 4.2074 10.5782 4.28242C10.5782 4.31993 10.5782 4.3762 10.5782 4.41371C10.4843 4.75131 10.1838 4.99513 9.82699 4.99513C9.39503 4.99513 9.03819 4.63878 9.03819 4.2074ZM10.9538 4.28242C10.9538 3.85105 11.3107 3.49469 11.7426 3.49469C12.1746 3.49469 12.5314 3.85105 12.5314 4.28242C12.5314 4.7138 12.1746 5.07015 11.7426 5.07015C11.3107 5.07015 10.9538 4.7138 10.9538 4.28242ZM13.7146 3.47594C14.1466 3.47594 14.5034 3.83229 14.5034 4.26367C14.5034 4.69504 14.1466 5.05139 13.7146 5.05139C13.2827 5.05139 12.9258 4.69504 12.9258 4.26367C12.9258 3.83229 13.2827 3.47594 13.7146 3.47594ZM15.6678 3.41967C15.9683 3.41967 16.2312 3.58847 16.3627 3.83229C16.3439 3.92607 16.3252 4.01985 16.3252 4.11362C16.3252 4.24491 16.3439 4.3762 16.4003 4.50749C16.2876 4.78882 16.0059 4.99513 15.6678 4.99513C15.2359 4.99513 14.879 4.63878 14.879 4.2074C14.879 3.77603 15.2359 3.41967 15.6678 3.41967ZM17.5083 3.3259C17.8652 3.3259 18.1657 3.56972 18.2596 3.90731C18.2596 3.94482 18.2596 3.98234 18.2596 4.01985C18.2596 4.09487 18.2596 4.16989 18.2784 4.24491C18.222 4.62002 17.884 4.90135 17.5083 4.90135C17.0764 4.90135 16.7195 4.545 16.7195 4.11362C16.7195 3.68225 17.0576 3.3259 17.5083 3.3259ZM18.6352 4.00109C18.6352 3.56972 18.992 3.21336 19.424 3.21336C19.7808 3.21336 20.0813 3.45718 20.1752 3.79478C20.1752 3.8698 20.194 3.94482 20.2128 4.01985C20.2128 4.45122 19.8559 4.80757 19.424 4.80757C18.992 4.78882 18.6352 4.45122 18.6352 4.00109ZM21.3396 2.95079C21.6965 2.95079 22.0157 3.19461 22.0909 3.5322C22.0909 3.56972 22.1096 3.62598 22.1096 3.66349C22.1096 3.68225 22.1096 3.701 22.1096 3.73851C22.1096 4.16989 21.7528 4.52624 21.3209 4.52624C20.8889 4.52624 20.5321 4.16989 20.5321 3.73851C20.5321 3.30714 20.9077 2.95079 21.3396 2.95079ZM22.4665 3.41967C22.4665 2.9883 22.8233 2.63194 23.2553 2.63194C23.6872 2.63194 24.0441 2.9883 24.0441 3.41967C24.0441 3.85105 23.6872 4.2074 23.2553 4.2074C22.8233 4.2074 22.4665 3.85105 22.4665 3.41967ZM22.1848 20.5246C22.1284 20.4496 22.0533 20.3933 21.9594 20.3371C22.1472 20.2058 22.2975 20.037 22.3914 19.8307C22.4477 19.9057 22.5228 19.962 22.6167 20.0182C22.4289 20.1308 22.2787 20.2996 22.1848 20.5246ZM20.0438 20.5996C20.2316 20.4871 20.363 20.3183 20.4569 20.1308C20.5321 20.2058 20.6072 20.2808 20.7011 20.3371C20.5133 20.4496 20.3818 20.6184 20.2879 20.806C20.2128 20.7309 20.1377 20.6559 20.0438 20.5996ZM16.3064 20.7872C16.4378 20.7122 16.5317 20.5996 16.6256 20.4871C16.7008 20.5621 16.7759 20.6372 16.8698 20.6934C16.7383 20.7684 16.6444 20.881 16.5505 20.9935C16.4754 20.9185 16.4003 20.8622 16.3064 20.7872ZM5.13178 20.806C5.03788 20.6184 4.88763 20.4496 4.7186 20.3371C4.81251 20.2808 4.88763 20.2058 4.96275 20.1308C5.05666 20.3183 5.2069 20.4871 5.37593 20.5996C5.26325 20.6559 5.18812 20.7309 5.13178 20.806ZM3.21614 20.5246C3.12223 20.3183 2.97199 20.1308 2.78418 20.0182C2.8593 19.962 2.93442 19.9057 3.00955 19.8307C3.10345 20.037 3.2537 20.2245 3.44151 20.3371C3.36638 20.3746 3.29126 20.4496 3.21614 20.5246ZM3.00955 4.2074C3.10345 4.41371 3.2537 4.60126 3.44151 4.7138C3.36638 4.77006 3.29126 4.82633 3.21614 4.90135C3.12223 4.69504 2.97199 4.50749 2.78418 4.39495C2.8593 4.33869 2.93442 4.28242 3.00955 4.2074ZM4.94397 4.50749C5.03788 4.69504 5.18812 4.86384 5.35715 4.97637C5.26325 5.03264 5.18812 5.10766 5.113 5.18268C5.0191 4.99513 4.86885 4.82633 4.69982 4.7138C4.79373 4.65753 4.86885 4.58251 4.94397 4.50749ZM16.8698 5.08891C16.7383 5.16393 16.6444 5.27646 16.5505 5.38899C16.4754 5.31397 16.4003 5.23895 16.3064 5.18268C16.4378 5.10766 16.5317 4.99513 16.6256 4.8826C16.7008 4.95762 16.7759 5.03264 16.8698 5.08891ZM20.7011 4.7138C20.5133 4.82633 20.3818 4.99513 20.2879 5.18268C20.2128 5.10766 20.1377 5.03264 20.0438 4.97637C20.2316 4.86384 20.363 4.69504 20.4569 4.50749C20.5321 4.58251 20.626 4.65753 20.7011 4.7138ZM22.6167 4.39495C22.4289 4.52624 22.2787 4.69504 22.1848 4.90135C22.1284 4.82633 22.0533 4.77006 21.9594 4.7138C22.1472 4.58251 22.2975 4.41371 22.3914 4.2074C22.4665 4.28242 22.5416 4.33869 22.6167 4.39495ZM22.1284 5.61406C22.1284 5.63281 22.1284 5.65157 22.1284 5.68908C22.1284 6.12045 21.7716 6.47681 21.3396 6.47681C20.9077 6.47681 20.5508 6.12045 20.5508 5.68908C20.5508 5.2577 20.9077 4.90135 21.3396 4.90135C21.6965 4.90135 22.0157 5.14517 22.0909 5.48277C22.1096 5.53904 22.1096 5.57655 22.1284 5.61406ZM22.1284 7.58338C22.1284 7.60213 22.1284 7.62089 22.1284 7.6584C22.1284 8.08977 21.7716 8.44613 21.3396 8.44613C20.9077 8.44613 20.5508 8.08977 20.5508 7.6584C20.5508 7.22702 20.9077 6.87067 21.3396 6.87067C21.6965 6.87067 22.0157 7.11449 22.0909 7.45209C22.1096 7.4896 22.1096 7.52711 22.1284 7.58338ZM22.1284 9.53394C22.1284 9.5527 22.1284 9.57145 22.1284 9.60896C22.1284 10.0403 21.7716 10.3967 21.3396 10.3967C20.9077 10.3967 20.5508 10.0403 20.5508 9.60896C20.5508 9.17759 20.9077 8.82123 21.3396 8.82123C21.6965 8.82123 22.0157 9.06505 22.0909 9.40265C22.1096 9.44016 22.1096 9.47767 22.1284 9.53394ZM22.1284 11.4845C22.1284 11.5033 22.1284 11.522 22.1284 11.5595C22.1284 11.9909 21.7716 12.3473 21.3396 12.3473C20.9077 12.3473 20.5508 11.9909 20.5508 11.5595C20.5508 11.1282 20.9077 10.7718 21.3396 10.7718C21.6965 10.7718 22.0157 11.0156 22.0909 11.3532C22.1096 11.3907 22.1096 11.4282 22.1284 11.4845ZM22.1284 13.4351C22.1284 13.4538 22.1284 13.4726 22.1284 13.5101C22.1284 13.9415 21.7716 14.2978 21.3396 14.2978C20.9077 14.2978 20.5508 13.9415 20.5508 13.5101C20.5508 13.0787 20.9077 12.7224 21.3396 12.7224C21.6965 12.7224 22.0157 12.9662 22.0909 13.3038C22.1096 13.3413 22.1096 13.3788 22.1284 13.4351ZM22.1284 15.3856C22.1284 15.4044 22.1284 15.4231 22.1284 15.4607C22.1284 15.892 21.7716 16.2484 21.3396 16.2484C20.9077 16.2484 20.5508 15.892 20.5508 15.4607C20.5508 15.0293 20.9077 14.6729 21.3396 14.6729C21.6965 14.6729 22.0157 14.9167 22.0909 15.2543C22.1096 15.2919 22.1096 15.3481 22.1284 15.3856ZM22.1284 17.3362C22.1284 17.355 22.1284 17.3737 22.1284 17.4112C22.1284 17.8426 21.7716 18.1989 21.3396 18.1989C20.9077 18.1989 20.5508 17.8426 20.5508 17.4112C20.5508 16.9798 20.9077 16.6235 21.3396 16.6235C21.6965 16.6235 22.0157 16.8673 22.0909 17.2049C22.1096 17.2424 22.1096 17.2987 22.1284 17.3362ZM22.1284 19.2868C22.1284 19.3055 22.1284 19.3243 22.1284 19.3618C22.1284 19.7932 21.7716 20.1495 21.3396 20.1495C20.9077 20.1495 20.5508 19.7932 20.5508 19.3618C20.5508 18.9304 20.9077 18.5741 21.3396 18.5741C21.6965 18.5741 22.0157 18.8179 22.0909 19.1555C22.1096 19.193 22.1096 19.2493 22.1284 19.2868ZM3.29126 19.3618C3.29126 18.9304 3.6481 18.5741 4.08006 18.5741C4.51201 18.5741 4.86885 18.9304 4.86885 19.3618C4.85007 19.4368 4.83129 19.5118 4.83129 19.5868C4.73738 19.9244 4.43689 20.1683 4.08006 20.1683C3.62932 20.1495 3.29126 19.7932 3.29126 19.3618ZM4.08006 4.90135C4.51201 4.90135 4.86885 5.2577 4.86885 5.68908C4.85007 5.7641 4.83129 5.83912 4.83129 5.91414C4.73738 6.25174 4.43689 6.49556 4.08006 6.49556C3.6481 6.49556 3.29126 6.13921 3.29126 5.70783C3.29126 5.27646 3.62932 4.90135 4.08006 4.90135ZM19.424 18.4615C18.992 18.4615 18.6352 18.1052 18.6352 17.6738C18.6352 17.2424 18.992 16.8861 19.424 16.8861C19.7808 16.8861 20.0813 17.1299 20.1752 17.4675C20.1752 17.5425 20.194 17.6175 20.2128 17.6926C20.194 18.1052 19.8559 18.4615 19.424 18.4615ZM16.3064 18.8366C16.4378 18.7616 16.5317 18.6491 16.6256 18.5365C16.7008 18.6116 16.7759 18.6866 16.8698 18.7429C16.7383 18.8179 16.6444 18.9304 16.5505 19.0429C16.4754 18.9679 16.4003 18.8929 16.3064 18.8366ZM14.3532 16.9423C14.5034 16.8486 14.6161 16.7173 14.71 16.5672C14.8039 16.6985 14.9166 16.7923 15.0293 16.8861C14.879 16.9798 14.7663 17.1111 14.6724 17.2612C14.5973 17.1299 14.4846 17.0361 14.3532 16.9423ZM5.2069 15.7232C5.2069 15.2919 5.56374 14.9355 5.9957 14.9355C6.3901 14.9355 6.70937 15.2168 6.76571 15.5919C6.74693 15.667 6.74693 15.742 6.74693 15.817C6.74693 15.8545 6.74693 15.892 6.74693 15.9295C6.65303 16.2671 6.35253 16.511 5.9957 16.511C5.56374 16.511 5.2069 16.1546 5.2069 15.7232ZM5.2069 13.7727C5.2069 13.3413 5.56374 12.9849 5.9957 12.9849C6.3901 12.9849 6.70937 13.2663 6.76571 13.6414C6.74693 13.7164 6.74693 13.7914 6.74693 13.8664C6.74693 13.904 6.74693 13.9415 6.74693 13.979C6.65303 14.3166 6.35253 14.5604 5.9957 14.5604C5.56374 14.5604 5.2069 14.204 5.2069 13.7727ZM5.2069 11.8221C5.2069 11.3907 5.56374 11.0344 5.9957 11.0344C6.3901 11.0344 6.70937 11.3157 6.76571 11.6908C6.74693 11.7658 6.74693 11.8409 6.74693 11.9159C6.74693 11.9534 6.74693 11.9909 6.74693 12.0284C6.65303 12.366 6.35253 12.6098 5.9957 12.6098C5.56374 12.6098 5.2069 12.2535 5.2069 11.8221ZM5.2069 9.87154C5.2069 9.44016 5.56374 9.08381 5.9957 9.08381C6.3901 9.08381 6.70937 9.36514 6.76571 9.74025C6.74693 9.81527 6.74693 9.89029 6.74693 9.96532C6.74693 10.0028 6.74693 10.0403 6.74693 10.0778C6.65303 10.4154 6.35253 10.6593 5.9957 10.6593C5.56374 10.6593 5.2069 10.3029 5.2069 9.87154ZM10.597 16.1171C10.5031 16.4547 10.2026 16.6985 9.84577 16.6985C9.41381 16.6985 9.05697 16.3422 9.05697 15.9108C9.05697 15.4794 9.41381 15.1231 9.84577 15.1231C10.2214 15.1231 10.5594 15.4044 10.6158 15.7607C10.597 15.8358 10.597 15.9108 10.597 15.9858C10.5782 16.0233 10.5782 16.0796 10.597 16.1171ZM10.597 14.1665C10.5031 14.5041 10.2026 14.748 9.84577 14.748C9.41381 14.748 9.05697 14.3916 9.05697 13.9602C9.05697 13.5288 9.41381 13.1725 9.84577 13.1725C10.2214 13.1725 10.5594 13.4538 10.6158 13.8102C10.597 13.8852 10.597 13.9602 10.597 14.0352C10.5782 14.0728 10.5782 14.129 10.597 14.1665ZM8.90673 15.2168C8.81282 15.0668 8.70014 14.9355 8.54989 14.8417C8.66258 14.7667 8.75648 14.6729 8.85038 14.5604C8.94429 14.7104 9.05697 14.8417 9.20722 14.9355C9.07575 15.0105 8.98185 15.1043 8.90673 15.2168ZM7.12255 13.8664C7.12255 13.4351 7.47938 13.0787 7.91134 13.0787C8.30574 13.0787 8.62501 13.36 8.68136 13.7352C8.66258 13.8102 8.66258 13.8852 8.66258 13.9602C8.66258 13.9977 8.66258 14.0352 8.66258 14.0728C8.56867 14.4104 8.26818 14.6542 7.91134 14.6542C7.47938 14.6542 7.12255 14.2978 7.12255 13.8664ZM7.12255 11.9159C7.12255 11.4845 7.47938 11.1282 7.91134 11.1282C8.30574 11.1282 8.62501 11.4095 8.68136 11.7846C8.66258 11.8596 8.66258 11.9346 8.66258 12.0097C8.66258 12.0472 8.66258 12.0847 8.66258 12.1222C8.56867 12.4598 8.26818 12.7036 7.91134 12.7036C7.47938 12.7036 7.12255 12.3473 7.12255 11.9159ZM8.8316 10.6593C8.92551 10.8093 9.03819 10.9406 9.18844 11.0344C9.07575 11.1094 8.98185 11.2032 8.88795 11.3157C8.79404 11.1657 8.68136 11.0344 8.53111 10.9406C8.66258 10.8656 8.75648 10.7718 8.8316 10.6593ZM10.597 12.216C10.5031 12.5536 10.2026 12.7974 9.84577 12.7974C9.41381 12.7974 9.05697 12.441 9.05697 12.0097C9.05697 11.5783 9.41381 11.2219 9.84577 11.2219C10.2214 11.2219 10.5594 11.5033 10.6158 11.8596C10.597 11.9346 10.597 12.0097 10.597 12.0847C10.5782 12.1222 10.5782 12.1597 10.597 12.216ZM8.8316 12.6098C8.92551 12.7599 9.03819 12.8912 9.18844 12.9849C9.07575 13.06 8.98185 13.1537 8.88795 13.2663C8.79404 13.1162 8.68136 12.9849 8.53111 12.8912C8.66258 12.8161 8.75648 12.7224 8.8316 12.6098ZM10.597 10.2654C10.5031 10.603 10.2026 10.8468 9.84577 10.8468C9.41381 10.8468 9.05697 10.4905 9.05697 10.0591C9.05697 9.62772 9.41381 9.27136 9.84577 9.27136C10.2214 9.27136 10.5594 9.5527 10.6158 9.90905C10.597 9.98407 10.597 10.0591 10.597 10.1341C10.5782 10.1716 10.5782 10.2091 10.597 10.2654ZM8.90673 9.34639C8.81282 9.19634 8.70014 9.06506 8.54989 8.97128C8.66258 8.89626 8.75648 8.80248 8.85038 8.68995C8.94429 8.83999 9.05697 8.97128 9.20722 9.06506C9.07575 9.15883 8.98185 9.25261 8.90673 9.34639ZM8.68136 9.83403C8.66258 9.90905 8.66258 9.98407 8.66258 10.0591C8.66258 10.0966 8.66258 10.1341 8.66258 10.1716C8.56867 10.5092 8.26818 10.753 7.91134 10.753C7.47938 10.753 7.12255 10.3967 7.12255 9.96532C7.12255 9.53394 7.47938 9.17759 7.91134 9.17759C8.30574 9.17759 8.62501 9.45892 8.68136 9.83403ZM7.12255 15.817C7.12255 15.3856 7.47938 15.0293 7.91134 15.0293C8.30574 15.0293 8.62501 15.3106 8.68136 15.6857C8.66258 15.7607 8.66258 15.8358 8.66258 15.9108C8.66258 15.9483 8.66258 15.9858 8.66258 16.0233C8.56867 16.3609 8.26818 16.6047 7.91134 16.6047C7.47938 16.6047 7.12255 16.2484 7.12255 15.817ZM8.8316 16.5297C8.92551 16.6798 9.03819 16.811 9.18844 16.9048C9.07575 16.9798 8.98185 17.0736 8.88795 17.1862C8.79404 17.0361 8.68136 16.9048 8.53111 16.811C8.66258 16.7173 8.75648 16.6235 8.8316 16.5297ZM10.8036 13.3413C10.7097 13.1912 10.597 13.0787 10.4468 12.9849C10.5594 12.9099 10.6721 12.8161 10.7472 12.7036C10.8412 12.8537 10.9538 12.9662 11.1041 13.06C10.9914 13.135 10.8975 13.2288 10.8036 13.3413ZM10.9538 12.0847C10.9538 11.6533 11.3107 11.297 11.7426 11.297C12.1746 11.297 12.5314 11.6533 12.5314 12.0847C12.5314 12.5161 12.1746 12.8724 11.7426 12.8724C11.3107 12.8724 10.9538 12.5161 10.9538 12.0847ZM10.8036 11.3907C10.7097 11.2407 10.597 11.1282 10.4468 11.0344C10.5594 10.9594 10.6721 10.8656 10.7472 10.753C10.8412 10.9031 10.9538 11.0156 11.1041 11.1094C10.9914 11.1844 10.8975 11.2782 10.8036 11.3907ZM6.91596 8.61492C7.00986 8.76497 7.12255 8.89626 7.2728 8.99003C7.16011 9.06505 7.06621 9.15883 6.9723 9.25261C6.8784 9.10257 6.76571 8.97128 6.61547 8.8775C6.72815 8.82123 6.84084 8.72746 6.91596 8.61492ZM6.91596 10.5655C7.00986 10.7155 7.12255 10.8468 7.2728 10.9406C7.16011 11.0156 7.06621 11.1094 6.9723 11.2032C6.8784 11.0531 6.76571 10.9218 6.61547 10.8281C6.72815 10.7718 6.84084 10.678 6.91596 10.5655ZM6.91596 12.5161C7.00986 12.6661 7.12255 12.7974 7.2728 12.8912C7.16011 12.9662 7.06621 13.06 6.9723 13.1537C6.8784 13.0037 6.76571 12.8724 6.61547 12.7786C6.72815 12.7224 6.84084 12.6286 6.91596 12.5161ZM6.91596 14.4666C7.00986 14.6167 7.12255 14.748 7.2728 14.8417C7.16011 14.9167 7.06621 15.0105 6.9723 15.1043C6.8784 14.9543 6.76571 14.823 6.61547 14.7292C6.72815 14.6729 6.84084 14.5792 6.91596 14.4666ZM6.91596 16.4172C7.00986 16.5672 7.12255 16.6985 7.2728 16.7923C7.16011 16.8673 7.06621 16.9611 6.9723 17.0549C6.8784 16.9048 6.76571 16.7735 6.61547 16.6798C6.72815 16.6235 6.84084 16.5297 6.91596 16.4172ZM10.8036 15.2919C10.7097 15.1418 10.597 15.0293 10.4468 14.9355C10.5594 14.8605 10.6721 14.7667 10.7472 14.6542C10.8412 14.8042 10.9538 14.9167 11.1041 15.0105C10.9914 15.0855 10.8975 15.1793 10.8036 15.2919ZM10.9538 14.0352C10.9538 13.6039 11.3107 13.2475 11.7426 13.2475C12.1746 13.2475 12.5314 13.6039 12.5314 14.0352C12.5314 14.4666 12.1746 14.823 11.7426 14.823C11.3107 14.823 10.9538 14.4666 10.9538 14.0352ZM11.7426 10.9218C11.3107 10.9218 10.9538 10.5655 10.9538 10.1341C10.9538 9.70274 11.3107 9.34639 11.7426 9.34639C12.1746 9.34639 12.5314 9.70274 12.5314 10.1341C12.5314 10.5655 12.1746 10.9218 11.7426 10.9218ZM10.8036 9.44016C10.7097 9.29012 10.597 9.17759 10.4468 9.08381C10.5594 9.00879 10.6721 8.91501 10.7472 8.80248C10.8412 8.95252 10.9538 9.06506 11.1041 9.15883C10.9914 9.23385 10.8975 9.32763 10.8036 9.44016ZM10.597 7.95848C10.5782 8.03351 10.5782 8.10853 10.5782 8.18355C10.5782 8.22106 10.5782 8.27733 10.5782 8.31484C10.4843 8.65244 10.1838 8.89626 9.82699 8.89626C9.39503 8.89626 9.03819 8.5399 9.03819 8.10853C9.03819 7.67715 9.39503 7.3208 9.82699 7.3208C10.2214 7.3208 10.5407 7.60213 10.597 7.95848ZM8.90673 7.39582C8.81282 7.24578 8.70014 7.11449 8.54989 7.02071C8.66258 6.94569 8.75648 6.85192 8.85038 6.73938C8.94429 6.88943 9.05697 7.02071 9.20722 7.11449C9.07575 7.20827 8.98185 7.30204 8.90673 7.39582ZM8.68136 7.88346C8.66258 7.95849 8.66258 8.03351 8.66258 8.10853C8.66258 8.14604 8.66258 8.18355 8.66258 8.22106C8.56867 8.55866 8.26818 8.80248 7.91134 8.80248C7.47938 8.80248 7.12255 8.44613 7.12255 8.01475C7.12255 7.58338 7.47938 7.22702 7.91134 7.22702C8.30574 7.22702 8.62501 7.50836 8.68136 7.88346ZM6.99108 7.30204C6.89718 7.152 6.78449 7.02071 6.63425 6.92694C6.74693 6.85191 6.84084 6.75814 6.93474 6.66436C7.02864 6.8144 7.14133 6.94569 7.29158 7.03947C7.16011 7.11449 7.06621 7.20827 6.99108 7.30204ZM6.76571 7.78969C6.74693 7.86471 6.74693 7.93973 6.74693 8.01475C6.74693 8.05226 6.74693 8.08977 6.74693 8.12728C6.65303 8.46488 6.35253 8.7087 5.9957 8.7087C5.56374 8.7087 5.2069 8.35235 5.2069 7.92097C5.2069 7.4896 5.56374 7.13325 5.9957 7.13325C6.3901 7.13325 6.70937 7.41458 6.76571 7.78969ZM5.2069 17.6738C5.2069 17.2424 5.56374 16.8861 5.9957 16.8861C6.3901 16.8861 6.70937 17.1674 6.76571 17.5425C6.74693 17.6175 6.74693 17.6926 6.74693 17.7676C6.74693 17.8051 6.74693 17.8426 6.74693 17.8801C6.65303 18.2177 6.35253 18.4615 5.9957 18.4615C5.56374 18.4615 5.2069 18.1052 5.2069 17.6738ZM6.91596 18.3865C7.00986 18.5365 7.12255 18.6678 7.2728 18.7616C7.16011 18.8366 7.06621 18.9304 6.9723 19.0242C6.8784 18.8741 6.76571 18.7429 6.61547 18.6491C6.72815 18.5741 6.84084 18.4803 6.91596 18.3865ZM7.12255 17.7676C7.12255 17.3362 7.47938 16.9798 7.91134 16.9798C8.30574 16.9798 8.62501 17.2612 8.68136 17.6363C8.66258 17.7113 8.66258 17.7863 8.66258 17.8614C8.66258 17.8989 8.66258 17.9364 8.66258 17.9739C8.56867 18.3115 8.26818 18.5553 7.91134 18.5553C7.47938 18.5553 7.12255 18.1989 7.12255 17.7676ZM8.8316 18.4803C8.92551 18.6303 9.03819 18.7616 9.18844 18.8554C9.07575 18.9304 8.98185 19.0242 8.88795 19.1367C8.79404 18.9867 8.68136 18.8554 8.53111 18.7616C8.66258 18.6678 8.75648 18.5741 8.8316 18.4803ZM9.03819 17.8614C9.03819 17.43 9.39503 17.0736 9.82699 17.0736C10.2026 17.0736 10.5407 17.355 10.597 17.7113C10.5782 17.7863 10.5782 17.8614 10.5782 17.9364C10.5782 17.9739 10.5782 18.0301 10.5782 18.0677C10.4843 18.4053 10.1838 18.6491 9.82699 18.6491C9.39503 18.6491 9.03819 18.2927 9.03819 17.8614ZM10.8036 17.2424C10.7097 17.0924 10.597 16.9798 10.4468 16.8861C10.5594 16.811 10.6721 16.7173 10.7472 16.6047C10.8412 16.7548 10.9538 16.8673 11.1041 16.9611C10.9914 17.0361 10.8975 17.1299 10.8036 17.2424ZM10.9538 15.9858C10.9538 15.5544 11.3107 15.1981 11.7426 15.1981C12.1746 15.1981 12.5314 15.5544 12.5314 15.9858C12.5314 16.4172 12.1746 16.7735 11.7426 16.7735C11.3107 16.7735 10.9538 16.4172 10.9538 15.9858ZM12.3812 13.06C12.5314 12.9662 12.6441 12.8349 12.738 12.6849C12.8319 12.8349 12.9446 12.9474 13.0948 13.0412C12.9446 13.135 12.8319 13.2663 12.738 13.4163C12.6441 13.2663 12.5126 13.1537 12.3812 13.06ZM16.8698 7.03947C16.7383 7.11449 16.6444 7.22702 16.5505 7.33956C16.4754 7.26453 16.4003 7.18951 16.3064 7.13325C16.4378 7.05822 16.5317 6.94569 16.6256 6.83316C16.7008 6.90818 16.7759 6.9832 16.8698 7.03947ZM16.3064 16.8861C16.4378 16.811 16.5317 16.6985 16.6256 16.586C16.7008 16.661 16.7759 16.736 16.8698 16.7923C16.7383 16.8673 16.6444 16.9798 16.5505 17.0924C16.4754 17.0174 16.4003 16.9423 16.3064 16.8861ZM16.8698 8.99003C16.7383 9.06505 16.6444 9.17759 16.5505 9.29012C16.4754 9.2151 16.4003 9.14008 16.3064 9.08381C16.4378 9.00879 16.5317 8.89626 16.6256 8.78372C16.7008 8.85875 16.7759 8.93377 16.8698 8.99003ZM18.2784 10.0966C18.222 10.4717 17.884 10.753 17.5083 10.753C17.0764 10.753 16.7195 10.3967 16.7195 9.96532C16.7195 9.53394 17.0764 9.17759 17.5083 9.17759C17.8652 9.17759 18.1657 9.42141 18.2596 9.75901C18.2596 9.79652 18.2596 9.83403 18.2596 9.87154C18.2596 9.94656 18.2596 10.0216 18.2784 10.0966ZM18.2784 12.0472C18.222 12.4223 17.884 12.7036 17.5083 12.7036C17.0764 12.7036 16.7195 12.3473 16.7195 11.9159C16.7195 11.4845 17.0764 11.1282 17.5083 11.1282C17.8652 11.1282 18.1657 11.372 18.2596 11.7096C18.2596 11.7471 18.2596 11.7846 18.2596 11.8221C18.2596 11.8971 18.2596 11.9721 18.2784 12.0472ZM18.2784 13.9977C18.222 14.3728 17.884 14.6542 17.5083 14.6542C17.0764 14.6542 16.7195 14.2978 16.7195 13.8664C16.7195 13.4351 17.0764 13.0787 17.5083 13.0787C17.8652 13.0787 18.1657 13.3225 18.2596 13.6601C18.2596 13.6976 18.2596 13.7352 18.2596 13.7727C18.2596 13.8477 18.2596 13.9227 18.2784 13.9977ZM16.5505 15.1418C16.4754 15.0668 16.4003 14.9918 16.3064 14.9355C16.4378 14.8605 16.5317 14.7479 16.6256 14.6354C16.7008 14.7104 16.7759 14.7855 16.8698 14.8417C16.7383 14.9167 16.6444 15.0293 16.5505 15.1418ZM16.3627 11.6345C16.3439 11.7283 16.3252 11.8221 16.3252 11.9159C16.3252 12.0472 16.3439 12.1785 16.4003 12.3097C16.2876 12.5911 16.0059 12.7974 15.6678 12.7974C15.2359 12.7974 14.879 12.441 14.879 12.0097C14.879 11.5783 15.2359 11.2219 15.6678 11.2219C15.9683 11.2219 16.2312 11.3907 16.3627 11.6345ZM15.6678 13.1725C15.9683 13.1725 16.2312 13.3413 16.3627 13.5851C16.3439 13.6789 16.3252 13.7727 16.3252 13.8664C16.3252 13.9977 16.3439 14.129 16.4003 14.2603C16.2876 14.5416 16.0059 14.748 15.6678 14.748C15.2359 14.748 14.879 14.3916 14.879 13.9602C14.879 13.5288 15.2359 13.1725 15.6678 13.1725ZM16.5505 13.1912C16.4754 13.1162 16.4003 13.0412 16.3064 12.9849C16.4378 12.9099 16.5317 12.7974 16.6256 12.6849C16.7008 12.7599 16.7759 12.8349 16.8698 12.8912C16.7383 12.9662 16.6444 13.0787 16.5505 13.1912ZM16.5505 11.2407C16.4754 11.1657 16.4003 11.0906 16.3064 11.0344C16.4378 10.9594 16.5317 10.8468 16.6256 10.7343C16.7008 10.8093 16.7759 10.8843 16.8698 10.9406C16.7383 11.0156 16.6444 11.1282 16.5505 11.2407ZM16.3627 9.68398C16.3439 9.77776 16.3252 9.87154 16.3252 9.96532C16.3252 10.0966 16.3439 10.2279 16.4003 10.3592C16.2876 10.6405 16.0059 10.8468 15.6678 10.8468C15.2359 10.8468 14.879 10.4905 14.879 10.0591C14.879 9.62772 15.2359 9.27136 15.6678 9.27136C15.9683 9.27136 16.2312 9.44016 16.3627 9.68398ZM14.71 12.6661C14.8039 12.7974 14.9166 12.8912 15.0293 12.9849C14.879 13.0787 14.7663 13.21 14.6724 13.36C14.5785 13.2288 14.4658 13.135 14.3532 13.0412C14.5034 12.9474 14.6161 12.8161 14.71 12.6661ZM15.6678 15.1231C15.9683 15.1231 16.2312 15.2919 16.3627 15.5357C16.3439 15.6295 16.3439 15.7232 16.3439 15.817C16.3439 15.9483 16.3627 16.0796 16.4191 16.2109C16.3064 16.4922 16.0247 16.6985 15.6866 16.6985C15.2546 16.6985 14.8978 16.3422 14.8978 15.9108C14.8978 15.4794 15.2359 15.1231 15.6678 15.1231ZM16.7195 15.817C16.7195 15.3856 17.0764 15.0293 17.5083 15.0293C17.8652 15.0293 18.1657 15.2731 18.2596 15.6107C18.2596 15.6482 18.2596 15.6857 18.2596 15.7232C18.2596 15.7983 18.2596 15.8733 18.2784 15.9483C18.222 16.3234 17.884 16.6047 17.5083 16.6047C17.0576 16.6047 16.7195 16.2484 16.7195 15.817ZM14.71 10.7155C14.8039 10.8468 14.9166 10.9406 15.0293 11.0344C14.879 11.1282 14.7663 11.2594 14.6724 11.4095C14.5785 11.2782 14.4658 11.1844 14.3532 11.0906C14.5034 10.9969 14.6161 10.8656 14.71 10.7155ZM14.5034 12.0659C14.5034 12.4973 14.1466 12.8537 13.7146 12.8537C13.2827 12.8537 12.9258 12.4973 12.9258 12.0659C12.9258 11.6345 13.2827 11.2782 13.7146 11.2782C14.1466 11.2782 14.5034 11.6345 14.5034 12.0659ZM13.7146 13.2288C14.1466 13.2288 14.5034 13.5851 14.5034 14.0165C14.5034 14.4479 14.1466 14.8042 13.7146 14.8042C13.2827 14.8042 12.9258 14.4479 12.9258 14.0165C12.9258 13.5851 13.2827 13.2288 13.7146 13.2288ZM14.71 14.6167C14.8039 14.7479 14.9166 14.8417 15.0293 14.9355C14.879 15.0293 14.7663 15.1606 14.6724 15.3106C14.5785 15.1793 14.4658 15.0855 14.3532 14.9918C14.5034 14.898 14.6161 14.7667 14.71 14.6167ZM18.4286 17.0736C18.3535 16.9611 18.2408 16.8673 18.1281 16.811C18.2784 16.7173 18.391 16.586 18.4849 16.4359C18.5601 16.5485 18.6728 16.6422 18.7854 16.6985C18.6352 16.7923 18.5225 16.9236 18.4286 17.0736ZM18.4286 15.1231C18.3535 15.0105 18.2408 14.9167 18.1281 14.8605C18.2784 14.7667 18.391 14.6354 18.4849 14.4854C18.5601 14.5979 18.6728 14.6917 18.7854 14.748C18.6352 14.8417 18.5225 14.973 18.4286 15.1231ZM18.4286 13.1725C18.3535 13.06 18.2408 12.9662 18.1281 12.9099C18.2784 12.8161 18.391 12.6849 18.4849 12.5348C18.5601 12.6473 18.6728 12.7411 18.7854 12.7974C18.6352 12.8912 18.5225 13.0225 18.4286 13.1725ZM18.4286 11.2032C18.3535 11.0906 18.2408 10.9969 18.1281 10.9406C18.2784 10.8468 18.391 10.7155 18.4849 10.5655C18.5601 10.678 18.6728 10.7718 18.7854 10.8281C18.6352 10.9406 18.5225 11.0719 18.4286 11.2032ZM18.4286 9.25261C18.3535 9.14008 18.2408 9.0463 18.1281 8.99003C18.2784 8.89626 18.391 8.76497 18.4849 8.61492C18.5601 8.72746 18.6728 8.82123 18.7854 8.8775C18.6352 8.99003 18.5225 9.10257 18.4286 9.25261ZM18.4286 7.30204C18.3535 7.18951 18.2408 7.09574 18.1281 7.03947C18.2784 6.94569 18.391 6.8144 18.4849 6.66436C18.5601 6.77689 18.6728 6.87067 18.7854 6.92694C18.6352 7.03947 18.5225 7.152 18.4286 7.30204ZM18.2596 7.80844C18.2596 7.84595 18.2596 7.88346 18.2596 7.92097C18.2596 7.996 18.2596 8.07102 18.2784 8.14604C18.222 8.52115 17.884 8.80248 17.5083 8.80248C17.0764 8.80248 16.7195 8.44613 16.7195 8.01475C16.7195 7.58338 17.0764 7.22702 17.5083 7.22702C17.8652 7.22702 18.1657 7.47084 18.2596 7.80844ZM16.3627 7.73342C16.3439 7.8272 16.3252 7.92097 16.3252 8.01475C16.3252 8.14604 16.3439 8.27733 16.4003 8.40862C16.2876 8.68995 16.0059 8.89626 15.6678 8.89626C15.2359 8.89626 14.879 8.5399 14.879 8.10853C14.879 7.67715 15.2359 7.3208 15.6678 7.3208C15.9683 7.3208 16.2312 7.4896 16.3627 7.73342ZM14.71 8.76497C14.8039 8.89626 14.9166 8.99003 15.0293 9.08381C14.879 9.17759 14.7663 9.30888 14.6724 9.45892C14.5785 9.32763 14.4658 9.23385 14.3532 9.14008C14.5034 9.0463 14.6161 8.91501 14.71 8.76497ZM14.5034 10.1154C14.5034 10.5467 14.1466 10.9031 13.7146 10.9031C13.2827 10.9031 12.9258 10.5467 12.9258 10.1154C12.9258 9.68398 13.2827 9.32763 13.7146 9.32763C14.1466 9.32763 14.5034 9.68398 14.5034 10.1154ZM13.7146 15.1793C14.1466 15.1793 14.5034 15.5357 14.5034 15.9671C14.5034 16.3984 14.1466 16.7548 13.7146 16.7548C13.2827 16.7548 12.9258 16.3984 12.9258 15.9671C12.9258 15.5357 13.2827 15.1793 13.7146 15.1793ZM15.6678 17.0736C15.9683 17.0736 16.2312 17.2424 16.3627 17.4862C16.3439 17.58 16.3252 17.6738 16.3252 17.7676C16.3252 17.8989 16.3439 18.0301 16.4003 18.1614C16.2876 18.4428 16.0059 18.6491 15.6678 18.6491C15.2359 18.6491 14.879 18.2927 14.879 17.8614C14.879 17.43 15.2359 17.0736 15.6678 17.0736ZM16.7195 17.7676C16.7195 17.3362 17.0764 16.9798 17.5083 16.9798C17.8652 16.9798 18.1657 17.2237 18.2596 17.5613C18.2596 17.5988 18.2596 17.6363 18.2596 17.6738C18.2596 17.7488 18.2596 17.8238 18.2784 17.8989C18.222 18.274 17.884 18.5553 17.5083 18.5553C17.0576 18.5553 16.7195 18.1989 16.7195 17.7676ZM18.4849 18.3865C18.5601 18.499 18.6728 18.5928 18.7854 18.6491C18.6352 18.7429 18.5225 18.8741 18.4286 19.0242C18.3535 18.9117 18.2408 18.8179 18.1281 18.7616C18.2784 18.6491 18.4098 18.5178 18.4849 18.3865ZM19.424 16.511C18.992 16.511 18.6352 16.1546 18.6352 15.7232C18.6352 15.2919 18.992 14.9355 19.424 14.9355C19.7808 14.9355 20.0813 15.1793 20.1752 15.5169C20.1752 15.5919 20.194 15.667 20.2128 15.742C20.194 16.1546 19.8559 16.511 19.424 16.511ZM19.424 14.5604C18.992 14.5604 18.6352 14.204 18.6352 13.7727C18.6352 13.3413 18.992 12.9849 19.424 12.9849C19.7808 12.9849 20.0813 13.2288 20.1752 13.5664C20.1752 13.6414 20.194 13.7164 20.2128 13.7914C20.194 14.204 19.8559 14.5604 19.424 14.5604ZM19.424 12.6098C18.992 12.6098 18.6352 12.2535 18.6352 11.8221C18.6352 11.3907 18.992 11.0344 19.424 11.0344C19.7808 11.0344 20.0813 11.2782 20.1752 11.6158C20.1752 11.6908 20.194 11.7658 20.2128 11.8409C20.194 12.2535 19.8559 12.6098 19.424 12.6098ZM19.424 10.6593C18.992 10.6593 18.6352 10.3029 18.6352 9.87154C18.6352 9.44016 18.992 9.08381 19.424 9.08381C19.7808 9.08381 20.0813 9.32763 20.1752 9.66523C20.1752 9.74025 20.194 9.81527 20.2128 9.89029C20.194 10.3029 19.8559 10.6593 19.424 10.6593ZM19.424 8.7087C18.992 8.7087 18.6352 8.35235 18.6352 7.92097C18.6352 7.4896 18.992 7.13325 19.424 7.13325C19.7808 7.13325 20.0813 7.37707 20.1752 7.71466C20.1752 7.78969 20.194 7.86471 20.2128 7.93973C20.194 8.35235 19.8559 8.7087 19.424 8.7087ZM14.5034 8.16479C14.5034 8.59617 14.1466 8.95252 13.7146 8.95252C13.2827 8.95252 12.9258 8.59617 12.9258 8.16479C12.9258 7.73342 13.2827 7.37707 13.7146 7.37707C14.1466 7.37707 14.5034 7.73342 14.5034 8.16479ZM13.0948 11.0906C12.9446 11.1844 12.8319 11.3157 12.738 11.4657C12.6441 11.3157 12.5314 11.2032 12.3812 11.1094C12.5314 11.0156 12.6441 10.8843 12.738 10.7343C12.8319 10.8843 12.9446 10.9969 13.0948 11.0906ZM11.7426 8.97128C11.3107 8.97128 10.9538 8.61492 10.9538 8.18355C10.9538 7.75218 11.3107 7.39582 11.7426 7.39582C12.1746 7.39582 12.5314 7.75218 12.5314 8.18355C12.5314 8.61492 12.1746 8.97128 11.7426 8.97128ZM10.8036 7.4896C10.7097 7.33956 10.597 7.22702 10.4468 7.13325C10.5594 7.05822 10.6721 6.96445 10.7472 6.85192C10.8412 7.00196 10.9538 7.11449 11.1041 7.20827C10.9914 7.28329 10.8975 7.37707 10.8036 7.4896ZM4.94397 6.45805C5.03788 6.64561 5.18812 6.8144 5.35715 6.92694C5.26325 6.9832 5.18812 7.05822 5.113 7.13325C5.0191 6.94569 4.86885 6.77689 4.69982 6.66436C4.79373 6.60809 4.86885 6.53307 4.94397 6.45805ZM4.94397 8.40862C5.03788 8.59617 5.18812 8.76497 5.35715 8.8775C5.26325 8.93377 5.18812 9.00879 5.113 9.08381C5.0191 8.89626 4.86885 8.72746 4.69982 8.61492C4.79373 8.55866 4.86885 8.50239 4.94397 8.40862ZM4.94397 10.3592C5.03788 10.5467 5.18812 10.7155 5.35715 10.8281C5.26325 10.8843 5.18812 10.9594 5.113 11.0344C5.0191 10.8468 4.86885 10.678 4.69982 10.5655C4.79373 10.5092 4.86885 10.453 4.94397 10.3592ZM4.94397 12.3285C5.03788 12.5161 5.18812 12.6849 5.35715 12.7974C5.26325 12.8537 5.18812 12.9287 5.113 13.0037C5.0191 12.8161 4.86885 12.6473 4.69982 12.5348C4.79373 12.4598 4.86885 12.4035 4.94397 12.3285ZM4.94397 14.2791C5.03788 14.4666 5.18812 14.6354 5.35715 14.748C5.26325 14.8042 5.18812 14.8792 5.113 14.9543C5.0191 14.7667 4.86885 14.5979 4.69982 14.4854C4.79373 14.4104 4.86885 14.3541 4.94397 14.2791ZM4.94397 16.2296C5.03788 16.4172 5.18812 16.586 5.35715 16.6985C5.26325 16.7548 5.18812 16.8298 5.113 16.9048C5.0191 16.7173 4.86885 16.5485 4.69982 16.4359C4.79373 16.3609 4.86885 16.3046 4.94397 16.2296ZM4.94397 18.1802C5.03788 18.3677 5.18812 18.5365 5.35715 18.6491C5.26325 18.7053 5.18812 18.7804 5.113 18.8554C5.0191 18.6678 4.86885 18.499 4.69982 18.3865C4.79373 18.3302 4.86885 18.2552 4.94397 18.1802ZM10.8036 19.193C10.7097 19.0429 10.597 18.9304 10.4468 18.8366C10.5594 18.7616 10.6721 18.6678 10.7472 18.5553C10.8412 18.7053 10.9538 18.8179 11.1041 18.9117C10.9914 18.9867 10.8975 19.0805 10.8036 19.193ZM10.9538 17.9364C10.9538 17.505 11.3107 17.1486 11.7426 17.1486C12.1746 17.1486 12.5314 17.505 12.5314 17.9364C12.5314 18.3677 12.1746 18.7241 11.7426 18.7241C11.3107 18.7241 10.9538 18.3677 10.9538 17.9364ZM12.3812 15.0105C12.5314 14.9167 12.6441 14.7855 12.738 14.6354C12.8319 14.7855 12.9446 14.898 13.0948 14.9918C12.9446 15.0855 12.8319 15.2168 12.738 15.3669C12.6441 15.2168 12.5126 15.1043 12.3812 15.0105ZM13.7146 17.1299C14.1466 17.1299 14.5034 17.4862 14.5034 17.9176C14.5034 18.349 14.1466 18.7053 13.7146 18.7053C13.2827 18.7053 12.9258 18.349 12.9258 17.9176C12.9258 17.4862 13.2827 17.1299 13.7146 17.1299ZM20.2879 18.8554C20.2128 18.7804 20.1377 18.7053 20.0438 18.6491C20.2316 18.5365 20.363 18.3677 20.4569 18.1802C20.5321 18.2552 20.6072 18.3302 20.7011 18.3865C20.5321 18.499 20.3818 18.6678 20.2879 18.8554ZM20.2879 16.9048C20.2128 16.8298 20.1377 16.7548 20.0438 16.6985C20.2316 16.586 20.363 16.4172 20.4569 16.2296C20.5321 16.3046 20.6072 16.3797 20.7011 16.4359C20.5321 16.5485 20.3818 16.6985 20.2879 16.9048ZM20.2879 14.9543C20.2128 14.8792 20.1377 14.8042 20.0438 14.748C20.2316 14.6354 20.363 14.4666 20.4569 14.2791C20.5321 14.3541 20.6072 14.4291 20.7011 14.4854C20.5321 14.5979 20.3818 14.748 20.2879 14.9543ZM20.2879 13.0037C20.2128 12.9287 20.1377 12.8537 20.0438 12.7974C20.2316 12.6849 20.363 12.5161 20.4569 12.3285C20.5321 12.4035 20.6072 12.4785 20.7011 12.5348C20.5321 12.6473 20.3818 12.7974 20.2879 13.0037ZM20.2879 11.0531C20.2128 10.9781 20.1377 10.9031 20.0438 10.8468C20.2316 10.7343 20.363 10.5655 20.4569 10.3779C20.5321 10.453 20.6072 10.528 20.7011 10.5842C20.5321 10.678 20.3818 10.8468 20.2879 11.0531ZM20.2879 9.08381C20.2128 9.00879 20.1377 8.93377 20.0438 8.8775C20.2316 8.76497 20.363 8.59617 20.4569 8.40862C20.5321 8.48364 20.6072 8.55866 20.7011 8.61492C20.5321 8.72746 20.3818 8.89626 20.2879 9.08381ZM20.2879 7.13325C20.2128 7.05822 20.1377 6.9832 20.0438 6.92694C20.2316 6.8144 20.363 6.64561 20.4569 6.45805C20.5321 6.53307 20.6072 6.60809 20.7011 6.66436C20.5321 6.77689 20.3818 6.94569 20.2879 7.13325ZM20.1752 5.74534C20.1752 5.82037 20.194 5.89539 20.2128 5.97041C20.2128 6.40178 19.8559 6.75814 19.424 6.75814C18.992 6.75814 18.6352 6.40178 18.6352 5.97041C18.6352 5.53904 18.992 5.18268 19.424 5.18268C19.7808 5.16393 20.0813 5.40775 20.1752 5.74534ZM18.2596 5.85788C18.2596 5.89539 18.2596 5.9329 18.2596 5.97041C18.2596 6.04543 18.2596 6.12045 18.2784 6.19548C18.222 6.57058 17.884 6.85192 17.5083 6.85192C17.0764 6.85192 16.7195 6.49556 16.7195 6.06419C16.7195 5.63281 17.0764 5.27646 17.5083 5.27646C17.8652 5.27646 18.1657 5.52028 18.2596 5.85788ZM16.3627 5.78286C16.3439 5.87663 16.3439 5.97041 16.3439 6.06419C16.3439 6.19548 16.3627 6.32676 16.4191 6.45805C16.3064 6.73938 16.0247 6.94569 15.6866 6.94569C15.2546 6.94569 14.8978 6.58934 14.8978 6.15796C14.8978 5.72659 15.2546 5.37024 15.6866 5.37024C15.9683 5.37024 16.2312 5.53904 16.3627 5.78286ZM15.0481 7.13325C14.8978 7.22702 14.7851 7.35831 14.6912 7.50836C14.5973 7.37707 14.4846 7.28329 14.3719 7.18951C14.5222 7.09574 14.6349 6.96445 14.7288 6.8144C14.8039 6.94569 14.9166 7.03947 15.0481 7.13325ZM13.7146 7.00196C13.2827 7.00196 12.9258 6.64561 12.9258 6.21423C12.9258 5.78286 13.2827 5.4265 13.7146 5.4265C14.1466 5.4265 14.5034 5.78286 14.5034 6.21423C14.5034 6.64561 14.1466 7.00196 13.7146 7.00196ZM13.0948 9.14008C12.9446 9.23385 12.8319 9.36514 12.738 9.51519C12.6441 9.36514 12.5314 9.25261 12.3812 9.15883C12.5314 9.06506 12.6441 8.93377 12.738 8.78372C12.8319 8.93377 12.9446 9.0463 13.0948 9.14008ZM11.7426 7.02071C11.3107 7.02071 10.9538 6.66436 10.9538 6.23299C10.9538 5.80161 11.3107 5.44526 11.7426 5.44526C12.1746 5.44526 12.5314 5.80161 12.5314 6.23299C12.5314 6.66436 12.1746 7.02071 11.7426 7.02071ZM10.597 6.00792C10.5782 6.08294 10.5782 6.15796 10.5782 6.23299C10.5782 6.2705 10.5782 6.32676 10.5782 6.36427C10.4843 6.70187 10.1838 6.94569 9.82699 6.94569C9.39503 6.94569 9.03819 6.58934 9.03819 6.15796C9.03819 5.72659 9.39503 5.37024 9.82699 5.37024C10.2214 5.37024 10.5407 5.63281 10.597 6.00792ZM8.68136 5.9329C8.66258 6.00792 8.66258 6.08294 8.66258 6.15796C8.66258 6.19548 8.66258 6.23299 8.66258 6.2705C8.56867 6.6081 8.26818 6.85192 7.91134 6.85192C7.47938 6.85192 7.12255 6.49556 7.12255 6.06419C7.12255 5.63281 7.47938 5.27646 7.91134 5.27646C8.30574 5.27646 8.62501 5.55779 8.68136 5.9329ZM6.76571 5.82037C6.74693 5.89539 6.74693 5.97041 6.74693 6.04543C6.74693 6.08294 6.74693 6.12045 6.74693 6.15796C6.65303 6.49556 6.35253 6.73938 5.9957 6.73938C5.56374 6.73938 5.2069 6.38303 5.2069 5.95165C5.2069 5.52028 5.56374 5.16393 5.9957 5.16393C6.3901 5.16393 6.70937 5.46401 6.76571 5.82037ZM4.08006 6.85192C4.51201 6.85192 4.86885 7.20827 4.86885 7.63964C4.85007 7.71466 4.83129 7.78969 4.83129 7.86471C4.73738 8.20231 4.43689 8.44613 4.08006 8.44613C3.6481 8.44613 3.29126 8.08977 3.29126 7.6584C3.29126 7.22702 3.62932 6.85192 4.08006 6.85192ZM4.08006 8.80248C4.51201 8.80248 4.86885 9.15883 4.86885 9.59021C4.85007 9.66523 4.83129 9.74025 4.83129 9.81527C4.73738 10.1529 4.43689 10.3967 4.08006 10.3967C3.6481 10.3967 3.29126 10.0403 3.29126 9.60896C3.29126 9.17759 3.62932 8.80248 4.08006 8.80248ZM4.08006 10.753C4.51201 10.753 4.86885 11.1094 4.86885 11.5408C4.85007 11.6158 4.83129 11.6908 4.83129 11.7658C4.73738 12.1034 4.43689 12.3473 4.08006 12.3473C3.6481 12.3473 3.29126 11.9909 3.29126 11.5595C3.29126 11.1282 3.62932 10.753 4.08006 10.753ZM4.08006 12.7036C4.51201 12.7036 4.86885 13.06 4.86885 13.4913C4.85007 13.5664 4.83129 13.6414 4.83129 13.7164C4.73738 14.054 4.43689 14.2978 4.08006 14.2978C3.6481 14.2978 3.29126 13.9415 3.29126 13.5101C3.29126 13.0787 3.62932 12.7036 4.08006 12.7036ZM4.08006 14.6542C4.51201 14.6542 4.86885 15.0105 4.86885 15.4419C4.85007 15.5169 4.83129 15.5919 4.83129 15.667C4.73738 16.0046 4.43689 16.2484 4.08006 16.2484C3.6481 16.2484 3.29126 15.892 3.29126 15.4607C3.29126 15.0293 3.62932 14.6542 4.08006 14.6542ZM4.08006 16.6235C4.51201 16.6235 4.86885 16.9798 4.86885 17.4112C4.85007 17.4862 4.83129 17.5613 4.83129 17.6363C4.73738 17.9739 4.43689 18.2177 4.08006 18.2177C3.6481 18.2177 3.29126 17.8614 3.29126 17.43C3.29126 16.9986 3.62932 16.6235 4.08006 16.6235ZM5.2069 19.6244C5.2069 19.193 5.56374 18.8366 5.9957 18.8366C6.3901 18.8366 6.70937 19.118 6.76571 19.4931C6.74693 19.5681 6.74693 19.6431 6.74693 19.7181C6.74693 19.7556 6.74693 19.7932 6.74693 19.8307C6.65303 20.1683 6.35253 20.4121 5.9957 20.4121C5.56374 20.4121 5.2069 20.0557 5.2069 19.6244ZM7.12255 19.7181C7.12255 19.2868 7.47938 18.9304 7.91134 18.9304C8.30574 18.9304 8.62501 19.2117 8.68136 19.5868C8.66258 19.6619 8.66258 19.7369 8.66258 19.8119C8.66258 19.8494 8.66258 19.8869 8.66258 19.9244C8.56867 20.262 8.26818 20.5059 7.91134 20.5059C7.47938 20.5059 7.12255 20.1683 7.12255 19.7181ZM9.03819 19.8119C9.03819 19.3805 9.39503 19.0242 9.82699 19.0242C10.2026 19.0242 10.5407 19.3055 10.597 19.6619C10.5782 19.7369 10.5782 19.8119 10.5782 19.8869C10.5782 19.9244 10.5782 19.9807 10.5782 20.0182C10.4843 20.3558 10.1838 20.5996 9.82699 20.5996C9.39503 20.5996 9.03819 20.262 9.03819 19.8119ZM10.9538 19.8869C10.9538 19.4556 11.3107 19.0992 11.7426 19.0992C12.1746 19.0992 12.5314 19.4556 12.5314 19.8869C12.5314 20.3183 12.1746 20.6747 11.7426 20.6747C11.3107 20.6747 10.9538 20.3183 10.9538 19.8869ZM12.3812 16.9611C12.5314 16.8673 12.6441 16.736 12.738 16.586C12.8319 16.736 12.9446 16.8486 13.0948 16.9423C12.9446 17.0361 12.8319 17.1674 12.738 17.3174C12.6441 17.1674 12.5126 17.0549 12.3812 16.9611ZM13.7146 19.0805C14.1466 19.0805 14.5034 19.4368 14.5034 19.8682C14.5034 20.2996 14.1466 20.6559 13.7146 20.6559C13.2827 20.6559 12.9258 20.2996 12.9258 19.8682C12.9258 19.4368 13.2827 19.0805 13.7146 19.0805ZM14.3532 18.8929C14.5034 18.7991 14.6161 18.6678 14.71 18.5178C14.8039 18.6491 14.9166 18.7429 15.0293 18.8366C14.879 18.9304 14.7663 19.0617 14.6724 19.2117C14.5973 19.0805 14.4846 18.9867 14.3532 18.8929ZM15.6678 19.0242C15.9683 19.0242 16.2312 19.193 16.3627 19.4368C16.3439 19.5306 16.3252 19.6244 16.3252 19.7181C16.3252 19.8494 16.3439 19.9807 16.4003 20.112C16.2876 20.3933 16.0059 20.5996 15.6678 20.5996C15.2359 20.5996 14.879 20.2433 14.879 19.8119C14.879 19.3805 15.2359 19.0242 15.6678 19.0242ZM16.7195 19.7181C16.7195 19.2868 17.0764 18.9304 17.5083 18.9304C17.8652 18.9304 18.1657 19.1742 18.2596 19.5118C18.2596 19.5493 18.2596 19.5869 18.2596 19.6244C18.2596 19.6994 18.2596 19.7744 18.2784 19.8494C18.222 20.2245 17.884 20.5059 17.5083 20.5059C17.0576 20.5059 16.7195 20.1683 16.7195 19.7181ZM18.6352 19.6244C18.6352 19.193 18.992 18.8366 19.424 18.8366C19.7808 18.8366 20.0813 19.0805 20.1752 19.4181C20.1752 19.4931 20.194 19.5681 20.2128 19.6431C20.2128 20.0745 19.8559 20.4308 19.424 20.4308C18.992 20.4121 18.6352 20.0557 18.6352 19.6244ZM18.7854 4.97637C18.6352 5.07015 18.5225 5.20144 18.4286 5.35148C18.3535 5.23895 18.2408 5.14517 18.1281 5.08891C18.2784 4.99513 18.391 4.86384 18.4849 4.7138C18.5788 4.82633 18.6728 4.92011 18.7854 4.97637ZM13.0948 7.18951C12.9446 7.28329 12.8319 7.41458 12.738 7.56462C12.6441 7.41458 12.5314 7.30204 12.3812 7.20827C12.5314 7.11449 12.6441 6.9832 12.738 6.83316C12.8319 6.9832 12.9446 7.09574 13.0948 7.18951ZM11.1229 5.2577C11.0102 5.33273 10.8975 5.4265 10.8224 5.53904C10.7285 5.38899 10.6158 5.27646 10.4655 5.18268C10.5782 5.10766 10.6909 5.01388 10.766 4.90135C10.8599 5.03264 10.9726 5.16393 11.1229 5.2577ZM9.18844 5.18268C9.07575 5.2577 8.98185 5.35148 8.88795 5.46401C8.79404 5.31397 8.68136 5.18268 8.53111 5.08891C8.6438 5.01388 8.7377 4.92011 8.8316 4.80757C8.92551 4.95762 9.05697 5.08891 9.18844 5.18268ZM7.2728 5.08891C7.16011 5.16393 7.06621 5.2577 6.9723 5.35148C6.8784 5.20144 6.76571 5.07015 6.61547 4.97637C6.72815 4.90135 6.82206 4.80757 6.91596 4.7138C7.00986 4.86384 7.12255 4.99513 7.2728 5.08891ZM3.00955 6.15796C3.10345 6.36427 3.2537 6.55183 3.44151 6.66436C3.36638 6.72063 3.29126 6.77689 3.21614 6.85192C3.12223 6.64561 2.97199 6.45805 2.78418 6.34552C2.8593 6.28925 2.93442 6.23299 3.00955 6.15796ZM3.00955 8.10853C3.10345 8.31484 3.2537 8.50239 3.44151 8.61492C3.36638 8.67119 3.29126 8.72746 3.21614 8.80248C3.12223 8.59617 2.97199 8.40862 2.78418 8.29608C2.8593 8.23982 2.93442 8.18355 3.00955 8.10853ZM3.00955 10.0591C3.10345 10.2654 3.2537 10.453 3.44151 10.5655C3.36638 10.6218 3.29126 10.678 3.21614 10.753C3.12223 10.5467 2.97199 10.3592 2.78418 10.2466C2.8593 10.1904 2.93442 10.1341 3.00955 10.0591ZM3.00955 12.0097C3.10345 12.216 3.2537 12.4035 3.44151 12.5161C3.36638 12.5723 3.29126 12.6286 3.21614 12.7036C3.12223 12.4973 2.97199 12.3097 2.78418 12.1972C2.8593 12.1409 2.93442 12.0847 3.00955 12.0097ZM3.00955 13.9602C3.10345 14.1665 3.2537 14.3541 3.44151 14.4666C3.36638 14.5229 3.29126 14.5792 3.21614 14.6542C3.12223 14.4479 2.97199 14.2603 2.78418 14.1478C2.8593 14.0915 2.93442 14.0352 3.00955 13.9602ZM3.00955 15.9108C3.10345 16.1171 3.2537 16.3046 3.44151 16.4172C3.36638 16.4734 3.29126 16.5297 3.21614 16.6047C3.12223 16.3984 2.97199 16.2109 2.78418 16.0983C2.8593 16.0421 2.93442 15.9858 3.00955 15.9108ZM3.00955 17.8614C3.10345 18.0677 3.2537 18.2552 3.44151 18.3677C3.36638 18.424 3.29126 18.4803 3.21614 18.5553C3.12223 18.349 2.97199 18.1614 2.78418 18.0489C2.8593 17.9926 2.93442 17.9364 3.00955 17.8614ZM6.61547 20.5996C6.72815 20.5246 6.82206 20.4308 6.91596 20.3371C7.00986 20.4871 7.12255 20.6184 7.2728 20.7122C7.16011 20.7872 7.06621 20.881 6.9723 20.9748C6.89718 20.8247 6.76571 20.6934 6.61547 20.5996ZM8.54989 20.6934C8.66258 20.6184 8.75648 20.5246 8.85038 20.4121C8.94429 20.5621 9.05697 20.6934 9.20722 20.7872C9.09453 20.8622 9.00063 20.956 8.90673 21.0685C8.81282 20.9185 8.68136 20.7872 8.54989 20.6934ZM10.4655 20.7872C10.5782 20.7122 10.6909 20.6184 10.766 20.5059C10.8599 20.6559 10.9726 20.7684 11.1229 20.8622C11.0102 20.9372 10.8975 21.031 10.8224 21.1436C10.7285 21.0123 10.597 20.881 10.4655 20.7872ZM12.3812 18.9117C12.5314 18.8179 12.6441 18.6866 12.738 18.5365C12.8319 18.6866 12.9446 18.7991 13.0948 18.8929C12.9446 18.9867 12.8319 19.118 12.738 19.268C12.6441 19.118 12.5126 19.0054 12.3812 18.9117ZM18.1281 20.6934C18.2784 20.5996 18.391 20.4684 18.4849 20.3183C18.5601 20.4308 18.6728 20.5246 18.7854 20.5809C18.6352 20.6747 18.5225 20.806 18.4286 20.956C18.3347 20.8622 18.2408 20.7684 18.1281 20.6934ZM22.1848 18.5553C22.1284 18.4803 22.0533 18.424 21.9594 18.3677C22.1472 18.2365 22.2975 18.0677 22.3914 17.8614C22.4477 17.9364 22.5228 17.9926 22.6167 18.0489C22.4289 18.1802 22.2787 18.349 22.1848 18.5553ZM22.1848 16.6047C22.1284 16.5297 22.0533 16.4734 21.9594 16.4172C22.1472 16.2859 22.2975 16.1171 22.3914 15.9108C22.4477 15.9858 22.5228 16.0421 22.6167 16.0983C22.4289 16.2296 22.2787 16.3984 22.1848 16.6047ZM22.1848 14.6542C22.1284 14.5792 22.0533 14.5229 21.9594 14.4666C22.1472 14.3353 22.2975 14.1665 22.3914 13.9602C22.4477 14.0352 22.5228 14.0915 22.6167 14.1478C22.4289 14.2791 22.2787 14.4479 22.1848 14.6542ZM22.1848 12.7036C22.1284 12.6286 22.0533 12.5723 21.9594 12.5161C22.1472 12.3848 22.2975 12.216 22.3914 12.0097C22.4477 12.0847 22.5228 12.1409 22.6167 12.1972C22.4289 12.3285 22.2787 12.4973 22.1848 12.7036ZM22.1848 10.753C22.1284 10.678 22.0533 10.6218 21.9594 10.5655C22.1472 10.4342 22.2975 10.2654 22.3914 10.0591C22.4477 10.1341 22.5228 10.1904 22.6167 10.2466C22.4289 10.3779 22.2787 10.5467 22.1848 10.753ZM22.1848 8.80248C22.1284 8.72746 22.0533 8.67119 21.9594 8.61492C22.1472 8.48364 22.2975 8.31484 22.3914 8.10853C22.4477 8.18355 22.5228 8.23982 22.6167 8.29608C22.4289 8.40862 22.2787 8.59617 22.1848 8.80248ZM22.1848 6.85192C22.1284 6.77689 22.0533 6.72063 21.9594 6.66436C22.1472 6.53307 22.2975 6.36427 22.3914 6.15796C22.4477 6.23299 22.5228 6.28925 22.6167 6.34552C22.4289 6.45805 22.2787 6.64561 22.1848 6.85192ZM15.0481 5.18268C14.8978 5.27646 14.7851 5.40775 14.6912 5.55779C14.5973 5.4265 14.4846 5.33273 14.3719 5.23895C14.5222 5.14517 14.6349 5.01388 14.7288 4.86384C14.8039 4.99513 14.9166 5.08891 15.0481 5.18268ZM13.0948 5.23895C12.9446 5.33273 12.8319 5.46401 12.738 5.61406C12.6441 5.46401 12.5314 5.35148 12.3812 5.2577C12.5314 5.16393 12.6441 5.03264 12.738 4.8826C12.8319 5.01388 12.9446 5.14517 13.0948 5.23895ZM2.95321 5.37024C2.95321 5.38899 2.95321 5.40775 2.95321 5.44526C2.93442 5.48277 2.93442 5.53904 2.93442 5.57655C2.84052 5.91414 2.54003 6.15796 2.18319 6.15796C1.75123 6.15796 1.3944 5.80161 1.3944 5.37024C1.3944 4.93886 1.75123 4.58251 2.18319 4.58251C2.61515 4.58251 2.95321 4.93886 2.95321 5.37024ZM2.95321 7.3208C2.95321 7.33956 2.95321 7.35831 2.95321 7.39582C2.93442 7.43333 2.93442 7.4896 2.93442 7.52711C2.84052 7.86471 2.54003 8.10853 2.18319 8.10853C1.75123 8.10853 1.3944 7.75218 1.3944 7.3208C1.3944 6.88943 1.75123 6.53307 2.18319 6.53307C2.61515 6.53307 2.95321 6.88943 2.95321 7.3208ZM2.95321 9.27136C2.95321 9.29012 2.95321 9.30888 2.95321 9.34639C2.93442 9.3839 2.93442 9.44016 2.93442 9.47767C2.84052 9.81527 2.54003 10.0591 2.18319 10.0591C1.75123 10.0591 1.3944 9.70274 1.3944 9.27136C1.3944 8.83999 1.75123 8.48364 2.18319 8.48364C2.61515 8.48364 2.95321 8.83999 2.95321 9.27136ZM2.95321 11.2219C2.95321 11.2407 2.95321 11.2594 2.95321 11.297C2.93442 11.3345 2.93442 11.3907 2.93442 11.4282C2.84052 11.7658 2.54003 12.0097 2.18319 12.0097C1.75123 12.0097 1.3944 11.6533 1.3944 11.2219C1.3944 10.7906 1.75123 10.4342 2.18319 10.4342C2.61515 10.4342 2.95321 10.7906 2.95321 11.2219ZM2.95321 13.1725C2.95321 13.1912 2.95321 13.21 2.95321 13.2475C2.93442 13.285 2.93442 13.3413 2.93442 13.3788C2.84052 13.7164 2.54003 13.9602 2.18319 13.9602C1.75123 13.9602 1.3944 13.6039 1.3944 13.1725C1.3944 12.7411 1.75123 12.3848 2.18319 12.3848C2.61515 12.3848 2.95321 12.7411 2.95321 13.1725ZM2.95321 15.1231C2.95321 15.1418 2.95321 15.1606 2.95321 15.1981C2.93442 15.2356 2.93442 15.2919 2.93442 15.3294C2.84052 15.667 2.54003 15.9108 2.18319 15.9108C1.75123 15.9108 1.3944 15.5544 1.3944 15.1231C1.3944 14.6917 1.75123 14.3353 2.18319 14.3353C2.61515 14.3353 2.95321 14.6917 2.95321 15.1231ZM2.95321 17.0736C2.95321 17.0924 2.95321 17.1111 2.95321 17.1486C2.93442 17.1862 2.93442 17.2424 2.93442 17.2799C2.84052 17.6175 2.54003 17.8614 2.18319 17.8614C1.75123 17.8614 1.3944 17.505 1.3944 17.0736C1.3944 16.6422 1.75123 16.2859 2.18319 16.2859C2.61515 16.2859 2.95321 16.6422 2.95321 17.0736ZM2.95321 19.0242C2.95321 19.0429 2.95321 19.0617 2.95321 19.0992C2.93442 19.1367 2.93442 19.193 2.93442 19.2305C2.84052 19.5681 2.54003 19.8119 2.18319 19.8119C1.75123 19.8119 1.3944 19.4556 1.3944 19.0242C1.3944 18.5928 1.75123 18.2365 2.18319 18.2365C2.61515 18.2365 2.95321 18.5928 2.95321 19.0242ZM12.3812 20.8622C12.5314 20.7684 12.6441 20.6372 12.738 20.4871C12.8319 20.6372 12.9446 20.7497 13.0948 20.8435C12.9446 20.9372 12.8319 21.0685 12.738 21.2186C12.6441 21.0685 12.5126 20.956 12.3812 20.8622ZM14.3532 20.8435C14.5034 20.7497 14.6161 20.6184 14.71 20.4684C14.8039 20.5996 14.9166 20.6934 15.0293 20.7872C14.879 20.881 14.7663 21.0123 14.6724 21.1623C14.5973 21.0498 14.4846 20.9372 14.3532 20.8435ZM22.4665 19.0242C22.4665 18.5928 22.8233 18.2365 23.2553 18.2365C23.6872 18.2365 24.0441 18.5928 24.0441 19.0242C24.0441 19.4556 23.6872 19.8119 23.2553 19.8119C22.8233 19.8119 22.4665 19.4556 22.4665 19.0242ZM22.4665 17.0736C22.4665 16.6422 22.8233 16.2859 23.2553 16.2859C23.6872 16.2859 24.0441 16.6422 24.0441 17.0736C24.0441 17.505 23.6872 17.8614 23.2553 17.8614C22.8233 17.8614 22.4665 17.505 22.4665 17.0736ZM22.4665 15.1231C22.4665 14.6917 22.8233 14.3353 23.2553 14.3353C23.6872 14.3353 24.0441 14.6917 24.0441 15.1231C24.0441 15.5544 23.6872 15.9108 23.2553 15.9108C22.8233 15.9108 22.4665 15.5544 22.4665 15.1231ZM22.4665 13.1725C22.4665 12.7411 22.8233 12.3848 23.2553 12.3848C23.6872 12.3848 24.0441 12.7411 24.0441 13.1725C24.0441 13.6039 23.6872 13.9602 23.2553 13.9602C22.8233 13.9602 22.4665 13.6039 22.4665 13.1725ZM22.4665 11.2219C22.4665 10.7906 22.8233 10.4342 23.2553 10.4342C23.6872 10.4342 24.0441 10.7906 24.0441 11.2219C24.0441 11.6533 23.6872 12.0097 23.2553 12.0097C22.8233 12.0097 22.4665 11.6533 22.4665 11.2219ZM22.4665 9.27136C22.4665 8.83999 22.8233 8.48364 23.2553 8.48364C23.6872 8.48364 24.0441 8.83999 24.0441 9.27136C24.0441 9.70274 23.6872 10.0591 23.2553 10.0591C22.8233 10.0591 22.4665 9.70274 22.4665 9.27136ZM22.4665 7.3208C22.4665 6.88943 22.8233 6.53307 23.2553 6.53307C23.6872 6.53307 24.0441 6.88943 24.0441 7.3208C24.0441 7.75218 23.6872 8.10853 23.2553 8.10853C22.8233 8.10853 22.4665 7.75218 22.4665 7.3208ZM22.4665 5.37024C22.4665 4.93886 22.8233 4.58251 23.2553 4.58251C23.6872 4.58251 24.0441 4.93886 24.0441 5.37024C24.0441 5.80161 23.6872 6.15796 23.2553 6.15796C22.8233 6.15796 22.4665 5.80161 22.4665 5.37024Z" fill="#005888"/>
<path d="M1.35693 7.31995C1.35693 7.75133 1.71377 8.10768 2.14573 8.10768C2.50256 8.10768 2.82184 7.86386 2.89696 7.52626C2.89696 7.48875 2.91574 7.43249 2.91574 7.39498C2.91574 7.37622 2.91574 7.35746 2.91574 7.31995C2.91574 6.88858 2.55891 6.53223 2.12695 6.53223C1.69499 6.53223 1.35693 6.88858 1.35693 7.31995Z" fill="#5CB3E2"/>
<path d="M3.2915 7.63949C3.2915 8.07087 3.64834 8.42722 4.0803 8.42722C4.43713 8.42722 4.73763 8.1834 4.83153 7.8458C4.83153 7.77078 4.85031 7.69576 4.86909 7.62074C4.86909 7.18936 4.51226 6.83301 4.0803 6.83301C3.62956 6.85176 3.2915 7.20812 3.2915 7.63949Z" fill="#5CB3E2"/>
<path d="M5.20703 7.92054C5.20703 8.35191 5.56387 8.70827 5.99583 8.70827C6.35266 8.70827 6.65316 8.46445 6.74706 8.12685C6.74706 8.08934 6.74706 8.05183 6.74706 8.01432C6.74706 7.9393 6.74706 7.86427 6.76584 7.78925C6.7095 7.41414 6.37144 7.13281 5.99583 7.13281C5.56387 7.13281 5.20703 7.47041 5.20703 7.92054Z" fill="#5CB3E2"/>
<path d="M7.12256 8.01429C7.12256 8.44567 7.47939 8.80202 7.91135 8.80202C8.26819 8.80202 8.58746 8.5582 8.66259 8.2206C8.66259 8.18309 8.66259 8.14558 8.66259 8.10807C8.66259 8.03305 8.66259 7.95802 8.68137 7.883C8.62502 7.50789 8.28697 7.22656 7.91135 7.22656C7.47939 7.22656 7.12256 7.58292 7.12256 8.01429Z" fill="#5CB3E2"/>
<path d="M9.03809 8.10804C9.03809 8.53942 9.39492 8.89577 9.82688 8.89577C10.1837 8.89577 10.503 8.65195 10.5781 8.31435C10.5781 8.27684 10.5781 8.22057 10.5781 8.18306C10.5781 8.10804 10.5781 8.03302 10.5969 7.958C10.5218 7.60164 10.2025 7.32031 9.82688 7.32031C9.39492 7.32031 9.03809 7.67667 9.03809 8.10804Z" fill="#5CB3E2"/>
<path d="M11.7429 8.97096C12.1785 8.97096 12.5317 8.61829 12.5317 8.18324C12.5317 7.74819 12.1785 7.39551 11.7429 7.39551C11.3073 7.39551 10.9541 7.74819 10.9541 8.18324C10.9541 8.61829 11.3073 8.97096 11.7429 8.97096Z" fill="#5CB3E2"/>
<path d="M13.7146 8.95241C14.1502 8.95241 14.5034 8.59973 14.5034 8.16468C14.5034 7.72963 14.1502 7.37695 13.7146 7.37695C13.2789 7.37695 12.9258 7.72963 12.9258 8.16468C12.9258 8.59973 13.2789 8.95241 13.7146 8.95241Z" fill="#5CB3E2"/>
<path d="M14.8789 8.10804C14.8789 8.53942 15.2357 8.89577 15.6677 8.89577C16.0058 8.89577 16.2875 8.68946 16.4002 8.40813C16.3626 8.27684 16.325 8.14555 16.325 8.01426C16.325 7.92049 16.3438 7.82671 16.3626 7.73293C16.2311 7.48911 15.9682 7.32031 15.6677 7.32031C15.2357 7.32031 14.8789 7.67667 14.8789 8.10804Z" fill="#5CB3E2"/>
<path d="M16.7197 8.01429C16.7197 8.44567 17.0766 8.80202 17.5085 8.80202C17.9029 8.80202 18.2222 8.52069 18.2785 8.14558C18.2598 8.07056 18.2598 7.99554 18.2598 7.92051C18.2598 7.883 18.2598 7.84549 18.2598 7.80798C18.1659 7.47038 17.8654 7.22656 17.5085 7.22656C17.0578 7.22656 16.7197 7.58292 16.7197 8.01429Z" fill="#5CB3E2"/>
<path d="M19.424 7.13281C18.9921 7.13281 18.6353 7.48917 18.6353 7.92054C18.6353 8.35191 18.9921 8.70827 19.424 8.70827C19.856 8.70827 20.2128 8.35191 20.2128 7.92054C20.1941 7.84552 20.1753 7.7705 20.1753 7.69547C20.0814 7.37663 19.7809 7.13281 19.424 7.13281Z" fill="#5CB3E2"/>
<path d="M21.3396 6.85156C20.9076 6.85156 20.5508 7.20792 20.5508 7.63929C20.5508 8.07067 20.9076 8.42702 21.3396 8.42702C21.7715 8.42702 22.1284 8.07067 22.1284 7.63929C22.1284 7.62054 22.1284 7.60178 22.1284 7.56427C22.1096 7.52676 22.1096 7.47049 22.1096 7.43298C21.9969 7.09538 21.6964 6.85156 21.3396 6.85156Z" fill="#5CB3E2"/>
<path d="M23.2551 8.10768C23.6907 8.10768 24.0439 7.755 24.0439 7.31995C24.0439 6.8849 23.6907 6.53223 23.2551 6.53223C22.8195 6.53223 22.4663 6.8849 22.4663 7.31995C22.4663 7.755 22.8195 8.10768 23.2551 8.10768Z" fill="#5CB3E2"/>
<path d="M1.35693 9.27113C1.35693 9.7025 1.71377 10.0589 2.14573 10.0589C2.50256 10.0589 2.82184 9.81503 2.89696 9.47744C2.89696 9.43992 2.91574 9.38366 2.91574 9.34615C2.91574 9.32739 2.91574 9.30864 2.91574 9.27113C2.91574 8.83975 2.55891 8.4834 2.12695 8.4834C1.69499 8.4834 1.35693 8.83975 1.35693 9.27113Z" fill="#5CB3E2"/>
<path d="M3.2915 9.58969C3.2915 10.0211 3.64834 10.3774 4.0803 10.3774C4.43713 10.3774 4.73763 10.1336 4.83153 9.796C4.83153 9.72097 4.85031 9.64595 4.86909 9.57093C4.86909 9.13956 4.51226 8.7832 4.0803 8.7832C3.62956 8.80196 3.2915 9.15831 3.2915 9.58969Z" fill="#5CB3E2"/>
<path d="M5.99583 10.6585C6.35266 10.6585 6.65316 10.4146 6.74706 10.077C6.74706 10.0395 6.74706 10.002 6.74706 9.96451C6.74706 9.88949 6.74706 9.81447 6.76584 9.73945C6.7095 9.36434 6.37144 9.08301 5.99583 9.08301C5.56387 9.08301 5.20703 9.43936 5.20703 9.87074C5.20703 10.3021 5.56387 10.6585 5.99583 10.6585Z" fill="#5CB3E2"/>
<path d="M7.12256 9.96449C7.12256 10.3959 7.47939 10.7522 7.91135 10.7522C8.26819 10.7522 8.58746 10.5084 8.66259 10.1708C8.66259 10.1333 8.66259 10.0958 8.66259 10.0583C8.66259 9.98324 8.66259 9.90822 8.68137 9.8332C8.62502 9.45809 8.28697 9.17676 7.91135 9.17676C7.47939 9.17676 7.12256 9.53311 7.12256 9.96449Z" fill="#5CB3E2"/>
<path d="M9.82688 9.27051C9.39492 9.27051 9.03809 9.62686 9.03809 10.0582C9.03809 10.4896 9.39492 10.846 9.82688 10.846C10.1837 10.846 10.503 10.6021 10.5781 10.2645C10.5781 10.227 10.5781 10.1708 10.5781 10.1333C10.5781 10.0582 10.5781 9.98321 10.5969 9.90819C10.5406 9.55184 10.2213 9.27051 9.82688 9.27051Z" fill="#5CB3E2"/>
<path d="M11.7429 10.9221C12.1785 10.9221 12.5317 10.5695 12.5317 10.1344C12.5317 9.69936 12.1785 9.34668 11.7429 9.34668C11.3073 9.34668 10.9541 9.69936 10.9541 10.1344C10.9541 10.5695 11.3073 10.9221 11.7429 10.9221Z" fill="#5CB3E2"/>
<path d="M13.7146 10.9026C14.1502 10.9026 14.5034 10.5499 14.5034 10.1149C14.5034 9.67983 14.1502 9.32715 13.7146 9.32715C13.2789 9.32715 12.9258 9.67983 12.9258 10.1149C12.9258 10.5499 13.2789 10.9026 13.7146 10.9026Z" fill="#5CB3E2"/>
<path d="M14.8789 10.0582C14.8789 10.4896 15.2357 10.846 15.6677 10.846C16.0058 10.846 16.2875 10.6397 16.4002 10.3583C16.3626 10.227 16.325 10.0957 16.325 9.96446C16.325 9.87068 16.3438 9.7769 16.3626 9.68313C16.2311 9.43931 15.9682 9.27051 15.6677 9.27051C15.2357 9.27051 14.8789 9.62686 14.8789 10.0582Z" fill="#5CB3E2"/>
<path d="M17.5085 9.17676C17.0766 9.17676 16.7197 9.53311 16.7197 9.96449C16.7197 10.3959 17.0766 10.7522 17.5085 10.7522C17.9029 10.7522 18.2222 10.4709 18.2785 10.0958C18.2598 10.0208 18.2598 9.94573 18.2598 9.87071C18.2598 9.8332 18.2598 9.79569 18.2598 9.75818C18.1659 9.42058 17.8654 9.17676 17.5085 9.17676Z" fill="#5CB3E2"/>
<path d="M19.424 9.08301C18.9921 9.08301 18.6353 9.43936 18.6353 9.87074C18.6353 10.3021 18.9921 10.6585 19.424 10.6585C19.856 10.6585 20.2128 10.3021 20.2128 9.87074C20.1941 9.79571 20.1753 9.72069 20.1753 9.64567C20.0814 9.32683 19.7809 9.08301 19.424 9.08301Z" fill="#5CB3E2"/>
<path d="M21.3396 8.80273C20.9076 8.80273 20.5508 9.15909 20.5508 9.59046C20.5508 10.0218 20.9076 10.3782 21.3396 10.3782C21.7715 10.3782 22.1284 10.0218 22.1284 9.59046C22.1284 9.57171 22.1284 9.55295 22.1284 9.51544C22.1096 9.47793 22.1096 9.42166 22.1096 9.38415C21.9969 9.04656 21.6964 8.80273 21.3396 8.80273Z" fill="#5CB3E2"/>
<path d="M23.2551 10.0589C23.6907 10.0589 24.0439 9.70618 24.0439 9.27113C24.0439 8.83608 23.6907 8.4834 23.2551 8.4834C22.8195 8.4834 22.4663 8.83608 22.4663 9.27113C22.4663 9.70618 22.8195 10.0589 23.2551 10.0589Z" fill="#5CB3E2"/>
<path d="M1.35693 11.2213C1.35693 11.6527 1.71377 12.009 2.14573 12.009C2.50256 12.009 2.82184 11.7652 2.89696 11.4276C2.89696 11.3901 2.91574 11.3339 2.91574 11.2963C2.91574 11.2776 2.91574 11.2588 2.91574 11.2213C2.91574 10.7899 2.55891 10.4336 2.12695 10.4336C1.69499 10.4336 1.35693 10.7899 1.35693 11.2213Z" fill="#5CB3E2"/>
<path d="M3.2915 11.5409C3.2915 11.9722 3.64834 12.3286 4.0803 12.3286C4.43713 12.3286 4.73763 12.0848 4.83153 11.7472C4.83153 11.6721 4.85031 11.5971 4.86909 11.5221C4.86909 11.0907 4.51226 10.7344 4.0803 10.7344C3.62956 10.7531 3.2915 11.1095 3.2915 11.5409Z" fill="#5CB3E2"/>
<path d="M5.99583 12.6096C6.35266 12.6096 6.65316 12.3658 6.74706 12.0282C6.74706 11.9907 6.74706 11.9532 6.74706 11.9157C6.74706 11.8407 6.74706 11.7656 6.76584 11.6906C6.7095 11.3155 6.37144 11.0342 5.99583 11.0342C5.56387 11.0342 5.20703 11.3905 5.20703 11.8219C5.20703 12.2533 5.56387 12.6096 5.99583 12.6096Z" fill="#5CB3E2"/>
<path d="M7.91135 12.7034C8.26819 12.7034 8.58746 12.4596 8.66259 12.122C8.66259 12.0845 8.66259 12.0469 8.66259 12.0094C8.66259 11.9344 8.66259 11.8594 8.68137 11.7844C8.62502 11.4093 8.28697 11.1279 7.91135 11.1279C7.47939 11.1279 7.12256 11.4843 7.12256 11.9157C7.12256 12.347 7.47939 12.7034 7.91135 12.7034Z" fill="#5CB3E2"/>
<path d="M9.82688 11.2217C9.39492 11.2217 9.03809 11.578 9.03809 12.0094C9.03809 12.4408 9.39492 12.7971 9.82688 12.7971C10.1837 12.7971 10.503 12.5533 10.5781 12.2157C10.5781 12.1782 10.5781 12.1219 10.5781 12.0844C10.5781 12.0094 10.5781 11.9344 10.5969 11.8594C10.5406 11.503 10.2213 11.2217 9.82688 11.2217Z" fill="#5CB3E2"/>
<path d="M11.7429 12.8714C12.1785 12.8714 12.5317 12.5187 12.5317 12.0836C12.5317 11.6486 12.1785 11.2959 11.7429 11.2959C11.3073 11.2959 10.9541 11.6486 10.9541 12.0836C10.9541 12.5187 11.3073 12.8714 11.7429 12.8714Z" fill="#5CB3E2"/>
<path d="M13.7146 12.8538C14.1502 12.8538 14.5034 12.5011 14.5034 12.066C14.5034 11.631 14.1502 11.2783 13.7146 11.2783C13.2789 11.2783 12.9258 11.631 12.9258 12.066C12.9258 12.5011 13.2789 12.8538 13.7146 12.8538Z" fill="#5CB3E2"/>
<path d="M14.8789 12.0094C14.8789 12.4408 15.2357 12.7971 15.6677 12.7971C16.0058 12.7971 16.2875 12.5908 16.4002 12.3095C16.3626 12.1782 16.325 12.0469 16.325 11.9156C16.325 11.8219 16.3438 11.7281 16.3626 11.6343C16.2311 11.3905 15.9682 11.2217 15.6677 11.2217C15.2357 11.2217 14.8789 11.578 14.8789 12.0094Z" fill="#5CB3E2"/>
<path d="M17.5085 11.1279C17.0766 11.1279 16.7197 11.4843 16.7197 11.9157C16.7197 12.347 17.0766 12.7034 17.5085 12.7034C17.9029 12.7034 18.2222 12.4221 18.2785 12.0469C18.2598 11.9719 18.2598 11.8969 18.2598 11.8219C18.2598 11.7844 18.2598 11.7469 18.2598 11.7093C18.1659 11.3717 17.8654 11.1279 17.5085 11.1279Z" fill="#5CB3E2"/>
<path d="M19.424 11.0342C18.9921 11.0342 18.6353 11.3905 18.6353 11.8219C18.6353 12.2533 18.9921 12.6096 19.424 12.6096C19.856 12.6096 20.2128 12.2533 20.2128 11.8219C20.1941 11.7469 20.1753 11.6719 20.1753 11.5968C20.0814 11.278 19.7809 11.0342 19.424 11.0342Z" fill="#5CB3E2"/>
<path d="M21.3396 10.752C20.9076 10.752 20.5508 11.1083 20.5508 11.5397C20.5508 11.9711 20.9076 12.3274 21.3396 12.3274C21.7715 12.3274 22.1284 11.9711 22.1284 11.5397C22.1284 11.5209 22.1284 11.5022 22.1284 11.4647C22.1096 11.4271 22.1096 11.3709 22.1096 11.3334C21.9969 11.0145 21.6964 10.752 21.3396 10.752Z" fill="#5CB3E2"/>
<path d="M23.2551 12.009C23.6907 12.009 24.0439 11.6564 24.0439 11.2213C24.0439 10.7863 23.6907 10.4336 23.2551 10.4336C22.8195 10.4336 22.4663 10.7863 22.4663 11.2213C22.4663 11.6564 22.8195 12.009 23.2551 12.009Z" fill="#5CB3E2"/>
<path d="M1.35693 13.1725C1.35693 13.6039 1.71377 13.9602 2.14573 13.9602C2.50256 13.9602 2.82184 13.7164 2.89696 13.3788C2.89696 13.3413 2.91574 13.285 2.91574 13.2475C2.91574 13.2288 2.91574 13.21 2.91574 13.1725C2.91574 12.7411 2.55891 12.3848 2.12695 12.3848C1.69499 12.3848 1.35693 12.7411 1.35693 13.1725Z" fill="#5CB3E2"/>
<path d="M3.2915 13.4911C3.2915 13.9224 3.64834 14.2788 4.0803 14.2788C4.43713 14.2788 4.73763 14.035 4.83153 13.6974C4.83153 13.6223 4.85031 13.5473 4.86909 13.4723C4.86909 13.0409 4.51226 12.6846 4.0803 12.6846C3.62956 12.7033 3.2915 13.0597 3.2915 13.4911Z" fill="#5CB3E2"/>
<path d="M5.99583 14.5608C6.35266 14.5608 6.65316 14.317 6.74706 13.9794C6.74706 13.9419 6.74706 13.9044 6.74706 13.8669C6.74706 13.7918 6.74706 13.7168 6.76584 13.6418C6.7095 13.2667 6.37144 12.9854 5.99583 12.9854C5.56387 12.9854 5.20703 13.3417 5.20703 13.7731C5.20703 14.2045 5.56387 14.5608 5.99583 14.5608Z" fill="#5CB3E2"/>
<path d="M7.91135 14.6536C8.26819 14.6536 8.58746 14.4098 8.66259 14.0722C8.66259 14.0347 8.66259 13.9971 8.66259 13.9596C8.66259 13.8846 8.66259 13.8096 8.68137 13.7346C8.62502 13.3595 8.28697 13.0781 7.91135 13.0781C7.47939 13.0781 7.12256 13.4345 7.12256 13.8659C7.12256 14.2972 7.47939 14.6536 7.91135 14.6536Z" fill="#5CB3E2"/>
<path d="M9.82688 13.1719C9.39492 13.1719 9.03809 13.5282 9.03809 13.9596C9.03809 14.391 9.39492 14.7473 9.82688 14.7473C10.1837 14.7473 10.503 14.5035 10.5781 14.1659C10.5781 14.1284 10.5781 14.0721 10.5781 14.0346C10.5781 13.9596 10.5781 13.8846 10.5969 13.8096C10.5406 13.4532 10.2213 13.1719 9.82688 13.1719Z" fill="#5CB3E2"/>
<path d="M11.7429 14.8225C12.1785 14.8225 12.5317 14.4698 12.5317 14.0348C12.5317 13.5997 12.1785 13.2471 11.7429 13.2471C11.3073 13.2471 10.9541 13.5997 10.9541 14.0348C10.9541 14.4698 11.3073 14.8225 11.7429 14.8225Z" fill="#5CB3E2"/>
<path d="M13.7146 14.804C14.1502 14.804 14.5034 14.4513 14.5034 14.0162C14.5034 13.5812 14.1502 13.2285 13.7146 13.2285C13.2789 13.2285 12.9258 13.5812 12.9258 14.0162C12.9258 14.4513 13.2789 14.804 13.7146 14.804Z" fill="#5CB3E2"/>
<path d="M15.668 14.7473C16.006 14.7473 16.2877 14.541 16.4004 14.2597C16.3629 14.1284 16.3441 13.9971 16.3441 13.8658C16.3441 13.772 16.3629 13.6783 16.3816 13.5845C16.2502 13.3407 15.9872 13.1719 15.6867 13.1719C15.2548 13.1719 14.8979 13.5282 14.8979 13.9596C14.8979 14.391 15.236 14.7473 15.668 14.7473Z" fill="#5CB3E2"/>
<path d="M17.5085 13.0781C17.0766 13.0781 16.7197 13.4345 16.7197 13.8659C16.7197 14.2972 17.0766 14.6536 17.5085 14.6536C17.9029 14.6536 18.2222 14.3723 18.2785 13.9971C18.2598 13.9221 18.2598 13.8471 18.2598 13.7721C18.2598 13.7346 18.2598 13.6971 18.2598 13.6595C18.1659 13.3219 17.8654 13.0781 17.5085 13.0781Z" fill="#5CB3E2"/>
<path d="M19.424 12.9854C18.9921 12.9854 18.6353 13.3417 18.6353 13.7731C18.6353 14.2045 18.9921 14.5608 19.424 14.5608C19.856 14.5608 20.2128 14.2045 20.2128 13.7731C20.1941 13.6981 20.1753 13.623 20.1753 13.548C20.0814 13.2292 19.7809 12.9854 19.424 12.9854Z" fill="#5CB3E2"/>
<path d="M21.3396 12.7041C20.9076 12.7041 20.5508 13.0605 20.5508 13.4918C20.5508 13.9232 20.9076 14.2796 21.3396 14.2796C21.7715 14.2796 22.1284 13.9232 22.1284 13.4918C22.1284 13.4731 22.1284 13.4543 22.1284 13.4168C22.1096 13.3793 22.1096 13.323 22.1096 13.2855C21.9969 12.9667 21.6964 12.7041 21.3396 12.7041Z" fill="#5CB3E2"/>
<path d="M23.2551 13.9602C23.6907 13.9602 24.0439 13.6075 24.0439 13.1725C24.0439 12.7374 23.6907 12.3848 23.2551 12.3848C22.8195 12.3848 22.4663 12.7374 22.4663 13.1725C22.4663 13.6075 22.8195 13.9602 23.2551 13.9602Z" fill="#5CB3E2"/>
<path d="M1.35693 15.1227C1.35693 15.5541 1.71377 15.9104 2.14573 15.9104C2.50256 15.9104 2.82184 15.6666 2.89696 15.329C2.89696 15.2727 2.91574 15.2352 2.91574 15.1977C2.91574 15.179 2.91574 15.1602 2.91574 15.1227C2.91574 14.6913 2.55891 14.335 2.12695 14.335C1.69499 14.335 1.35693 14.6913 1.35693 15.1227Z" fill="#5CB3E2"/>
<path d="M3.2915 15.4412C3.2915 15.8726 3.64834 16.229 4.0803 16.229C4.43713 16.229 4.73763 15.9852 4.83153 15.6476C4.83153 15.5725 4.85031 15.4975 4.86909 15.4225C4.86909 14.9911 4.51226 14.6348 4.0803 14.6348C3.62956 14.6535 3.2915 15.0099 3.2915 15.4412Z" fill="#5CB3E2"/>
<path d="M5.99583 16.51C6.35266 16.51 6.65316 16.2662 6.74706 15.9286C6.74706 15.8911 6.74706 15.8536 6.74706 15.8161C6.74706 15.7411 6.74706 15.666 6.76584 15.591C6.7095 15.2159 6.37144 14.9346 5.99583 14.9346C5.56387 14.9346 5.20703 15.2909 5.20703 15.7223C5.20703 16.1537 5.56387 16.51 5.99583 16.51Z" fill="#5CB3E2"/>
<path d="M8.66259 16.0224C8.66259 15.9848 8.66259 15.9473 8.66259 15.9098C8.66259 15.8348 8.66259 15.7598 8.68137 15.6848C8.62502 15.3097 8.28697 15.0283 7.91135 15.0283C7.47939 15.0283 7.12256 15.3847 7.12256 15.816C7.12256 16.2474 7.47939 16.6038 7.91135 16.6038C8.26819 16.6038 8.56868 16.36 8.66259 16.0224Z" fill="#5CB3E2"/>
<path d="M9.82688 15.123C9.39492 15.123 9.03809 15.4794 9.03809 15.9108C9.03809 16.3421 9.39492 16.6985 9.82688 16.6985C10.1837 16.6985 10.503 16.4547 10.5781 16.1171C10.5781 16.0796 10.5781 16.0233 10.5781 15.9858C10.5781 15.9108 10.5781 15.8358 10.5969 15.7607C10.5406 15.4044 10.2213 15.123 9.82688 15.123Z" fill="#5CB3E2"/>
<path d="M11.7429 16.7737C12.1785 16.7737 12.5317 16.421 12.5317 15.986C12.5317 15.5509 12.1785 15.1982 11.7429 15.1982C11.3073 15.1982 10.9541 15.5509 10.9541 15.986C10.9541 16.421 11.3073 16.7737 11.7429 16.7737Z" fill="#5CB3E2"/>
<path d="M13.7146 16.7542C14.1502 16.7542 14.5034 16.4015 14.5034 15.9664C14.5034 15.5314 14.1502 15.1787 13.7146 15.1787C13.2789 15.1787 12.9258 15.5314 12.9258 15.9664C12.9258 16.4015 13.2789 16.7542 13.7146 16.7542Z" fill="#5CB3E2"/>
<path d="M15.668 16.6985C16.006 16.6985 16.2877 16.4922 16.4004 16.2109C16.3629 16.0983 16.3441 15.967 16.3441 15.817C16.3441 15.7232 16.3629 15.6294 16.3816 15.5357C16.2502 15.2918 15.9872 15.123 15.6867 15.123C15.2548 15.123 14.8979 15.4794 14.8979 15.9108C14.8979 16.3421 15.236 16.6985 15.668 16.6985Z" fill="#5CB3E2"/>
<path d="M18.2785 15.9473C18.2598 15.8723 18.2598 15.7973 18.2598 15.7223C18.2598 15.6848 18.2598 15.6472 18.2598 15.6097C18.1659 15.2721 17.8654 15.0283 17.5085 15.0283C17.0766 15.0283 16.7197 15.3847 16.7197 15.816C16.7197 16.2474 17.0766 16.6038 17.5085 16.6038C17.8841 16.6038 18.2222 16.3224 18.2785 15.9473Z" fill="#5CB3E2"/>
<path d="M19.424 14.9346C18.9921 14.9346 18.6353 15.2909 18.6353 15.7223C18.6353 16.1537 18.9921 16.51 19.424 16.51C19.856 16.51 20.2128 16.1537 20.2128 15.7223C20.1941 15.6473 20.1753 15.5723 20.1753 15.4972C20.0814 15.1784 19.7809 14.9346 19.424 14.9346Z" fill="#5CB3E2"/>
<path d="M21.3396 14.6543C20.9076 14.6543 20.5508 15.0106 20.5508 15.442C20.5508 15.8734 20.9076 16.2298 21.3396 16.2298C21.7715 16.2298 22.1284 15.8734 22.1284 15.442C22.1284 15.4233 22.1284 15.4045 22.1284 15.367C22.1096 15.3295 22.1096 15.2732 22.1096 15.2357C21.9969 14.9169 21.6964 14.6543 21.3396 14.6543Z" fill="#5CB3E2"/>
<path d="M24.0439 15.1227C24.0439 14.6913 23.6871 14.335 23.2551 14.335C22.8231 14.335 22.4663 14.6913 22.4663 15.1227C22.4663 15.5541 22.8231 15.9104 23.2551 15.9104C23.6871 15.9104 24.0439 15.5541 24.0439 15.1227Z" fill="#5CB3E2"/>
<path d="M1.35693 17.0729C1.35693 17.5043 1.71377 17.8606 2.14573 17.8606C2.50256 17.8606 2.82184 17.6168 2.89696 17.2792C2.89696 17.2229 2.91574 17.1854 2.91574 17.1479C2.91574 17.1292 2.91574 17.1104 2.91574 17.0729C2.91574 16.6415 2.55891 16.2852 2.12695 16.2852C1.69499 16.2852 1.35693 16.6415 1.35693 17.0729Z" fill="#5CB3E2"/>
<path d="M3.2915 17.411C3.2915 17.8424 3.64834 18.1987 4.0803 18.1987C4.43713 18.1987 4.73763 17.9549 4.83153 17.6173C4.83153 17.5423 4.85031 17.4672 4.86909 17.3922C4.86909 16.9608 4.51226 16.6045 4.0803 16.6045C3.62956 16.6232 3.2915 16.9608 3.2915 17.411Z" fill="#5CB3E2"/>
<path d="M6.74706 17.8798C6.74706 17.8423 6.74706 17.8048 6.74706 17.7672C6.74706 17.6922 6.74706 17.6172 6.76584 17.5422C6.7095 17.1671 6.37144 16.8857 5.99583 16.8857C5.56387 16.8857 5.20703 17.2421 5.20703 17.6735C5.20703 18.1048 5.56387 18.4612 5.99583 18.4612C6.35266 18.4612 6.65316 18.2174 6.74706 17.8798Z" fill="#5CB3E2"/>
<path d="M8.66259 17.9735C8.66259 17.936 8.66259 17.8985 8.66259 17.861C8.66259 17.786 8.66259 17.711 8.68137 17.6359C8.62502 17.2608 8.28697 16.9795 7.91135 16.9795C7.47939 16.9795 7.12256 17.3358 7.12256 17.7672C7.12256 18.1986 7.47939 18.5549 7.91135 18.5549C8.26819 18.5549 8.56868 18.3111 8.66259 17.9735Z" fill="#5CB3E2"/>
<path d="M10.5972 18.0673C10.5972 18.0298 10.5972 17.9735 10.5972 17.936C10.5972 17.861 10.5972 17.7859 10.6159 17.7109C10.5408 17.3546 10.2215 17.0732 9.84592 17.0732C9.41396 17.0732 9.05713 17.4296 9.05713 17.861C9.05713 18.2923 9.41396 18.6487 9.84592 18.6487C10.2028 18.6487 10.5033 18.4049 10.5972 18.0673Z" fill="#5CB3E2"/>
<path d="M11.7429 18.7229C12.1785 18.7229 12.5317 18.3702 12.5317 17.9352C12.5317 17.5001 12.1785 17.1475 11.7429 17.1475C11.3073 17.1475 10.9541 17.5001 10.9541 17.9352C10.9541 18.3702 11.3073 18.7229 11.7429 18.7229Z" fill="#5CB3E2"/>
<path d="M13.7146 18.7053C14.1502 18.7053 14.5034 18.3527 14.5034 17.9176C14.5034 17.4826 14.1502 17.1299 13.7146 17.1299C13.2789 17.1299 12.9258 17.4826 12.9258 17.9176C12.9258 18.3527 13.2789 18.7053 13.7146 18.7053Z" fill="#5CB3E2"/>
<path d="M15.6677 18.6487C16.0058 18.6487 16.2875 18.4424 16.4002 18.1611C16.3626 18.0298 16.325 17.8985 16.325 17.7672C16.325 17.6734 16.3438 17.5796 16.3626 17.4859C16.2311 17.242 15.9682 17.0732 15.6677 17.0732C15.2357 17.0732 14.8789 17.4296 14.8789 17.861C14.8789 18.2923 15.2357 18.6487 15.6677 18.6487Z" fill="#5CB3E2"/>
<path d="M18.2785 17.8985C18.2598 17.8235 18.2598 17.7485 18.2598 17.6734C18.2598 17.6359 18.2598 17.5984 18.2598 17.5609C18.1659 17.2233 17.8654 16.9795 17.5085 16.9795C17.0766 16.9795 16.7197 17.3358 16.7197 17.7672C16.7197 18.1986 17.0766 18.5549 17.5085 18.5549C17.8841 18.5549 18.2222 18.2736 18.2785 17.8985Z" fill="#5CB3E2"/>
<path d="M19.424 16.8857C18.9921 16.8857 18.6353 17.2421 18.6353 17.6735C18.6353 18.1048 18.9921 18.4612 19.424 18.4612C19.856 18.4612 20.2128 18.1048 20.2128 17.6735C20.1941 17.5984 20.1753 17.5234 20.1753 17.4484C20.0814 17.1296 19.7809 16.8857 19.424 16.8857Z" fill="#5CB3E2"/>
<path d="M21.3396 16.624C20.9076 16.624 20.5508 16.9804 20.5508 17.4118C20.5508 17.8431 20.9076 18.1995 21.3396 18.1995C21.7715 18.1995 22.1284 17.8431 22.1284 17.4118C22.1284 17.393 22.1284 17.3742 22.1284 17.3367C22.1096 17.2992 22.1096 17.243 22.1096 17.2054C21.9969 16.8678 21.6964 16.624 21.3396 16.624Z" fill="#5CB3E2"/>
<path d="M23.2551 17.8606C23.6907 17.8606 24.0439 17.5079 24.0439 17.0729C24.0439 16.6378 23.6907 16.2852 23.2551 16.2852C22.8195 16.2852 22.4663 16.6378 22.4663 17.0729C22.4663 17.5079 22.8195 17.8606 23.2551 17.8606Z" fill="#5CB3E2"/>
<path d="M1.35693 19.0231C1.35693 19.4545 1.71377 19.8108 2.14573 19.8108C2.50256 19.8108 2.82184 19.567 2.89696 19.2294C2.89696 19.1731 2.91574 19.1356 2.91574 19.0981C2.91574 19.0793 2.91574 19.0606 2.91574 19.0231C2.91574 18.5917 2.55891 18.2354 2.12695 18.2354C1.69499 18.2354 1.35693 18.5917 1.35693 19.0231Z" fill="#5CB3E2"/>
<path d="M4.83153 19.5675C4.83153 19.4925 4.85031 19.4174 4.86909 19.3424C4.86909 18.911 4.51226 18.5547 4.0803 18.5547C3.64834 18.5547 3.2915 18.911 3.2915 19.3424C3.2915 19.7738 3.64834 20.1301 4.0803 20.1301C4.43713 20.1489 4.73763 19.9051 4.83153 19.5675Z" fill="#5CB3E2"/>
<path d="M6.74706 19.831C6.74706 19.7934 6.74706 19.7559 6.74706 19.7184C6.74706 19.6434 6.74706 19.5684 6.76584 19.4934C6.7095 19.1182 6.37144 18.8369 5.99583 18.8369C5.56387 18.8369 5.20703 19.1933 5.20703 19.6246C5.20703 20.056 5.56387 20.4124 5.99583 20.4124C6.35266 20.4124 6.65316 20.1686 6.74706 19.831Z" fill="#5CB3E2"/>
<path d="M8.66259 19.9237C8.66259 19.8862 8.66259 19.8487 8.66259 19.8112C8.66259 19.7362 8.66259 19.6611 8.68137 19.5861C8.62502 19.211 8.28697 18.9297 7.91135 18.9297C7.47939 18.9297 7.12256 19.286 7.12256 19.7174C7.12256 20.1488 7.47939 20.5051 7.91135 20.5051C8.26819 20.5051 8.56868 20.2613 8.66259 19.9237Z" fill="#5CB3E2"/>
<path d="M10.5972 20.0175C10.5972 19.98 10.5972 19.9237 10.5972 19.8862C10.5972 19.8112 10.5972 19.7361 10.6159 19.6611C10.5408 19.3048 10.2215 19.0234 9.84592 19.0234C9.41396 19.0234 9.05713 19.3798 9.05713 19.8112C9.05713 20.2425 9.41396 20.5989 9.84592 20.5989C10.2028 20.5989 10.5033 20.3551 10.5972 20.0175Z" fill="#5CB3E2"/>
<path d="M11.7429 20.6741C12.1785 20.6741 12.5317 20.3214 12.5317 19.8864C12.5317 19.4513 12.1785 19.0986 11.7429 19.0986C11.3073 19.0986 10.9541 19.4513 10.9541 19.8864C10.9541 20.3214 11.3073 20.6741 11.7429 20.6741Z" fill="#5CB3E2"/>
<path d="M13.7146 20.6555C14.1502 20.6555 14.5034 20.3029 14.5034 19.8678C14.5034 19.4328 14.1502 19.0801 13.7146 19.0801C13.2789 19.0801 12.9258 19.4328 12.9258 19.8678C12.9258 20.3029 13.2789 20.6555 13.7146 20.6555Z" fill="#5CB3E2"/>
<path d="M15.6677 20.5989C16.0058 20.5989 16.2875 20.3926 16.4002 20.1113C16.3626 19.98 16.325 19.8487 16.325 19.7174C16.325 19.6236 16.3438 19.5298 16.3626 19.4361C16.2311 19.1922 15.9682 19.0234 15.6677 19.0234C15.2357 19.0234 14.8789 19.3798 14.8789 19.8112C14.8789 20.2425 15.2357 20.5989 15.6677 20.5989Z" fill="#5CB3E2"/>
<path d="M18.2785 19.8487C18.2598 19.7737 18.2598 19.6987 18.2598 19.6236C18.2598 19.5861 18.2598 19.5486 18.2598 19.5111C18.1659 19.1735 17.8654 18.9297 17.5085 18.9297C17.0766 18.9297 16.7197 19.286 16.7197 19.7174C16.7197 20.1488 17.0766 20.5051 17.5085 20.5051C17.8841 20.5051 18.2222 20.2238 18.2785 19.8487Z" fill="#5CB3E2"/>
<path d="M20.2128 19.6434C20.1941 19.5684 20.1753 19.4934 20.1753 19.4183C20.0814 19.0807 19.7809 18.8369 19.424 18.8369C18.9921 18.8369 18.6353 19.1933 18.6353 19.6246C18.6353 20.056 18.9921 20.4124 19.424 20.4124C19.856 20.4124 20.1941 20.0748 20.2128 19.6434Z" fill="#5CB3E2"/>
<path d="M21.3396 18.5732C20.9076 18.5732 20.5508 18.9296 20.5508 19.361C20.5508 19.7923 20.9076 20.1487 21.3396 20.1487C21.7715 20.1487 22.1284 19.7923 22.1284 19.361C22.1284 19.3422 22.1284 19.3235 22.1284 19.2859C22.1096 19.2484 22.1096 19.1922 22.1096 19.1547C21.9969 18.8171 21.6964 18.5732 21.3396 18.5732Z" fill="#5CB3E2"/>
<path d="M23.2551 19.8108C23.6907 19.8108 24.0439 19.4581 24.0439 19.0231C24.0439 18.588 23.6907 18.2354 23.2551 18.2354C22.8195 18.2354 22.4663 18.588 22.4663 19.0231C22.4663 19.4581 22.8195 19.8108 23.2551 19.8108Z" fill="#5CB3E2"/>
<path d="M2.16428 20.1865C1.73232 20.1865 1.37549 20.5429 1.37549 20.9743C1.37549 21.4056 1.73232 21.762 2.16428 21.762C2.52112 21.762 2.84039 21.5182 2.91552 21.1806C2.91552 21.1243 2.9343 21.0868 2.9343 21.0493C2.9343 21.0305 2.9343 21.0118 2.9343 20.9743C2.95308 20.5429 2.59624 20.1865 2.16428 20.1865Z" fill="#5CB3E2"/>
<path d="M4.0803 20.5244C3.64834 20.5244 3.2915 20.8808 3.2915 21.3121C3.2915 21.7435 3.64834 22.0999 4.0803 22.0999C4.43713 22.0999 4.73763 21.8561 4.83153 21.5185C4.83153 21.4434 4.85031 21.3684 4.86909 21.2934C4.85031 20.862 4.51226 20.5244 4.0803 20.5244Z" fill="#5CB3E2"/>
<path d="M5.99583 20.7861C5.56387 20.7861 5.20703 21.1425 5.20703 21.5739C5.20703 22.0052 5.56387 22.3616 5.99583 22.3616C6.35266 22.3616 6.65316 22.1178 6.74706 21.7802C6.74706 21.7427 6.74706 21.7051 6.74706 21.6676C6.74706 21.5926 6.74706 21.5176 6.76584 21.4426C6.7095 21.0675 6.39022 20.7861 5.99583 20.7861Z" fill="#5CB3E2"/>
<path d="M7.91135 20.8809C7.47939 20.8809 7.12256 21.2372 7.12256 21.6686C7.12256 22.1 7.47939 22.4563 7.91135 22.4563C8.26819 22.4563 8.58746 22.2125 8.66259 21.8749C8.66259 21.8374 8.66259 21.7999 8.66259 21.7624C8.66259 21.6873 8.66259 21.6123 8.68137 21.5373C8.62502 21.1622 8.30575 20.8809 7.91135 20.8809Z" fill="#5CB3E2"/>
<path d="M9.82688 20.9746C9.39492 20.9746 9.03809 21.331 9.03809 21.7623C9.03809 22.1937 9.39492 22.5501 9.82688 22.5501C10.1837 22.5501 10.503 22.3062 10.5781 21.9686C10.5781 21.9311 10.5781 21.8749 10.5781 21.8374C10.5781 21.7623 10.5781 21.6873 10.5969 21.6123C10.5406 21.2559 10.2213 20.9746 9.82688 20.9746Z" fill="#5CB3E2"/>
<path d="M11.7429 22.6253C12.1785 22.6253 12.5317 22.2726 12.5317 21.8375C12.5317 21.4025 12.1785 21.0498 11.7429 21.0498C11.3073 21.0498 10.9541 21.4025 10.9541 21.8375C10.9541 22.2726 11.3073 22.6253 11.7429 22.6253Z" fill="#5CB3E2"/>
<path d="M13.7146 22.6057C14.1502 22.6057 14.5034 22.2531 14.5034 21.818C14.5034 21.383 14.1502 21.0303 13.7146 21.0303C13.2789 21.0303 12.9258 21.383 12.9258 21.818C12.9258 22.2531 13.2789 22.6057 13.7146 22.6057Z" fill="#5CB3E2"/>
<path d="M16.4002 22.0624C16.3626 21.9311 16.325 21.7998 16.325 21.6686C16.325 21.5748 16.3438 21.481 16.3626 21.3872C16.2311 21.1434 15.9682 20.9746 15.6677 20.9746C15.2357 20.9746 14.8789 21.331 14.8789 21.7623C14.8789 22.1937 15.2357 22.5501 15.6677 22.5501C16.0058 22.5501 16.2875 22.3625 16.4002 22.0624Z" fill="#5CB3E2"/>
<path d="M17.5085 20.8809C17.0766 20.8809 16.7197 21.2372 16.7197 21.6686C16.7197 22.1 17.0766 22.4563 17.5085 22.4563C17.9029 22.4563 18.2222 22.175 18.2785 21.7999C18.2598 21.7249 18.2598 21.6498 18.2598 21.5748C18.2598 21.5373 18.2598 21.4998 18.2598 21.4623C18.1659 21.1434 17.8654 20.8809 17.5085 20.8809Z" fill="#5CB3E2"/>
<path d="M20.1753 21.3676C20.0814 21.03 19.7809 20.7861 19.424 20.7861C18.9921 20.7861 18.6353 21.1425 18.6353 21.5739C18.6353 22.0052 18.9921 22.3616 19.424 22.3616C19.856 22.3616 20.2128 22.0052 20.2128 21.5739C20.1941 21.5176 20.1753 21.4426 20.1753 21.3676Z" fill="#5CB3E2"/>
<path d="M21.3396 20.5244C20.9076 20.5244 20.5508 20.8808 20.5508 21.3121C20.5508 21.7435 20.9076 22.0999 21.3396 22.0999C21.7715 22.0999 22.1284 21.7435 22.1284 21.3121C22.1284 21.2934 22.1284 21.2746 22.1284 21.2371C22.1096 21.1996 22.1096 21.1433 22.1096 21.1058C21.9969 20.7682 21.6964 20.5244 21.3396 20.5244Z" fill="#5CB3E2"/>
<path d="M23.2551 21.762C23.6907 21.762 24.0439 21.4093 24.0439 20.9743C24.0439 20.5392 23.6907 20.1865 23.2551 20.1865C22.8195 20.1865 22.4663 20.5392 22.4663 20.9743C22.4663 21.4093 22.8195 21.762 23.2551 21.762Z" fill="#5CB3E2"/>
<path d="M12.7003 4.26344C19.0897 4.26344 24.2693 3.5329 24.2693 2.63172C24.2693 1.73055 19.0897 1 12.7003 1C6.31096 1 1.13135 1.73055 1.13135 2.63172C1.13135 3.5329 6.31096 4.26344 12.7003 4.26344Z" fill="#5CB3E2" stroke="#005888" stroke-miterlimit="10"/>
<path d="M12.7007 3.25055C15.0967 3.25055 17.039 2.97345 17.039 2.63162C17.039 2.2898 15.0967 2.0127 12.7007 2.0127C10.3047 2.0127 8.3623 2.2898 8.3623 2.63162C8.3623 2.97345 10.3047 3.25055 12.7007 3.25055Z" fill="#5CB3E2" stroke="#005888" stroke-miterlimit="10"/>
</svg>
