<svg width="22" height="28" viewBox="0 0 22 28" fill="none" xmlns="http://www.w3.org/2000/svg">
<path fill-rule="evenodd" clip-rule="evenodd" d="M4.5895 1.91113H1.75189C1.53822 1.91113 1.35019 1.9966 1.21343 2.13336C1.07668 2.27011 0.991211 2.46669 0.991211 2.67182V25.5607C0.991211 25.7744 1.07668 25.9624 1.21343 26.0992C1.35019 26.2359 1.54677 26.3214 1.75189 26.3214H20.2476C20.4613 26.3214 20.6493 26.2359 20.7861 26.0992C20.9228 25.9624 21.0083 25.7658 21.0083 25.5607V2.68036C21.0083 2.46669 20.9228 2.27865 20.7861 2.1419C20.6493 2.00515 20.4528 1.91968 20.2476 1.91968H17.6579H4.5895V1.91113Z" fill="#5CB3E2"/>
<path d="M17.5214 1.91137C17.7949 1.91137 18.0171 1.68915 18.0171 1.41565C18.0171 1.14214 17.7949 0.919922 17.5214 0.919922H1.75214C1.2735 0.928469 0.82906 1.12505 0.512821 1.44129C0.196581 1.75753 0 2.19343 0 2.68061V25.5695C0 26.0481 0.196581 26.4926 0.512821 26.8088C0.82906 27.125 1.26496 27.3216 1.75214 27.3216H20.2479C20.7265 27.3216 21.1709 27.125 21.4872 26.8088C21.8034 26.4926 22 26.0567 22 25.5695V2.68061C22 2.20197 21.8034 1.75753 21.4872 1.44129C21.1709 1.12505 20.735 0.928469 20.2479 0.928469H17.1795C16.906 0.928469 16.6838 1.15069 16.6838 1.4242C16.6838 1.6977 16.906 1.91992 17.1795 1.91992H20.2479C20.4615 1.91992 20.6496 2.00539 20.7863 2.14214C20.9231 2.2789 21.0085 2.47548 21.0085 2.68061V25.5695C21.0085 25.7832 20.9231 25.9712 20.7863 26.108C20.6496 26.2447 20.453 26.3302 20.2479 26.3302H1.75214C1.53846 26.3302 1.35043 26.2447 1.21368 26.108C1.07692 25.9712 0.991453 25.7746 0.991453 25.5695V2.68061C0.991453 2.46693 1.07692 2.2789 1.21368 2.14214C1.35043 2.00539 1.54701 1.91992 1.75214 1.91992H17.5214V1.91137Z" fill="#005888"/>
<path d="M7.85705 5.72754C7.58355 5.72754 7.36133 5.94976 7.36133 6.22327C7.36133 6.49677 7.58355 6.71899 7.85705 6.71899H18.3677C18.6412 6.71899 18.8635 6.49677 18.8635 6.22327C18.8635 5.94976 18.6412 5.72754 18.3677 5.72754H7.85705Z" fill="#005888"/>
<path d="M7.85705 8.07812C7.58355 8.07812 7.36133 8.30035 7.36133 8.57385C7.36133 8.84736 7.58355 9.06958 7.85705 9.06958H18.3677C18.6412 9.06958 18.8635 8.84736 18.8635 8.57385C18.8635 8.30035 18.6412 8.07812 18.3677 8.07812H7.85705Z" fill="#005888"/>
<circle cx="4.46875" cy="7.50684" r="1.71875" fill="#005888"/>
<path d="M7.85705 11.9756C7.58355 11.9756 7.36133 12.1978 7.36133 12.4713C7.36133 12.7448 7.58355 12.967 7.85705 12.967H18.3677C18.6412 12.967 18.8635 12.7448 18.8635 12.4713C18.8635 12.1978 18.6412 11.9756 18.3677 11.9756H7.85705Z" fill="#005888"/>
<path d="M7.85705 14.3262C7.58355 14.3262 7.36133 14.5484 7.36133 14.8219C7.36133 15.0954 7.58355 15.3176 7.85705 15.3176H18.3677C18.6412 15.3176 18.8635 15.0954 18.8635 14.8219C18.8635 14.5484 18.6412 14.3262 18.3677 14.3262H7.85705Z" fill="#005888"/>
<circle cx="4.46875" cy="13.7549" r="1.71875" fill="#005888"/>
<path d="M7.85705 18.8506C7.58355 18.8506 7.36133 19.0728 7.36133 19.3463C7.36133 19.6198 7.58355 19.842 7.85705 19.842H18.3677C18.6412 19.842 18.8635 19.6198 18.8635 19.3463C18.8635 19.0728 18.6412 18.8506 18.3677 18.8506H7.85705Z" fill="#005888"/>
<path d="M7.85705 21.2012C7.58355 21.2012 7.36133 21.4234 7.36133 21.6969C7.36133 21.9704 7.58355 22.1926 7.85705 22.1926H18.3677C18.6412 22.1926 18.8635 21.9704 18.8635 21.6969C18.8635 21.4234 18.6412 21.2012 18.3677 21.2012H7.85705Z" fill="#005888"/>
<circle cx="4.46875" cy="20.6299" r="1.71875" fill="#005888"/>
</svg>
