<svg width="22" height="32" viewBox="0 0 22 32" fill="none" xmlns="http://www.w3.org/2000/svg">
<path fill-rule="evenodd" clip-rule="evenodd" d="M4.39507 5.5H1.47129C1.25112 5.5 1.05738 5.58907 0.916471 5.73157C0.775566 5.87408 0.6875 6.07893 0.6875 6.2927V30.1448C0.6875 30.3675 0.775566 30.5634 0.916471 30.7059C1.05738 30.8484 1.25993 30.9375 1.47129 30.9375H20.5287C20.7489 30.9375 20.9426 30.8484 21.0835 30.7059C21.2244 30.5634 21.3125 30.3586 21.3125 30.1448V6.3016C21.3125 6.07893 21.2244 5.88299 21.0835 5.74048C20.9426 5.59797 20.7401 5.50891 20.5287 5.50891H17.8603H4.39507V5.5Z" fill="#5CB3E2"/>
<path d="M17.5214 5.81938C17.7949 5.81938 18.0171 5.5937 18.0171 5.31594C18.0171 5.03818 17.7949 4.8125 17.5214 4.8125H1.75214C1.2735 4.82118 0.82906 5.02082 0.512821 5.34198C0.196581 5.66314 0 6.10582 0 6.60058V29.8456C0 30.3317 0.196581 30.783 0.512821 31.1042C0.82906 31.4254 1.26496 31.625 1.75214 31.625H20.2479C20.7265 31.625 21.1709 31.4254 21.4872 31.1042C21.8034 30.783 22 30.3404 22 29.8456V6.60058C22 6.1145 21.8034 5.66314 21.4872 5.34198C21.1709 5.02082 20.735 4.82118 20.2479 4.82118H17.1795C16.906 4.82118 16.6838 5.04686 16.6838 5.32462C16.6838 5.60238 16.906 5.82806 17.1795 5.82806H20.2479C20.4615 5.82806 20.6496 5.91486 20.7863 6.05374C20.9231 6.19262 21.0085 6.39226 21.0085 6.60058V29.8456C21.0085 30.0626 20.9231 30.2536 20.7863 30.3924C20.6496 30.5313 20.453 30.6181 20.2479 30.6181H1.75214C1.53846 30.6181 1.35043 30.5313 1.21368 30.3924C1.07692 30.2536 0.991453 30.0539 0.991453 29.8456V6.60058C0.991453 6.38358 1.07692 6.19262 1.21368 6.05374C1.35043 5.91486 1.54701 5.82806 1.75214 5.82806H17.5214V5.81938Z" fill="#005888"/>
<path d="M10.6071 9.56543C10.3335 9.56543 10.1113 9.78765 10.1113 10.0612C10.1113 10.3347 10.3335 10.5569 10.6071 10.5569H18.3677C18.6412 10.5569 18.8635 10.3347 18.8635 10.0612C18.8635 9.78765 18.6412 9.56543 18.3677 9.56543H10.6071Z" fill="#005888"/>
<path d="M10.6071 11.916C10.3335 11.916 10.1113 12.1382 10.1113 12.4117C10.1113 12.6852 10.3335 12.9075 10.6071 12.9075H18.3677C18.6412 12.9075 18.8635 12.6852 18.8635 12.4117C18.8635 12.1382 18.6412 11.916 18.3677 11.916H10.6071Z" fill="#005888"/>
<path fill-rule="evenodd" clip-rule="evenodd" d="M5.70096 11.3857L7.09413 10.1806C7.29925 10.0011 7.60695 10.0267 7.78643 10.2319C7.96592 10.437 7.94028 10.7447 7.73515 10.9242L5.96592 12.4541C5.76079 12.625 5.44455 12.5994 5.27361 12.3942L4.68387 11.6934C4.51293 11.4883 4.53857 11.1806 4.7437 11.0011C4.94883 10.8301 5.25652 10.8558 5.43601 11.0609L5.70096 11.3857ZM4.3078 13.9071H8.15395C8.57276 13.9071 8.90609 13.5652 8.90609 13.1549V9.30878C8.90609 8.88997 8.56421 8.55664 8.15395 8.55664H4.3078C3.889 8.55664 3.55566 8.89852 3.55566 9.30878V13.1549C3.55566 13.5737 3.89754 13.9071 4.3078 13.9071Z" fill="white"/>
<path d="M10.6071 16.8467C10.3335 16.8467 10.1113 17.0689 10.1113 17.3424C10.1113 17.6159 10.3335 17.8381 10.6071 17.8381H18.3677C18.6412 17.8381 18.8635 17.6159 18.8635 17.3424C18.8635 17.0689 18.6412 16.8467 18.3677 16.8467H10.6071Z" fill="#005888"/>
<path d="M10.6071 19.1973C10.3335 19.1973 10.1113 19.4195 10.1113 19.693C10.1113 19.9665 10.3335 20.1887 10.6071 20.1887H18.3677C18.6412 20.1887 18.8635 19.9665 18.8635 19.693C18.8635 19.4195 18.6412 19.1973 18.3677 19.1973H10.6071Z" fill="#005888"/>
<path fill-rule="evenodd" clip-rule="evenodd" d="M5.70096 18.6584L7.09413 17.4618C7.29925 17.2823 7.60695 17.308 7.78643 17.5131C7.96592 17.7182 7.94028 18.0259 7.73515 18.2054L5.96592 19.7268C5.76079 19.8977 5.44455 19.8721 5.27361 19.667L4.68387 18.9661C4.51293 18.761 4.53857 18.4533 4.7437 18.2738C4.94883 18.1028 5.25652 18.1285 5.43601 18.3336L5.70096 18.6584ZM4.3078 21.1883H8.15395C8.57276 21.1883 8.90609 20.8464 8.90609 20.4362V16.59C8.90609 16.1712 8.56421 15.8379 8.15395 15.8379H4.3078C3.889 15.8379 3.55566 16.1798 3.55566 16.59V20.4362C3.55566 20.855 3.89754 21.1883 4.3078 21.1883Z" fill="white"/>
<path d="M10.6071 24.1201C10.3335 24.1201 10.1113 24.3423 10.1113 24.6158C10.1113 24.8893 10.3335 25.1116 10.6071 25.1116H18.3677C18.6412 25.1116 18.8635 24.8893 18.8635 24.6158C18.8635 24.3423 18.6412 24.1201 18.3677 24.1201H10.6071Z" fill="#005888"/>
<path d="M10.6071 26.4795C10.3335 26.4795 10.1113 26.7017 10.1113 26.9752C10.1113 27.2487 10.3335 27.4709 10.6071 27.4709H18.3677C18.6412 27.4709 18.8635 27.2487 18.8635 26.9752C18.8635 26.7017 18.6412 26.4795 18.3677 26.4795H10.6071Z" fill="#005888"/>
<path fill-rule="evenodd" clip-rule="evenodd" d="M5.70096 25.9406L7.09413 24.744C7.29925 24.5646 7.60695 24.5902 7.78643 24.7953C7.96592 25.0005 7.94028 25.3082 7.73515 25.4876L5.96592 27.009C5.76079 27.1799 5.44455 27.1543 5.27361 26.9492L4.68387 26.2483C4.51293 26.0432 4.53857 25.7355 4.7437 25.556C4.94883 25.3851 5.25652 25.4107 5.43601 25.6158L5.70096 25.9406ZM4.3078 28.4705H8.15395C8.57276 28.4705 8.90609 28.1287 8.90609 27.7184V23.8723C8.90609 23.4535 8.56421 23.1201 8.15395 23.1201H4.3078C3.889 23.1201 3.55566 23.462 3.55566 23.8723V27.7184C3.55566 28.1287 3.89754 28.4705 4.3078 28.4705Z" fill="white"/>
<path d="M17.234 5.18489C17.234 6.092 16.719 7.17226 15.5283 7.17226H6.19913C5.01099 7.17226 4.76367 6.43572 4.76367 5.52861V4.7042C4.76367 3.79709 5.01099 3.06055 6.19913 3.06055H15.5283C16.7164 3.06055 17.234 3.45337 17.234 4.36306V5.18489Z" fill="#005888"/>
<path d="M11 0C9.13363 0 7.61914 1.31802 7.61914 2.94617C7.61914 4.57174 9.13108 5.89235 11 5.89235C12.8663 5.89235 14.3808 4.57432 14.3808 2.94617C14.3783 1.31802 12.8663 0 11 0ZM11.051 4.66994C9.90873 4.66994 8.98065 3.86362 8.98065 2.86606C8.98065 1.87108 9.90618 1.06217 11.051 1.06217C12.1932 1.06217 13.1213 1.87108 13.1213 2.86606C13.1213 3.86104 12.1958 4.66994 11.051 4.66994Z" fill="#005888"/>
<path d="M15.48 5.9668H6.52051V6.56378H15.48V5.9668Z" fill="#5CB3E2"/>
</svg>
