<svg width="24" height="30" viewBox="0 0 24 30" fill="none" xmlns="http://www.w3.org/2000/svg">
<path d="M12.8219 11.5898C14.9809 9.45619 14.9809 5.99693 12.8219 3.86333C10.6629 1.72972 7.16246 1.72973 5.00346 3.86333C2.84446 5.99693 2.84446 9.45619 5.00346 11.5898C7.16246 13.7234 10.6629 13.7234 12.8219 11.5898Z" fill="white"/>
<path d="M2.45957 11.5508C2.53665 11.7378 2.62073 11.9109 2.71183 12.084L1.70282 13.7528L4.00812 16.031L5.72484 15.0477C6.10322 15.2416 6.50262 15.4078 6.91603 15.5324L7.42053 17.4159H10.6788L11.1553 15.5117C11.5407 15.387 11.919 15.2347 12.2834 15.0477L14.0001 16.031L16.3054 13.7528L15.2894 12.084C15.3805 11.9109 15.4646 11.7309 15.5417 11.5508C15.6398 11.3292 15.7168 11.1007 15.7869 10.8791L17.6928 10.3806V7.59689L15.7869 7.09832C15.7168 6.87673 15.6327 6.64822 15.5417 6.42664C15.4646 6.23967 15.3805 6.06656 15.2894 5.89344L16.3054 4.22462L14.0001 1.94644L12.2834 2.92973C11.919 2.74276 11.5477 2.59042 11.1553 2.46578L10.6788 0.561523H7.42053L6.91603 2.44501C6.50262 2.56965 6.10322 2.72891 5.72484 2.92973L4.00812 1.94644L1.70282 4.22462L2.71883 5.89344C2.62774 6.06656 2.54366 6.23967 2.46658 6.42664C2.36848 6.64822 2.29141 6.87673 2.22134 7.09832L0.31543 7.59689V10.3806L2.22134 10.8791C2.2844 11.1007 2.36848 11.3292 2.45957 11.5508ZM9.00412 5.49874C10.9451 5.49874 12.5286 7.0637 12.5286 8.9818C12.5286 10.9068 10.9451 12.4649 9.00412 12.4649C7.06318 12.4649 5.47959 10.8999 5.47959 8.9818C5.47959 7.0637 7.05617 5.49874 9.00412 5.49874Z" fill="#5CB3E2"/>
<path d="M6.72673 15.9193C6.4044 15.8155 6.0961 15.6839 5.79479 15.5385L4.001 16.5702L1.32432 13.9251L2.38939 12.1801C2.32633 12.0485 2.26326 11.91 2.2002 11.7784C2.12312 11.5984 2.05305 11.4184 1.98999 11.2383L0 10.7121V7.42288L1.98999 6.89662C2.05305 6.71658 2.12312 6.53654 2.2002 6.3565C2.25626 6.21801 2.31932 6.08644 2.38939 5.95487L1.31732 4.20988L3.99399 1.56469L5.78779 2.59645C6.08909 2.45104 6.4044 2.31947 6.71972 2.2156L7.25225 0.249023H11.036L11.5405 2.2433C11.8348 2.34717 12.1221 2.46489 12.4024 2.59645L14.2032 1.56469L16.8799 4.20988L15.8148 5.95487C15.8779 6.08644 15.9409 6.22493 16.004 6.3565C16.0811 6.53654 16.1511 6.71658 16.2142 6.89662L18.2042 7.42288V10.7121L16.2142 11.2383C16.1511 11.4184 16.0811 11.5984 16.004 11.7784C15.9479 11.9169 15.8849 12.0485 15.8148 12.1801L16.8799 13.9251L14.2032 16.5702L12.4024 15.5385C12.1221 15.677 11.8348 15.7947 11.5405 15.8916L11.036 17.8859H7.25225L6.72673 15.9193ZM11.008 15.4138L11.1762 15.3584C11.5475 15.2407 11.9189 15.0884 12.2623 14.9083L12.4164 14.8322L14.0911 15.7947L16.0741 13.835L15.0861 12.2078L15.1702 12.0554C15.2543 11.8892 15.3383 11.7161 15.4154 11.5361C15.5065 11.3214 15.5906 11.1068 15.6537 10.8852L15.7027 10.719L17.5596 10.2343V7.9076L15.7027 7.42288L15.6537 7.25669C15.5836 7.04203 15.5065 6.82045 15.4154 6.60578C15.3383 6.42574 15.2543 6.25263 15.1702 6.08644L15.0861 5.9341L16.0811 4.30682L14.0981 2.34717L12.4234 3.30969L12.2693 3.23352C11.9189 3.05348 11.5546 2.90114 11.1832 2.78342L11.015 2.72802L10.5455 0.872235H7.74274L7.25225 2.70725L7.08408 2.75572C6.68468 2.87344 6.2993 3.0327 5.93493 3.21967L5.78078 3.29584L4.0991 2.34717L2.11612 4.30682L3.1041 5.9341L3.02002 6.08644C2.92893 6.25263 2.85185 6.42574 2.77477 6.60578C2.68368 6.82045 2.5996 7.03511 2.53654 7.25669L2.48749 7.42288L0.630631 7.9076V10.2343L2.48749 10.719L2.53654 10.8852C2.60661 11.0998 2.68368 11.3214 2.77477 11.5361C2.85185 11.7161 2.93594 11.8892 3.02002 12.0554L3.1041 12.2078L2.11612 13.835L4.0991 15.7947L5.77377 14.8322L5.92793 14.9083C6.29229 15.0953 6.68468 15.2546 7.07708 15.3723L7.24524 15.4208L7.73574 17.2558H10.5385L11.008 15.4138ZM5.22022 9.07093C5.22022 6.95894 6.95796 5.23472 9.09509 5.23472C11.2322 5.23472 12.977 6.95201 12.977 9.07093C12.977 11.1829 11.2392 12.9071 9.09509 12.9071C6.95796 12.9002 5.22022 11.1829 5.22022 9.07093ZM5.85085 9.07093C5.85085 10.8367 7.30831 12.277 9.09509 12.277C10.8819 12.277 12.3393 10.8367 12.3393 9.07093C12.3393 7.30517 10.8819 5.86485 9.09509 5.86485C7.30831 5.86485 5.85085 7.29824 5.85085 9.07093Z" fill="#005888"/>
<path d="M18.4152 11.4912H21.2119V28.5607H18.4152H12.211V11.4912H18.4152Z" fill="#6FBCE2"/>
<path d="M9.41436 11.4912H14.2041V28.5607H9.41436V11.4912Z" fill="#5CB3E2"/>
<path d="M9.14114 28.8515C9.22151 28.9318 9.31795 28.964 9.43046 28.964H21.2119C21.437 28.964 21.6138 28.7872 21.6138 28.5621V11.4926C21.6138 11.2676 21.437 11.0908 21.2119 11.0908H9.43046C9.20544 11.0908 9.02863 11.2676 9.02863 11.4926V28.5621C9.01256 28.6747 9.06078 28.7711 9.14114 28.8515ZM20.8101 28.1603H9.83228V11.8945H20.8101V28.1603Z" fill="#005888"/>
<path d="M7.63037 10.1573C7.63037 10.8967 8.22507 11.4914 8.96443 11.4914H21.6782C22.4175 11.4914 23.0122 10.8967 23.0122 10.1573C23.0122 9.41794 22.4175 8.82324 21.6782 8.82324H8.96443C8.22507 8.82324 7.63037 9.41794 7.63037 10.1573Z" fill="#5CB3E2"/>
<path d="M7.7268 11.3793C8.04826 11.7008 8.48223 11.8936 8.94835 11.8936H21.6621C22.6264 11.8936 23.3979 11.1221 23.3979 10.1578C23.3979 9.69164 23.2211 9.25767 22.8836 8.93621C22.5622 8.61475 22.1121 8.42188 21.6621 8.42188H8.94835C7.98397 8.42188 7.21247 9.19338 7.21247 10.1578C7.22854 10.6399 7.42141 11.0739 7.7268 11.3793ZM22.3211 9.49876C22.4979 9.67557 22.5943 9.91666 22.5943 10.1578C22.5943 10.6721 22.1764 11.09 21.6621 11.09H8.94835C8.43401 11.09 8.01611 10.6721 8.01611 10.1578C8.01611 9.64342 8.43401 9.22552 8.94835 9.22552H21.6621C21.9192 9.22552 22.1443 9.32196 22.3211 9.49876Z" fill="#005888"/>
<path d="M7.63037 28.2637C7.63037 29.0031 8.22507 29.5978 8.96443 29.5978H21.6782C22.4175 29.5978 23.0122 29.0031 23.0122 28.2637C23.0122 27.5244 22.4175 26.9297 21.6782 26.9297H8.96443C8.22507 26.9297 7.63037 27.5244 7.63037 28.2637Z" fill="#5CB3E2"/>
<path d="M7.7268 29.4857C8.04826 29.8072 8.48223 30.0001 8.94835 30.0001H21.6621C22.6264 30.0001 23.3979 29.2286 23.3979 28.2642C23.3979 27.7981 23.2211 27.3641 22.8836 27.0427C22.5622 26.7212 22.1121 26.5283 21.6621 26.5283H8.94835C7.98397 26.5283 7.21247 27.2998 7.21247 28.2642C7.22854 28.7464 7.42141 29.1804 7.7268 29.4857ZM22.3211 27.6052C22.4979 27.782 22.5943 28.0231 22.5943 28.2642C22.5943 28.7785 22.1764 29.1964 21.6621 29.1964H8.94835C8.43401 29.1964 8.01611 28.7785 8.01611 28.2642C8.01611 27.7499 8.43401 27.332 8.94835 27.332H21.6621C21.9192 27.332 22.1443 27.4284 22.3211 27.6052Z" fill="#005888"/>
<path d="M17.9175 21.2319V25.1859C17.9175 25.5074 18.1746 25.7645 18.4961 25.7645C18.8175 25.7645 19.0747 25.5074 19.0747 25.1859V21.2319C19.0747 20.9105 18.8175 20.6533 18.4961 20.6533C18.1746 20.6533 17.9175 20.9105 17.9175 21.2319Z" fill="#005888"/>
<path d="M14.7348 21.2319V25.1859C14.7348 25.5074 14.992 25.7645 15.3135 25.7645C15.6349 25.7645 15.8921 25.5074 15.8921 25.1859V21.2319C15.8921 20.9105 15.6349 20.6533 15.3135 20.6533C14.992 20.6533 14.7348 20.9105 14.7348 21.2319Z" fill="#005888"/>
<path d="M11.5683 21.2319V25.1859C11.5683 25.5074 11.8255 25.7645 12.147 25.7645C12.4684 25.7645 12.7256 25.5074 12.7256 25.1859V21.2319C12.7256 20.9105 12.4684 20.6533 12.147 20.6533C11.8255 20.6533 11.5683 20.9105 11.5683 21.2319Z" fill="#005888"/>
<path d="M17.9175 13.8384V17.7923C17.9175 18.1138 18.1746 18.371 18.4961 18.371C18.8175 18.371 19.0747 18.1138 19.0747 17.7923V13.8384C19.0747 13.5169 18.8175 13.2598 18.4961 13.2598C18.1746 13.2598 17.9175 13.5169 17.9175 13.8384Z" fill="#005888"/>
<path d="M14.7348 13.8384V17.7923C14.7348 18.1138 14.992 18.371 15.3135 18.371C15.6349 18.371 15.8921 18.1138 15.8921 17.7923V13.8384C15.8921 13.5169 15.6349 13.2598 15.3135 13.2598C14.992 13.2598 14.7348 13.5169 14.7348 13.8384Z" fill="#005888"/>
<path d="M11.5683 13.8384V17.7923C11.5683 18.1138 11.8255 18.371 12.147 18.371C12.4684 18.371 12.7256 18.1138 12.7256 17.7923V13.8384C12.7256 13.5169 12.4684 13.2598 12.147 13.2598C11.8255 13.2598 11.5683 13.5169 11.5683 13.8384Z" fill="#005888"/>
</svg>
