<svg width="140" height="91" viewBox="0 0 140 91" fill="none" xmlns="http://www.w3.org/2000/svg">
<path d="M8.27922 53.3019C8.60036 53.3555 8.9215 53.4627 9.24264 53.6236C9.56378 53.7845 9.8314 53.9453 10.1525 54.1598C10.6342 54.5352 11.0624 54.9642 11.3836 55.5004C11.5441 55.7686 11.7047 56.0903 11.8653 56.412C11.9723 56.7338 12.0794 57.0555 12.1329 57.4309C12.2399 58.0208 12.1864 58.6106 12.0794 59.2541C12.0259 59.5759 11.9188 59.8976 11.7582 60.2194C11.5977 60.5411 11.4371 60.8628 11.223 61.131C10.8483 61.6136 10.4202 62.0426 9.88492 62.3643C9.61731 62.5252 9.29617 62.6861 8.97503 62.8469C8.65389 62.9542 8.33275 63.0614 7.95808 63.115C7.79751 63.1687 7.58342 63.1687 7.42285 63.1687V66.3861L13.3104 69.6036L14.2203 69.2818L13.2569 66.6542C13.9527 66.118 14.6485 65.5281 15.1837 64.831L17.6993 66.0107L19.9473 61.131L17.4317 59.9512C17.5923 59.0396 17.5923 58.1816 17.5388 57.27L20.1614 56.3048L18.2881 51.2641L15.6654 52.2294C15.1302 51.5323 14.5414 50.8351 13.8456 50.2989L15.0232 47.7786L10.1525 45.5264L8.97503 48.0467C8.49332 47.9394 7.95808 47.9394 7.47638 47.8858V53.3019C7.63694 53.1946 7.95808 53.1946 8.27922 53.3019Z" fill="white"/>
<path d="M72.6677 66.2798L40.0185 84.1903L7.36933 66.2798V24.7212L40.0185 6.81079L72.6677 24.7212V30.7807H79.037V22.8444C79.037 21.6646 78.3947 20.5922 77.3778 20.0559L41.5172 0.429524C40.5538 -0.106716 39.4298 -0.106716 38.4664 0.429524L2.60576 20.0559C1.58881 20.5922 0.946533 21.6646 0.946533 22.8444V68.1567C0.946533 69.3364 1.58881 70.4089 2.60576 70.9451L38.4664 90.5715C39.4298 91.1078 40.5538 91.1078 41.5172 90.5715L77.3778 70.9451C78.3947 70.4089 79.037 69.3364 79.037 68.1567V50.0854H72.6677V66.2798Z" fill="white"/>
<path d="M52.9176 30.8876C53.2387 30.8876 53.3993 31.1557 53.4528 31.6383L58.3234 46.2777H53.3458C53.0246 46.2777 52.8105 46.0096 52.757 45.4197L52.1683 43.4356H47.9934C47.7793 43.4356 47.6188 43.6501 47.5117 44.0791C47.1371 45.527 46.8159 46.2777 46.6554 46.2777H41.8383C42.5341 43.811 43.7116 39.8964 45.4243 34.534C45.3173 34.4268 45.0497 34.3732 44.5144 34.3732C44.4609 34.3195 44.4609 34.2659 44.4609 34.2123L45.6384 30.834H52.9176V30.8876ZM49.9203 35.0703L48.6357 40.0037H51.2584L49.9738 35.0703H49.9203V35.0703Z" fill="white"/>
<path d="M70.9549 35.3924L69.9915 38.1809H66.3519C65.8167 38.1809 65.4955 38.449 65.4955 39.0388V46.3317H60.732V38.2345H59.6615V38.1272L60.6249 35.2852H64.9603C65.1209 35.2852 65.2279 35.3924 65.2279 35.5533V37.7519H65.335L66.4054 35.446H70.9549V35.3924Z" fill="white"/>
<path d="M82.1948 35.2305L81.3385 38.1798H77.7524C77.4848 38.2334 77.3242 38.3943 77.3242 38.6624V41.9871C77.3242 42.8451 77.4848 43.2205 77.913 43.2205H82.516L81.4455 46.277H73.8987C72.8818 46.277 72.3466 45.5799 72.3466 44.2393V36.7319C72.3466 35.7667 72.9353 35.2841 74.0593 35.2841H82.1948V35.2305Z" fill="white"/>
<path d="M99.2687 30.8877V46.2778H94.1305V40.54C94.0769 40.3792 94.0234 40.3255 93.9699 40.3255H90.5979C90.4374 40.3255 90.3303 40.3792 90.3838 40.4328V46.2778H85.1386V34.695C85.1386 34.5341 85.085 34.4805 85.0315 34.4269H83.961C83.9075 34.4269 83.854 34.4269 83.854 34.3733L85.085 30.9413H90.3303V36.7863H94.0769V30.8877H99.2687Z" fill="white"/>
<path d="M107.083 46.3315H101.838V34.6951C101.838 34.5342 101.784 34.4806 101.731 34.427H100.714C100.66 34.427 100.607 34.427 100.607 34.3733L101.838 30.9414H107.083V46.3315V46.3315Z" fill="white"/>
<path d="M125.12 30.8877L120.25 46.3314H113.988L110.241 34.5341H108.475V34.3733L109.813 30.8877H114.844L117.199 40.7545H117.253L119.768 30.8877H125.12Z" fill="white"/>
<path d="M139.839 30.8877C139.893 30.8877 139.893 30.9413 139.893 30.9949L138.662 34.4269H133.203C133.096 34.4269 133.096 34.4269 133.042 34.5341V36.6791H134.38H139.572C139.679 36.6791 139.679 36.7327 139.679 36.84L138.394 40.3255H132.988V42.2024C132.988 42.4705 133.149 42.6314 133.417 42.6314H139.625C139.893 42.6314 140 42.685 140 42.7922L138.662 46.3314H127.85C127.743 46.2778 127.743 46.2242 127.743 46.0633V34.8023C127.743 34.5878 127.636 34.4805 127.369 34.4805H126.994C126.726 34.4805 126.566 34.4269 126.566 34.3733L127.797 30.8877H139.839V30.8877Z" fill="white"/>
<path d="M63.1405 71.4811V67.4057H58.0558C57.6276 65.7969 56.9853 64.2955 56.1825 62.9012L59.7685 59.3084L56.2895 55.8229L52.8105 52.3373L49.2245 55.9301C47.8328 55.1257 46.3342 54.4823 44.7285 54.0533V48.959H34.8267V54.0533C33.221 54.4823 31.7223 55.1257 30.3307 55.9301L26.7447 52.3373L19.7866 59.3084L23.3727 62.9012C22.5699 64.2955 21.9276 65.7969 21.4994 67.4057H16.4147V71.213L40.0184 84.19L63.1405 71.4811ZM37.8775 81.2407C36.7535 81.0262 35.7366 80.5435 34.8267 79.9537C34.2915 79.6319 33.8097 79.2029 33.3816 78.7739C32.9534 78.345 32.5252 77.8623 32.204 77.3261C31.6153 76.4145 31.1871 75.3956 30.9195 74.2695C30.8124 73.6797 30.7054 73.0362 30.7054 72.3927C30.7054 71.7492 30.7589 71.1057 30.9195 70.5158C31.1336 69.3897 31.6153 68.3709 32.204 67.4593C32.5252 66.923 32.9534 66.4404 33.3816 66.0114C33.8097 65.5824 34.2915 65.1534 34.8267 64.8317C35.7366 64.2418 36.7535 63.8128 37.8775 63.5447C38.4663 63.4375 39.1086 63.3302 39.7508 63.3302C40.3931 63.3302 41.0354 63.3838 41.6241 63.5447C42.7481 63.7592 43.7651 64.2418 44.675 64.8317C45.2102 65.1534 45.6919 65.5824 46.1201 66.0114C46.5483 66.4404 46.9765 66.923 47.2976 67.4593C47.8864 68.3709 48.3146 69.3897 48.5822 70.5158C48.6892 71.1057 48.7963 71.7492 48.7963 72.3927C48.7963 73.0362 48.7427 73.6797 48.5822 74.2695C48.3681 75.3956 47.8864 76.4145 47.2976 77.3261C46.9765 77.8623 46.5483 78.345 46.1201 78.7739C45.6919 79.2029 45.2102 79.6319 44.675 79.9537C43.7651 80.5435 42.7481 80.9725 41.6241 81.2407C41.0354 81.3479 40.3931 81.4551 39.7508 81.4551C39.1621 81.4551 38.5198 81.4015 37.8775 81.2407Z" fill="white"/>
<path d="M39.1622 33.5687L38.2523 30.8339L35.4155 31.7991C34.8803 31.0484 34.2915 30.2976 33.5422 29.6541L34.8268 26.9729L29.6885 24.4526L28.404 27.1338C27.4406 26.9729 26.5307 26.9193 25.5673 26.9729L24.6574 24.1309L21.9277 25.0425L19.198 25.9541L20.1614 28.7962C19.3585 29.3324 18.6627 29.9223 18.0205 30.673L15.3443 29.386L12.8287 34.5339L15.5049 35.8209C15.3443 36.7861 15.2908 37.6977 15.3443 38.663L12.5076 39.6282L13.4175 42.363L14.3809 45.0442L17.2176 44.079C17.7529 44.8834 18.3416 45.5805 19.0909 46.224L17.8064 48.9052L22.9446 51.4255L24.2292 48.7443C25.1926 48.9052 26.1025 48.9588 27.0659 48.9052L28.0293 51.7472L33.4352 49.8704L32.4718 47.0283C33.2211 46.4921 33.9704 45.9022 34.6127 45.1515L37.2889 46.4385L39.8044 41.2906L37.1283 40.0036C37.2889 39.0383 37.3424 38.1267 37.2889 37.1615L40.1256 36.1963L39.1622 33.5687ZM31.4548 39.2528C31.3478 39.6282 31.2407 39.95 31.0802 40.2717C30.9196 40.5934 30.7055 40.9152 30.4914 41.1833C30.0632 41.7196 29.5815 42.1485 29.0463 42.4703C28.7251 42.6312 28.404 42.792 28.0293 42.9529C27.7082 43.0602 27.3335 43.1674 26.9589 43.221C26.3166 43.2746 25.6743 43.2746 25.032 43.1138C24.6574 43.0065 24.3362 42.8993 24.0151 42.7384C23.6939 42.5775 23.3728 42.363 23.1052 42.1485C22.5699 41.7195 22.1418 41.2369 21.8206 40.7007C21.6601 40.3789 21.4995 40.0572 21.3389 39.6818C21.2319 39.3601 21.1248 38.9847 21.0713 38.6094C21.0178 37.9659 21.0178 37.3224 21.1783 36.6789C21.2854 36.3035 21.3924 35.9818 21.553 35.66C21.7136 35.3383 21.9277 35.0165 22.1418 34.7484C22.5699 34.2122 23.0517 33.7832 23.5869 33.4614C23.908 33.3006 24.2292 33.1397 24.6038 32.9788C24.925 32.8716 25.2996 32.7643 25.6743 32.7107C26.3166 32.6571 26.9589 32.6571 27.6011 32.818C27.9758 32.9252 28.2969 33.0325 28.6181 33.1933C28.9392 33.3542 29.2604 33.5687 29.528 33.7832C30.0632 34.2122 30.4914 34.6948 30.8125 35.231C30.9731 35.5528 31.1337 35.8745 31.2942 36.2499C31.4013 36.5716 31.5083 36.947 31.5619 37.3224C31.6154 37.9659 31.6154 38.6094 31.4548 39.2528Z" fill="white"/>
</svg>
