<?xml version="1.0" encoding="utf-8"?>
<!-- Generator: Adobe Illustrator 24.0.1, SVG Export Plug-In . SVG Version: 6.00 Build 0)  -->
<svg version="1.1" id="Layer_1" xmlns="http://www.w3.org/2000/svg" xmlns:xlink="http://www.w3.org/1999/xlink" x="0px" y="0px"
	 viewBox="0 0 203 91" enable-background="new 0 0 203 91" xml:space="preserve">
<linearGradient id="SVGID_1_" gradientUnits="userSpaceOnUse" x1="66.5062" y1="76.9819" x2="89.8996" y2="76.9819" gradientTransform="matrix(1 0 0 -1 0 91.8898)">
	<stop  offset="0" style="stop-color:#79A5B5"/>
	<stop  offset="0.9714" style="stop-color:#FFFFFF"/>
</linearGradient>
<path fill="url(#SVGID_1_)" d="M89.8,14.4L83,2.8c-0.2-0.3-0.6-0.6-1-0.6H68.7c-0.4,0-0.8,0.2-1,0.6l-1.2,2.1l1.9,3.3l1.2-2.1
	c0.3-0.3,0.7-0.6,1.1-0.6h9.5c0.4,0,0.8,0.2,1,0.6l4.7,8.3c0.2,0.3,0.2,0.8,0,1.1l-4.7,8.3c-0.2,0.3-0.6,0.6-1,0.6h-5.5
	c-0.9,0-1.4,0.9-1,1.7l0.7,1.1c0.2,0.3,0.6,0.6,1,0.6h6.8c0.4,0,0.8-0.2,1-0.6l6.6-11.6C90,15.1,90,14.7,89.8,14.4z"/>
<linearGradient id="SVGID_2_" gradientUnits="userSpaceOnUse" x1="54.4618" y1="69.4724" x2="64.7464" y2="69.4724" gradientTransform="matrix(1 0 0 -1 0 91.8898)">
	<stop  offset="0" style="stop-color:#79A5B5"/>
	<stop  offset="0.9714" style="stop-color:#FFFFFF"/>
</linearGradient>
<path fill="url(#SVGID_2_)" d="M64.6,21.5L63.2,19c-0.2-0.3-0.6-0.6-0.9-0.6h-2.7c-0.3,0-0.8,0.2-0.9,0.6l-4.2,7.4h3.9l2.3-4
	c0.2-0.3,0.6-0.6,0.9-0.6h2.9h0.3L64.6,21.5z"/>
<linearGradient id="SVGID_3_" gradientUnits="userSpaceOnUse" x1="52.8724" y1="62.405" x2="77.7298" y2="62.405" gradientTransform="matrix(1 0 0 -1 0 91.8898)">
	<stop  offset="0" style="stop-color:#79A5B5"/>
	<stop  offset="0.9714" style="stop-color:#FFFFFF"/>
</linearGradient>
<path fill="url(#SVGID_3_)" d="M76.9,27.6L75,24.3l-3-5.2c-0.2-0.3-0.6-0.6-0.9-0.6h-0.8h-3.5l1.8,3l0.2,0.3h0.4
	c0.4,0,0.8,0.2,0.9,0.6l1.1,1.9l1.9,3.3l0.8,1.3c0.2,0.3,0.2,0.8,0,1.1l-3.8,6.5c-0.2,0.3-0.6,0.6-0.9,0.6h-7.5
	c-0.4,0-0.8-0.2-0.9-0.6L57,29.8h-3.9l5.9,10c0.2,0.3,0.6,0.6,0.9,0.6h11.4c0.4,0,0.8-0.2,0.9-0.6l5.6-9.8c0.2-0.3,0.2-0.8,0-1.1
	L76.9,27.6z"/>
<linearGradient id="SVGID_4_" gradientUnits="userSpaceOnUse" x1="68.8917" y1="87.1576" x2="67.2465" y2="86.0837" gradientTransform="matrix(1 0 0 -1 0 91.8898)">
	<stop  offset="0" style="stop-color:#497998;stop-opacity:0"/>
	<stop  offset="7.459940e-02" style="stop-color:#457596;stop-opacity:6.583450e-02"/>
	<stop  offset="0.156" style="stop-color:#376B8F;stop-opacity:0.1377"/>
	<stop  offset="0.2005" style="stop-color:#2D638A;stop-opacity:0.1769"/>
	<stop  offset="0.4543" style="stop-color:#235A82;stop-opacity:0.4382"/>
	<stop  offset="0.884" style="stop-color:#08436D;stop-opacity:0.8805"/>
	<stop  offset="1" style="stop-color:#003C66"/>
</linearGradient>
<path opacity="0.3" fill="url(#SVGID_4_)" enable-background="new    " d="M70,5.5l-1.7,2.7l-1.9-3.3L68,2.2L70,5.5z"/>
<linearGradient id="SVGID_5_" gradientUnits="userSpaceOnUse" x1="38.0787" y1="76.9818" x2="72.1065" y2="76.9818" gradientTransform="matrix(1 0 0 -1 0 91.8898)">
	<stop  offset="0" style="stop-color:#989898"/>
	<stop  offset="0.9714" style="stop-color:#FFFFFF"/>
</linearGradient>
<path fill="url(#SVGID_5_)" d="M68.5,8.2l-1.9-3.3L64,0.6c-0.2-0.3-0.6-0.6-1-0.6H47.2c-0.4,0-0.8,0.2-1,0.6l-8,13.8
	c-0.2,0.3-0.2,0.8,0,1.1l8,13.8c0.2,0.3,0.6,0.6,1,0.6h5.7h3.9h6.3c0.4,0,0.8-0.2,1-0.6l2.2-3.8c0.2-0.3,0.2-0.8,0-1.1L64.8,22h-0.3
	l-2.3,4c-0.2,0.3-0.6,0.6-1,0.6h-2.9h-3.9H49c-0.4,0-0.8-0.2-1-0.6l-6-10.5c-0.2-0.3-0.2-0.8,0-1.1l6.1-10.5
	c0.1-0.3,0.6-0.6,0.9-0.6h12c0.4,0,0.8,0.2,1,0.6l2.5,4.3l1.9,3.3l1.7,2.8c0.2,0.3,0.2,0.8,0,1.1l-1.7,2.9l0.2,0.3h2.9
	c0.4,0,0.8-0.2,1-0.6l1.5-2.7c0.2-0.3,0.2-0.8,0-1.1L68.5,8.2z"/>
<linearGradient id="SVGID_6_" gradientUnits="userSpaceOnUse" x1="61.1826" y1="64.9828" x2="65.3893" y2="67.3216" gradientTransform="matrix(1 0 0 -1 0 91.8898)">
	<stop  offset="0" style="stop-color:#497998;stop-opacity:0"/>
	<stop  offset="0.1719" style="stop-color:#457596;stop-opacity:6.583450e-02"/>
	<stop  offset="0.3597" style="stop-color:#376B8F;stop-opacity:0.1377"/>
	<stop  offset="0.4621" style="stop-color:#2D638A;stop-opacity:0.1769"/>
	<stop  offset="0.6833" style="stop-color:#255A80;stop-opacity:0.3509"/>
	<stop  offset="1" style="stop-color:#14466A;stop-opacity:0.6"/>
</linearGradient>
<path opacity="0.3" fill="url(#SVGID_6_)" enable-background="new    " d="M66.5,25l-1.9,3.3h-3.9l3.6-6.4h0.3L66.5,25z"/>
<linearGradient id="SVGID_7_" gradientUnits="userSpaceOnUse" x1="67.1484" y1="71.1238" x2="69.7913" y2="76.2246" gradientTransform="matrix(1 0 0 -1 0 91.8898)">
	<stop  offset="0" style="stop-color:#497998;stop-opacity:0"/>
	<stop  offset="1.983150e-02" style="stop-color:#3D6F90;stop-opacity:3.944260e-02"/>
	<stop  offset="6.618370e-02" style="stop-color:#275C80;stop-opacity:0.1316"/>
	<stop  offset="0.1203" style="stop-color:#154E74;stop-opacity:0.2393"/>
	<stop  offset="0.1862" style="stop-color:#09446C;stop-opacity:0.3704"/>
	<stop  offset="0.2764" style="stop-color:#023E67;stop-opacity:0.5498"/>
	<stop  offset="0.5028" style="stop-color:#003C66"/>
	<stop  offset="0.6244" style="stop-color:#043F69;stop-opacity:0.7555"/>
	<stop  offset="0.7383" style="stop-color:#0F4970;stop-opacity:0.5264"/>
	<stop  offset="0.8491" style="stop-color:#22587D;stop-opacity:0.3035"/>
	<stop  offset="0.9574" style="stop-color:#3C6E8F;stop-opacity:8.562460e-02"/>
	<stop  offset="1" style="stop-color:#497998;stop-opacity:0"/>
</linearGradient>
<path opacity="0.3" fill="url(#SVGID_7_)" enable-background="new    " d="M66.3,18.6h3.9l2.1-3.6h-3.8L66.3,18.6z"/>
<linearGradient id="SVGID_8_" gradientUnits="userSpaceOnUse" x1="56.7026" y1="62.2313" x2="57.5341" y2="68.0994" gradientTransform="matrix(1 0 0 -1 0 91.8898)">
	<stop  offset="0" style="stop-color:#003C66;stop-opacity:0.5"/>
	<stop  offset="0.2445" style="stop-color:#043F69;stop-opacity:0.3777"/>
	<stop  offset="0.4736" style="stop-color:#0F4970;stop-opacity:0.2632"/>
	<stop  offset="0.6965" style="stop-color:#22587D;stop-opacity:0.1517"/>
	<stop  offset="0.9144" style="stop-color:#3C6E8F;stop-opacity:4.281230e-02"/>
	<stop  offset="1" style="stop-color:#497998;stop-opacity:0"/>
</linearGradient>
<path opacity="0.3" fill="url(#SVGID_8_)" enable-background="new    " d="M54.4,26.4h3.9l2.1-3.6h-3.8L54.4,26.4z"/>
<linearGradient id="SVGID_9_" gradientUnits="userSpaceOnUse" x1="73.1701" y1="63.9934" x2="78.6542" y2="66.2194" gradientTransform="matrix(1 0 0 -1 0 91.8898)">
	<stop  offset="0" style="stop-color:#497998;stop-opacity:0"/>
	<stop  offset="1.983150e-02" style="stop-color:#3D6F90;stop-opacity:3.944260e-02"/>
	<stop  offset="6.618370e-02" style="stop-color:#275C80;stop-opacity:0.1316"/>
	<stop  offset="0.1203" style="stop-color:#154E74;stop-opacity:0.2393"/>
	<stop  offset="0.1862" style="stop-color:#09446C;stop-opacity:0.3704"/>
	<stop  offset="0.2764" style="stop-color:#023E67;stop-opacity:0.5498"/>
	<stop  offset="0.5028" style="stop-color:#003C66"/>
	<stop  offset="0.6244" style="stop-color:#043F69;stop-opacity:0.7555"/>
	<stop  offset="0.7383" style="stop-color:#0F4970;stop-opacity:0.5264"/>
	<stop  offset="0.8491" style="stop-color:#22587D;stop-opacity:0.3035"/>
	<stop  offset="0.9574" style="stop-color:#3C6E8F;stop-opacity:8.562460e-02"/>
	<stop  offset="1" style="stop-color:#497998;stop-opacity:0"/>
</linearGradient>
<path opacity="0.3" fill="url(#SVGID_9_)" enable-background="new    " d="M74.9,24.3l2,3.3h4.2l-1.9-3.3H74.9z"/>
<linearGradient id="SVGID_10_" gradientUnits="userSpaceOnUse" x1="64.3321" y1="69.958" x2="69.8163" y2="72.1842" gradientTransform="matrix(1 0 0 -1 0 91.8898)">
	<stop  offset="0" style="stop-color:#497998;stop-opacity:0"/>
	<stop  offset="1.983150e-02" style="stop-color:#3D6F90;stop-opacity:3.944260e-02"/>
	<stop  offset="6.618370e-02" style="stop-color:#275C80;stop-opacity:0.1316"/>
	<stop  offset="0.1203" style="stop-color:#154E74;stop-opacity:0.2393"/>
	<stop  offset="0.1862" style="stop-color:#09446C;stop-opacity:0.3704"/>
	<stop  offset="0.2764" style="stop-color:#023E67;stop-opacity:0.5498"/>
	<stop  offset="0.5028" style="stop-color:#003C66"/>
	<stop  offset="0.6244" style="stop-color:#043F69;stop-opacity:0.7555"/>
	<stop  offset="0.7383" style="stop-color:#0F4970;stop-opacity:0.5264"/>
	<stop  offset="0.8491" style="stop-color:#22587D;stop-opacity:0.3035"/>
	<stop  offset="0.9574" style="stop-color:#3C6E8F;stop-opacity:8.562460e-02"/>
	<stop  offset="1" style="stop-color:#497998;stop-opacity:0"/>
</linearGradient>
<path opacity="0.3" fill="url(#SVGID_10_)" enable-background="new    " d="M65.5,18.6l1.9,3.3h4.3l-1.9-3.3H65.5z"/>
<linearGradient id="SVGID_11_" gradientUnits="userSpaceOnUse" x1="63.6084" y1="72.3035" x2="59.0357" y2="70.6937" gradientTransform="matrix(1 0 0 -1 0 91.8898)">
	<stop  offset="0" style="stop-color:#003C66;stop-opacity:0.5"/>
	<stop  offset="0.9071" style="stop-color:#497998;stop-opacity:0"/>
</linearGradient>
<path opacity="0.3" fill="url(#SVGID_11_)" enable-background="new    " d="M62.8,18.6l1.9,3.3H61l-2-3.3H62.8z"/>
<linearGradient id="SVGID_12_" gradientUnits="userSpaceOnUse" x1="60.882" y1="74.0001" x2="72.9889" y2="74.0001" gradientTransform="matrix(1 0 0 -1 0 91.8898)">
	<stop  offset="0" style="stop-color:#79A5B5"/>
	<stop  offset="0.9714" style="stop-color:#FFFFFF"/>
</linearGradient>
<path fill="url(#SVGID_12_)" d="M70.7,24.3h-0.2c-0.2,0-0.6-0.1-0.7-0.3l-1.2-2l-0.2-0.3l-1.8-3l-0.2-0.3l-1.5-2.9
	c-0.2-0.3-0.2-0.8,0-1.1l1.7-2.9l-1.9-3.3l-3.5,6.2c-0.2,0.3-0.2,0.8,0,1.1l1.8,3.1l1.8,3l0.2,0.3l1.8,3l1.2,2.2
	c0.2,0.3,0.6,0.6,0.9,0.6H73l-1.7-3C71.1,24.4,70.9,24.3,70.7,24.3z"/>
<linearGradient id="SVGID_13_" gradientUnits="userSpaceOnUse" x1="55.6658" y1="61.7982" x2="56.134" y2="58.4943" gradientTransform="matrix(1 0 0 -1 0 91.8898)">
	<stop  offset="0" style="stop-color:#003C66;stop-opacity:0.4"/>
	<stop  offset="1" style="stop-color:#497998;stop-opacity:0"/>
</linearGradient>
<path opacity="0.3" fill="url(#SVGID_13_)" enable-background="new    " d="M52.9,29.7h3.9l2.1,3.8H55L52.9,29.7z"/>
<linearGradient id="SVGID_14_" gradientUnits="userSpaceOnUse" x1="61.1332" y1="78.4215" x2="65.3581" y2="80.7705" gradientTransform="matrix(1 0 0 -1 0 91.8898)">
	<stop  offset="0" style="stop-color:#497998;stop-opacity:0"/>
	<stop  offset="0.1719" style="stop-color:#457596;stop-opacity:6.583450e-02"/>
	<stop  offset="0.3597" style="stop-color:#376B8F;stop-opacity:0.1377"/>
	<stop  offset="0.4621" style="stop-color:#2D638A;stop-opacity:0.1769"/>
	<stop  offset="0.6329" style="stop-color:#235A82;stop-opacity:0.4382"/>
	<stop  offset="0.9219" style="stop-color:#08436D;stop-opacity:0.8805"/>
	<stop  offset="1" style="stop-color:#003C66"/>
</linearGradient>
<path opacity="0.3" fill="url(#SVGID_14_)" enable-background="new    " d="M66.5,11.6l-1.9,3.3h-3.9l3.9-6.7L66.5,11.6z"/>
<linearGradient id="SVGID_15_" gradientUnits="userSpaceOnUse" x1="68.3153" y1="65.9912" x2="71.1513" y2="67.3561" gradientTransform="matrix(1 0 0 -1 0 91.8898)">
	<stop  offset="0.5136" style="stop-color:#2D638A;stop-opacity:0.1769"/>
	<stop  offset="1" style="stop-color:#003C66"/>
</linearGradient>
<path opacity="0.3" fill="url(#SVGID_15_)" enable-background="new    " d="M68.6,27.6H73l-2-3.3h-0.8c-0.2,0-0.4-0.1-0.6-0.3
	l-1.2-2.1L66.4,25l1.3,2.3C67.9,27.5,68.2,27.6,68.6,27.6z"/>
<path fill="#FFFFFF" d="M7.7,81.9h0.8v8H7.6v-6.1l-2.5,4.9H4.4l-2.5-4.9v6.1H1v-8h0.8l3,5.7L7.7,81.9z"/>
<path fill="#FFFFFF" d="M11.5,89.6c-0.4-0.2-0.7-0.6-0.9-1c-0.2-0.4-0.3-0.9-0.3-1.4c0-0.6,0.1-1.1,0.3-1.5c0.2-0.4,0.6-0.8,0.9-1
	c0.3-0.2,0.9-0.3,1.4-0.3c0.3,0,0.8,0.1,1.1,0.2c0.3,0.1,0.7,0.3,0.9,0.6l-0.3,0.7C14,85.3,13.6,85,13,85c-0.6,0-1,0.2-1.3,0.6
	s-0.4,0.9-0.4,1.5c0,0.7,0.1,1.2,0.4,1.5c0.3,0.3,0.8,0.6,1.3,0.6c0.6,0,1.1-0.2,1.5-0.7l0.3,0.7c-0.2,0.2-0.6,0.4-0.9,0.6
	c-0.3,0.1-0.7,0.2-1.1,0.2C12.4,90,11.9,89.9,11.5,89.6z"/>
<path fill="#FFFFFF" d="M16.5,81.9h2.7c1.2,0,2.2,0.3,3,1c0.7,0.7,1,1.7,1,2.9c0,1.2-0.3,2.2-1,3c-0.7,0.7-1.7,1-3,1h-2.7V81.9z
	 M19.1,89.1c2.1,0,3.1-1.1,3.1-3.2c0-2.1-1-3.2-3.1-3.2h-1.7V89h1.7V89.1z"/>
<path fill="#FFFFFF" d="M28.7,84.8c0.3,0.3,0.6,0.9,0.6,1.7v3.4h-0.9V89c-0.1,0.3-0.3,0.6-0.7,0.8c-0.3,0.2-0.7,0.2-1,0.2
	c-0.3,0-0.7-0.1-1-0.2c-0.3-0.1-0.6-0.3-0.7-0.6c-0.2-0.2-0.2-0.6-0.2-0.9c0-0.4,0.1-0.8,0.3-1c0.2-0.2,0.6-0.4,1-0.4
	c0.4-0.1,1.1-0.1,2-0.1h0.2v-0.3c0-0.4-0.1-0.8-0.3-1c-0.2-0.3-0.4-0.4-0.9-0.4c-0.7,0-1.2,0.2-1.9,0.6L25,84.9
	c0.3-0.2,0.7-0.3,1-0.4c0.4-0.1,0.8-0.2,1.2-0.2C27.8,84.3,28.4,84.5,28.7,84.8z M27.9,88.8c0.3-0.3,0.4-0.7,0.4-1.2v-0.3h-0.2
	c-0.7,0-1.1,0-1.5,0.1c-0.4,0.1-0.6,0.1-0.8,0.3c-0.1,0.1-0.2,0.3-0.2,0.6c0,0.3,0.1,0.6,0.3,0.8c0.2,0.2,0.4,0.3,0.8,0.3
	C27.3,89.2,27.6,89.1,27.9,88.8z"/>
<path fill="#FFFFFF" d="M35.9,86.5v3.4H35v-3.4c0-0.6-0.1-0.9-0.3-1.1c-0.1-0.2-0.4-0.3-0.9-0.3c-0.6,0-0.9,0.1-1.2,0.4
	c-0.3,0.3-0.4,0.8-0.4,1.2v3.1h-0.9v-5.4h0.9v0.9c0.2-0.3,0.4-0.6,0.8-0.8c0.3-0.2,0.7-0.2,1.1-0.2C35.2,84.3,35.9,85,35.9,86.5z"/>
<path fill="#FFFFFF" d="M37.9,82H39v1h-1.1V82z M37.9,89.9v-5.4h0.9v5.4H37.9z"/>
<path fill="#FFFFFF" d="M45.4,87.2h-4c0,0.7,0.2,1.1,0.6,1.4c0.3,0.3,0.8,0.4,1.3,0.4c0.7,0,1.2-0.2,1.8-0.7l0.3,0.7
	c-0.2,0.2-0.6,0.4-0.9,0.6c-0.3,0.1-0.8,0.2-1.1,0.2c-0.9,0-1.5-0.2-2-0.8c-0.4-0.6-0.8-1.2-0.8-2.1c0-0.6,0.1-1.1,0.3-1.4
	c0.2-0.3,0.6-0.8,0.9-1c0.3-0.2,0.9-0.3,1.3-0.3c0.8,0,1.3,0.2,1.7,0.7c0.3,0.4,0.7,1.1,0.7,2v0.3H45.4z M42,85.5
	c-0.3,0.3-0.4,0.8-0.6,1.2h3.2c0-0.6-0.1-1-0.4-1.3c-0.3-0.3-0.7-0.4-1.1-0.4C42.6,85,42.3,85.1,42,85.5z"/>
<path fill="#FFFFFF" d="M47.2,89.9v-8H48v8H47.2z"/>
<path fill="#FFFFFF" d="M58.9,89.9l-0.9-1c-0.3,0.3-0.7,0.7-1.1,0.8c-0.4,0.2-0.9,0.2-1.3,0.2c-0.6,0-1-0.1-1.3-0.2
	c-0.3-0.2-0.7-0.4-0.9-0.8c-0.2-0.3-0.3-0.7-0.3-1.1c0-0.4,0.1-0.9,0.4-1.3c0.3-0.3,0.8-0.8,1.4-1.1c-0.3-0.4-0.6-0.8-0.7-1
	c-0.1-0.2-0.2-0.6-0.2-0.9c0-0.6,0.2-1,0.6-1.2c0.3-0.3,0.8-0.4,1.4-0.4c0.6,0,1,0.1,1.3,0.4c0.3,0.3,0.4,0.7,0.4,1.2
	c0,0.4-0.1,0.8-0.3,1c-0.2,0.3-0.7,0.7-1.2,1l1.9,2.1c0.3-0.7,0.6-1.4,0.6-2.4h0.8c0,1.2-0.3,2.2-0.8,3l1.5,1.7h-1.3V89.9z M56.7,89
	c0.3-0.1,0.6-0.3,0.9-0.7L55.4,86c-0.6,0.3-0.9,0.7-1.1,0.9c-0.2,0.3-0.3,0.6-0.3,1c0,0.4,0.1,0.8,0.4,1c0.3,0.2,0.7,0.3,1.2,0.3
	C56,89.2,56.3,89.1,56.7,89z M55.1,82.8c-0.2,0.2-0.3,0.4-0.3,0.8c0,0.2,0,0.4,0.1,0.7c0.1,0.2,0.3,0.4,0.6,0.8
	c0.4-0.3,0.9-0.6,1-0.8c0.1-0.2,0.2-0.4,0.2-0.7c0-0.3-0.1-0.6-0.2-0.7c-0.1-0.1-0.4-0.2-0.7-0.2C55.5,82.6,55.3,82.7,55.1,82.8z"/>
<path fill="#FFFFFF" d="M64.4,89.9v-8h0.9V89h4v0.8h-4.9V89.9z"/>
<path fill="#FFFFFF" d="M70.6,82h1.1v1h-1.1V82z M70.7,89.9v-5.4h0.9v5.4H70.7z"/>
<path fill="#FFFFFF" d="M76.5,89.2v0.7c-0.2,0-0.3,0-0.6,0c-0.7,0-1.1-0.2-1.4-0.6C74.2,89,74,88.6,74,87.9V85h-1.1v-0.7H74v-1.7
	h0.9v1.7h1.5V85h-1.5v2.8c0,0.9,0.4,1.3,1.2,1.3C76.2,89.2,76.3,89.2,76.5,89.2z"/>
<path fill="#FFFFFF" d="M80.7,89.2v0.7c-0.2,0-0.3,0-0.6,0c-0.7,0-1.1-0.2-1.4-0.6c-0.3-0.3-0.6-0.8-0.6-1.4V85h-1.1v-0.7h1.1v-1.7
	h0.9v1.7h1.5V85h-1.5v2.8c0,0.9,0.4,1.3,1.2,1.3C80.4,89.2,80.5,89.2,80.7,89.2z"/>
<path fill="#FFFFFF" d="M85,85l-0.6,0.1c-0.6,0-1,0.2-1.2,0.6c-0.2,0.3-0.3,0.7-0.3,1.1v3.1H82v-5.4h0.8v1c0.3-0.7,0.9-1,1.8-1.1
	h0.3L85,85z"/>
<path fill="#FFFFFF" d="M90.7,87.2h-4c0,0.7,0.2,1.1,0.6,1.4c0.3,0.3,0.8,0.4,1.3,0.4c0.7,0,1.2-0.2,1.8-0.7l0.3,0.7
	c-0.2,0.2-0.6,0.4-0.9,0.6c-0.3,0.1-0.8,0.2-1.1,0.2c-0.9,0-1.5-0.2-2-0.8c-0.4-0.6-0.8-1.2-0.8-2.1c0-0.6,0.1-1.1,0.3-1.4
	c0.2-0.3,0.6-0.8,0.9-1c0.3-0.2,0.9-0.3,1.3-0.3c0.8,0,1.3,0.2,1.7,0.7c0.3,0.4,0.7,1.1,0.7,2v0.3H90.7z M87.2,85.5
	c-0.3,0.3-0.4,0.8-0.6,1.2h3.2c0-0.6-0.1-1-0.4-1.3S88.9,85,88.3,85C87.9,85,87.6,85.1,87.2,85.5z"/>
<path fill="#FFFFFF" d="M92.3,89.9v-8h0.9v8H92.3z"/>
<path fill="#FFFFFF" d="M95.3,89.9v-8h0.9v8H95.3z"/>
<path fill="#FFFFFF" d="M101.6,89.9v-8h0.9v8H101.6z"/>
<path fill="#FFFFFF" d="M109.4,86.5v3.4h-0.9v-3.4c0-0.6-0.1-0.9-0.3-1.1s-0.6-0.3-1-0.3c-0.6,0-0.9,0.1-1.2,0.4
	c-0.3,0.3-0.4,0.8-0.4,1.2v3.1h-0.9v-5.4h0.9v0.9c0.2-0.3,0.4-0.6,0.8-0.8c0.3-0.2,0.7-0.2,1.1-0.2C108.8,84.3,109.4,85,109.4,86.5z
	"/>
<path fill="#FFFFFF" d="M116.3,81.9v8h-0.9v-1c-0.1,0.3-0.4,0.7-0.8,0.8c-0.3,0.2-0.7,0.3-1.1,0.3c-0.4,0-0.9-0.1-1.2-0.3
	c-0.3-0.2-0.7-0.6-0.9-1c-0.2-0.4-0.3-0.9-0.3-1.5c0-0.6,0.1-1.1,0.3-1.4c0.2-0.3,0.4-0.8,0.9-1c0.3-0.2,0.8-0.3,1.2-0.3
	c0.4,0,0.8,0.1,1.1,0.3c0.3,0.2,0.6,0.4,0.8,0.8V82h0.9V81.9z M114.8,88.7c0.3-0.3,0.4-0.9,0.4-1.5c0-0.7-0.1-1.2-0.4-1.5
	c-0.3-0.3-0.7-0.6-1.2-0.6c-0.6,0-1,0.2-1.2,0.6c-0.3,0.3-0.4,0.9-0.4,1.5c0,0.7,0.1,1.2,0.4,1.5s0.7,0.6,1.2,0.6
	C114.2,89.2,114.6,89,114.8,88.7z"/>
<path fill="#FFFFFF" d="M122.8,84.4v5.4h-0.9v-0.9c-0.2,0.3-0.4,0.6-0.8,0.8c-0.3,0.2-0.7,0.2-1,0.2c-0.7,0-1.1-0.2-1.4-0.6
	c-0.3-0.3-0.4-0.9-0.4-1.7v-3.4h0.9v3.3c0,0.4,0.1,0.9,0.3,1.1c0.2,0.2,0.6,0.3,0.9,0.3c0.4,0,0.9-0.1,1.1-0.4
	c0.3-0.3,0.4-0.8,0.4-1.2v-3.1h0.9V84.4z"/>
<path fill="#FFFFFF" d="M124.6,89.2l0.3-0.7c0.3,0.2,0.6,0.4,0.9,0.6c0.3,0.1,0.7,0.1,1,0.1c0.4,0,0.7-0.1,0.9-0.2
	c0.2-0.1,0.3-0.3,0.3-0.6c0-0.2-0.1-0.4-0.2-0.6c-0.1-0.1-0.3-0.2-0.7-0.3l-0.9-0.2c-0.4-0.1-0.8-0.3-1.1-0.6
	c-0.2-0.2-0.3-0.6-0.3-1c0-0.4,0.2-0.9,0.6-1.2s0.9-0.4,1.5-0.4c0.3,0,0.8,0.1,1.1,0.2c0.3,0.1,0.7,0.3,0.9,0.6l-0.3,0.7
	c-0.6-0.4-1.1-0.7-1.7-0.7c-0.3,0-0.7,0.1-0.9,0.2c-0.2,0.1-0.3,0.3-0.3,0.7c0,0.2,0.1,0.4,0.2,0.6c0.1,0.1,0.3,0.2,0.7,0.3l0.9,0.2
	c0.6,0.1,0.9,0.3,1.1,0.6c0.2,0.2,0.3,0.6,0.3,1c0,0.4-0.2,0.9-0.6,1.1c-0.3,0.3-0.9,0.4-1.5,0.4C125.8,90,125.1,89.7,124.6,89.2z"
	/>
<path fill="#FFFFFF" d="M133.4,89.2v0.7c-0.2,0-0.3,0-0.6,0c-0.7,0-1.1-0.2-1.4-0.6c-0.3-0.3-0.6-0.8-0.6-1.4V85h-1.1v-0.7h1.1v-1.7
	h0.9v1.7h1.5V85h-1.5v2.8c0,0.9,0.4,1.3,1.2,1.3C133.1,89.2,133.3,89.2,133.4,89.2z"/>
<path fill="#FFFFFF" d="M137.8,85l-0.6,0.1c-0.6,0-1,0.2-1.2,0.6c-0.2,0.3-0.3,0.7-0.3,1.1v3.1h-1v-5.4h0.9v1c0.3-0.7,0.9-1,1.8-1.1
	h0.3L137.8,85z"/>
<path fill="#FFFFFF" d="M138.9,82h1.1v1h-1.1V82z M139,89.9v-5.4h0.9v5.4H139z"/>
<path fill="#FFFFFF" d="M145.7,84.8c0.3,0.3,0.6,0.9,0.6,1.7v3.4h-0.9V89c-0.1,0.3-0.3,0.6-0.7,0.8c-0.3,0.2-0.7,0.2-1,0.2
	c-0.3,0-0.7-0.1-1-0.2c-0.3-0.1-0.6-0.3-0.7-0.6c-0.2-0.2-0.2-0.6-0.2-0.9c0-0.4,0.1-0.8,0.3-1c0.2-0.2,0.6-0.4,1-0.4
	c0.4-0.1,1.1-0.1,2-0.1h0.2v-0.3c0-0.4-0.1-0.8-0.3-1c-0.2-0.2-0.4-0.3-0.9-0.3c-0.7,0-1.2,0.2-1.9,0.6l-0.3-0.7
	c0.3-0.2,0.7-0.3,1-0.4c0.4-0.1,0.8-0.2,1.2-0.2C144.9,84.3,145.3,84.5,145.7,84.8z M144.9,88.8c0.3-0.3,0.4-0.7,0.4-1.2v-0.3h-0.2
	c-0.7,0-1.1,0-1.5,0.1c-0.4,0.1-0.6,0.1-0.8,0.3c-0.1,0.1-0.2,0.3-0.2,0.6c0,0.3,0.1,0.6,0.3,0.8c0.2,0.2,0.4,0.3,0.8,0.3
	C144.2,89.2,144.6,89.1,144.9,88.8z"/>
<path fill="#FFFFFF" d="M148.2,89.9v-8h0.9v8H148.2z"/>
<path fill="#FFFFFF" d="M154,89l0.3-0.7c0.4,0.3,0.8,0.6,1.2,0.7c0.4,0.1,0.9,0.2,1.4,0.2c0.7,0,1.1-0.1,1.4-0.3
	c0.3-0.2,0.6-0.6,0.6-1c0-0.2-0.1-0.4-0.2-0.7c-0.1-0.1-0.3-0.3-0.7-0.4c-0.2-0.1-0.7-0.2-1.1-0.3c-0.7-0.1-1.1-0.3-1.5-0.4
	c-0.4-0.1-0.7-0.3-1-0.7c-0.2-0.3-0.3-0.7-0.3-1.1c0-0.4,0.1-0.9,0.3-1.2c0.2-0.3,0.6-0.7,1-0.8c0.4-0.2,1-0.3,1.5-0.3
	c0.6,0,1.1,0.1,1.5,0.2c0.4,0.1,0.9,0.4,1.2,0.8l-0.3,0.7c-0.3-0.3-0.8-0.6-1.1-0.7c-0.3-0.1-0.8-0.2-1.2-0.2
	c-0.7,0-1.1,0.1-1.4,0.4c-0.3,0.2-0.6,0.7-0.6,1.1c0,0.4,0.1,0.7,0.4,0.9c0.3,0.2,0.8,0.3,1.4,0.6c0.7,0.1,1.2,0.3,1.7,0.4
	c0.4,0.1,0.7,0.3,1,0.7c0.3,0.3,0.4,0.7,0.4,1.1c0,0.4-0.1,0.9-0.3,1.2s-0.6,0.6-1,0.8c-0.4,0.2-1,0.2-1.5,0.2
	C155.8,90,154.8,89.7,154,89z"/>
<path fill="#FFFFFF" d="M162.6,89.6c-0.4-0.2-0.7-0.6-0.9-1c-0.2-0.4-0.3-0.9-0.3-1.5c0-0.6,0.1-1.1,0.3-1.5c0.2-0.4,0.6-0.8,0.9-1
	c0.4-0.2,0.9-0.3,1.3-0.3c0.4,0,1,0.1,1.3,0.3c0.4,0.2,0.7,0.6,0.9,1c0.2,0.4,0.3,0.9,0.3,1.5c0,0.6-0.1,1.1-0.3,1.5
	c-0.2,0.4-0.6,0.8-0.9,1c-0.4,0.2-0.9,0.3-1.3,0.3C163.4,89.9,162.9,89.9,162.6,89.6z M165.1,88.7c0.3-0.3,0.4-0.9,0.4-1.5
	c0-0.7-0.1-1.2-0.4-1.5c-0.3-0.3-0.7-0.6-1.2-0.6s-1,0.2-1.2,0.6c-0.3,0.3-0.4,0.9-0.4,1.5c0,0.7,0.1,1.2,0.4,1.5
	c0.3,0.3,0.7,0.6,1.2,0.6S164.9,89,165.1,88.7z"/>
<path fill="#FFFFFF" d="M168.2,89.9v-8h0.9v8H168.2z"/>
<path fill="#FFFFFF" d="M175.7,84.4v5.4h-0.9v-0.9c-0.2,0.3-0.4,0.6-0.8,0.8c-0.3,0.2-0.7,0.2-1,0.2c-0.7,0-1.1-0.2-1.4-0.6
	c-0.3-0.3-0.4-0.9-0.4-1.7v-3.4h0.9v3.3c0,0.4,0.1,0.9,0.3,1.1c0.2,0.2,0.6,0.3,0.9,0.3c0.4,0,0.9-0.1,1.1-0.4
	c0.3-0.3,0.4-0.8,0.4-1.2v-3.1h0.9V84.4z"/>
<path fill="#FFFFFF" d="M180.7,89.2v0.7c-0.2,0-0.3,0-0.6,0c-0.7,0-1.1-0.2-1.4-0.6c-0.3-0.3-0.6-0.8-0.6-1.4V85H177v-0.7h1.1v-1.7
	h0.9v1.7h1.5V85H179v2.8c0,0.9,0.4,1.3,1.2,1.3C180.3,89.2,180.4,89.2,180.7,89.2z"/>
<path fill="#FFFFFF" d="M181.8,82h1.1v1h-1.1V82z M181.9,89.9v-5.4h0.9v5.4H181.9z"/>
<path fill="#FFFFFF" d="M185.7,89.6c-0.4-0.2-0.7-0.6-0.9-1c-0.2-0.4-0.3-0.9-0.3-1.5c0-0.6,0.1-1.1,0.3-1.5c0.2-0.4,0.6-0.8,0.9-1
	c0.4-0.2,0.9-0.3,1.3-0.3s1,0.1,1.3,0.3c0.4,0.2,0.7,0.6,0.9,1c0.2,0.4,0.3,0.9,0.3,1.5c0,0.6-0.1,1.1-0.3,1.5
	c-0.2,0.4-0.6,0.8-0.9,1c-0.4,0.2-0.9,0.3-1.3,0.3S186.1,89.9,185.7,89.6z M188.3,88.7c0.3-0.3,0.4-0.9,0.4-1.5
	c0-0.7-0.1-1.2-0.4-1.5c-0.3-0.3-0.7-0.6-1.2-0.6s-1,0.2-1.2,0.6c-0.3,0.3-0.4,0.9-0.4,1.5c0,0.7,0.1,1.2,0.4,1.5
	c0.3,0.3,0.7,0.6,1.2,0.6S188.1,89,188.3,88.7z"/>
<path fill="#FFFFFF" d="M196.1,86.5v3.4h-0.9v-3.4c0-0.6-0.1-0.9-0.3-1.1c-0.2-0.2-0.6-0.3-1-0.3c-0.6,0-0.9,0.1-1.2,0.4
	c-0.3,0.3-0.4,0.8-0.4,1.2v3.1h-0.9v-5.4h0.9v0.9c0.2-0.3,0.4-0.6,0.8-0.8c0.3-0.2,0.7-0.2,1.1-0.2C195.5,84.3,196.1,85,196.1,86.5z
	"/>
<path fill="#FFFFFF" d="M197.8,89.2l0.3-0.7c0.3,0.2,0.6,0.4,0.9,0.6c0.3,0.1,0.7,0.1,1,0.1c0.4,0,0.7-0.1,0.9-0.2
	c0.2-0.1,0.3-0.3,0.3-0.6c0-0.2-0.1-0.4-0.2-0.6c-0.1-0.1-0.3-0.2-0.7-0.3l-0.9-0.2c-0.4-0.1-0.8-0.3-1.1-0.6
	c-0.2-0.2-0.3-0.6-0.3-1c0-0.4,0.2-0.9,0.6-1.2c0.3-0.3,0.9-0.4,1.5-0.4c0.3,0,0.8,0.1,1.1,0.2c0.3,0.1,0.7,0.3,0.9,0.6l-0.3,0.7
	c-0.6-0.4-1.1-0.7-1.7-0.7c-0.3,0-0.7,0.1-0.9,0.2c-0.2,0.1-0.3,0.3-0.3,0.7c0,0.2,0.1,0.4,0.2,0.6c0.1,0.1,0.3,0.2,0.7,0.3l0.9,0.2
	c0.6,0.1,0.9,0.3,1.1,0.6c0.2,0.2,0.3,0.6,0.3,1c0,0.4-0.2,0.9-0.6,1.1c-0.3,0.3-0.9,0.4-1.5,0.4C199,90,198.3,89.7,197.8,89.2z"/>
<linearGradient id="SVGID_16_" gradientUnits="userSpaceOnUse" x1="54.7732" y1="19.7794" x2="54.7732" y2="46.172" gradientTransform="matrix(1 0 0 -1 0 91.8898)">
	<stop  offset="0" style="stop-color:#C4C4C4"/>
	<stop  offset="0.6315" style="stop-color:#BABABA"/>
	<stop  offset="0.6763" style="stop-color:#FFFFFF"/>
	<stop  offset="1" style="stop-color:#959595"/>
</linearGradient>
<path fill="url(#SVGID_16_)" d="M63.4,45.9l-0.3,7.4c-1-0.2-1.9-0.3-2.9-0.3c-3.9,0-6.3,3.4-6.3,8.5v10.6h-7.7V46h7.7v3.5
	c1.8-2.7,4.4-3.9,7.1-3.9C62,45.7,62.7,45.8,63.4,45.9z"/>
<linearGradient id="SVGID_17_" gradientUnits="userSpaceOnUse" x1="78.0182" y1="19.7793" x2="78.0182" y2="46.945" gradientTransform="matrix(1 0 0 -1 0 91.8898)">
	<stop  offset="0" style="stop-color:#C4C4C4"/>
	<stop  offset="0.6315" style="stop-color:#BABABA"/>
	<stop  offset="0.6763" style="stop-color:#FFFFFF"/>
	<stop  offset="1" style="stop-color:#959595"/>
</linearGradient>
<path fill="url(#SVGID_17_)" d="M65.4,58.5c0-8,6.3-13.6,14.6-13.6c4.1,0,8,1.4,10.7,4.7l-5.1,4.4c-1.5-1.9-3.4-2.5-5.5-2.5
	c-3.8,0-6.7,2.4-6.7,7c0,4.5,3,7,6.8,7c2,0,3.8-0.7,5.4-2.5l5.1,4.4C88,70.6,84,72.1,80,72.1C71.7,72.1,65.4,66.5,65.4,58.5z"/>
<linearGradient id="SVGID_18_" gradientUnits="userSpaceOnUse" x1="30.2027" y1="19.7792" x2="30.2027" y2="62.2946" gradientTransform="matrix(1 0 0 -1 0 91.8898)">
	<stop  offset="5.586590e-03" style="stop-color:#C4C4C4"/>
	<stop  offset="0.3851" style="stop-color:#BABABA"/>
	<stop  offset="0.4137" style="stop-color:#FFFFFF"/>
	<stop  offset="1" style="stop-color:#959595"/>
</linearGradient>
<path fill="url(#SVGID_18_)" d="M21.8,29.6L17,38.9l16.6,33.2h9.8L21.8,29.6z"/>
<linearGradient id="SVGID_19_" gradientUnits="userSpaceOnUse" x1="8.3926" y1="19.779" x2="8.3926" y2="43.1901" gradientTransform="matrix(1 0 0 -1 0 91.8898)">
	<stop  offset="5.586590e-03" style="stop-color:#C4C4C4"/>
	<stop  offset="0.7001" style="stop-color:#BABABA"/>
	<stop  offset="0.7717" style="stop-color:#FFFFFF"/>
	<stop  offset="1" style="stop-color:#959595"/>
</linearGradient>
<path fill="url(#SVGID_19_)" d="M11.9,48.7L0,72.1h10.3l6.5-13.5L11.9,48.7z"/>
<linearGradient id="SVGID_20_" gradientUnits="userSpaceOnUse" x1="109.3804" y1="19.7792" x2="109.3804" y2="52.6872" gradientTransform="matrix(1 0 0 -1 0 91.8898)">
	<stop  offset="0" style="stop-color:#00A6FF"/>
	<stop  offset="0.5168" style="stop-color:#1C66CC"/>
	<stop  offset="0.5503" style="stop-color:#00C0FB"/>
	<stop  offset="1" style="stop-color:#0083FF"/>
</linearGradient>
<path fill="url(#SVGID_20_)" d="M116.5,39.2h8.2v32.9h-8.2V59.2h-14.2v12.9h-8.2V39.2h8.2v13h14.2V39.2z"/>
<linearGradient id="SVGID_21_" gradientUnits="userSpaceOnUse" x1="134.8895" y1="19.7792" x2="134.8895" y2="52.6872" gradientTransform="matrix(1 0 0 -1 0 91.8898)">
	<stop  offset="0" style="stop-color:#00A6FF"/>
	<stop  offset="0.5168" style="stop-color:#1C66CC"/>
	<stop  offset="0.5503" style="stop-color:#00C0FB"/>
	<stop  offset="1" style="stop-color:#0083FF"/>
</linearGradient>
<path fill="url(#SVGID_21_)" d="M130.9,72.1V39.2h8.1v32.9H130.9z"/>
<linearGradient id="SVGID_22_" gradientUnits="userSpaceOnUse" x1="190.6015" y1="19.7783" x2="190.6015" y2="52.7137" gradientTransform="matrix(1 0 0 -1 0 91.8898)">
	<stop  offset="0" style="stop-color:#00A6FF"/>
	<stop  offset="0.5168" style="stop-color:#1C66CC"/>
	<stop  offset="0.5503" style="stop-color:#00C0FB"/>
	<stop  offset="1" style="stop-color:#0083FF"/>
</linearGradient>
<path fill="url(#SVGID_22_)" d="M188.4,65.5h12.4v6.7h-20.3v-33h20.3v6.7h-12.4v6.2h10.7v6.4h-10.7V65.5z"/>
<linearGradient id="SVGID_23_" gradientUnits="userSpaceOnUse" x1="159.902" y1="19.7792" x2="159.902" y2="52.6872" gradientTransform="matrix(1 0 0 -1 0 91.8898)">
	<stop  offset="0" style="stop-color:#00A6FF"/>
	<stop  offset="0.5168" style="stop-color:#1C66CC"/>
	<stop  offset="0.5503" style="stop-color:#00C0FB"/>
	<stop  offset="1" style="stop-color:#0083FF"/>
</linearGradient>
<path fill="url(#SVGID_23_)" d="M177.9,39.2h-8.5L160,62.8h-0.1l-9.4-23.6h-8.6l13.9,32.9h8.2L177.9,39.2z"/>
</svg>
