<?xml version="1.0" encoding="utf-8"?>
<!-- Generator: Adobe Illustrator 24.0.1, SVG Export Plug-In . SVG Version: 6.00 Build 0)  -->
<svg version="1.1" id="Layer_1" xmlns="http://www.w3.org/2000/svg" xmlns:xlink="http://www.w3.org/1999/xlink" x="0px" y="0px"
	 viewBox="0 0 149 153" enable-background="new 0 0 149 153" xml:space="preserve">
<g opacity="0.5">
	<path d="M77,17.6c0.6-0.4,1.4-0.4,2,0l50,28.8c0.6,0.4,1,1,1,1.7v57.7c0,0.7-0.4,1.4-1,1.7l-50,28.8c-0.6,0.4-1.4,0.4-2,0l-50-28.8
		c-0.6-0.4-1-1-1-1.7V48.2c0-0.7,0.4-1.4,1-1.7L77,17.6z"/>
	<g>
		<path d="M77.5,151.7c-0.3,0-0.7-0.1-1-0.3L14,115.3c-0.6-0.4-1-1-1-1.7V41.4c0-0.7,0.4-1.4,1-1.7L76.5,3.6l0,0l0,0h0.1l1.2-0.7
			l0.3,0.6c0.1,0,0.2,0.1,0.4,0.2l62.5,36c0.6,0.4,1,1,1,1.7v72.2c0,0.7-0.4,1.4-1,1.7l-62.5,36.1C78.2,151.6,77.8,151.7,77.5,151.7
			z M16,113l61.5,35.5L139,113V42L77.5,6.5L16,42V113z"/>
	</g>
</g>
<g>
	
		<linearGradient id="SVGID_1_" gradientUnits="userSpaceOnUse" x1="75.0003" y1="139.8898" x2="75.0003" y2="19.8898" gradientTransform="matrix(1 0 0 -1 0 153.8898)">
		<stop  offset="0" style="stop-color:#FFFFFF"/>
		<stop  offset="1" style="stop-color:#C4C4C4"/>
	</linearGradient>
	<path fill="url(#SVGID_1_)" d="M74,14.6c0.6-0.4,1.4-0.4,2,0l50,28.8c0.6,0.4,1,1,1,1.7v57.7c0,0.7-0.4,1.4-1,1.7l-50,28.8
		c-0.6,0.4-1.4,0.4-2,0l-50-28.8c-0.6-0.4-1-1-1-1.7V45.2c0-0.7,0.4-1.4,1-1.7L74,14.6z"/>
	<g>
		<path fill="#FFFFFF" d="M74.5,148.7c-0.3,0-0.7-0.1-1-0.3L11,112.3c-0.6-0.4-1-1-1-1.7V38.4c0-0.7,0.4-1.4,1-1.7L73.5,0.6
			c0.6-0.4,1.4-0.4,2,0L138,36.7c0.6,0.4,1,1,1,1.7v72.2c0,0.7-0.4,1.4-1,1.7l-62.5,36.1C75.2,148.6,74.8,148.7,74.5,148.7z M13,110
			l61.5,35.5L136,110V39L74.5,3.5L13,39V110z M74,3.2C74,3.2,74,3.2,74,3.2L74,3.2L74,3.2z"/>
	</g>
	<path fill="#3E3E3E" d="M54.9,81.2c0.2,0,0.4,0.1,0.6,0.2c0.2,0.2,0.2,0.4,0.2,0.6v6.2c0,0.2-0.1,0.4-0.2,0.6
		c-0.1,0.1-0.3,0.2-0.5,0.2c-0.2,0-0.4-0.1-0.5-0.2c-0.1-0.1-0.2-0.3-0.2-0.6v-3.9l-1.6,2.9c-0.1,0.2-0.2,0.3-0.3,0.4
		c-0.1,0.1-0.3,0.1-0.4,0.1c-0.2,0-0.3,0-0.4-0.1c-0.1-0.1-0.2-0.2-0.3-0.4l-1.6-2.9v3.8c0,0.2-0.1,0.4-0.2,0.6
		c-0.1,0.1-0.3,0.2-0.5,0.2c-0.2,0-0.4-0.1-0.5-0.2c-0.1-0.1-0.2-0.3-0.2-0.6V82c0-0.2,0.1-0.5,0.2-0.6c0.2-0.2,0.4-0.2,0.6-0.2
		c0.4,0,0.6,0.2,0.8,0.6l2.2,4.2l2.2-4.2C54.3,81.4,54.6,81.2,54.9,81.2z"/>
	<path fill="#3E3E3E" d="M60.8,89.1c-0.8,0-1.4-0.2-2-0.5c-0.6-0.3-1-0.8-1.3-1.4c-0.3-0.6-0.5-1.3-0.5-2.1c0-0.8,0.2-1.5,0.5-2.1
		c0.3-0.6,0.7-1.1,1.3-1.4c0.6-0.3,1.2-0.5,2-0.5c0.8,0,1.4,0.2,2,0.5c0.6,0.3,1,0.8,1.3,1.4c0.3,0.6,0.5,1.3,0.5,2.1
		c0,0.8-0.2,1.5-0.5,2.1c-0.3,0.6-0.7,1.1-1.3,1.4C62.3,88.9,61.6,89.1,60.8,89.1z M60.8,87.8c0.6,0,1.2-0.2,1.5-0.7
		c0.4-0.5,0.6-1.1,0.6-2c0-0.9-0.2-1.5-0.5-2c-0.4-0.5-0.9-0.7-1.5-0.7c-0.7,0-1.2,0.2-1.5,0.7c-0.4,0.4-0.5,1.1-0.5,2
		c0,0.9,0.2,1.5,0.5,2C59.7,87.5,60.2,87.8,60.8,87.8z"/>
	<path fill="#3E3E3E" d="M66.7,89c-0.3,0-0.5-0.1-0.6-0.2c-0.1-0.1-0.2-0.3-0.2-0.6V82c0-0.3,0.1-0.5,0.2-0.6s0.4-0.2,0.6-0.2
		s0.5,0.1,0.6,0.2s0.2,0.4,0.2,0.6v5.6h2.8c0.5,0,0.8,0.2,0.8,0.7c0,0.5-0.3,0.7-0.8,0.7H66.7z"/>
	<path fill="#3E3E3E" d="M74.8,89.1c-0.6,0-1.1-0.1-1.6-0.2c-0.5-0.1-0.9-0.3-1.2-0.6c-0.1-0.1-0.2-0.2-0.2-0.3
		c0-0.1-0.1-0.2-0.1-0.4c0-0.2,0.1-0.3,0.2-0.5c0.1-0.1,0.2-0.2,0.4-0.2c0.1,0,0.2,0,0.2,0c0.1,0,0.2,0.1,0.3,0.1
		c0.3,0.2,0.6,0.3,1,0.4c0.3,0.1,0.7,0.1,1.1,0.1c0.5,0,0.9-0.1,1.1-0.2c0.3-0.2,0.4-0.4,0.4-0.7c0-0.2-0.1-0.4-0.4-0.6
		c-0.2-0.1-0.7-0.3-1.3-0.4c-0.7-0.1-1.2-0.3-1.6-0.5c-0.4-0.2-0.7-0.4-0.9-0.7c-0.2-0.3-0.3-0.6-0.3-1.1c0-0.5,0.1-0.9,0.4-1.2
		c0.3-0.4,0.6-0.7,1.1-0.9c0.5-0.2,1-0.3,1.6-0.3c1,0,1.9,0.3,2.6,0.8c0.1,0.1,0.2,0.2,0.2,0.3c0.1,0.1,0.1,0.2,0.1,0.3
		c0,0.2-0.1,0.3-0.2,0.5c-0.1,0.1-0.2,0.2-0.4,0.2c-0.1,0-0.2,0-0.2,0c-0.1,0-0.2-0.1-0.3-0.1c-0.3-0.2-0.6-0.3-0.8-0.4
		c-0.2-0.1-0.6-0.1-1-0.1c-0.4,0-0.8,0.1-1.1,0.3c-0.3,0.2-0.4,0.4-0.4,0.7c0,0.2,0,0.3,0.1,0.4c0.1,0.1,0.3,0.2,0.5,0.3
		c0.2,0.1,0.6,0.2,1,0.3c1,0.2,1.7,0.5,2.1,0.8c0.4,0.3,0.7,0.8,0.7,1.4c0,0.5-0.1,0.9-0.4,1.2c-0.3,0.4-0.6,0.6-1.1,0.8
		C76,89,75.4,89.1,74.8,89.1z"/>
	<path fill="#3E3E3E" d="M80,89.1c-0.3,0-0.5-0.1-0.6-0.2s-0.2-0.4-0.2-0.6V82c0-0.3,0.1-0.5,0.2-0.6s0.4-0.2,0.6-0.2
		s0.5,0.1,0.6,0.2s0.2,0.4,0.2,0.6v6.2c0,0.3-0.1,0.5-0.2,0.6S80.3,89.1,80,89.1z"/>
	<path fill="#3E3E3E" d="M83.2,89c-0.3,0-0.5-0.1-0.6-0.2c-0.1-0.1-0.2-0.3-0.2-0.6V82c0-0.3,0.1-0.5,0.2-0.6
		c0.1-0.1,0.3-0.2,0.6-0.2h3.9c0.5,0,0.8,0.2,0.8,0.7c0,0.4-0.3,0.7-0.8,0.7h-3v1.8h2.8c0.5,0,0.8,0.2,0.8,0.7
		c0,0.4-0.3,0.7-0.8,0.7h-2.8v1.9h3c0.5,0,0.8,0.2,0.8,0.7c0,0.4-0.3,0.7-0.8,0.7H83.2z"/>
	<path fill="#3E3E3E" d="M94.6,81.6c0.1-0.2,0.2-0.3,0.3-0.3c0.1-0.1,0.3-0.1,0.4-0.1c0.2,0,0.4,0.1,0.6,0.2
		c0.2,0.1,0.3,0.3,0.3,0.5c0,0.1,0,0.2-0.1,0.3l-3,6.3c-0.1,0.2-0.2,0.3-0.4,0.4c-0.2,0.1-0.3,0.1-0.5,0.1c-0.2,0-0.4,0-0.5-0.1
		c-0.2-0.1-0.3-0.2-0.4-0.4l-3-6.3c-0.1-0.1-0.1-0.2-0.1-0.3c0-0.2,0.1-0.4,0.3-0.5c0.2-0.1,0.4-0.2,0.6-0.2c0.2,0,0.3,0,0.4,0.1
		c0.1,0.1,0.2,0.2,0.3,0.3l2.4,5.1L94.6,81.6z"/>
	<path fill="#3E3E3E" d="M97.8,89c-0.3,0-0.5-0.1-0.6-0.2c-0.1-0.1-0.2-0.3-0.2-0.6V82c0-0.3,0.1-0.5,0.2-0.6
		c0.1-0.1,0.3-0.2,0.6-0.2h3.9c0.5,0,0.8,0.2,0.8,0.7c0,0.4-0.3,0.7-0.8,0.7h-3v1.8h2.8c0.5,0,0.8,0.2,0.8,0.7
		c0,0.4-0.3,0.7-0.8,0.7h-2.8v1.9h3c0.5,0,0.8,0.2,0.8,0.7c0,0.4-0.3,0.7-0.8,0.7H97.8z"/>
	<path fill="#3E3E3E" d="M44.4,100c0.4,0.1,0.8,0.4,1,0.7c0.2,0.3,0.4,0.7,0.4,1.2c0,0.7-0.2,1.2-0.7,1.6c-0.5,0.4-1.1,0.6-2,0.6
		h-2.9c-0.3,0-0.5-0.1-0.6-0.2c-0.1-0.1-0.2-0.3-0.2-0.6V97c0-0.3,0.1-0.5,0.2-0.6c0.1-0.1,0.3-0.2,0.6-0.2H43
		c0.8,0,1.4,0.2,1.9,0.5c0.5,0.4,0.7,0.9,0.7,1.5c0,0.4-0.1,0.8-0.3,1.1C45.1,99.6,44.8,99.8,44.4,100z M41.1,99.4h1.6
		c0.4,0,0.8-0.1,1-0.2c0.2-0.2,0.3-0.4,0.3-0.7c0-0.3-0.1-0.6-0.3-0.7c-0.2-0.2-0.5-0.2-1-0.2h-1.6V99.4z M42.9,102.7
		c0.5,0,0.8-0.1,1-0.2s0.3-0.4,0.3-0.7s-0.1-0.6-0.3-0.8c-0.2-0.2-0.5-0.2-1-0.2h-1.8v2H42.9z"/>
	<path fill="#3E3E3E" d="M47.8,104c-0.3,0-0.5-0.1-0.6-0.2c-0.1-0.1-0.2-0.3-0.2-0.6V97c0-0.3,0.1-0.5,0.2-0.6
		c0.1-0.1,0.3-0.2,0.6-0.2h3.9c0.5,0,0.8,0.2,0.8,0.7c0,0.4-0.3,0.7-0.8,0.7h-3v1.8h2.8c0.5,0,0.8,0.2,0.8,0.7
		c0,0.4-0.3,0.7-0.8,0.7h-2.8v1.9h3c0.5,0,0.8,0.2,0.8,0.7c0,0.4-0.3,0.7-0.8,0.7H47.8z"/>
	<path fill="#3E3E3E" d="M54.3,104c-0.3,0-0.5-0.1-0.6-0.2c-0.1-0.1-0.2-0.3-0.2-0.6V97c0-0.3,0.1-0.5,0.2-0.6
		c0.1-0.1,0.3-0.2,0.6-0.2h2.2c0.8,0,1.6,0.2,2.2,0.5s1.1,0.8,1.4,1.3s0.5,1.3,0.5,2.1c0,0.8-0.2,1.5-0.5,2.1
		c-0.3,0.6-0.8,1-1.4,1.3c-0.6,0.3-1.3,0.5-2.2,0.5H54.3z M56.4,102.6c1.6,0,2.5-0.8,2.5-2.5c0-1.7-0.8-2.5-2.5-2.5h-1.2v5H56.4z"/>
	<path fill="#3E3E3E" d="M68.6,104.1c-0.8,0-1.4-0.2-2-0.5c-0.6-0.3-1-0.8-1.3-1.4c-0.3-0.6-0.5-1.3-0.5-2.1c0-0.8,0.2-1.5,0.5-2.1
		c0.3-0.6,0.7-1.1,1.3-1.4s1.2-0.5,2-0.5c1,0,1.8,0.3,2.5,0.8c0.1,0.1,0.2,0.2,0.2,0.3c0,0.1,0.1,0.2,0.1,0.3c0,0.2-0.1,0.4-0.2,0.5
		c-0.1,0.1-0.2,0.2-0.4,0.2c-0.1,0-0.2,0-0.3,0c-0.1,0-0.2-0.1-0.3-0.1c-0.3-0.2-0.6-0.3-0.8-0.4c-0.2-0.1-0.5-0.1-0.8-0.1
		c-0.7,0-1.2,0.2-1.6,0.7c-0.4,0.4-0.5,1.1-0.5,1.9c0,1.7,0.7,2.6,2.1,2.6c0.3,0,0.5,0,0.8-0.1c0.2-0.1,0.5-0.2,0.8-0.4
		c0.1-0.1,0.2-0.1,0.3-0.1c0.1,0,0.2,0,0.3,0c0.2,0,0.3,0.1,0.4,0.2c0.1,0.1,0.2,0.3,0.2,0.5c0,0.1,0,0.2-0.1,0.3
		c0,0.1-0.1,0.2-0.2,0.3C70.3,103.8,69.5,104.1,68.6,104.1z"/>
	<path fill="#3E3E3E" d="M78.5,96.2c0.3,0,0.5,0.1,0.6,0.2s0.2,0.4,0.2,0.6v6.2c0,0.3-0.1,0.5-0.2,0.6c-0.2,0.2-0.4,0.2-0.6,0.2
		c-0.3,0-0.5-0.1-0.6-0.2c-0.1-0.2-0.2-0.4-0.2-0.6v-2.5h-3.6v2.5c0,0.3-0.1,0.5-0.2,0.6c-0.2,0.2-0.4,0.2-0.6,0.2
		c-0.3,0-0.5-0.1-0.6-0.2s-0.2-0.4-0.2-0.6V97c0-0.3,0.1-0.5,0.2-0.6s0.4-0.2,0.6-0.2s0.5,0.1,0.6,0.2c0.2,0.2,0.2,0.4,0.2,0.6v2.3
		h3.6V97c0-0.3,0.1-0.5,0.2-0.6C78.1,96.3,78.3,96.2,78.5,96.2z"/>
	<path fill="#3E3E3E" d="M88.2,103c0.1,0.1,0.1,0.2,0.1,0.4c0,0.2-0.1,0.4-0.3,0.5c-0.2,0.1-0.3,0.2-0.6,0.2c-0.1,0-0.3,0-0.4-0.1
		c-0.1-0.1-0.2-0.2-0.3-0.4l-0.6-1.3h-3.7l-0.6,1.3c-0.1,0.2-0.2,0.3-0.3,0.4c-0.1,0.1-0.2,0.1-0.4,0.1c-0.2,0-0.4-0.1-0.6-0.2
		c-0.2-0.1-0.3-0.3-0.3-0.5c0-0.1,0-0.2,0.1-0.4l3-6.2c0.1-0.2,0.2-0.3,0.4-0.4c0.2-0.1,0.3-0.1,0.5-0.1c0.2,0,0.4,0,0.5,0.1
		s0.3,0.2,0.4,0.4L88.2,103z M83,101h2.6l-1.3-2.9L83,101z"/>
	<path fill="#3E3E3E" d="M95.1,96.2c0.2,0,0.4,0.1,0.6,0.2c0.2,0.2,0.2,0.4,0.2,0.6v6.2c0,0.3-0.1,0.5-0.2,0.6
		c-0.1,0.2-0.3,0.2-0.6,0.2c-0.3,0-0.5-0.1-0.6-0.3l-3.7-4.7v4.1c0,0.3-0.1,0.5-0.2,0.6c-0.1,0.2-0.3,0.2-0.6,0.2
		c-0.2,0-0.4-0.1-0.6-0.2c-0.1-0.2-0.2-0.4-0.2-0.6V97c0-0.2,0.1-0.5,0.2-0.6c0.2-0.2,0.4-0.2,0.6-0.2c0.3,0,0.5,0.1,0.6,0.3
		l3.7,4.7V97c0-0.2,0.1-0.5,0.2-0.6C94.7,96.3,94.9,96.2,95.1,96.2z"/>
	<path fill="#3E3E3E" d="M103.5,99.7c0.2,0,0.4,0.1,0.5,0.2c0.1,0.1,0.2,0.3,0.2,0.5v2.1c0,0.3,0,0.5-0.1,0.7c0,0.2-0.1,0.3-0.2,0.4
		c-0.1,0.1-0.3,0.2-0.5,0.2c-0.3,0.1-0.6,0.2-1,0.2c-0.4,0.1-0.7,0.1-1,0.1c-0.8,0-1.5-0.2-2.1-0.5c-0.6-0.3-1.1-0.8-1.4-1.4
		c-0.3-0.6-0.5-1.3-0.5-2.1c0-0.8,0.2-1.5,0.5-2.1c0.3-0.6,0.8-1.1,1.4-1.4s1.3-0.5,2.1-0.5c1,0,1.9,0.3,2.5,0.8
		c0.1,0.1,0.2,0.2,0.2,0.3c0,0.1,0.1,0.2,0.1,0.3c0,0.2-0.1,0.4-0.2,0.5c-0.1,0.1-0.2,0.2-0.4,0.2c-0.1,0-0.2,0-0.3,0
		c-0.1,0-0.2-0.1-0.3-0.1c-0.3-0.2-0.6-0.3-0.8-0.4c-0.3-0.1-0.5-0.1-0.8-0.1c-1.5,0-2.2,0.9-2.2,2.6c0,0.9,0.2,1.6,0.6,2
		c0.4,0.4,1,0.7,1.8,0.7c0.4,0,0.8-0.1,1.3-0.2v-1.7h-1c-0.2,0-0.4-0.1-0.5-0.2c-0.1-0.1-0.2-0.2-0.2-0.4c0-0.2,0.1-0.3,0.2-0.4
		c0.1-0.1,0.3-0.2,0.5-0.2H103.5z"/>
	<path fill="#3E3E3E" d="M106.4,104c-0.3,0-0.5-0.1-0.6-0.2c-0.1-0.1-0.2-0.3-0.2-0.6V97c0-0.3,0.1-0.5,0.2-0.6
		c0.1-0.1,0.3-0.2,0.6-0.2h3.9c0.5,0,0.8,0.2,0.8,0.7c0,0.4-0.3,0.7-0.8,0.7h-3v1.8h2.8c0.5,0,0.8,0.2,0.8,0.7
		c0,0.4-0.3,0.7-0.8,0.7h-2.8v1.9h3c0.5,0,0.8,0.2,0.8,0.7c0,0.4-0.3,0.7-0.8,0.7H106.4z"/>
	<path fill="#5CB3E2" stroke="#005888" stroke-miterlimit="10" d="M60.2,43.3v26.1c0,1.3,7.3,2.3,16.3,2.3s16.3-1,16.3-2.3V43.3
		H60.2z"/>
	<path fill="#5CB3E2" d="M60.5,44.4c0,0.6,0.5,1.1,1.1,1.1c0.5,0,1-0.3,1.1-0.8c0-0.1,0-0.1,0-0.2c0,0,0-0.1,0-0.1
		c0-0.6-0.5-1.1-1.1-1.1C61,43.3,60.5,43.8,60.5,44.4z"/>
	<path fill="#5CB3E2" d="M63.2,44.9c0,0.6,0.5,1.1,1.1,1.1c0.5,0,0.9-0.3,1.1-0.8c0-0.1,0-0.2,0.1-0.3c0-0.6-0.5-1.1-1.1-1.1
		C63.7,43.7,63.2,44.3,63.2,44.9z"/>
	<path fill="#5CB3E2" d="M67,46.3c0.5,0,0.9-0.3,1.1-0.8c0-0.1,0-0.1,0-0.2c0-0.1,0-0.2,0-0.3c-0.1-0.5-0.6-0.9-1.1-0.9
		c-0.6,0-1.1,0.5-1.1,1.1C65.9,45.8,66.4,46.3,67,46.3z"/>
	<path fill="#5CB3E2" d="M69.7,46.5c0.5,0,1-0.3,1.1-0.8c0-0.1,0-0.1,0-0.2c0-0.1,0-0.2,0-0.3c-0.1-0.5-0.6-0.9-1.1-0.9
		c-0.6,0-1.1,0.5-1.1,1.1C68.6,46,69.1,46.5,69.7,46.5z"/>
	<path fill="#5CB3E2" d="M72.4,46.6c0.5,0,1-0.3,1.1-0.8c0-0.1,0-0.1,0-0.2c0-0.1,0-0.2,0-0.3c-0.1-0.5-0.6-0.9-1.1-0.9
		c-0.6,0-1.1,0.5-1.1,1.1C71.3,46.1,71.8,46.6,72.4,46.6z"/>
	<path fill="#5CB3E2" d="M75.1,46.7c0.6,0,1.1-0.5,1.1-1.1s-0.5-1.1-1.1-1.1c-0.6,0-1.1,0.5-1.1,1.1S74.5,46.7,75.1,46.7z"/>
	<path fill="#5CB3E2" d="M77.9,46.7c0.6,0,1.1-0.5,1.1-1.1c0-0.6-0.5-1.1-1.1-1.1c-0.6,0-1.1,0.5-1.1,1.1
		C76.8,46.2,77.3,46.7,77.9,46.7z"/>
	<path fill="#5CB3E2" d="M80.7,46.6c0.5,0,0.9-0.3,1-0.7c-0.1-0.2-0.1-0.4-0.1-0.6c0-0.1,0-0.3,0.1-0.4c-0.2-0.3-0.6-0.6-1-0.6
		c-0.6,0-1.1,0.5-1.1,1.1C79.6,46.1,80.1,46.6,80.7,46.6z"/>
	<path fill="#5CB3E2" d="M83.3,46.5c0.6,0,1-0.4,1.1-0.9c0-0.1,0-0.2,0-0.3c0-0.1,0-0.1,0-0.2c-0.1-0.5-0.6-0.8-1.1-0.8
		c-0.6,0-1.1,0.5-1.1,1.1C82.1,46,82.6,46.5,83.3,46.5z"/>
	<path fill="#5CB3E2" d="M86,46.3c0.6,0,1.1-0.5,1.1-1.1c0-0.1-0.1-0.2-0.1-0.3c-0.1-0.5-0.6-0.8-1.1-0.8c-0.6,0-1.1,0.5-1.1,1.1
		C84.8,45.8,85.4,46.3,86,46.3z"/>
	<path fill="#5CB3E2" d="M88.7,46c0.6,0,1.1-0.5,1.1-1.1c0,0,0-0.1,0-0.1c0-0.1,0-0.1,0-0.2c-0.1-0.5-0.6-0.8-1.1-0.8
		c-0.6,0-1.1,0.5-1.1,1.1C87.6,45.5,88.1,46,88.7,46z"/>
	<path fill="#5CB3E2" d="M91.4,45.5c0.6,0,1.1-0.5,1.1-1.1c0-0.6-0.5-1.1-1.1-1.1c-0.6,0-1.1,0.5-1.1,1.1
		C90.2,45,90.7,45.5,91.4,45.5z"/>
	<path fill="#5CB3E2" d="M60.5,47.2c0,0.6,0.5,1.1,1.1,1.1c0.5,0,1-0.3,1.1-0.8c0-0.1,0-0.1,0-0.2c0,0,0-0.1,0-0.1
		c0-0.6-0.5-1.1-1.1-1.1C61,46,60.5,46.5,60.5,47.2z"/>
	<path fill="#5CB3E2" d="M63.2,47.6c0,0.6,0.5,1.1,1.1,1.1c0.5,0,0.9-0.3,1.1-0.8c0-0.1,0-0.2,0.1-0.3c0-0.6-0.5-1.1-1.1-1.1
		C63.7,46.5,63.2,47,63.2,47.6z"/>
	<path fill="#5CB3E2" d="M65.9,48c0,0.6,0.5,1.1,1.1,1.1c0.5,0,0.9-0.3,1.1-0.8c0-0.1,0-0.1,0-0.2c0-0.1,0-0.2,0-0.3
		c-0.1-0.5-0.6-0.9-1.1-0.9C66.4,46.9,65.9,47.4,65.9,48z"/>
	<path fill="#5CB3E2" d="M68.6,48.1c0,0.6,0.5,1.1,1.1,1.1c0.5,0,1-0.3,1.1-0.8c0-0.1,0-0.1,0-0.2c0-0.1,0-0.2,0-0.3
		c-0.1-0.5-0.6-0.9-1.1-0.9C69.1,47,68.6,47.5,68.6,48.1z"/>
	<path fill="#5CB3E2" d="M71.3,48.3c0,0.6,0.5,1.1,1.1,1.1c0.5,0,1-0.3,1.1-0.8c0-0.1,0-0.1,0-0.2c0-0.1,0-0.2,0-0.3
		c-0.1-0.5-0.6-0.9-1.1-0.9C71.8,47.2,71.3,47.7,71.3,48.3z"/>
	<path fill="#5CB3E2" d="M75.1,49.5c0.6,0,1.1-0.5,1.1-1.1c0-0.6-0.5-1.1-1.1-1.1c-0.6,0-1.1,0.5-1.1,1.1C74,49,74.5,49.5,75.1,49.5
		z"/>
	<path fill="#5CB3E2" d="M77.9,49.5c0.6,0,1.1-0.5,1.1-1.1c0-0.6-0.5-1.1-1.1-1.1c-0.6,0-1.1,0.5-1.1,1.1
		C76.8,49,77.3,49.5,77.9,49.5z"/>
	<path fill="#5CB3E2" d="M79.6,48.3c0,0.6,0.5,1.1,1.1,1.1c0.5,0,0.9-0.3,1-0.7c-0.1-0.2-0.1-0.4-0.1-0.6c0-0.1,0-0.3,0.1-0.4
		c-0.2-0.3-0.6-0.6-1-0.6C80.1,47.2,79.6,47.7,79.6,48.3z"/>
	<path fill="#5CB3E2" d="M82.1,48.1c0,0.6,0.5,1.1,1.1,1.1c0.6,0,1-0.4,1.1-0.9c0-0.1,0-0.2,0-0.3c0-0.1,0-0.1,0-0.2
		c-0.1-0.5-0.6-0.8-1.1-0.8C82.6,47,82.1,47.5,82.1,48.1z"/>
	<path fill="#5CB3E2" d="M84.8,48c0,0.6,0.5,1.1,1.1,1.1c0.6,0,1.1-0.5,1.1-1.1c0-0.1-0.1-0.2-0.1-0.3c-0.1-0.5-0.6-0.8-1.1-0.8
		C85.4,46.9,84.8,47.4,84.8,48z"/>
	<path fill="#5CB3E2" d="M88.7,46.5c-0.6,0-1.1,0.5-1.1,1.1c0,0.6,0.5,1.1,1.1,1.1c0.6,0,1.1-0.5,1.1-1.1c0,0,0-0.1,0-0.1
		c0-0.1,0-0.1,0-0.2C89.6,46.8,89.2,46.5,88.7,46.5z"/>
	<path fill="#5CB3E2" d="M91.4,48.3c0.6,0,1.1-0.5,1.1-1.1c0-0.6-0.5-1.1-1.1-1.1c-0.6,0-1.1,0.5-1.1,1.1
		C90.2,47.8,90.7,48.3,91.4,48.3z"/>
	<path fill="#005888" d="M93,47.2c0-0.6-0.3-1.1-0.7-1.4c0.4-0.3,0.7-0.8,0.7-1.4c0-0.9-0.7-1.6-1.6-1.6c-0.7,0-1.2,0.4-1.5,1
		c-0.3-0.3-0.7-0.5-1.2-0.5c-0.7,0-1.2,0.4-1.5,0.9c-0.3-0.3-0.7-0.6-1.2-0.6c-0.6,0-1.1,0.3-1.4,0.8c-0.3-0.4-0.8-0.6-1.3-0.6
		c-0.6,0-1,0.3-1.3,0.7c-0.3-0.3-0.7-0.6-1.2-0.6c-0.6,0-1.1,0.3-1.4,0.8C79,44.3,78.5,44,77.9,44c-0.6,0-1.1,0.3-1.4,0.8
		c-0.3-0.4-0.8-0.8-1.4-0.8c-0.5,0-1,0.3-1.3,0.7c-0.3-0.4-0.8-0.8-1.4-0.8c-0.5,0-1,0.3-1.3,0.7c-0.3-0.5-0.8-0.8-1.4-0.8
		c-0.5,0-1,0.3-1.3,0.6c-0.3-0.5-0.8-0.8-1.4-0.8c-0.5,0-0.9,0.2-1.2,0.6c-0.3-0.6-0.8-0.9-1.5-0.9c-0.5,0-0.9,0.2-1.2,0.5
		c-0.3-0.6-0.8-1-1.5-1c-0.9,0-1.6,0.7-1.6,1.6c0,0.6,0.3,1.1,0.7,1.4c-0.4,0.3-0.7,0.8-0.7,1.4c0,0.6,0.3,1.1,0.7,1.4
		c-0.4,0.3-0.7,0.8-0.7,1.4c0,0.6,0.3,1.1,0.7,1.4c-0.4,0.3-0.7,0.8-0.7,1.4c0,0.6,0.3,1.1,0.7,1.4c-0.4,0.3-0.7,0.8-0.7,1.4
		c0,0.6,0.3,1.1,0.7,1.4c-0.4,0.3-0.7,0.8-0.7,1.4c0,0.6,0.3,1.1,0.7,1.4c-0.4,0.3-0.7,0.8-0.7,1.4c0,0.6,0.3,1.1,0.7,1.4
		c-0.4,0.3-0.7,0.8-0.7,1.4s0.3,1.1,0.7,1.4c-0.4,0.3-0.7,0.8-0.7,1.4c0,0.6,0.3,1.1,0.7,1.4c-0.4,0.3-0.7,0.8-0.7,1.4
		c0,0.9,0.7,1.6,1.6,1.6c0.5,0,0.9-0.2,1.2-0.5c0.3,0.6,0.8,1,1.5,1c0.5,0,0.9-0.2,1.2-0.6c0.3,0.6,0.8,0.9,1.5,0.9
		c0.5,0,1-0.3,1.3-0.6c0.3,0.5,0.8,0.8,1.4,0.8c0.5,0,1-0.3,1.3-0.7c0.3,0.5,0.8,0.8,1.4,0.8c0.5,0,1-0.3,1.3-0.7
		c0.3,0.4,0.8,0.8,1.4,0.8s1.1-0.3,1.4-0.8c0.3,0.4,0.8,0.8,1.4,0.8s1.1-0.3,1.4-0.8c0.3,0.4,0.8,0.7,1.3,0.7c0.6,0,1-0.3,1.3-0.7
		c0.3,0.3,0.7,0.6,1.2,0.6c0.6,0,1.1-0.3,1.4-0.8c0.3,0.4,0.8,0.6,1.3,0.6c0.7,0,1.2-0.4,1.5-0.9c0.3,0.3,0.7,0.6,1.2,0.6
		c0.7,0,1.2-0.4,1.5-1c0.3,0.3,0.7,0.5,1.2,0.5c0.9,0,1.6-0.7,1.6-1.6c0-0.6-0.3-1.1-0.7-1.4c0.4-0.3,0.7-0.8,0.7-1.4
		c0-0.6-0.3-1.1-0.7-1.4c0.4-0.3,0.7-0.8,0.7-1.4s-0.3-1.1-0.7-1.4c0.4-0.3,0.7-0.8,0.7-1.4c0-0.6-0.3-1.1-0.7-1.4
		c0.4-0.3,0.7-0.8,0.7-1.4c0-0.6-0.3-1.1-0.7-1.4c0.4-0.3,0.7-0.8,0.7-1.4c0-0.6-0.3-1.1-0.7-1.4c0.4-0.3,0.7-0.8,0.7-1.4
		c0-0.6-0.3-1.1-0.7-1.4c0.4-0.3,0.7-0.8,0.7-1.4c0-0.6-0.3-1.1-0.7-1.4C92.7,48.2,93,47.7,93,47.2z M91.4,70.3
		c-0.6,0-1.1-0.5-1.1-1.1c0-0.6,0.5-1.1,1.1-1.1c0.6,0,1.1,0.5,1.1,1.1C92.5,69.8,92,70.3,91.4,70.3z M89.8,69.5c0,0,0,0.1,0,0.1
		c0,0.6-0.5,1.1-1.1,1.1c-0.6,0-1.1-0.5-1.1-1.1c0-0.6,0.5-1.1,1.1-1.1c0.5,0,1,0.3,1.1,0.8C89.7,69.4,89.7,69.5,89.8,69.5z
		 M86,71.1c-0.6,0-1.1-0.5-1.1-1.1c0-0.6,0.5-1.1,1.1-1.1c0.5,0,0.9,0.3,1.1,0.8c0,0.1,0,0.2,0.1,0.3C87,70.6,86.6,71.1,86,71.1z
		 M84.3,70.3c-0.1,0.5-0.6,0.9-1.1,0.9c-0.6,0-1.1-0.5-1.1-1.1c0-0.6,0.5-1.1,1.1-1.1c0.5,0,0.9,0.3,1.1,0.8c0,0.1,0,0.1,0,0.2
		C84.3,70.1,84.3,70.2,84.3,70.3z M79.6,70.3c0-0.6,0.5-1.1,1.1-1.1c0.4,0,0.8,0.2,1,0.6c0,0.1-0.1,0.3-0.1,0.4c0,0.2,0,0.4,0.1,0.6
		c-0.2,0.4-0.6,0.7-1,0.7C80.1,71.4,79.6,70.9,79.6,70.3z M76.8,70.3c0-0.6,0.5-1.1,1.1-1.1c0.6,0,1.1,0.5,1.1,1.1
		c0,0.6-0.5,1.1-1.1,1.1C77.3,71.4,76.8,71,76.8,70.3z M74,70.4c0-0.6,0.5-1.1,1.1-1.1c0.6,0,1.1,0.5,1.1,1.1c0,0.6-0.5,1.1-1.1,1.1
		C74.5,71.5,74,71,74,70.4z M73.5,70.5c-0.1,0.5-0.6,0.8-1.1,0.8c-0.6,0-1.1-0.5-1.1-1.1c0-0.6,0.5-1.1,1.1-1.1c0.5,0,1,0.4,1.1,0.9
		c0,0.1,0,0.2,0,0.3C73.5,70.4,73.5,70.5,73.5,70.5z M70.8,70.4c-0.1,0.5-0.6,0.8-1.1,0.8c-0.6,0-1.1-0.5-1.1-1.1
		c0-0.6,0.5-1.1,1.1-1.1c0.6,0,1,0.4,1.1,0.9c0,0.1,0,0.2,0,0.3C70.8,70.3,70.8,70.4,70.8,70.4z M68.1,70.3
		c-0.1,0.5-0.6,0.8-1.1,0.8c-0.6,0-1.1-0.5-1.1-1.1c0-0.6,0.5-1.1,1.1-1.1c0.6,0,1,0.4,1.1,0.9c0,0.1,0,0.2,0,0.3
		C68.1,70.2,68.1,70.2,68.1,70.3z M65.4,69.9c-0.1,0.5-0.6,0.8-1.1,0.8c-0.6,0-1.1-0.5-1.1-1.1c0-0.6,0.5-1.1,1.1-1.1
		c0.6,0,1.1,0.5,1.1,1.1C65.4,69.7,65.4,69.8,65.4,69.9z M62.7,69.4c-0.1,0.5-0.6,0.8-1.1,0.8c-0.6,0-1.1-0.5-1.1-1.1
		c0-0.6,0.5-1.1,1.1-1.1c0.6,0,1.1,0.5,1.1,1.1c0,0,0,0.1,0,0.1C62.7,69.3,62.7,69.4,62.7,69.4z M62.8,44.4c0,0,0,0.1,0,0.1
		c0,0.1,0,0.1,0,0.2c-0.1,0.5-0.6,0.8-1.1,0.8c-0.6,0-1.1-0.5-1.1-1.1c0-0.6,0.5-1.1,1.1-1.1C62.3,43.3,62.8,43.8,62.8,44.4z
		 M64.3,43.7c0.6,0,1.1,0.5,1.1,1.1c0,0.1-0.1,0.2-0.1,0.3c-0.1,0.5-0.6,0.8-1.1,0.8c-0.6,0-1.1-0.5-1.1-1.1
		C63.2,44.3,63.7,43.7,64.3,43.7z M65.9,45.2c0-0.6,0.5-1.1,1.1-1.1c0.6,0,1,0.4,1.1,0.9c0,0.1,0,0.2,0,0.3c0,0.1,0,0.1,0,0.2
		C68,46,67.5,46.3,67,46.3C66.4,46.3,65.9,45.9,65.9,45.2z M68.6,45.4c0-0.6,0.5-1.1,1.1-1.1c0.6,0,1,0.4,1.1,0.9c0,0.1,0,0.2,0,0.3
		c0,0.1,0,0.1,0,0.2c-0.1,0.5-0.6,0.8-1.1,0.8C69.1,46.5,68.6,46,68.6,45.4z M71.3,45.5c0-0.6,0.5-1.1,1.1-1.1c0.5,0,1,0.4,1.1,0.9
		c0,0.1,0,0.2,0,0.3c0,0.1,0,0.1,0,0.2c-0.1,0.5-0.6,0.8-1.1,0.8C71.8,46.6,71.3,46.1,71.3,45.5z M74,45.6c0-0.6,0.5-1.1,1.1-1.1
		c0.6,0,1.1,0.5,1.1,1.1c0,0.6-0.5,1.1-1.1,1.1C74.5,46.7,74,46.2,74,45.6z M77.9,44.5c0.6,0,1.1,0.5,1.1,1.1s-0.5,1.1-1.1,1.1
		c-0.6,0-1.1-0.5-1.1-1.1S77.3,44.5,77.9,44.5z M80.7,44.4c0.4,0,0.8,0.2,1,0.6c0,0.1-0.1,0.3-0.1,0.4c0,0.2,0,0.4,0.1,0.6
		c-0.2,0.4-0.6,0.7-1,0.7c-0.6,0-1.1-0.5-1.1-1.1C79.6,44.9,80.1,44.4,80.7,44.4z M83.3,44.3c0.5,0,0.9,0.3,1.1,0.8
		c0,0.1,0,0.1,0,0.2c0,0.1,0,0.2,0,0.3c-0.1,0.5-0.6,0.9-1.1,0.9c-0.6,0-1.1-0.5-1.1-1.1C82.2,44.8,82.6,44.3,83.3,44.3z M84.8,45.2
		c0-0.6,0.5-1.1,1.1-1.1c0.5,0,0.9,0.3,1.1,0.8c0,0.1,0,0.2,0.1,0.3c0,0.6-0.5,1.1-1.1,1.1C85.4,46.3,84.8,45.9,84.8,45.2z
		 M88.7,43.7c0.5,0,1,0.3,1.1,0.8c0,0.1,0,0.1,0,0.2c0,0,0,0.1,0,0.1c0,0.6-0.5,1.1-1.1,1.1c-0.6,0-1.1-0.5-1.1-1.1
		C87.5,44.3,88.1,43.7,88.7,43.7z M90.2,44.4c0-0.6,0.5-1.1,1.1-1.1c0.6,0,1.1,0.5,1.1,1.1c0,0.6-0.5,1.1-1.1,1.1
		C90.8,45.5,90.2,45,90.2,44.4z M89.9,68.5c-0.1-0.1-0.2-0.2-0.3-0.3c0.3-0.2,0.5-0.4,0.6-0.7c0.1,0.1,0.2,0.2,0.3,0.3
		C90.2,68,90,68.2,89.9,68.5z M86.8,68.6c0.3-0.2,0.4-0.4,0.6-0.7c0.1,0.1,0.2,0.2,0.3,0.3c-0.3,0.2-0.4,0.4-0.6,0.7
		C87.1,68.8,87,68.7,86.8,68.6z M81.6,68.9c0.2-0.1,0.3-0.3,0.4-0.4c0.1,0.1,0.2,0.2,0.3,0.3c-0.2,0.1-0.3,0.3-0.4,0.4
		C81.8,69.1,81.7,69,81.6,68.9z M65.8,68.9c-0.1-0.3-0.3-0.5-0.6-0.7c0.1-0.1,0.2-0.2,0.3-0.3c0.1,0.3,0.3,0.5,0.6,0.7
		C66,68.7,65.9,68.8,65.8,68.9z M63.1,68.5c-0.1-0.3-0.3-0.6-0.6-0.7c0.1-0.1,0.2-0.2,0.3-0.3c0.1,0.3,0.3,0.6,0.6,0.7
		C63.3,68.3,63.2,68.4,63.1,68.5z M62.8,45.5c0.1,0.3,0.3,0.6,0.6,0.7c-0.1,0.1-0.2,0.2-0.3,0.3c-0.1-0.3-0.3-0.6-0.6-0.7
		C62.6,45.7,62.7,45.6,62.8,45.5z M65.6,45.9c0.1,0.3,0.3,0.5,0.6,0.7c-0.1,0.1-0.2,0.2-0.3,0.3c-0.1-0.3-0.3-0.5-0.6-0.7
		C65.3,46.2,65.5,46,65.6,45.9z M82.4,46.8c-0.2,0.1-0.3,0.3-0.4,0.4c-0.1-0.1-0.2-0.2-0.3-0.3c0.2-0.1,0.3-0.3,0.4-0.4
		C82.1,46.6,82.2,46.7,82.4,46.8z M87.8,46.2c-0.3,0.2-0.4,0.4-0.6,0.7c-0.1-0.1-0.2-0.2-0.3-0.3c0.3-0.2,0.4-0.4,0.6-0.7
		C87.5,46,87.7,46.2,87.8,46.2z M90.5,45.8c-0.3,0.2-0.5,0.4-0.6,0.7c-0.1-0.1-0.2-0.2-0.3-0.3c0.3-0.2,0.5-0.4,0.6-0.7
		C90.2,45.6,90.4,45.7,90.5,45.8z M89.8,47.5c0,0,0,0.1,0,0.1c0,0.6-0.5,1.1-1.1,1.1c-0.6,0-1.1-0.5-1.1-1.1c0-0.6,0.5-1.1,1.1-1.1
		c0.5,0,1,0.3,1.1,0.8C89.7,47.4,89.7,47.4,89.8,47.5z M89.8,50.3c0,0,0,0.1,0,0.1c0,0.6-0.5,1.1-1.1,1.1c-0.6,0-1.1-0.5-1.1-1.1
		c0-0.6,0.5-1.1,1.1-1.1c0.5,0,1,0.3,1.1,0.8C89.7,50.1,89.7,50.2,89.8,50.3z M89.8,53c0,0,0,0.1,0,0.1c0,0.6-0.5,1.1-1.1,1.1
		c-0.6,0-1.1-0.5-1.1-1.1c0-0.6,0.5-1.1,1.1-1.1c0.5,0,1,0.3,1.1,0.8C89.7,52.9,89.7,52.9,89.8,53z M89.8,55.8c0,0,0,0.1,0,0.1
		c0,0.6-0.5,1.1-1.1,1.1c-0.6,0-1.1-0.5-1.1-1.1c0-0.6,0.5-1.1,1.1-1.1c0.5,0,1,0.3,1.1,0.8C89.7,55.6,89.7,55.7,89.8,55.8z
		 M89.8,58.5c0,0,0,0.1,0,0.1c0,0.6-0.5,1.1-1.1,1.1c-0.6,0-1.1-0.5-1.1-1.1c0-0.6,0.5-1.1,1.1-1.1c0.5,0,1,0.3,1.1,0.8
		C89.7,58.4,89.7,58.4,89.8,58.5z M89.8,61.3c0,0,0,0.1,0,0.1c0,0.6-0.5,1.1-1.1,1.1c-0.6,0-1.1-0.5-1.1-1.1c0-0.6,0.5-1.1,1.1-1.1
		c0.5,0,1,0.3,1.1,0.8C89.7,61.1,89.7,61.2,89.8,61.3z M89.8,64c0,0,0,0.1,0,0.1c0,0.6-0.5,1.1-1.1,1.1c-0.6,0-1.1-0.5-1.1-1.1
		c0-0.6,0.5-1.1,1.1-1.1c0.5,0,1,0.3,1.1,0.8C89.7,63.9,89.7,64,89.8,64z M89.8,66.8c0,0,0,0.1,0,0.1c0,0.6-0.5,1.1-1.1,1.1
		c-0.6,0-1.1-0.5-1.1-1.1c0-0.6,0.5-1.1,1.1-1.1c0.5,0,1,0.3,1.1,0.8C89.7,66.6,89.7,66.7,89.8,66.8z M63.2,66.9
		c0-0.6,0.5-1.1,1.1-1.1c0.6,0,1.1,0.5,1.1,1.1c0,0.1-0.1,0.2-0.1,0.3c-0.1,0.5-0.6,0.8-1.1,0.8C63.7,68,63.2,67.5,63.2,66.9z
		 M64.3,46.5c0.6,0,1.1,0.5,1.1,1.1c0,0.1-0.1,0.2-0.1,0.3c-0.1,0.5-0.6,0.8-1.1,0.8c-0.6,0-1.1-0.5-1.1-1.1
		C63.2,47,63.7,46.5,64.3,46.5z M86,65.6c-0.6,0-1.1-0.5-1.1-1.1c0-0.6,0.5-1.1,1.1-1.1c0.5,0,0.9,0.3,1.1,0.8c0,0.1,0,0.2,0.1,0.3
		C87,65.1,86.6,65.6,86,65.6z M81.6,66.1c0.2-0.1,0.3-0.3,0.4-0.4c0.1,0.1,0.2,0.2,0.3,0.3c-0.2,0.1-0.3,0.3-0.4,0.4
		C81.8,66.3,81.7,66.2,81.6,66.1z M78.8,63.5c0.2-0.1,0.4-0.3,0.5-0.5c0.1,0.2,0.3,0.3,0.4,0.4c-0.2,0.1-0.4,0.3-0.5,0.5
		C79.2,63.7,79,63.6,78.8,63.5z M65.9,61.7c0-0.6,0.5-1.1,1.1-1.1c0.6,0,1,0.4,1.1,0.9c0,0.1,0,0.2,0,0.3c0,0.1,0,0.1,0,0.2
		c-0.1,0.5-0.6,0.8-1.1,0.8C66.4,62.9,65.9,62.4,65.9,61.7z M65.9,59c0-0.6,0.5-1.1,1.1-1.1c0.6,0,1,0.4,1.1,0.9c0,0.1,0,0.2,0,0.3
		c0,0.1,0,0.1,0,0.2c-0.1,0.5-0.6,0.8-1.1,0.8C66.4,60.1,65.9,59.6,65.9,59z M65.9,56.2c0-0.6,0.5-1.1,1.1-1.1c0.6,0,1,0.4,1.1,0.9
		c0,0.1,0,0.2,0,0.3c0,0.1,0,0.1,0,0.2C68,57,67.5,57.4,67,57.4C66.4,57.4,65.9,56.9,65.9,56.2z M65.9,53.5c0-0.6,0.5-1.1,1.1-1.1
		c0.6,0,1,0.4,1.1,0.9c0,0.1,0,0.2,0,0.3c0,0.1,0,0.1,0,0.2c-0.1,0.5-0.6,0.8-1.1,0.8C66.4,54.6,65.9,54.1,65.9,53.5z M73.5,62.3
		c-0.1,0.5-0.6,0.8-1.1,0.8c-0.6,0-1.1-0.5-1.1-1.1c0-0.6,0.5-1.1,1.1-1.1c0.5,0,1,0.4,1.1,0.9c0,0.1,0,0.2,0,0.3
		C73.5,62.2,73.5,62.2,73.5,62.3z M73.5,59.6c-0.1,0.5-0.6,0.8-1.1,0.8c-0.6,0-1.1-0.5-1.1-1.1c0-0.6,0.5-1.1,1.1-1.1
		c0.5,0,1,0.4,1.1,0.9c0,0.1,0,0.2,0,0.3C73.5,59.4,73.5,59.5,73.5,59.6z M71.1,61c-0.1-0.2-0.3-0.4-0.5-0.5
		c0.2-0.1,0.3-0.2,0.4-0.4c0.1,0.2,0.3,0.4,0.5,0.5C71.4,60.7,71.2,60.9,71.1,61z M68.6,59.1c0-0.6,0.5-1.1,1.1-1.1
		c0.6,0,1,0.4,1.1,0.9c0,0.1,0,0.2,0,0.3c0,0.1,0,0.1,0,0.2c-0.1,0.5-0.6,0.8-1.1,0.8C69.1,60.2,68.6,59.7,68.6,59.1z M68.6,56.4
		c0-0.6,0.5-1.1,1.1-1.1c0.6,0,1,0.4,1.1,0.9c0,0.1,0,0.2,0,0.3c0,0.1,0,0.1,0,0.2c-0.1,0.5-0.6,0.8-1.1,0.8
		C69.1,57.5,68.6,57,68.6,56.4z M71,54.6c0.1,0.2,0.3,0.4,0.5,0.5c-0.2,0.1-0.3,0.2-0.4,0.4c-0.1-0.2-0.3-0.4-0.5-0.5
		C70.8,54.9,70.9,54.8,71,54.6z M73.5,56.8c-0.1,0.5-0.6,0.8-1.1,0.8c-0.6,0-1.1-0.5-1.1-1.1c0-0.6,0.5-1.1,1.1-1.1
		c0.5,0,1,0.4,1.1,0.9c0,0.1,0,0.2,0,0.3C73.5,56.7,73.5,56.7,73.5,56.8z M71,57.4c0.1,0.2,0.3,0.4,0.5,0.5
		c-0.2,0.1-0.3,0.2-0.4,0.4c-0.1-0.2-0.3-0.4-0.5-0.5C70.8,57.6,70.9,57.5,71,57.4z M73.5,54.1c-0.1,0.5-0.6,0.8-1.1,0.8
		c-0.6,0-1.1-0.5-1.1-1.1c0-0.6,0.5-1.1,1.1-1.1c0.5,0,1,0.4,1.1,0.9c0,0.1,0,0.2,0,0.3C73.5,53.9,73.5,54,73.5,54.1z M71.1,52.8
		c-0.1-0.2-0.3-0.4-0.5-0.5c0.2-0.1,0.3-0.2,0.4-0.4c0.1,0.2,0.3,0.4,0.5,0.5C71.4,52.5,71.2,52.6,71.1,52.8z M70.8,53.4
		c0,0.1,0,0.2,0,0.3c0,0.1,0,0.1,0,0.2c-0.1,0.5-0.6,0.8-1.1,0.8c-0.6,0-1.1-0.5-1.1-1.1c0-0.6,0.5-1.1,1.1-1.1
		C70.3,52.5,70.7,52.9,70.8,53.4z M68.6,61.9c0-0.6,0.5-1.1,1.1-1.1c0.6,0,1,0.4,1.1,0.9c0,0.1,0,0.2,0,0.3c0,0.1,0,0.1,0,0.2
		c-0.1,0.5-0.6,0.8-1.1,0.8C69.1,63,68.6,62.5,68.6,61.9z M71,62.9c0.1,0.2,0.3,0.4,0.5,0.5c-0.2,0.1-0.3,0.2-0.4,0.4
		c-0.1-0.2-0.3-0.4-0.5-0.5C70.8,63.1,70.9,63,71,62.9z M73.8,58.4c-0.1-0.2-0.3-0.4-0.5-0.5c0.2-0.1,0.3-0.2,0.4-0.4
		c0.1,0.2,0.3,0.4,0.5,0.5C74.1,58.1,73.9,58.2,73.8,58.4z M74,56.6c0-0.6,0.5-1.1,1.1-1.1c0.6,0,1.1,0.5,1.1,1.1
		c0,0.6-0.5,1.1-1.1,1.1C74.5,57.7,74,57.2,74,56.6z M73.8,55.6c-0.1-0.2-0.3-0.4-0.5-0.5c0.2-0.1,0.3-0.2,0.4-0.4
		c0.1,0.2,0.3,0.4,0.5,0.5C74.1,55.4,73.9,55.5,73.8,55.6z M68.3,51.7c0.1,0.2,0.3,0.4,0.5,0.5c-0.2,0.1-0.3,0.2-0.4,0.4
		c-0.1-0.2-0.3-0.4-0.5-0.5C68.1,52,68.2,51.9,68.3,51.7z M68.3,54.5c0.1,0.2,0.3,0.4,0.5,0.5c-0.2,0.1-0.3,0.2-0.4,0.4
		c-0.1-0.2-0.3-0.4-0.5-0.5C68.1,54.8,68.2,54.6,68.3,54.5z M68.3,57.2c0.1,0.2,0.3,0.4,0.5,0.5c-0.2,0.1-0.3,0.2-0.4,0.4
		c-0.1-0.2-0.3-0.4-0.5-0.5C68.1,57.5,68.2,57.4,68.3,57.2z M68.3,60c0.1,0.2,0.3,0.4,0.5,0.5c-0.2,0.1-0.3,0.2-0.4,0.4
		c-0.1-0.2-0.3-0.4-0.5-0.5C68.1,60.3,68.2,60.1,68.3,60z M68.3,62.7c0.1,0.2,0.3,0.4,0.5,0.5c-0.2,0.1-0.3,0.2-0.4,0.4
		c-0.1-0.2-0.3-0.4-0.5-0.5C68.1,63,68.2,62.9,68.3,62.7z M73.8,61.1c-0.1-0.2-0.3-0.4-0.5-0.5c0.2-0.1,0.3-0.2,0.4-0.4
		c0.1,0.2,0.3,0.4,0.5,0.5C74.1,60.8,73.9,61,73.8,61.1z M74,59.4c0-0.6,0.5-1.1,1.1-1.1c0.6,0,1.1,0.5,1.1,1.1
		c0,0.6-0.5,1.1-1.1,1.1C74.5,60.5,74,60,74,59.4z M75.1,55c-0.6,0-1.1-0.5-1.1-1.1c0-0.6,0.5-1.1,1.1-1.1c0.6,0,1.1,0.5,1.1,1.1
		C76.2,54.5,75.7,55,75.1,55z M73.8,52.9c-0.1-0.2-0.3-0.4-0.5-0.5c0.2-0.1,0.3-0.2,0.4-0.4c0.1,0.2,0.3,0.4,0.5,0.5
		C74.1,52.6,73.9,52.7,73.8,52.9z M73.5,50.8c0,0.1,0,0.2,0,0.3c0,0.1,0,0.1,0,0.2c-0.1,0.5-0.6,0.8-1.1,0.8c-0.6,0-1.1-0.5-1.1-1.1
		c0-0.6,0.5-1.1,1.1-1.1C73,49.9,73.4,50.3,73.5,50.8z M71.1,50c-0.1-0.2-0.3-0.4-0.5-0.5c0.2-0.1,0.3-0.2,0.4-0.4
		c0.1,0.2,0.3,0.4,0.5,0.5C71.4,49.7,71.2,49.9,71.1,50z M70.8,50.7c0,0.1,0,0.2,0,0.3c0,0.1,0,0.1,0,0.2c-0.1,0.5-0.6,0.8-1.1,0.8
		c-0.6,0-1.1-0.5-1.1-1.1c0-0.6,0.5-1.1,1.1-1.1C70.3,49.8,70.7,50.2,70.8,50.7z M68.4,49.9c-0.1-0.2-0.3-0.4-0.5-0.5
		c0.2-0.1,0.3-0.2,0.4-0.4c0.1,0.2,0.3,0.4,0.5,0.5C68.7,49.6,68.5,49.7,68.4,49.9z M68.1,50.6c0,0.1,0,0.2,0,0.3c0,0.1,0,0.1,0,0.2
		c-0.1,0.5-0.6,0.8-1.1,0.8c-0.6,0-1.1-0.5-1.1-1.1c0-0.6,0.5-1.1,1.1-1.1C67.6,49.6,68,50,68.1,50.6z M65.9,64.5
		c0-0.6,0.5-1.1,1.1-1.1c0.6,0,1,0.4,1.1,0.9c0,0.1,0,0.2,0,0.3c0,0.1,0,0.1,0,0.2c-0.1,0.5-0.6,0.8-1.1,0.8
		C66.4,65.6,65.9,65.1,65.9,64.5z M68.3,65.5c0.1,0.2,0.3,0.4,0.5,0.5c-0.2,0.1-0.3,0.2-0.4,0.4c-0.1-0.2-0.3-0.4-0.5-0.5
		C68.1,65.8,68.2,65.6,68.3,65.5z M68.6,64.6c0-0.6,0.5-1.1,1.1-1.1c0.6,0,1,0.4,1.1,0.9c0,0.1,0,0.2,0,0.3c0,0.1,0,0.1,0,0.2
		c-0.1,0.5-0.6,0.8-1.1,0.8C69.1,65.7,68.6,65.2,68.6,64.6z M71,65.6c0.1,0.2,0.3,0.4,0.5,0.5c-0.2,0.1-0.3,0.2-0.4,0.4
		c-0.1-0.2-0.3-0.4-0.5-0.5C70.8,65.9,70.9,65.8,71,65.6z M71.3,64.8c0-0.6,0.5-1.1,1.1-1.1c0.5,0,1,0.4,1.1,0.9c0,0.1,0,0.2,0,0.3
		c0,0.1,0,0.1,0,0.2c-0.1,0.5-0.6,0.8-1.1,0.8C71.8,65.9,71.3,65.4,71.3,64.8z M73.8,63.9c-0.1-0.2-0.3-0.4-0.5-0.5
		c0.2-0.1,0.3-0.2,0.4-0.4c0.1,0.2,0.3,0.4,0.5,0.5C74.1,63.6,73.9,63.7,73.8,63.9z M74,62.1c0-0.6,0.5-1.1,1.1-1.1
		c0.6,0,1.1,0.5,1.1,1.1c0,0.6-0.5,1.1-1.1,1.1C74.5,63.2,74,62.7,74,62.1z M76,58c0.2-0.1,0.4-0.3,0.5-0.5c0.1,0.2,0.3,0.4,0.5,0.5
		c-0.2,0.1-0.4,0.3-0.5,0.5C76.4,58.3,76.2,58.1,76,58z M82.4,49.5c-0.2,0.1-0.3,0.3-0.4,0.4c-0.1-0.1-0.2-0.2-0.3-0.3
		c0.2-0.1,0.3-0.3,0.4-0.4C82.1,49.3,82.2,49.4,82.4,49.5z M81.6,63.4c0.2-0.1,0.3-0.3,0.4-0.4c0.1,0.1,0.2,0.2,0.3,0.3
		c-0.2,0.1-0.3,0.3-0.4,0.4C81.8,63.6,81.7,63.5,81.6,63.4z M82.4,52.3c-0.2,0.1-0.3,0.3-0.4,0.4c-0.1-0.1-0.2-0.2-0.3-0.3
		c0.2-0.1,0.3-0.3,0.4-0.4C82.1,52.1,82.2,52.2,82.4,52.3z M84.3,53.8c-0.1,0.5-0.6,0.9-1.1,0.9c-0.6,0-1.1-0.5-1.1-1.1
		c0-0.6,0.5-1.1,1.1-1.1c0.5,0,0.9,0.3,1.1,0.8c0,0.1,0,0.1,0,0.2C84.3,53.6,84.3,53.7,84.3,53.8z M84.3,56.6
		c-0.1,0.5-0.6,0.9-1.1,0.9c-0.6,0-1.1-0.5-1.1-1.1c0-0.6,0.5-1.1,1.1-1.1c0.5,0,0.9,0.3,1.1,0.8c0,0.1,0,0.1,0,0.2
		C84.3,56.4,84.3,56.5,84.3,56.6z M84.3,59.3c-0.1,0.5-0.6,0.9-1.1,0.9c-0.6,0-1.1-0.5-1.1-1.1c0-0.6,0.5-1.1,1.1-1.1
		c0.5,0,0.9,0.3,1.1,0.8c0,0.1,0,0.1,0,0.2C84.3,59.1,84.3,59.2,84.3,59.3z M81.9,60.9c-0.1-0.1-0.2-0.2-0.3-0.3
		c0.2-0.1,0.3-0.3,0.4-0.4c0.1,0.1,0.2,0.2,0.3,0.3C82.2,60.6,82,60.8,81.9,60.9z M81.6,56c0,0.1-0.1,0.3-0.1,0.4
		c0,0.2,0,0.4,0.1,0.6c-0.2,0.4-0.6,0.7-1,0.7c-0.6,0-1.1-0.5-1.1-1.1c0-0.6,0.5-1.1,1.1-1.1C81.1,55.4,81.5,55.6,81.6,56z
		 M80.7,58.2c0.4,0,0.8,0.2,1,0.6c0,0.1-0.1,0.3-0.1,0.4c0,0.2,0,0.4,0.1,0.6c-0.2,0.4-0.6,0.7-1,0.7c-0.6,0-1.1-0.5-1.1-1.1
		C79.6,58.7,80.1,58.2,80.7,58.2z M81.9,58.2c-0.1-0.1-0.2-0.2-0.3-0.3c0.2-0.1,0.3-0.3,0.4-0.4c0.1,0.1,0.2,0.2,0.3,0.3
		C82.2,57.9,82,58,81.9,58.2z M81.9,55.4c-0.1-0.1-0.2-0.2-0.3-0.3c0.2-0.1,0.3-0.3,0.4-0.4c0.1,0.1,0.2,0.2,0.3,0.3
		C82.2,55.1,82,55.3,81.9,55.4z M81.6,53.2c0,0.1-0.1,0.3-0.1,0.4c0,0.2,0,0.4,0.1,0.6c-0.2,0.4-0.6,0.7-1,0.7
		c-0.6,0-1.1-0.5-1.1-1.1c0-0.6,0.5-1.1,1.1-1.1C81.1,52.7,81.5,52.9,81.6,53.2z M79.3,57.4c0.1,0.2,0.3,0.3,0.4,0.4
		c-0.2,0.1-0.4,0.3-0.5,0.5c-0.1-0.2-0.3-0.3-0.4-0.4C79,57.8,79.2,57.6,79.3,57.4z M80.7,60.9c0.4,0,0.8,0.2,1,0.6
		c0,0.1,0,0.3,0,0.4c0,0.2,0,0.4,0.1,0.6c-0.2,0.4-0.6,0.7-1,0.7c-0.6,0-1.1-0.5-1.1-1.1C79.6,61.4,80.1,60.9,80.7,60.9z M82.2,61.9
		c0-0.6,0.5-1.1,1.1-1.1c0.5,0,0.9,0.3,1.1,0.8c0,0.1,0,0.1,0,0.2c0,0.1,0,0.2,0,0.3c-0.1,0.5-0.6,0.9-1.1,0.9
		C82.6,63,82.2,62.5,82.2,61.9z M79.3,54.7c0.1,0.2,0.3,0.3,0.4,0.4c-0.2,0.1-0.4,0.3-0.5,0.5c-0.1-0.2-0.3-0.3-0.4-0.4
		C79,55.1,79.2,54.9,79.3,54.7z M79,56.6c0,0.6-0.5,1.1-1.1,1.1c-0.6,0-1.1-0.5-1.1-1.1c0-0.6,0.5-1.1,1.1-1.1
		C78.5,55.5,79,56,79,56.6z M77.9,58.2c0.6,0,1.1,0.5,1.1,1.1c0,0.6-0.5,1.1-1.1,1.1c-0.6,0-1.1-0.5-1.1-1.1
		C76.8,58.7,77.3,58.2,77.9,58.2z M79.3,60.2c0.1,0.2,0.3,0.3,0.4,0.4c-0.2,0.1-0.4,0.3-0.5,0.5c-0.1-0.2-0.3-0.3-0.4-0.4
		C79,60.6,79.2,60.4,79.3,60.2z M84.6,63.6c-0.1-0.2-0.3-0.3-0.4-0.4c0.2-0.1,0.4-0.3,0.5-0.5c0.1,0.2,0.3,0.3,0.4,0.4
		C84.8,63.3,84.7,63.4,84.6,63.6z M84.6,60.9c-0.1-0.2-0.3-0.3-0.4-0.4c0.2-0.1,0.4-0.3,0.5-0.5c0.1,0.2,0.3,0.3,0.4,0.4
		C84.8,60.5,84.7,60.7,84.6,60.9z M84.6,58.2c-0.1-0.2-0.3-0.3-0.4-0.4c0.2-0.1,0.4-0.3,0.5-0.5c0.1,0.2,0.3,0.3,0.4,0.4
		C84.8,57.8,84.7,57.9,84.6,58.2z M84.6,55.4c-0.1-0.2-0.3-0.3-0.4-0.4c0.2-0.1,0.4-0.3,0.5-0.5c0.1,0.2,0.3,0.3,0.4,0.4
		C84.8,55,84.7,55.2,84.6,55.4z M84.6,52.6c-0.1-0.2-0.3-0.3-0.4-0.4c0.2-0.1,0.4-0.3,0.5-0.5c0.1,0.2,0.3,0.3,0.4,0.4
		C84.8,52.3,84.7,52.4,84.6,52.6z M84.6,49.9c-0.1-0.2-0.3-0.3-0.4-0.4c0.2-0.1,0.4-0.3,0.5-0.5c0.1,0.2,0.3,0.3,0.4,0.4
		C84.8,49.5,84.7,49.7,84.6,49.9z M84.3,50.6c0,0.1,0,0.1,0,0.2c0,0.1,0,0.2,0,0.3c-0.1,0.5-0.6,0.9-1.1,0.9c-0.6,0-1.1-0.5-1.1-1.1
		c0-0.6,0.5-1.1,1.1-1.1C83.8,49.8,84.2,50.1,84.3,50.6z M81.6,50.5c0,0.1-0.1,0.3-0.1,0.4c0,0.2,0,0.4,0.1,0.6
		c-0.2,0.4-0.6,0.7-1,0.7c-0.6,0-1.1-0.5-1.1-1.1c0-0.6,0.5-1.1,1.1-1.1C81.1,49.9,81.5,50.1,81.6,50.5z M79.3,51.9
		c0.1,0.2,0.3,0.3,0.4,0.4c-0.2,0.1-0.4,0.3-0.5,0.5c-0.1-0.2-0.3-0.3-0.4-0.4C79,52.3,79.2,52.2,79.3,51.9z M79,53.8
		c0,0.6-0.5,1.1-1.1,1.1c-0.6,0-1.1-0.5-1.1-1.1c0-0.6,0.5-1.1,1.1-1.1C78.5,52.7,79,53.2,79,53.8z M77.9,61c0.6,0,1.1,0.5,1.1,1.1
		c0,0.6-0.5,1.1-1.1,1.1c-0.6,0-1.1-0.5-1.1-1.1C76.8,61.5,77.3,61,77.9,61z M80.7,63.6c0.4,0,0.8,0.2,1,0.6c0,0.1-0.1,0.3-0.1,0.4
		c0,0.2,0,0.4,0.1,0.6c-0.2,0.4-0.6,0.7-1,0.7c-0.6,0-1.1-0.5-1.1-1.1C79.6,64.2,80.1,63.6,80.7,63.6z M82.2,64.6
		c0-0.6,0.5-1.1,1.1-1.1c0.5,0,0.9,0.3,1.1,0.8c0,0.1,0,0.1,0,0.2c0,0.1,0,0.2,0,0.3c-0.1,0.5-0.6,0.9-1.1,0.9
		C82.6,65.7,82.2,65.2,82.2,64.6z M84.6,65.5c0.1,0.2,0.3,0.3,0.4,0.4c-0.2,0.1-0.4,0.3-0.5,0.5c-0.1-0.2-0.3-0.3-0.4-0.4
		C84.3,65.9,84.5,65.7,84.6,65.5z M86,62.9c-0.6,0-1.1-0.5-1.1-1.1c0-0.6,0.5-1.1,1.1-1.1c0.5,0,0.9,0.3,1.1,0.8
		c0,0.1,0,0.2,0.1,0.3C87,62.4,86.6,62.9,86,62.9z M86,60.1c-0.6,0-1.1-0.5-1.1-1.1c0-0.6,0.5-1.1,1.1-1.1c0.5,0,0.9,0.3,1.1,0.8
		c0,0.1,0,0.2,0.1,0.3C87,59.6,86.6,60.1,86,60.1z M86,57.4c-0.6,0-1.1-0.5-1.1-1.1c0-0.6,0.5-1.1,1.1-1.1c0.5,0,0.9,0.3,1.1,0.8
		c0,0.1,0,0.2,0.1,0.3C87,56.9,86.6,57.4,86,57.4z M86,54.6c-0.6,0-1.1-0.5-1.1-1.1c0-0.6,0.5-1.1,1.1-1.1c0.5,0,0.9,0.3,1.1,0.8
		c0,0.1,0,0.2,0.1,0.3C87,54.1,86.6,54.6,86,54.6z M86,51.9c-0.6,0-1.1-0.5-1.1-1.1c0-0.6,0.5-1.1,1.1-1.1c0.5,0,0.9,0.3,1.1,0.8
		c0,0.1,0,0.2,0.1,0.3C87,51.4,86.6,51.9,86,51.9z M79,51.1c0,0.6-0.5,1.1-1.1,1.1c-0.6,0-1.1-0.5-1.1-1.1s0.5-1.1,1.1-1.1
		C78.5,50,79,50.5,79,51.1z M77,55.2c-0.2,0.1-0.4,0.3-0.5,0.5c-0.1-0.2-0.3-0.4-0.5-0.5c0.2-0.1,0.4-0.3,0.5-0.5
		C76.7,54.9,76.8,55.1,77,55.2z M75.1,52.2c-0.6,0-1.1-0.5-1.1-1.1c0-0.6,0.5-1.1,1.1-1.1c0.6,0,1.1,0.5,1.1,1.1
		C76.2,51.7,75.7,52.2,75.1,52.2z M73.8,50.1c-0.1-0.2-0.3-0.4-0.5-0.5c0.2-0.1,0.3-0.2,0.4-0.4c0.1,0.2,0.3,0.4,0.5,0.5
		C74.1,49.9,73.9,50,73.8,50.1z M65.6,48.7c0.1,0.3,0.3,0.5,0.6,0.7c-0.1,0.1-0.2,0.2-0.3,0.3c-0.1-0.3-0.3-0.5-0.6-0.7
		C65.3,48.9,65.5,48.8,65.6,48.7z M65.6,51.4c0.1,0.3,0.3,0.5,0.6,0.7c-0.1,0.1-0.2,0.2-0.3,0.3c-0.1-0.3-0.3-0.5-0.6-0.7
		C65.3,51.7,65.5,51.6,65.6,51.4z M65.6,54.2c0.1,0.3,0.3,0.5,0.6,0.7c-0.1,0.1-0.2,0.2-0.3,0.3c-0.1-0.3-0.3-0.5-0.6-0.7
		C65.3,54.4,65.5,54.3,65.6,54.2z M65.6,57c0.1,0.3,0.3,0.5,0.6,0.7c-0.1,0.1-0.2,0.2-0.3,0.3c-0.1-0.3-0.3-0.5-0.6-0.7
		C65.3,57.1,65.5,57.1,65.6,57z M65.6,59.7c0.1,0.3,0.3,0.5,0.6,0.7c-0.1,0.1-0.2,0.2-0.3,0.3c-0.1-0.3-0.3-0.5-0.6-0.7
		C65.3,59.9,65.5,59.8,65.6,59.7z M65.6,62.5c0.1,0.3,0.3,0.5,0.6,0.7c-0.1,0.1-0.2,0.2-0.3,0.3c-0.1-0.3-0.3-0.5-0.6-0.7
		C65.3,62.6,65.5,62.6,65.6,62.5z M65.6,65.2c0.1,0.3,0.3,0.5,0.6,0.7c-0.1,0.1-0.2,0.2-0.3,0.3c-0.1-0.3-0.3-0.5-0.6-0.7
		C65.3,65.4,65.5,65.3,65.6,65.2z M73.8,66.6c-0.1-0.2-0.3-0.4-0.5-0.5c0.2-0.1,0.3-0.2,0.4-0.4c0.1,0.2,0.3,0.4,0.5,0.5
		C74.1,66.3,73.9,66.5,73.8,66.6z M74,64.9c0-0.6,0.5-1.1,1.1-1.1c0.6,0,1.1,0.5,1.1,1.1c0,0.6-0.5,1.1-1.1,1.1
		C74.5,66,74,65.5,74,64.9z M76,60.7c0.2-0.1,0.4-0.3,0.5-0.5c0.1,0.2,0.3,0.4,0.5,0.5c-0.2,0.1-0.4,0.3-0.5,0.5
		C76.4,61,76.2,60.9,76,60.7z M77.9,63.7c0.6,0,1.1,0.5,1.1,1.1c0,0.6-0.5,1.1-1.1,1.1c-0.6,0-1.1-0.5-1.1-1.1
		C76.8,64.2,77.3,63.7,77.9,63.7z M87.2,66.2c-0.1-0.1-0.2-0.2-0.3-0.3c0.3-0.2,0.4-0.4,0.6-0.7c0.1,0.1,0.2,0.2,0.3,0.3
		C87.5,65.7,87.3,65.9,87.2,66.2z M87.2,63.4c-0.1-0.1-0.2-0.2-0.3-0.3c0.3-0.2,0.4-0.4,0.6-0.7c0.1,0.1,0.2,0.2,0.3,0.3
		C87.5,62.9,87.3,63.1,87.2,63.4z M87.2,60.7c-0.1-0.1-0.2-0.2-0.3-0.3c0.3-0.2,0.4-0.4,0.6-0.7c0.1,0.1,0.2,0.2,0.3,0.3
		C87.5,60.2,87.3,60.4,87.2,60.7z M87.2,57.9c-0.1-0.1-0.2-0.2-0.3-0.3c0.3-0.2,0.4-0.4,0.6-0.7c0.1,0.1,0.2,0.2,0.3,0.3
		C87.5,57.4,87.3,57.6,87.2,57.9z M87.2,55.2c-0.1-0.1-0.2-0.2-0.3-0.3c0.3-0.2,0.4-0.4,0.6-0.7c0.1,0.1,0.2,0.2,0.3,0.3
		C87.5,54.6,87.3,54.9,87.2,55.2z M87.2,52.4c-0.1-0.1-0.2-0.2-0.3-0.3c0.3-0.2,0.4-0.4,0.6-0.7c0.1,0.1,0.2,0.2,0.3,0.3
		C87.5,51.9,87.3,52.1,87.2,52.4z M87.2,49.6c-0.1-0.1-0.2-0.2-0.3-0.3c0.3-0.2,0.4-0.4,0.6-0.7c0.1,0.1,0.2,0.2,0.3,0.3
		C87.5,49.1,87.3,49.4,87.2,49.6z M87,47.7c0,0.1,0,0.2,0.1,0.3c0,0.6-0.5,1.1-1.1,1.1c-0.6,0-1.1-0.5-1.1-1.1
		c0-0.6,0.5-1.1,1.1-1.1C86.5,46.9,86.9,47.2,87,47.7z M84.3,47.8c0,0.1,0,0.1,0,0.2c0,0.1,0,0.2,0,0.3c-0.1,0.5-0.6,0.9-1.1,0.9
		c-0.6,0-1.1-0.5-1.1-1.1c0-0.6,0.5-1.1,1.1-1.1C83.8,47,84.2,47.4,84.3,47.8z M81.6,47.7c0,0.1,0,0.3,0,0.4c0,0.2,0,0.4,0.1,0.6
		c-0.2,0.4-0.6,0.7-1,0.7c-0.6,0-1.1-0.5-1.1-1.1c0-0.6,0.5-1.1,1.1-1.1C81.1,47.2,81.5,47.4,81.6,47.7z M79.8,49.6
		c-0.2,0.1-0.4,0.3-0.5,0.5c-0.1-0.2-0.3-0.3-0.4-0.4c0.2-0.1,0.4-0.3,0.5-0.5C79.5,49.4,79.6,49.5,79.8,49.6z M77.9,49.5
		c-0.6,0-1.1-0.5-1.1-1.1c0-0.6,0.5-1.1,1.1-1.1c0.6,0,1.1,0.5,1.1,1.1C79,49,78.5,49.5,77.9,49.5z M77,52.5
		c-0.2,0.1-0.4,0.3-0.5,0.5c-0.1-0.2-0.3-0.4-0.5-0.5c0.2-0.1,0.4-0.3,0.5-0.5C76.7,52.2,76.8,52.3,77,52.5z M75.1,49.5
		c-0.6,0-1.1-0.5-1.1-1.1c0-0.6,0.5-1.1,1.1-1.1c0.6,0,1.1,0.5,1.1,1.1C76.2,49,75.7,49.5,75.1,49.5z M73.5,48.1c0,0.1,0,0.2,0,0.3
		c0,0.1,0,0.1,0,0.2c-0.1,0.5-0.6,0.8-1.1,0.8c-0.6,0-1.1-0.5-1.1-1.1c0-0.6,0.5-1.1,1.1-1.1C73,47.2,73.4,47.5,73.5,48.1z M70.8,48
		c0,0.1,0,0.2,0,0.3c0,0.1,0,0.1,0,0.2c-0.1,0.5-0.6,0.8-1.1,0.8c-0.6,0-1.1-0.5-1.1-1.1c0-0.6,0.5-1.1,1.1-1.1
		C70.3,47,70.7,47.4,70.8,48z M68.1,47.8c0,0.1,0,0.2,0,0.3c0,0.1,0,0.1,0,0.2c-0.1,0.5-0.6,0.8-1.1,0.8c-0.6,0-1.1-0.5-1.1-1.1
		c0-0.6,0.5-1.1,1.1-1.1C67.6,46.9,68,47.3,68.1,47.8z M64.3,49.2c0.6,0,1.1,0.5,1.1,1.1c0,0.1-0.1,0.2-0.1,0.3
		c-0.1,0.5-0.6,0.8-1.1,0.8c-0.6,0-1.1-0.5-1.1-1.1C63.2,49.8,63.7,49.2,64.3,49.2z M64.3,52c0.6,0,1.1,0.5,1.1,1.1
		c0,0.1-0.1,0.2-0.1,0.3c-0.1,0.5-0.6,0.8-1.1,0.8c-0.6,0-1.1-0.5-1.1-1.1C63.2,52.5,63.7,52,64.3,52z M64.3,54.7
		c0.6,0,1.1,0.5,1.1,1.1c0,0.1-0.1,0.2-0.1,0.3c-0.1,0.5-0.6,0.8-1.1,0.8c-0.6,0-1.1-0.5-1.1-1.1C63.2,55.3,63.7,54.7,64.3,54.7z
		 M64.3,57.5c0.6,0,1.1,0.5,1.1,1.1c0,0.1-0.1,0.2-0.1,0.3c-0.1,0.5-0.6,0.8-1.1,0.8c-0.6,0-1.1-0.5-1.1-1.1
		C63.2,58,63.7,57.5,64.3,57.5z M64.3,60.2c0.6,0,1.1,0.5,1.1,1.1c0,0.1-0.1,0.2-0.1,0.3c-0.1,0.5-0.6,0.8-1.1,0.8
		c-0.6,0-1.1-0.5-1.1-1.1C63.2,60.8,63.7,60.2,64.3,60.2z M64.3,63c0.6,0,1.1,0.5,1.1,1.1c0,0.1-0.1,0.2-0.1,0.3
		c-0.1,0.5-0.6,0.8-1.1,0.8c-0.6,0-1.1-0.5-1.1-1.1C63.2,63.5,63.7,63,64.3,63z M65.9,67.2c0-0.6,0.5-1.1,1.1-1.1
		c0.6,0,1,0.4,1.1,0.9c0,0.1,0,0.2,0,0.3c0,0.1,0,0.1,0,0.2C68,68,67.5,68.4,67,68.4C66.4,68.4,65.9,67.9,65.9,67.2z M68.6,67.4
		c0-0.6,0.5-1.1,1.1-1.1c0.6,0,1,0.4,1.1,0.9c0,0.1,0,0.2,0,0.3c0,0.1,0,0.1,0,0.2c-0.1,0.5-0.6,0.8-1.1,0.8
		C69.1,68.5,68.6,68,68.6,67.4z M71.3,67.5c0-0.6,0.5-1.1,1.1-1.1c0.5,0,1,0.4,1.1,0.9c0,0.1,0,0.2,0,0.3c0,0.1,0,0.1,0,0.2
		c-0.1,0.5-0.6,0.8-1.1,0.8C71.8,68.6,71.3,68.1,71.3,67.5z M74,67.6c0-0.6,0.5-1.1,1.1-1.1c0.6,0,1.1,0.5,1.1,1.1
		c0,0.6-0.5,1.1-1.1,1.1C74.5,68.7,74,68.2,74,67.6z M76,63.5c0.2-0.1,0.4-0.3,0.5-0.5c0.1,0.2,0.3,0.4,0.5,0.5
		c-0.2,0.1-0.4,0.3-0.5,0.5C76.4,63.8,76.2,63.6,76,63.5z M77.9,66.5c0.6,0,1.1,0.5,1.1,1.1c0,0.6-0.5,1.1-1.1,1.1
		c-0.6,0-1.1-0.5-1.1-1.1C76.8,67,77.3,66.5,77.9,66.5z M78.8,66.2c0.2-0.1,0.4-0.3,0.5-0.5c0.1,0.2,0.3,0.3,0.4,0.4
		c-0.2,0.1-0.4,0.3-0.5,0.5C79.2,66.5,79,66.3,78.8,66.2z M80.7,66.4c0.4,0,0.8,0.2,1,0.6c0,0.1-0.1,0.3-0.1,0.4
		c0,0.2,0,0.4,0.1,0.6c-0.2,0.4-0.6,0.7-1,0.7c-0.6,0-1.1-0.5-1.1-1.1C79.6,66.9,80.1,66.4,80.7,66.4z M82.2,67.4
		c0-0.6,0.5-1.1,1.1-1.1c0.5,0,0.9,0.3,1.1,0.8c0,0.1,0,0.1,0,0.2c0,0.1,0,0.2,0,0.3c-0.1,0.5-0.6,0.9-1.1,0.9
		C82.6,68.5,82.2,68,82.2,67.4z M84.8,67.2c0-0.6,0.5-1.1,1.1-1.1c0.5,0,0.9,0.3,1.1,0.8c0,0.1,0,0.2,0.1,0.3c0,0.6-0.5,1.1-1.1,1.1
		C85.4,68.4,84.8,67.9,84.8,67.2z M85.1,46.6c-0.2,0.1-0.4,0.3-0.5,0.5c-0.1-0.2-0.3-0.3-0.4-0.4c0.2-0.1,0.4-0.3,0.5-0.5
		C84.8,46.4,84.9,46.5,85.1,46.6z M77,49.7c-0.2,0.1-0.4,0.3-0.5,0.5c-0.1-0.2-0.3-0.4-0.5-0.5c0.2-0.1,0.4-0.3,0.5-0.5
		C76.7,49.4,76.8,49.6,77,49.7z M74.3,47c-0.2,0.1-0.3,0.2-0.4,0.4c-0.1-0.2-0.3-0.4-0.5-0.5c0.2-0.1,0.3-0.2,0.4-0.4
		C73.9,46.7,74.1,46.9,74.3,47z M71.5,46.9c-0.2,0.1-0.3,0.2-0.4,0.4c-0.1-0.2-0.3-0.4-0.5-0.5c0.2-0.1,0.3-0.2,0.4-0.4
		C71.2,46.6,71.4,46.8,71.5,46.9z M68.8,46.8c-0.2,0.1-0.3,0.2-0.4,0.4c-0.1-0.2-0.3-0.4-0.5-0.5c0.2-0.1,0.3-0.2,0.4-0.4
		C68.5,46.4,68.6,46.6,68.8,46.8z M62.8,48.3c0.1,0.3,0.3,0.6,0.6,0.7c-0.1,0.1-0.2,0.2-0.3,0.3c-0.1-0.3-0.3-0.6-0.6-0.7
		C62.6,48.5,62.7,48.4,62.8,48.3z M62.8,51c0.1,0.3,0.3,0.6,0.6,0.7c-0.1,0.1-0.2,0.2-0.3,0.3c-0.1-0.3-0.3-0.6-0.6-0.7
		C62.6,51.2,62.7,51.1,62.8,51z M62.8,53.8c0.1,0.3,0.3,0.6,0.6,0.7c-0.1,0.1-0.2,0.2-0.3,0.3c-0.1-0.3-0.3-0.6-0.6-0.7
		C62.6,53.9,62.7,53.9,62.8,53.8z M62.8,56.5c0.1,0.3,0.3,0.6,0.6,0.7c-0.1,0.1-0.2,0.2-0.3,0.3c-0.1-0.3-0.3-0.6-0.6-0.7
		C62.6,56.7,62.7,56.6,62.8,56.5z M62.8,59.3c0.1,0.3,0.3,0.6,0.6,0.7c-0.1,0.1-0.2,0.2-0.3,0.3c-0.1-0.3-0.3-0.6-0.6-0.7
		C62.6,59.4,62.7,59.4,62.8,59.3z M62.8,62c0.1,0.3,0.3,0.6,0.6,0.7c-0.1,0.1-0.2,0.2-0.3,0.3c-0.1-0.3-0.3-0.6-0.6-0.7
		C62.6,62.2,62.7,62.1,62.8,62z M62.8,64.8c0.1,0.3,0.3,0.6,0.6,0.7c-0.1,0.1-0.2,0.2-0.3,0.3c-0.1-0.3-0.3-0.6-0.6-0.7
		C62.6,64.9,62.7,64.9,62.8,64.8z M67.9,68.6c0.2-0.1,0.3-0.2,0.4-0.4c0.1,0.2,0.3,0.4,0.5,0.5c-0.2,0.1-0.3,0.2-0.4,0.4
		C68.3,68.9,68.1,68.7,67.9,68.6z M70.6,68.7c0.2-0.1,0.3-0.2,0.4-0.4c0.1,0.2,0.3,0.4,0.5,0.5c-0.2,0.1-0.3,0.2-0.4,0.4
		C71,69.1,70.8,68.9,70.6,68.7z M73.3,68.9c0.2-0.1,0.3-0.2,0.4-0.4c0.1,0.2,0.3,0.4,0.5,0.5c-0.2,0.1-0.3,0.2-0.4,0.4
		C73.7,69.2,73.5,69,73.3,68.9z M76,66.2c0.2-0.1,0.4-0.3,0.5-0.5c0.1,0.2,0.3,0.4,0.5,0.5c-0.2,0.1-0.4,0.3-0.5,0.5
		C76.4,66.5,76.2,66.4,76,66.2z M84.1,68.7c0.2-0.1,0.4-0.3,0.5-0.5c0.1,0.2,0.3,0.3,0.4,0.4c-0.2,0.1-0.4,0.3-0.5,0.5
		C84.4,69,84.3,68.9,84.1,68.7z M89.9,65.7c-0.1-0.1-0.2-0.2-0.3-0.3c0.3-0.2,0.5-0.4,0.6-0.7c0.1,0.1,0.2,0.2,0.3,0.3
		C90.2,65.2,90,65.4,89.9,65.7z M89.9,63c-0.1-0.1-0.2-0.2-0.3-0.3c0.3-0.2,0.5-0.4,0.6-0.7c0.1,0.1,0.2,0.2,0.3,0.3
		C90.2,62.5,90,62.7,89.9,63z M89.9,60.2c-0.1-0.1-0.2-0.2-0.3-0.3c0.3-0.2,0.5-0.4,0.6-0.7c0.1,0.1,0.2,0.2,0.3,0.3
		C90.2,59.7,90,59.9,89.9,60.2z M89.9,57.5c-0.1-0.1-0.2-0.2-0.3-0.3c0.3-0.2,0.5-0.4,0.6-0.7c0.1,0.1,0.2,0.2,0.3,0.3
		C90.2,57,90,57.2,89.9,57.5z M89.9,54.7c-0.1-0.1-0.2-0.2-0.3-0.3c0.3-0.2,0.5-0.4,0.6-0.7c0.1,0.1,0.2,0.2,0.3,0.3
		C90.2,54.2,90,54.5,89.9,54.7z M89.9,52c-0.1-0.1-0.2-0.2-0.3-0.3c0.3-0.2,0.5-0.4,0.6-0.7c0.1,0.1,0.2,0.2,0.3,0.3
		C90.2,51.4,90,51.7,89.9,52z M89.9,49.2c-0.1-0.1-0.2-0.2-0.3-0.3c0.3-0.2,0.5-0.4,0.6-0.7c0.1,0.1,0.2,0.2,0.3,0.3
		C90.2,48.7,90,49,89.9,49.2z M79.8,46.9c-0.2,0.1-0.4,0.3-0.5,0.5c-0.1-0.2-0.3-0.3-0.4-0.4c0.2-0.1,0.4-0.3,0.5-0.5
		C79.5,46.6,79.6,46.8,79.8,46.9z M77,47c-0.2,0.1-0.4,0.3-0.5,0.5c-0.1-0.2-0.3-0.4-0.5-0.5c0.2-0.1,0.4-0.3,0.5-0.5
		C76.7,46.7,76.8,46.8,77,47z M62.8,47.2c0,0,0,0.1,0,0.1c0,0.1,0,0.1,0,0.2c-0.1,0.5-0.6,0.8-1.1,0.8c-0.6,0-1.1-0.5-1.1-1.1
		c0-0.6,0.5-1.1,1.1-1.1C62.3,46,62.8,46.5,62.8,47.2z M62.8,49.9c0,0,0,0.1,0,0.1c0,0.1,0,0.1,0,0.2c-0.1,0.5-0.6,0.8-1.1,0.8
		c-0.6,0-1.1-0.5-1.1-1.1c0-0.6,0.5-1.1,1.1-1.1C62.3,48.8,62.8,49.3,62.8,49.9z M62.8,52.7c0,0,0,0.1,0,0.1c0,0.1,0,0.1,0,0.2
		c-0.1,0.5-0.6,0.8-1.1,0.8c-0.6,0-1.1-0.5-1.1-1.1c0-0.6,0.5-1.1,1.1-1.1C62.3,51.5,62.8,52,62.8,52.7z M62.8,55.4c0,0,0,0.1,0,0.1
		c0,0.1,0,0.1,0,0.2c-0.1,0.5-0.6,0.8-1.1,0.8c-0.6,0-1.1-0.5-1.1-1.1c0-0.6,0.5-1.1,1.1-1.1C62.3,54.3,62.8,54.8,62.8,55.4z
		 M62.8,58.2c0,0,0,0.1,0,0.1c0,0.1,0,0.1,0,0.2c-0.1,0.5-0.6,0.8-1.1,0.8c-0.6,0-1.1-0.5-1.1-1.1c0-0.6,0.5-1.1,1.1-1.1
		C62.3,57,62.8,57.5,62.8,58.2z M62.8,60.9c0,0,0,0.1,0,0.1c0,0.1,0,0.1,0,0.2c-0.1,0.5-0.6,0.8-1.1,0.8c-0.6,0-1.1-0.5-1.1-1.1
		c0-0.6,0.5-1.1,1.1-1.1C62.3,59.8,62.8,60.3,62.8,60.9z M62.8,63.6c0,0,0,0.1,0,0.1c0,0.1,0,0.1,0,0.2c-0.1,0.5-0.6,0.8-1.1,0.8
		c-0.6,0-1.1-0.5-1.1-1.1c0-0.6,0.5-1.1,1.1-1.1C62.3,62.5,62.8,63,62.8,63.6z M62.8,66.4c0,0,0,0.1,0,0.1c0,0.1,0,0.1,0,0.2
		c-0.1,0.5-0.6,0.8-1.1,0.8c-0.6,0-1.1-0.5-1.1-1.1c0-0.6,0.5-1.1,1.1-1.1C62.3,65.3,62.8,65.8,62.8,66.4z M76,69
		c0.2-0.1,0.4-0.3,0.5-0.5c0.1,0.2,0.3,0.4,0.5,0.5c-0.2,0.1-0.4,0.3-0.5,0.5C76.4,69.3,76.2,69.1,76,69z M78.8,69
		c0.2-0.1,0.4-0.3,0.5-0.5c0.1,0.2,0.3,0.3,0.4,0.4c-0.2,0.1-0.4,0.3-0.5,0.5C79.2,69.3,79,69.1,78.8,69z M90.2,66.4
		c0-0.6,0.5-1.1,1.1-1.1c0.6,0,1.1,0.5,1.1,1.1c0,0.6-0.5,1.1-1.1,1.1C90.8,67.5,90.2,67,90.2,66.4z M90.2,63.6
		c0-0.6,0.5-1.1,1.1-1.1c0.6,0,1.1,0.5,1.1,1.1c0,0.6-0.5,1.1-1.1,1.1C90.8,64.8,90.2,64.3,90.2,63.6z M90.2,60.9
		c0-0.6,0.5-1.1,1.1-1.1c0.6,0,1.1,0.5,1.1,1.1c0,0.6-0.5,1.1-1.1,1.1C90.8,62,90.2,61.5,90.2,60.9z M90.2,58.2
		c0-0.6,0.5-1.1,1.1-1.1c0.6,0,1.1,0.5,1.1,1.1c0,0.6-0.5,1.1-1.1,1.1C90.8,59.3,90.2,58.8,90.2,58.2z M90.2,55.4
		c0-0.6,0.5-1.1,1.1-1.1c0.6,0,1.1,0.5,1.1,1.1c0,0.6-0.5,1.1-1.1,1.1C90.8,56.5,90.2,56,90.2,55.4z M90.2,52.7
		c0-0.6,0.5-1.1,1.1-1.1c0.6,0,1.1,0.5,1.1,1.1c0,0.6-0.5,1.1-1.1,1.1C90.8,53.8,90.2,53.3,90.2,52.7z M90.2,49.9
		c0-0.6,0.5-1.1,1.1-1.1c0.6,0,1.1,0.5,1.1,1.1c0,0.6-0.5,1.1-1.1,1.1C90.8,51,90.2,50.5,90.2,49.9z M90.2,47.2
		c0-0.6,0.5-1.1,1.1-1.1c0.6,0,1.1,0.5,1.1,1.1c0,0.6-0.5,1.1-1.1,1.1C90.8,48.3,90.2,47.8,90.2,47.2z"/>
	<path fill="#5CB3E2" d="M60.5,49.9c0,0.6,0.5,1.1,1.1,1.1c0.5,0,1-0.3,1.1-0.8c0-0.1,0-0.1,0-0.2c0,0,0-0.1,0-0.1
		c0-0.6-0.5-1.1-1.1-1.1C61,48.8,60.5,49.3,60.5,49.9z"/>
	<path fill="#5CB3E2" d="M63.2,50.4c0,0.6,0.5,1.1,1.1,1.1c0.5,0,0.9-0.3,1.1-0.8c0-0.1,0-0.2,0.1-0.3c0-0.6-0.5-1.1-1.1-1.1
		C63.7,49.2,63.2,49.7,63.2,50.4z"/>
	<path fill="#5CB3E2" d="M65.9,50.8c0,0.6,0.5,1.1,1.1,1.1c0.5,0,0.9-0.3,1.1-0.8c0-0.1,0-0.1,0-0.2c0-0.1,0-0.2,0-0.3
		C68,50,67.6,49.6,67,49.6C66.4,49.6,65.9,50.1,65.9,50.8z"/>
	<path fill="#5CB3E2" d="M68.6,50.9c0,0.6,0.5,1.1,1.1,1.1c0.5,0,1-0.3,1.1-0.8c0-0.1,0-0.1,0-0.2c0-0.1,0-0.2,0-0.3
		c-0.1-0.5-0.6-0.9-1.1-0.9C69.1,49.8,68.6,50.3,68.6,50.9z"/>
	<path fill="#5CB3E2" d="M71.3,51c0,0.6,0.5,1.1,1.1,1.1c0.5,0,1-0.3,1.1-0.8c0-0.1,0-0.1,0-0.2c0-0.1,0-0.2,0-0.3
		c-0.1-0.5-0.6-0.9-1.1-0.9C71.8,49.9,71.3,50.4,71.3,51z"/>
	<path fill="#5CB3E2" d="M75.1,52.2c0.6,0,1.1-0.5,1.1-1.1S75.8,50,75.1,50c-0.6,0-1.1,0.5-1.1,1.1S74.5,52.2,75.1,52.2z"/>
	<path fill="#5CB3E2" d="M77.9,52.2c0.6,0,1.1-0.5,1.1-1.1c0-0.6-0.5-1.1-1.1-1.1c-0.6,0-1.1,0.5-1.1,1.1
		C76.8,51.7,77.3,52.2,77.9,52.2z"/>
	<path fill="#5CB3E2" d="M79.6,51c0,0.6,0.5,1.1,1.1,1.1c0.5,0,0.9-0.3,1-0.7c-0.1-0.2-0.1-0.4-0.1-0.6c0-0.1,0-0.3,0.1-0.4
		c-0.2-0.3-0.6-0.6-1-0.6C80.1,49.9,79.6,50.4,79.6,51z"/>
	<path fill="#5CB3E2" d="M82.1,50.9c0,0.6,0.5,1.1,1.1,1.1c0.6,0,1-0.4,1.1-0.9c0-0.1,0-0.2,0-0.3c0-0.1,0-0.1,0-0.2
		c-0.1-0.5-0.6-0.8-1.1-0.8C82.6,49.8,82.1,50.3,82.1,50.9z"/>
	<path fill="#5CB3E2" d="M86,49.6c-0.6,0-1.1,0.5-1.1,1.1c0,0.6,0.5,1.1,1.1,1.1c0.6,0,1.1-0.5,1.1-1.1c0-0.1-0.1-0.2-0.1-0.3
		C86.9,50,86.5,49.6,86,49.6z"/>
	<path fill="#5CB3E2" d="M88.7,49.2c-0.6,0-1.1,0.5-1.1,1.1c0,0.6,0.5,1.1,1.1,1.1c0.6,0,1.1-0.5,1.1-1.1c0,0,0-0.1,0-0.1
		c0-0.1,0-0.1,0-0.2C89.6,49.6,89.2,49.2,88.7,49.2z"/>
	<path fill="#5CB3E2" d="M91.4,51c0.6,0,1.1-0.5,1.1-1.1c0-0.6-0.5-1.1-1.1-1.1c-0.6,0-1.1,0.5-1.1,1.1C90.2,50.5,90.7,51,91.4,51z"
		/>
	<path fill="#5CB3E2" d="M60.5,52.7c0,0.6,0.5,1.1,1.1,1.1c0.5,0,1-0.3,1.1-0.8c0-0.1,0-0.1,0-0.2c0,0,0-0.1,0-0.1
		c0-0.6-0.5-1.1-1.1-1.1C61,51.5,60.5,52,60.5,52.7z"/>
	<path fill="#5CB3E2" d="M63.2,53.1c0,0.6,0.5,1.1,1.1,1.1c0.5,0,0.9-0.3,1.1-0.8c0-0.1,0-0.2,0.1-0.3c0-0.6-0.5-1.1-1.1-1.1
		C63.7,52,63.2,52.5,63.2,53.1z"/>
	<path fill="#5CB3E2" d="M67,54.6c0.5,0,0.9-0.3,1.1-0.8c0-0.1,0-0.1,0-0.2c0-0.1,0-0.2,0-0.3c-0.1-0.5-0.6-0.9-1.1-0.9
		c-0.6,0-1.1,0.5-1.1,1.1C65.9,54.1,66.4,54.6,67,54.6z"/>
	<path fill="#5CB3E2" d="M68.6,53.6c0,0.6,0.5,1.1,1.1,1.1c0.5,0,1-0.3,1.1-0.8c0-0.1,0-0.1,0-0.2c0-0.1,0-0.2,0-0.3
		c-0.1-0.5-0.6-0.9-1.1-0.9C69.1,52.5,68.6,53,68.6,53.6z"/>
	<path fill="#5CB3E2" d="M72.4,52.7c-0.6,0-1.1,0.5-1.1,1.1c0,0.6,0.5,1.1,1.1,1.1c0.5,0,1-0.3,1.1-0.8c0-0.1,0-0.1,0-0.2
		c0-0.1,0-0.2,0-0.3C73.4,53.1,73,52.7,72.4,52.7z"/>
	<path fill="#5CB3E2" d="M75.1,55c0.6,0,1.1-0.5,1.1-1.1c0-0.6-0.5-1.1-1.1-1.1c-0.6,0-1.1,0.5-1.1,1.1C74,54.5,74.5,55,75.1,55z"/>
	<path fill="#5CB3E2" d="M77.9,55c0.6,0,1.1-0.5,1.1-1.1c0-0.6-0.5-1.1-1.1-1.1c-0.6,0-1.1,0.5-1.1,1.1C76.8,54.5,77.3,55,77.9,55z"
		/>
	<path fill="#5CB3E2" d="M79.6,53.8c0,0.6,0.5,1.1,1.1,1.1c0.5,0,0.9-0.3,1-0.7c-0.1-0.2-0.1-0.4-0.1-0.6c0-0.1,0-0.3,0.1-0.4
		c-0.2-0.3-0.6-0.6-1-0.6C80.1,52.7,79.6,53.2,79.6,53.8z"/>
	<path fill="#5CB3E2" d="M83.3,52.5c-0.6,0-1.1,0.5-1.1,1.1c0,0.6,0.5,1.1,1.1,1.1c0.6,0,1-0.4,1.1-0.9c0-0.1,0-0.2,0-0.3
		c0-0.1,0-0.1,0-0.2C84.2,52.9,83.8,52.5,83.3,52.5z"/>
	<path fill="#5CB3E2" d="M86,52.4c-0.6,0-1.1,0.5-1.1,1.1c0,0.6,0.5,1.1,1.1,1.1c0.6,0,1.1-0.5,1.1-1.1c0-0.1-0.1-0.2-0.1-0.3
		C86.9,52.7,86.5,52.4,86,52.4z"/>
	<path fill="#5CB3E2" d="M88.7,52c-0.6,0-1.1,0.5-1.1,1.1c0,0.6,0.5,1.1,1.1,1.1c0.6,0,1.1-0.5,1.1-1.1c0,0,0-0.1,0-0.1
		c0-0.1,0-0.1,0-0.2C89.6,52.3,89.2,52,88.7,52z"/>
	<path fill="#5CB3E2" d="M91.4,53.8c0.6,0,1.1-0.5,1.1-1.1s-0.5-1.1-1.1-1.1c-0.6,0-1.1,0.5-1.1,1.1S90.7,53.8,91.4,53.8z"/>
	<path fill="#5CB3E2" d="M60.5,55.4c0,0.6,0.5,1.1,1.1,1.1c0.5,0,1-0.3,1.1-0.8c0-0.1,0-0.1,0-0.2c0,0,0-0.1,0-0.1
		c0-0.6-0.5-1.1-1.1-1.1C61,54.3,60.5,54.8,60.5,55.4z"/>
	<path fill="#5CB3E2" d="M63.2,55.9c0,0.6,0.5,1.1,1.1,1.1c0.5,0,0.9-0.3,1.1-0.8c0-0.1,0-0.2,0.1-0.3c0-0.6-0.5-1.1-1.1-1.1
		C63.7,54.7,63.2,55.2,63.2,55.9z"/>
	<path fill="#5CB3E2" d="M67,57.4c0.5,0,0.9-0.3,1.1-0.8c0-0.1,0-0.1,0-0.2c0-0.1,0-0.2,0-0.3c-0.1-0.5-0.6-0.9-1.1-0.9
		c-0.6,0-1.1,0.5-1.1,1.1C65.9,56.9,66.4,57.4,67,57.4z"/>
	<path fill="#5CB3E2" d="M69.7,57.5c0.5,0,1-0.3,1.1-0.8c0-0.1,0-0.1,0-0.2c0-0.1,0-0.2,0-0.3c-0.1-0.5-0.6-0.9-1.1-0.9
		c-0.6,0-1.1,0.5-1.1,1.1C68.6,57,69.1,57.5,69.7,57.5z"/>
	<path fill="#5CB3E2" d="M72.4,55.4c-0.6,0-1.1,0.5-1.1,1.1c0,0.6,0.5,1.1,1.1,1.1c0.5,0,1-0.3,1.1-0.8c0-0.1,0-0.1,0-0.2
		c0-0.1,0-0.2,0-0.3C73.4,55.8,73,55.4,72.4,55.4z"/>
	<path fill="#5CB3E2" d="M75.1,57.7c0.6,0,1.1-0.5,1.1-1.1c0-0.6-0.5-1.1-1.1-1.1c-0.6,0-1.1,0.5-1.1,1.1
		C74,57.2,74.5,57.7,75.1,57.7z"/>
	<path fill="#5CB3E2" d="M77.9,57.7c0.6,0,1.1-0.5,1.1-1.1s-0.5-1.1-1.1-1.1c-0.6,0-1.1,0.5-1.1,1.1S77.3,57.7,77.9,57.7z"/>
	<path fill="#5CB3E2" d="M79.6,56.5c0,0.6,0.5,1.1,1.1,1.1c0.5,0,0.9-0.3,1-0.7c-0.1-0.2-0.1-0.4-0.1-0.6c0-0.1,0-0.3,0.1-0.4
		c-0.2-0.3-0.6-0.6-1-0.6C80.1,55.4,79.6,55.9,79.6,56.5z"/>
	<path fill="#5CB3E2" d="M83.3,55.3c-0.6,0-1.1,0.5-1.1,1.1c0,0.6,0.5,1.1,1.1,1.1c0.6,0,1-0.4,1.1-0.9c0-0.1,0-0.2,0-0.3
		c0-0.1,0-0.1,0-0.2C84.2,55.6,83.8,55.3,83.3,55.3z"/>
	<path fill="#5CB3E2" d="M86,55.1c-0.6,0-1.1,0.5-1.1,1.1c0,0.6,0.5,1.1,1.1,1.1c0.6,0,1.1-0.5,1.1-1.1c0-0.1-0.1-0.2-0.1-0.3
		C86.9,55.5,86.5,55.1,86,55.1z"/>
	<path fill="#5CB3E2" d="M88.7,54.7c-0.6,0-1.1,0.5-1.1,1.1c0,0.6,0.5,1.1,1.1,1.1c0.6,0,1.1-0.5,1.1-1.1c0,0,0-0.1,0-0.1
		c0-0.1,0-0.1,0-0.2C89.6,55.1,89.2,54.7,88.7,54.7z"/>
	<path fill="#5CB3E2" d="M91.4,56.5c0.6,0,1.1-0.5,1.1-1.1c0-0.6-0.5-1.1-1.1-1.1c-0.6,0-1.1,0.5-1.1,1.1
		C90.2,56,90.7,56.5,91.4,56.5z"/>
	<path fill="#5CB3E2" d="M60.5,58.2c0,0.6,0.5,1.1,1.1,1.1c0.5,0,1-0.3,1.1-0.8c0-0.1,0-0.1,0-0.2c0,0,0-0.1,0-0.1
		c0-0.6-0.5-1.1-1.1-1.1C61,57,60.5,57.5,60.5,58.2z"/>
	<path fill="#5CB3E2" d="M63.2,58.6c0,0.6,0.5,1.1,1.1,1.1c0.5,0,0.9-0.3,1.1-0.8c0-0.1,0-0.2,0.1-0.3c0-0.6-0.5-1.1-1.1-1.1
		C63.7,57.5,63.2,58,63.2,58.6z"/>
	<path fill="#5CB3E2" d="M67,60.1c0.5,0,0.9-0.3,1.1-0.8c0-0.1,0-0.1,0-0.2c0-0.1,0-0.2,0-0.3c-0.1-0.5-0.6-0.9-1.1-0.9
		c-0.6,0-1.1,0.5-1.1,1.1C65.9,59.6,66.4,60.1,67,60.1z"/>
	<path fill="#5CB3E2" d="M69.7,60.2c0.5,0,1-0.3,1.1-0.8c0-0.1,0-0.1,0-0.2c0-0.1,0-0.2,0-0.3c-0.1-0.5-0.6-0.9-1.1-0.9
		c-0.6,0-1.1,0.5-1.1,1.1S69.1,60.2,69.7,60.2z"/>
	<path fill="#5CB3E2" d="M72.4,58.2c-0.6,0-1.1,0.5-1.1,1.1c0,0.6,0.5,1.1,1.1,1.1c0.5,0,1-0.3,1.1-0.8c0-0.1,0-0.1,0-0.2
		c0-0.1,0-0.2,0-0.3C73.4,58.5,73,58.2,72.4,58.2z"/>
	<path fill="#5CB3E2" d="M75.1,60.5c0.6,0,1.1-0.5,1.1-1.1c0-0.6-0.5-1.1-1.1-1.1c-0.6,0-1.1,0.5-1.1,1.1C74,60,74.5,60.5,75.1,60.5
		z"/>
	<path fill="#5CB3E2" d="M77.9,60.5c0.6,0,1.1-0.5,1.1-1.1c0-0.6-0.5-1.1-1.1-1.1c-0.6,0-1.1,0.5-1.1,1.1
		C76.8,60,77.3,60.5,77.9,60.5z"/>
	<path fill="#5CB3E2" d="M80.7,60.4c0.5,0,0.9-0.3,1-0.7c-0.1-0.2-0.1-0.4-0.1-0.6c0-0.1,0-0.3,0.1-0.4c-0.2-0.3-0.6-0.6-1-0.6
		c-0.6,0-1.1,0.5-1.1,1.1C79.6,59.9,80.1,60.4,80.7,60.4z"/>
	<path fill="#5CB3E2" d="M83.3,58c-0.6,0-1.1,0.5-1.1,1.1s0.5,1.1,1.1,1.1c0.6,0,1-0.4,1.1-0.9c0-0.1,0-0.2,0-0.3c0-0.1,0-0.1,0-0.2
		C84.2,58.4,83.8,58,83.3,58z"/>
	<path fill="#5CB3E2" d="M86,57.9c-0.6,0-1.1,0.5-1.1,1.1c0,0.6,0.5,1.1,1.1,1.1c0.6,0,1.1-0.5,1.1-1.1c0-0.1-0.1-0.2-0.1-0.3
		C86.9,58.2,86.5,57.9,86,57.9z"/>
	<path fill="#5CB3E2" d="M88.7,57.5c-0.6,0-1.1,0.5-1.1,1.1s0.5,1.1,1.1,1.1c0.6,0,1.1-0.5,1.1-1.1c0,0,0-0.1,0-0.1
		c0-0.1,0-0.1,0-0.2C89.6,57.9,89.2,57.5,88.7,57.5z"/>
	<path fill="#5CB3E2" d="M91.4,59.3c0.6,0,1.1-0.5,1.1-1.1S92,57,91.4,57c-0.6,0-1.1,0.5-1.1,1.1S90.7,59.3,91.4,59.3z"/>
	<path fill="#5CB3E2" d="M60.5,60.9c0,0.6,0.5,1.1,1.1,1.1c0.5,0,1-0.3,1.1-0.8c0-0.1,0-0.1,0-0.2c0,0,0-0.1,0-0.1
		c0-0.6-0.5-1.1-1.1-1.1C61,59.8,60.5,60.3,60.5,60.9z"/>
	<path fill="#5CB3E2" d="M63.2,61.3c0,0.6,0.5,1.1,1.1,1.1c0.5,0,0.9-0.3,1.1-0.8c0-0.1,0-0.2,0.1-0.3c0-0.6-0.5-1.1-1.1-1.1
		C63.7,60.2,63.2,60.7,63.2,61.3z"/>
	<path fill="#5CB3E2" d="M67,62.9c0.5,0,0.9-0.3,1.1-0.8c0-0.1,0-0.1,0-0.2c0-0.1,0-0.2,0-0.3C68,61,67.6,60.6,67,60.6
		c-0.6,0-1.1,0.5-1.1,1.1C65.9,62.4,66.4,62.9,67,62.9z"/>
	<path fill="#5CB3E2" d="M70.8,62.2c0-0.1,0-0.1,0-0.2c0-0.1,0-0.2,0-0.3c-0.1-0.5-0.6-0.9-1.1-0.9c-0.6,0-1.1,0.5-1.1,1.1
		c0,0.6,0.5,1.1,1.1,1.1C70.2,63,70.7,62.6,70.8,62.2z"/>
	<path fill="#5CB3E2" d="M72.4,60.9c-0.6,0-1.1,0.5-1.1,1.1c0,0.6,0.5,1.1,1.1,1.1c0.5,0,1-0.3,1.1-0.8c0-0.1,0-0.1,0-0.2
		c0-0.1,0-0.2,0-0.3C73.4,61.3,73,60.9,72.4,60.9z"/>
	<path fill="#5CB3E2" d="M75.1,63.2c0.6,0,1.1-0.5,1.1-1.1c0-0.6-0.5-1.1-1.1-1.1c-0.6,0-1.1,0.5-1.1,1.1
		C74,62.7,74.5,63.2,75.1,63.2z"/>
	<path fill="#5CB3E2" d="M77.9,63.2c0.6,0,1.1-0.5,1.1-1.1c0-0.6-0.5-1.1-1.1-1.1c-0.6,0-1.1,0.5-1.1,1.1
		C76.8,62.7,77.3,63.2,77.9,63.2z"/>
	<path fill="#5CB3E2" d="M80.7,63.1c0.5,0,0.9-0.3,1-0.7c-0.1-0.2-0.1-0.3-0.1-0.6c0-0.1,0-0.3,0.1-0.4c-0.2-0.3-0.6-0.6-1-0.6
		c-0.6,0-1.1,0.5-1.1,1.1C79.6,62.6,80.1,63.1,80.7,63.1z"/>
	<path fill="#5CB3E2" d="M84.3,62.1c0-0.1,0-0.2,0-0.3c0-0.1,0-0.1,0-0.2c-0.1-0.5-0.6-0.8-1.1-0.8c-0.6,0-1.1,0.5-1.1,1.1
		c0,0.6,0.5,1.1,1.1,1.1C83.8,63,84.3,62.6,84.3,62.1z"/>
	<path fill="#5CB3E2" d="M86,60.6c-0.6,0-1.1,0.5-1.1,1.1c0,0.6,0.5,1.1,1.1,1.1c0.6,0,1.1-0.5,1.1-1.1c0-0.1-0.1-0.2-0.1-0.3
		C86.9,61,86.5,60.6,86,60.6z"/>
	<path fill="#5CB3E2" d="M88.7,60.2c-0.6,0-1.1,0.5-1.1,1.1c0,0.6,0.5,1.1,1.1,1.1c0.6,0,1.1-0.5,1.1-1.1c0,0,0-0.1,0-0.1
		c0-0.1,0-0.1,0-0.2C89.6,60.6,89.2,60.2,88.7,60.2z"/>
	<path fill="#5CB3E2" d="M92.5,60.9c0-0.6-0.5-1.1-1.1-1.1c-0.6,0-1.1,0.5-1.1,1.1c0,0.6,0.5,1.1,1.1,1.1C92,62,92.5,61.5,92.5,60.9
		z"/>
	<path fill="#5CB3E2" d="M60.5,63.6c0,0.6,0.5,1.1,1.1,1.1c0.5,0,1-0.3,1.1-0.8c0-0.1,0-0.1,0-0.2c0,0,0-0.1,0-0.1
		c0-0.6-0.5-1.1-1.1-1.1C61,62.5,60.5,63,60.5,63.6z"/>
	<path fill="#5CB3E2" d="M63.2,64.1c0,0.6,0.5,1.1,1.1,1.1c0.5,0,0.9-0.3,1.1-0.8c0-0.1,0-0.2,0.1-0.3c0-0.6-0.5-1.1-1.1-1.1
		C63.7,63,63.2,63.5,63.2,64.1z"/>
	<path fill="#5CB3E2" d="M68.1,64.8c0-0.1,0-0.1,0-0.2c0-0.1,0-0.2,0-0.3c-0.1-0.5-0.6-0.9-1.1-0.9c-0.6,0-1.1,0.5-1.1,1.1
		c0,0.6,0.5,1.1,1.1,1.1C67.5,65.6,68,65.3,68.1,64.8z"/>
	<path fill="#5CB3E2" d="M70.8,64.9c0-0.1,0-0.1,0-0.2c0-0.1,0-0.2,0-0.3c-0.1-0.5-0.6-0.9-1.1-0.9c-0.6,0-1.1,0.5-1.1,1.1
		c0,0.6,0.5,1.1,1.1,1.1C70.2,65.7,70.7,65.4,70.8,64.9z"/>
	<path fill="#5CB3E2" d="M73.5,65c0-0.1,0-0.1,0-0.2c0-0.1,0-0.2,0-0.3c-0.1-0.5-0.6-0.9-1.1-0.9c-0.6,0-1.1,0.5-1.1,1.1
		c0,0.6,0.5,1.1,1.1,1.1C73,65.9,73.4,65.5,73.5,65z"/>
	<path fill="#5CB3E2" d="M75.1,66c0.6,0,1.1-0.5,1.1-1.1c0-0.6-0.5-1.1-1.1-1.1c-0.6,0-1.1,0.5-1.1,1.1C74,65.5,74.5,66,75.1,66z"/>
	<path fill="#5CB3E2" d="M77.9,65.9c0.6,0,1.1-0.5,1.1-1.1s-0.5-1.1-1.1-1.1c-0.6,0-1.1,0.5-1.1,1.1S77.3,65.9,77.9,65.9z"/>
	<path fill="#5CB3E2" d="M80.7,65.9c0.5,0,0.9-0.3,1-0.7c-0.1-0.2-0.1-0.4-0.1-0.6c0-0.1,0-0.3,0.1-0.4c-0.2-0.3-0.6-0.6-1-0.6
		c-0.6,0-1.1,0.5-1.1,1.1C79.6,65.4,80.1,65.9,80.7,65.9z"/>
	<path fill="#5CB3E2" d="M84.3,64.8c0-0.1,0-0.2,0-0.3c0-0.1,0-0.1,0-0.2c-0.1-0.5-0.6-0.8-1.1-0.8c-0.6,0-1.1,0.5-1.1,1.1
		c0,0.6,0.5,1.1,1.1,1.1C83.8,65.7,84.3,65.3,84.3,64.8z"/>
	<path fill="#5CB3E2" d="M86,63.4c-0.6,0-1.1,0.5-1.1,1.1c0,0.6,0.5,1.1,1.1,1.1c0.6,0,1.1-0.5,1.1-1.1c0-0.1-0.1-0.2-0.1-0.3
		C86.9,63.7,86.5,63.4,86,63.4z"/>
	<path fill="#5CB3E2" d="M88.7,63c-0.6,0-1.1,0.5-1.1,1.1c0,0.6,0.5,1.1,1.1,1.1c0.6,0,1.1-0.5,1.1-1.1c0,0,0-0.1,0-0.1
		c0-0.1,0-0.1,0-0.2C89.6,63.4,89.2,63,88.7,63z"/>
	<path fill="#5CB3E2" d="M91.4,64.8c0.6,0,1.1-0.5,1.1-1.1c0-0.6-0.5-1.1-1.1-1.1c-0.6,0-1.1,0.5-1.1,1.1
		C90.2,64.3,90.7,64.8,91.4,64.8z"/>
	<path fill="#5CB3E2" d="M60.5,66.4c0,0.6,0.5,1.1,1.1,1.1c0.5,0,1-0.3,1.1-0.8c0-0.1,0-0.1,0-0.2c0,0,0-0.1,0-0.1
		c0-0.6-0.5-1.1-1.1-1.1C61,65.3,60.5,65.8,60.5,66.4z"/>
	<path fill="#5CB3E2" d="M65.4,67.2c0-0.1,0-0.2,0.1-0.3c0-0.6-0.5-1.1-1.1-1.1c-0.6,0-1.1,0.5-1.1,1.1c0,0.6,0.5,1.1,1.1,1.1
		C64.8,68,65.3,67.6,65.4,67.2z"/>
	<path fill="#5CB3E2" d="M68.1,67.5c0-0.1,0-0.1,0-0.2c0-0.1,0-0.2,0-0.3c-0.1-0.5-0.6-0.9-1.1-0.9c-0.6,0-1.1,0.5-1.1,1.1
		c0,0.6,0.5,1.1,1.1,1.1C67.5,68.4,68,68,68.1,67.5z"/>
	<path fill="#5CB3E2" d="M70.8,67.7c0-0.1,0-0.1,0-0.2c0-0.1,0-0.2,0-0.3c-0.1-0.5-0.6-0.9-1.1-0.9c-0.6,0-1.1,0.5-1.1,1.1
		c0,0.6,0.5,1.1,1.1,1.1C70.2,68.5,70.7,68.1,70.8,67.7z"/>
	<path fill="#5CB3E2" d="M73.5,67.8c0-0.1,0-0.1,0-0.2c0-0.1,0-0.2,0-0.3c-0.1-0.5-0.6-0.9-1.1-0.9c-0.6,0-1.1,0.5-1.1,1.1
		c0,0.6,0.5,1.1,1.1,1.1C73,68.6,73.4,68.3,73.5,67.8z"/>
	<path fill="#5CB3E2" d="M75.1,68.7c0.6,0,1.1-0.5,1.1-1.1s-0.5-1.1-1.1-1.1c-0.6,0-1.1,0.5-1.1,1.1S74.5,68.7,75.1,68.7z"/>
	<path fill="#5CB3E2" d="M77.9,68.7c0.6,0,1.1-0.5,1.1-1.1c0-0.6-0.5-1.1-1.1-1.1c-0.6,0-1.1,0.5-1.1,1.1
		C76.8,68.2,77.3,68.7,77.9,68.7z"/>
	<path fill="#5CB3E2" d="M80.7,68.6c0.5,0,0.9-0.3,1-0.7c-0.1-0.2-0.1-0.4-0.1-0.6c0-0.1,0-0.3,0.1-0.4c-0.2-0.3-0.6-0.6-1-0.6
		c-0.6,0-1.1,0.5-1.1,1.1C79.6,68.1,80.1,68.6,80.7,68.6z"/>
	<path fill="#5CB3E2" d="M84.3,67.6c0-0.1,0-0.2,0-0.3c0-0.1,0-0.1,0-0.2c-0.1-0.5-0.6-0.8-1.1-0.8c-0.6,0-1.1,0.5-1.1,1.1
		c0,0.6,0.5,1.1,1.1,1.1C83.8,68.5,84.3,68.1,84.3,67.6z"/>
	<path fill="#5CB3E2" d="M87.1,67.3c0-0.1-0.1-0.2-0.1-0.3c-0.1-0.5-0.6-0.8-1.1-0.8c-0.6,0-1.1,0.5-1.1,1.1c0,0.6,0.5,1.1,1.1,1.1
		C86.6,68.4,87,67.9,87.1,67.3z"/>
	<path fill="#5CB3E2" d="M88.7,65.8c-0.6,0-1.1,0.5-1.1,1.1c0,0.6,0.5,1.1,1.1,1.1c0.6,0,1.1-0.5,1.1-1.1c0,0,0-0.1,0-0.1
		c0-0.1,0-0.1,0-0.2C89.6,66.1,89.2,65.8,88.7,65.8z"/>
	<path fill="#5CB3E2" d="M91.4,67.5c0.6,0,1.1-0.5,1.1-1.1s-0.5-1.1-1.1-1.1c-0.6,0-1.1,0.5-1.1,1.1S90.7,67.5,91.4,67.5z"/>
	<path fill="#5CB3E2" d="M61.6,68c-0.6,0-1.1,0.5-1.1,1.1c0,0.6,0.5,1.1,1.1,1.1c0.5,0,1-0.3,1.1-0.8c0-0.1,0-0.1,0-0.2
		c0,0,0-0.1,0-0.1C62.8,68.5,62.2,68,61.6,68z"/>
	<path fill="#5CB3E2" d="M64.3,68.5c-0.6,0-1.1,0.5-1.1,1.1c0,0.6,0.5,1.1,1.1,1.1c0.5,0,0.9-0.3,1.1-0.8c0-0.1,0-0.2,0.1-0.3
		C65.4,69,64.9,68.5,64.3,68.5z"/>
	<path fill="#5CB3E2" d="M67,68.9c-0.6,0-1.1,0.5-1.1,1.1c0,0.6,0.5,1.1,1.1,1.1c0.5,0,0.9-0.3,1.1-0.8c0-0.1,0-0.1,0-0.2
		c0-0.1,0-0.2,0-0.3C68,69.3,67.6,68.9,67,68.9z"/>
	<path fill="#5CB3E2" d="M69.7,69c-0.6,0-1.1,0.5-1.1,1.1c0,0.6,0.5,1.1,1.1,1.1c0.5,0,1-0.3,1.1-0.8c0-0.1,0-0.1,0-0.2
		c0-0.1,0-0.2,0-0.3C70.7,69.4,70.3,69,69.7,69z"/>
	<path fill="#5CB3E2" d="M72.4,69.1c-0.6,0-1.1,0.5-1.1,1.1c0,0.6,0.5,1.1,1.1,1.1c0.5,0,1-0.3,1.1-0.8c0-0.1,0-0.1,0-0.2
		c0-0.1,0-0.2,0-0.3C73.4,69.5,73,69.1,72.4,69.1z"/>
	<path fill="#5CB3E2" d="M75.1,71.5c0.6,0,1.1-0.5,1.1-1.1c0-0.6-0.5-1.1-1.1-1.1c-0.6,0-1.1,0.5-1.1,1.1C74,71,74.5,71.5,75.1,71.5
		z"/>
	<path fill="#5CB3E2" d="M77.9,71.4c0.6,0,1.1-0.5,1.1-1.1s-0.5-1.1-1.1-1.1c-0.6,0-1.1,0.5-1.1,1.1S77.3,71.4,77.9,71.4z"/>
	<path fill="#5CB3E2" d="M81.7,70.7c-0.1-0.2-0.1-0.4-0.1-0.6c0-0.1,0-0.3,0.1-0.4c-0.2-0.3-0.6-0.6-1-0.6c-0.6,0-1.1,0.5-1.1,1.1
		c0,0.6,0.5,1.1,1.1,1.1C81.1,71.4,81.5,71.1,81.7,70.7z"/>
	<path fill="#5CB3E2" d="M83.3,69c-0.6,0-1.1,0.5-1.1,1.1c0,0.6,0.5,1.1,1.1,1.1c0.6,0,1-0.4,1.1-0.9c0-0.1,0-0.2,0-0.3
		c0-0.1,0-0.1,0-0.2C84.2,69.4,83.8,69,83.3,69z"/>
	<path fill="#5CB3E2" d="M87,69.7c-0.1-0.5-0.6-0.8-1.1-0.8c-0.6,0-1.1,0.5-1.1,1.1c0,0.6,0.5,1.1,1.1,1.1c0.6,0,1.1-0.5,1.1-1.1
		C87,69.9,87,69.8,87,69.7z"/>
	<path fill="#5CB3E2" d="M88.7,68.5c-0.6,0-1.1,0.5-1.1,1.1c0,0.6,0.5,1.1,1.1,1.1c0.6,0,1.1-0.5,1.1-1.1c0,0,0-0.1,0-0.1
		c0-0.1,0-0.1,0-0.2C89.6,68.9,89.2,68.5,88.7,68.5z"/>
	<path fill="#5CB3E2" d="M91.4,70.3c0.6,0,1.1-0.5,1.1-1.1S92,68,91.4,68c-0.6,0-1.1,0.5-1.1,1.1S90.7,70.3,91.4,70.3z"/>
	<path fill="#5CB3E2" stroke="#005888" stroke-miterlimit="10" d="M76.5,45.6c9,0,16.3-1,16.3-2.3c0-1.3-7.3-2.3-16.3-2.3
		c-9,0-16.3,1-16.3,2.3C60.2,44.6,67.5,45.6,76.5,45.6z"/>
	<path fill="#5CB3E2" stroke="#005888" stroke-miterlimit="10" d="M76.5,44.2c3.4,0,6.1-0.4,6.1-0.9c0-0.5-2.7-0.9-6.1-0.9
		c-3.4,0-6.1,0.4-6.1,0.9C70.4,43.8,73.1,44.2,76.5,44.2z"/>
</g>
</svg>
