<?xml version="1.0" encoding="utf-8"?>
<!-- Generator: Adobe Illustrator 24.0.1, SVG Export Plug-In . SVG Version: 6.00 Build 0)  -->
<svg version="1.1" id="Layer_1" xmlns="http://www.w3.org/2000/svg" xmlns:xlink="http://www.w3.org/1999/xlink" x="0px" y="0px"
	 viewBox="0 0 149 153" enable-background="new 0 0 149 153" xml:space="preserve">
<g opacity="0.5">
	<path d="M77,17.6c0.6-0.4,1.4-0.4,2,0l50,28.8c0.6,0.4,1,1,1,1.7v57.7c0,0.7-0.4,1.4-1,1.7l-50,28.8c-0.6,0.4-1.4,0.4-2,0l-50-28.8
		c-0.6-0.4-1-1-1-1.7V48.2c0-0.7,0.4-1.4,1-1.7L77,17.6z"/>
	<g>
		<path d="M77.5,151.7c-0.3,0-0.7-0.1-1-0.3L14,115.3c-0.6-0.4-1-1-1-1.7V41.4c0-0.7,0.4-1.4,1-1.7L76.5,3.6l0,0l0,0h0.1l1.2-0.7
			l0.3,0.6c0.1,0,0.2,0.1,0.4,0.2l62.5,36c0.6,0.4,1,1,1,1.7v72.2c0,0.7-0.4,1.4-1,1.7l-62.5,36.1C78.2,151.6,77.8,151.7,77.5,151.7
			z M16,113l61.5,35.5L139,113V42L77.5,6.5L16,42V113z"/>
	</g>
</g>
<g>
	
		<linearGradient id="SVGID_1_" gradientUnits="userSpaceOnUse" x1="75" y1="701.9999" x2="75" y2="821.9999" gradientTransform="matrix(1 0 0 1 0 -688)">
		<stop  offset="0" style="stop-color:#FFFFFF"/>
		<stop  offset="1" style="stop-color:#C4C4C4"/>
	</linearGradient>
	<path fill="url(#SVGID_1_)" d="M74,14.6c0.6-0.4,1.4-0.4,2,0l50,28.8c0.6,0.4,1,1,1,1.7v57.7c0,0.7-0.4,1.4-1,1.7l-50,28.8
		c-0.6,0.4-1.4,0.4-2,0l-50-28.8c-0.6-0.4-1-1-1-1.7V45.2c0-0.7,0.4-1.4,1-1.7L74,14.6z"/>
	<path fill="#005888" d="M64.2,39.9c0.8,0,1.5-0.7,1.5-1.5s-0.7-1.5-1.5-1.5c-0.8,0-1.5,0.7-1.5,1.5S63.4,39.9,64.2,39.9z"/>
	<path fill="none" stroke="#005888" stroke-width="1.5" stroke-miterlimit="10" d="M70.4,60.2h-3.8c-1.3,0-2.4-1.1-2.4-2.4V35.1
		c0-1.3,1.1-2.4,2.4-2.4h18.8c1.3,0,2.4,1.1,2.4,2.4"/>
	<path fill="none" stroke="#005888" stroke-width="1.5" stroke-miterlimit="10" d="M64.2,38.4h-5.6c-1.1,0-2.1,0.9-2.1,2.1"/>
	<path fill="#5CB3E2" stroke="#005888" stroke-miterlimit="10" d="M61.8,66.2H51.3v-21c0-2.9,2.4-5.2,5.2-5.2c2.9,0,5.2,2.4,5.2,5.2
		v21H61.8z"/>
	<path fill="#5CB3E2" stroke="#005888" stroke-miterlimit="10" d="M81,56.2h-8.1v-17c0-2.2,1.8-4.1,4.1-4.1c2.2,0,4,1.9,4,4.1V56.2z
		"/>
	<path fill="#5CB3E2" stroke="#005888" stroke-miterlimit="10" d="M91.8,56.2h-8.1v-17c0-2.2,1.8-4.1,4.1-4.1c2.2,0,4.1,1.8,4.1,4.1
		L91.8,56.2L91.8,56.2z"/>
	<path fill="#005888" d="M98.3,70.8H50.6c-0.9,0-1.6-0.7-1.6-1.6v-2.1c0-0.9,0.7-1.6,1.6-1.6h19.9h27.8c0.9,0,1.6,0.7,1.6,1.6v2.1
		C99.9,70.1,99.2,70.8,98.3,70.8z"/>
	<path fill="none" stroke="#005888" stroke-width="2" stroke-miterlimit="10" d="M77.1,32.8v2.3"/>
	<path fill="#005888" d="M93.7,55.7H72.1c-0.9,0-1.7,0.8-1.7,1.7V69c0,0.9,0.8,1.7,1.7,1.7h26.2c0.9,0,1.7-0.8,1.7-1.7v-7
		c0-0.5-0.2-0.9-0.5-1.2l-4.6-4.6C94.6,55.9,94.1,55.7,93.7,55.7z M76.9,61.7h-4.1v-1.4h4.1V61.7z M76.9,59.5h-4.1v-1.4h4.1V59.5z
		 M82.1,61.7H78v-1.4h4.1V61.7z M82.1,59.5H78v-1.4h4.1V59.5z M87.4,61.7h-4.1v-1.4h4.1V61.7z M87.4,59.5h-4.1v-1.4h4.1V59.5z
		 M92.6,61.7h-4.1v-1.4h4.1V61.7z M92.6,59.5h-4.1v-1.4h4.1V59.5z"/>
	<g>
		<path fill="#FFFFFF" d="M74.5,148.7c-0.3,0-0.7-0.1-1-0.3L11,112.3c-0.6-0.4-1-1-1-1.7V38.4c0-0.7,0.4-1.4,1-1.7L73.5,0.6l0,0l0,0
			h0.1l1.2-0.7l0.3,0.6c0.1,0,0.2,0.1,0.4,0.2l62.5,36c0.6,0.4,1,1,1,1.7v72.2c0,0.7-0.4,1.4-1,1.7l-62.5,36.1
			C75.2,148.6,74.8,148.7,74.5,148.7z M13,110l61.5,35.5L136,110V39L74.5,3.5L13,39V110z"/>
	</g>
	<path fill="#3E3E3E" d="M58.2,87.1c-0.3,0-0.5-0.1-0.6-0.2c-0.2-0.2-0.2-0.4-0.2-0.6V80c0-0.3,0.1-0.5,0.2-0.6
		c0.1-0.1,0.3-0.2,0.6-0.2H61c0.8,0,1.5,0.2,2,0.6s0.7,1,0.7,1.8S63.5,83,63,83.4S61.9,84,61,84h-2v2.1c0,0.3-0.1,0.5-0.2,0.6
		S58.4,87.1,58.2,87.1z M60.7,82.8c0.9,0,1.3-0.4,1.3-1.1s-0.4-1.1-1.3-1.1H59v2.2H60.7z"/>
	<path fill="#3E3E3E" d="M65.5,87c-0.3,0-0.5-0.1-0.6-0.2s-0.2-0.3-0.2-0.6V80c0-0.3,0.1-0.5,0.2-0.6c0.2-0.2,0.4-0.2,0.6-0.2
		s0.5,0.1,0.6,0.2c0.2,0.2,0.2,0.4,0.2,0.6v5.6h2.8c0.5,0,0.8,0.2,0.8,0.7S69.6,87,69.1,87C69.1,87,65.5,87,65.5,87z"/>
	<path fill="#3E3E3E" d="M78.1,86c0.1,0.1,0.1,0.2,0.1,0.4c0,0.2-0.1,0.4-0.3,0.5C77.8,87,77.6,87,77.4,87c-0.1,0-0.3,0-0.4-0.1
		s-0.2-0.2-0.3-0.4l-0.6-1.3h-3.7l-0.6,1.3c-0.1,0.2-0.2,0.3-0.3,0.4C71.4,87,71.2,87,71.1,87c-0.2,0-0.4-0.1-0.6-0.2
		s-0.3-0.3-0.3-0.5c0-0.1,0-0.2,0.1-0.4l3-6.2c0.1-0.2,0.2-0.3,0.4-0.4c0.2-0.1,0.3-0.1,0.5-0.1s0.4,0,0.5,0.1
		c0.2,0.1,0.3,0.2,0.4,0.4L78.1,86z M72.9,84h2.6l-1.3-2.9L72.9,84z"/>
	<path fill="#3E3E3E" d="M85,79.2c0.2,0,0.4,0.1,0.6,0.2c0.2,0.2,0.2,0.4,0.2,0.6v6.2c0,0.3-0.1,0.5-0.2,0.6C85.5,87,85.3,87,85,87
		c-0.3,0-0.5-0.1-0.6-0.3L80.7,82v4.1c0,0.3-0.1,0.5-0.2,0.6c-0.1,0.2-0.3,0.2-0.6,0.2c-0.2,0-0.4-0.1-0.6-0.2
		c-0.1-0.2-0.2-0.4-0.2-0.6V80c0-0.2,0.1-0.5,0.2-0.6c0.2-0.2,0.4-0.2,0.6-0.2c0.3,0,0.5,0.1,0.6,0.3l3.7,4.7V80
		c0-0.2,0.1-0.5,0.2-0.6C84.6,79.3,84.8,79.2,85,79.2z"/>
	<path fill="#3E3E3E" d="M90,87.1c-0.3,0-0.5-0.1-0.6-0.2c-0.2-0.2-0.2-0.4-0.2-0.6v-5.6h-1.8c-0.5,0-0.8-0.2-0.8-0.7
		s0.3-0.7,0.8-0.7h5.3c0.5,0,0.8,0.2,0.8,0.7s-0.3,0.7-0.8,0.7h-1.8v5.6c0,0.3-0.1,0.5-0.2,0.6C90.5,87,90.3,87.1,90,87.1z"/>
	<path fill="#3E3E3E" d="M44.2,102c-0.3,0-0.5-0.1-0.6-0.2s-0.2-0.3-0.2-0.6V95c0-0.3,0.1-0.5,0.2-0.6c0.1-0.1,0.3-0.2,0.6-0.2h3.9
		c0.5,0,0.8,0.2,0.8,0.7c0,0.4-0.3,0.7-0.8,0.7h-3v1.8h2.8c0.5,0,0.8,0.2,0.8,0.7c0,0.4-0.3,0.7-0.8,0.7H45v1.9h3
		c0.5,0,0.8,0.2,0.8,0.7c0,0.4-0.3,0.7-0.8,0.7h-3.8V102z"/>
	<path fill="#3E3E3E" d="M56.5,102.9c0.1,0.2,0.2,0.3,0.2,0.5s-0.1,0.4-0.3,0.5s-0.4,0.2-0.6,0.2c-0.2,0-0.3,0-0.4-0.1
		c-0.1-0.1-0.2-0.2-0.3-0.3l-0.7-1.1c-0.1-0.1-0.2-0.3-0.4-0.3c-0.1-0.1-0.3-0.1-0.6-0.1c-0.8,0-1.4-0.2-2-0.5s-1-0.8-1.3-1.4
		s-0.5-1.3-0.5-2.1c0-0.8,0.2-1.5,0.5-2.1s0.7-1.1,1.3-1.4s1.2-0.5,2-0.5s1.4,0.2,2,0.5s1,0.8,1.3,1.4s0.5,1.3,0.5,2.1
		c0,0.8-0.2,1.6-0.5,2.2s-0.8,1.1-1.4,1.4c0.4,0.1,0.6,0.3,0.9,0.7L56.5,102.9z M53.5,100.8c0.6,0,1.2-0.2,1.5-0.7
		c0.4-0.5,0.6-1.1,0.6-2s-0.2-1.5-0.6-2c-0.4-0.5-0.9-0.7-1.5-0.7c-0.7,0-1.2,0.2-1.5,0.7c-0.4,0.4-0.5,1.1-0.5,2s0.2,1.5,0.5,2
		C52.3,100.5,52.8,100.8,53.5,100.8z"/>
	<path fill="#3E3E3E" d="M61.8,102.1c-1.1,0-1.9-0.3-2.5-0.8c-0.6-0.6-0.8-1.4-0.8-2.5V95c0-0.3,0.1-0.5,0.2-0.6
		c0.2-0.2,0.4-0.2,0.6-0.2c0.3,0,0.5,0.1,0.6,0.2c0.2,0.2,0.2,0.4,0.2,0.6v3.8c0,0.6,0.1,1.1,0.4,1.4c0.3,0.3,0.7,0.5,1.2,0.5
		s0.9-0.2,1.2-0.5s0.4-0.8,0.4-1.4V95c0-0.3,0.1-0.5,0.2-0.6c0.2-0.2,0.4-0.2,0.6-0.2c0.3,0,0.5,0.1,0.6,0.2
		c0.2,0.2,0.2,0.4,0.2,0.6v3.8c0,1.1-0.3,1.9-0.9,2.5C63.7,101.8,62.9,102.1,61.8,102.1z"/>
	<path fill="#3E3E3E" d="M67.5,102.1c-0.3,0-0.5-0.1-0.6-0.2s-0.2-0.4-0.2-0.6V95c0-0.3,0.1-0.5,0.2-0.6c0.2-0.2,0.4-0.2,0.6-0.2
		s0.5,0.1,0.6,0.2c0.2,0.2,0.2,0.4,0.2,0.6v6.2c0,0.3-0.1,0.5-0.2,0.6C68,102,67.8,102.1,67.5,102.1z"/>
	<path fill="#3E3E3E" d="M70.8,102.1c-0.3,0-0.5-0.1-0.6-0.2s-0.2-0.4-0.2-0.6V95c0-0.3,0.1-0.5,0.2-0.6s0.3-0.2,0.6-0.2h2.8
		c0.8,0,1.5,0.2,2,0.6s0.7,1,0.7,1.8s-0.2,1.4-0.7,1.8s-1.1,0.6-2,0.6h-1.8v2.1c0,0.3-0.1,0.5-0.2,0.6S71.1,102.1,70.8,102.1z
		 M73.3,97.8c0.9,0,1.3-0.4,1.3-1.1s-0.4-1.1-1.3-1.1h-1.6v2.2H73.3z"/>
	<path fill="#3E3E3E" d="M84.2,94.2c0.2,0,0.4,0.1,0.6,0.2C85,94.6,85,94.8,85,95v6.2c0,0.2-0.1,0.4-0.2,0.6
		c-0.1,0.1-0.3,0.2-0.6,0.2c-0.2,0-0.4-0.1-0.5-0.2s-0.2-0.3-0.2-0.6v-3.9l-1.6,2.9c-0.1,0.2-0.2,0.3-0.3,0.4
		c-0.1,0.1-0.3,0.1-0.4,0.1c-0.2,0-0.3,0-0.4-0.1s-0.2-0.2-0.3-0.4l-1.6-2.9v3.8c0,0.2-0.1,0.4-0.2,0.6c-0.1,0.1-0.3,0.2-0.5,0.2
		s-0.4-0.1-0.5-0.2s-0.2-0.3-0.2-0.6V95c0-0.2,0.1-0.5,0.2-0.6c0.2-0.2,0.4-0.2,0.6-0.2c0.4,0,0.6,0.2,0.8,0.6l2.2,4.2l2.2-4.2
		C83.6,94.4,83.8,94.2,84.2,94.2z"/>
	<path fill="#3E3E3E" d="M87.3,102c-0.3,0-0.5-0.1-0.6-0.2s-0.2-0.3-0.2-0.6V95c0-0.3,0.1-0.5,0.2-0.6s0.3-0.2,0.6-0.2h3.9
		c0.5,0,0.8,0.2,0.8,0.7c0,0.4-0.3,0.7-0.8,0.7h-3v1.8H91c0.5,0,0.8,0.2,0.8,0.7c0,0.4-0.3,0.7-0.8,0.7h-2.8v1.9h3
		c0.5,0,0.8,0.2,0.8,0.7c0,0.4-0.3,0.7-0.8,0.7h-3.9V102z"/>
	<path fill="#3E3E3E" d="M99,94.2c0.2,0,0.4,0.1,0.6,0.2c0.2,0.2,0.2,0.4,0.2,0.6v6.2c0,0.3-0.1,0.5-0.2,0.6
		c-0.1,0.2-0.3,0.2-0.6,0.2c-0.3,0-0.5-0.1-0.6-0.3L94.7,97v4.1c0,0.3-0.1,0.5-0.2,0.6c-0.1,0.2-0.3,0.2-0.6,0.2
		c-0.2,0-0.4-0.1-0.6-0.2c-0.1-0.2-0.2-0.4-0.2-0.6V95c0-0.2,0.1-0.5,0.2-0.6c0.2-0.2,0.4-0.2,0.6-0.2c0.3,0,0.5,0.1,0.6,0.3
		l3.7,4.7V95c0-0.2,0.1-0.5,0.2-0.6C98.6,94.3,98.7,94.2,99,94.2z"/>
	<path fill="#3E3E3E" d="M104,102.1c-0.3,0-0.5-0.1-0.6-0.2c-0.2-0.2-0.2-0.4-0.2-0.6v-5.6h-1.8c-0.5,0-0.8-0.2-0.8-0.7
		s0.3-0.7,0.8-0.7h5.3c0.5,0,0.8,0.2,0.8,0.7s-0.3,0.7-0.8,0.7h-1.8v5.6c0,0.3-0.1,0.5-0.2,0.6S104.2,102.1,104,102.1z"/>
</g>
</svg>
