<?xml version="1.0" encoding="utf-8"?>
<!-- Generator: Adobe Illustrator 24.0.1, SVG Export Plug-In . SVG Version: 6.00 Build 0)  -->
<svg version="1.1" id="Layer_1" xmlns="http://www.w3.org/2000/svg" xmlns:xlink="http://www.w3.org/1999/xlink" x="0px" y="0px"
	viewBox="0 0 149 153" enable-background="new 0 0 149 153" xml:space="preserve">
<g opacity="0.5">
	<path d="M77,17.6c0.6-0.4,1.4-0.4,2,0l50,28.8c0.6,0.4,1,1,1,1.7v57.7c0,0.7-0.4,1.4-1,1.7l-50,28.8c-0.6,0.4-1.4,0.4-2,0l-50-28.8
		c-0.6-0.4-1-1-1-1.7V48.2c0-0.7,0.4-1.4,1-1.7L77,17.6z"/>
	<g>
		<path d="M77.5,151.7c-0.3,0-0.7-0.1-1-0.3L14,115.3c-0.6-0.4-1-1-1-1.7V41.4c0-0.7,0.4-1.4,1-1.7L76.5,3.6l0,0l0,0h0.1l1.2-0.7
			l0.3,0.6c0.1,0,0.2,0.1,0.4,0.2l62.5,36c0.6,0.4,1,1,1,1.7v72.2c0,0.7-0.4,1.4-1,1.7l-62.5,36.1C78.2,151.6,77.8,151.7,77.5,151.7
			z M16,113l61.5,35.5L139,113V42L77.5,6.5L16,42V113z"/>
	</g>
</g>
	<g>
	
		<linearGradient id="SVGID_1_" gradientUnits="userSpaceOnUse" x1="75.0003" y1="139.8898" x2="75.0003" y2="19.8898" gradientTransform="matrix(1 0 0 -1 0 153.8898)">
		<stop  offset="0" style="stop-color:#FFFFFF"/>
			<stop  offset="1" style="stop-color:#C4C4C4"/>
	</linearGradient>
		<path fill="url(#SVGID_1_)" d="M74,14.6c0.6-0.4,1.4-0.4,2,0l50,28.8c0.6,0.4,1,1,1,1.7v57.7c0,0.7-0.4,1.4-1,1.7l-50,28.8
		c-0.6,0.4-1.4,0.4-2,0l-50-28.8c-0.6-0.4-1-1-1-1.7V45.2c0-0.7,0.4-1.4,1-1.7L74,14.6z"/>
		<path fill="#005888" d="M72.6,53.9h-19c-1.1,0-2-0.9-2-2V40c0-1.1,0.9-2,2-2h19c1.1,0,2,0.9,2,2V52C74.6,53,73.7,53.9,72.6,53.9z"
		/>
		<path fill="#005888" d="M72.6,54H53.7c-1.2,0-2.1-1-2.1-2.1V40.1c0-1.1,1-2.1,2.1-2.1h18.7c1.2,0,2.1,1,2.1,2.1v11.7
		C74.7,53.1,73.7,54,72.6,54z M53.7,38.2c-1.1,0-1.9,0.8-1.9,1.9v11.7c0,1.1,0.8,1.9,1.9,1.9h18.7c1.1,0,1.9-0.8,1.9-1.9V40.1
		c0-1.1-0.8-1.9-1.9-1.9H53.7L53.7,38.2z"/>
		<path fill="#7AC4EC" d="M71.5,52.6H54.8c-0.8,0-1.5-0.7-1.5-1.5V40.9c0-0.8,0.7-1.5,1.5-1.5h16.6c0.8,0,1.5,0.7,1.5,1.5v10.2
		C72.9,52,72.3,52.6,71.5,52.6z"/>
		<path fill="#005888" d="M59.4,42.7h-2.5v8.4h2.5V42.7z"/>
		<path fill="#005888" d="M63.8,47.3h-2.5v3.9h2.5V47.3z"/>
		<path fill="#005888" d="M68.3,44.7h-2.5v6.4h2.5V44.7z"/>
		<path fill="#005888" d="M97.5,53.9h-19c-1.1,0-1.9-0.8-1.9-1.9V40c0-1.1,0.8-1.9,1.9-1.9h19c1.1,0,1.9,0.8,1.9,1.9v12
		C99.4,53,98.6,53.9,97.5,53.9z"/>
		<path fill="#005888" d="M97.4,54H78.6c-1.2,0-2.1-1-2.1-2.1V40.1C76.4,39,77.4,38,78.6,38h18.7c1.2,0,2.1,1,2.1,2.1v11.7
		C99.6,53.1,98.6,54,97.4,54z M78.6,38.2c-1.1,0-1.9,0.8-1.9,1.9v11.7c0,1.1,0.8,1.9,1.9,1.9h18.7c1.1,0,1.9-0.8,1.9-1.9V40.1
		c0-1.1-0.8-1.9-1.9-1.9H78.6L78.6,38.2z"/>
		<path fill="#7AC4EC" d="M96.3,52.6H79.7c-0.8,0-1.5-0.7-1.5-1.5V40.9c0-0.8,0.7-1.5,1.5-1.5h16.6c0.8,0,1.5,0.7,1.5,1.5v10.2
		C97.8,52,97.1,52.6,96.3,52.6z"/>
		<path fill="#005888" d="M82.7,45.3h-2.1v2.1h2.1V45.3z"/>
		<path fill="#005888" d="M86,48.5h-2.1v2.1H86V48.5z"/>
		<path fill="#005888" d="M89.4,45.1h-2.1v2.1h2.1V45.1z"/>
		<path fill="#005888" d="M92.6,41.7h-2.1v2.1h2.1V41.7z"/>
		<path fill="#005888" d="M95.8,45h-2.1v2.1h2.1V45z"/>
		<path fill="#005888" d="M84.9,50l-2.8-2.7l0.4-0.4l2.4,2.3l3.3-3.2l3.3-3.6l3.4,3.4l-0.4,0.5l-3-3l-3,3.1L84.9,50z"/>
		<path fill="#F7F7F7" d="M75.6,55.6c3,0,5.4-2.7,5.4-6c0-3.3-2.4-6-5.4-6s-5.4,2.7-5.4,6C70.2,52.9,72.6,55.6,75.6,55.6z"/>
		<path fill="#005888" d="M82.4,67.2c0-1.4,0.1-2.8,0-4.2c-0.1-2.4-2-4.2-4.3-4.2c-1.7,0-3.3,0-4.9,0c-2.4,0.1-4.4,2-4.5,4.5
		c-0.1,2.7-0.1,5.3,0,8c0,1.1-0.3,1.6-1.4,1.7c-1.1,0.2-2-0.5-2-1.5c0-1.2,0-2.4,0-3.6c0.2-3.8,1.1-7.4,3.5-10.5
		c3.6-4.6,9.7-4.8,13.4-0.2c2.5,3,3.4,6.7,3.6,10.5c0.1,1.1,0.1,2.3,0,3.4c-0.1,1.3-1.1,2-2.3,1.8c-0.8-0.2-1.2-0.5-1.2-1.4
		C82.5,70,82.4,68.6,82.4,67.2z"/>
		<path fill="#005888" d="M80.6,67.1c0,1.3,0,2.6,0,3.9c0,1.7-1.1,2.7-2.7,2.7c-1.5,0.1-3,0.1-4.6,0c-1.7-0.1-2.7-1.1-2.7-2.8
		c0-2.5,0-4.9,0-7.4c0-1.9,1-2.9,2.9-3c1.4-0.1,2.9-0.1,4.3,0c1.8,0.1,2.8,1.1,2.8,2.9c0,0.6,0,1.2,0,1.8
		C80.6,65.9,80.6,66.5,80.6,67.1z"/>
		<path fill="#005888" d="M74.8,76.1c-1.7,0-3.2,0-4.8,0c-0.5,0-1.1-0.1-1.4-0.3c-0.4-0.3-0.7-1-0.6-1.4c0.1-0.5,0.5-1,1-1.2
		c0.4-0.2,1.1,0,1.4,0.3c0.8,0.8,1.6,1.1,2.7,1.1c1.7,0,3.3,0.1,5-0.1c0.8-0.1,1.7-0.5,2.4-1.1c0.6-0.5,1.2-0.7,1.7-0.3
		c0.5,0.3,0.9,0.9,0.9,1.4c0,0.5-0.5,1-0.9,1.4c-0.2,0.2-0.8,0.2-1.1,0.2c-1.6,0-3.1,0-4.8,0c0,2.6,0,5.2,0,7.8
		c0.7,0.1,1.4,0.2,2,0.2c1.3,0.2,2.1,0.9,2.1,2c0,0.3-0.3,0.7-0.5,1c-0.3-0.2-0.8-0.4-0.9-0.6c-0.2-0.8-0.8-1-1.4-1
		c-1.4,0-2.8-0.1-4.2,0c-0.5,0.1-1,0.6-1.4,1c-0.3,0.2-0.6,0.4-0.9,0.6c-0.2-0.3-0.5-0.7-0.5-1c0-1.1,0.8-1.8,2.1-2
		c0.7-0.1,1.4-0.2,2-0.2C74.8,81.3,74.8,78.7,74.8,76.1z"/>
		<path fill="#005888" d="M71.7,49.5c0.2-2.5,2-4.4,3.9-4.2c2,0.2,3.6,1.9,3.8,4.2C76.9,49.5,74.3,49.5,71.7,49.5z"/>
		<path fill="#005888" d="M77,77c1.4,0,2.7,0,3.9,0c0,1.7,0.1,3.3,0,4.9c-0.1,1-0.8,1.5-1.8,1.6c-0.9,0.1-1.7-0.7-1.8-1.7
		C77,80.2,77,78.7,77,77z"/>
		<path fill="#005888" d="M70.4,77.1c1.1,0,2.4,0,3.9,0c-0.1,1.7-0.2,3.5-0.4,5.2c-0.1,0.8-0.8,1.4-1.7,1.3c-1.1-0.1-1.7-0.7-1.7-1.7
		C70.3,80.2,70.4,78.7,70.4,77.1z"/>
		<path fill="#005888" d="M79.2,50.2c-0.5,2.4-2,3.4-4,3.3c-1.7-0.2-3-1.4-3.1-3.2c0.2,0,0.5-0.1,0.8-0.1
		C74.9,50.2,77,50.2,79.2,50.2z"/>
		<path fill="#3E3E3E" d="M44,102.1c-0.8,0-1.4-0.2-2-0.5c-0.6-0.3-1-0.8-1.3-1.4c-0.3-0.6-0.5-1.3-0.5-2.1c0-0.8,0.2-1.5,0.5-2.1
		c0.3-0.6,0.7-1.1,1.3-1.4c0.6-0.3,1.2-0.5,2-0.5s1.4,0.2,2,0.5c0.6,0.3,1,0.8,1.3,1.4c0.3,0.6,0.5,1.3,0.5,2.1
		c0,0.8-0.2,1.5-0.5,2.1c-0.3,0.6-0.7,1.1-1.3,1.4C45.5,101.9,44.8,102.1,44,102.1z M44,100.8c0.6,0,1.2-0.2,1.5-0.7
		c0.4-0.5,0.6-1.1,0.6-2c0-0.9-0.2-1.5-0.5-2c-0.4-0.5-0.9-0.7-1.5-0.7c-0.7,0-1.2,0.2-1.5,0.7c-0.4,0.4-0.5,1.1-0.5,2
		c0,0.9,0.2,1.5,0.6,2C42.9,100.5,43.4,100.8,44,100.8z"/>
		<path fill="#3E3E3E" d="M50,102.1c-0.3,0-0.5-0.1-0.6-0.2c-0.2-0.2-0.2-0.4-0.2-0.6V95c0-0.3,0.1-0.5,0.2-0.6
		c0.1-0.1,0.3-0.2,0.6-0.2h2.8c0.8,0,1.5,0.2,2,0.6c0.5,0.4,0.7,1,0.7,1.8c0,0.8-0.2,1.4-0.7,1.8c-0.5,0.4-1.1,0.6-2,0.6h-1.8v2.1
		c0,0.3-0.1,0.5-0.2,0.6S50.3,102.1,50,102.1z M52.5,97.8c0.9,0,1.3-0.4,1.3-1.1c0-0.7-0.4-1.1-1.3-1.1h-1.6v2.2H52.5z"/>
		<path fill="#3E3E3E" d="M57.3,102c-0.3,0-0.5-0.1-0.6-0.2c-0.1-0.1-0.2-0.3-0.2-0.6V95c0-0.3,0.1-0.5,0.2-0.6
		c0.1-0.1,0.3-0.2,0.6-0.2h3.9c0.5,0,0.8,0.2,0.8,0.7c0,0.4-0.3,0.7-0.8,0.7h-3v1.8H61c0.5,0,0.8,0.2,0.8,0.7c0,0.4-0.3,0.7-0.8,0.7
		h-2.8v1.9h3c0.5,0,0.8,0.2,0.8,0.7c0,0.4-0.3,0.7-0.8,0.7H57.3z"/>
		<path fill="#3E3E3E" d="M69.4,100.9c0.1,0.2,0.2,0.3,0.2,0.5c0,0.2-0.1,0.4-0.3,0.5c-0.2,0.1-0.4,0.2-0.6,0.2c-0.1,0-0.3,0-0.4-0.1
		c-0.1-0.1-0.2-0.2-0.3-0.3l-1.5-2.2c-0.1-0.2-0.3-0.3-0.4-0.4C66,99,65.8,99,65.6,99h-0.9v2.2c0,0.3-0.1,0.5-0.2,0.6
		c-0.1,0.2-0.3,0.2-0.6,0.2c-0.3,0-0.5-0.1-0.6-0.2c-0.2-0.2-0.2-0.4-0.2-0.6V95c0-0.3,0.1-0.5,0.2-0.6c0.1-0.1,0.3-0.2,0.6-0.2h2.8
		c0.9,0,1.6,0.2,2.1,0.6c0.5,0.4,0.7,1,0.7,1.7c0,0.6-0.2,1.1-0.5,1.5c-0.3,0.4-0.8,0.7-1.4,0.8c0.2,0,0.4,0.1,0.6,0.3
		c0.2,0.1,0.3,0.3,0.5,0.5L69.4,100.9z M66.3,97.7c0.5,0,0.8-0.1,1.1-0.3c0.2-0.2,0.3-0.4,0.3-0.8c0-0.4-0.1-0.6-0.3-0.8
		s-0.6-0.3-1.1-0.3h-1.6v2.1H66.3z"/>
		<path fill="#3E3E3E" d="M77.8,101c0.1,0.1,0.1,0.2,0.1,0.4c0,0.2-0.1,0.4-0.3,0.5c-0.2,0.1-0.3,0.2-0.6,0.2c-0.1,0-0.3,0-0.4-0.1
		c-0.1-0.1-0.2-0.2-0.3-0.4l-0.6-1.3h-3.7l-0.6,1.3c-0.1,0.2-0.2,0.3-0.3,0.4c-0.1,0.1-0.2,0.1-0.4,0.1c-0.2,0-0.4-0.1-0.6-0.2
		c-0.2-0.1-0.3-0.3-0.3-0.5c0-0.1,0-0.2,0.1-0.4l3-6.2c0.1-0.2,0.2-0.3,0.4-0.4c0.2-0.1,0.3-0.1,0.5-0.1c0.2,0,0.4,0,0.5,0.1
		s0.3,0.2,0.4,0.4L77.8,101z M72.7,99h2.6L74,96.1L72.7,99z"/>
		<path fill="#3E3E3E" d="M80.5,102.1c-0.3,0-0.5-0.1-0.6-0.2c-0.2-0.2-0.2-0.4-0.2-0.6v-5.6h-1.8c-0.5,0-0.8-0.2-0.8-0.7
		c0-0.5,0.3-0.7,0.8-0.7h5.3c0.5,0,0.8,0.2,0.8,0.7c0,0.5-0.3,0.7-0.8,0.7h-1.8v5.6c0,0.3-0.1,0.5-0.2,0.6S80.8,102.1,80.5,102.1z"
		/>
		<path fill="#3E3E3E" d="M85.6,102.1c-0.3,0-0.5-0.1-0.6-0.2s-0.2-0.4-0.2-0.6V95c0-0.3,0.1-0.5,0.2-0.6s0.4-0.2,0.6-0.2
		s0.5,0.1,0.6,0.2s0.2,0.4,0.2,0.6v6.2c0,0.3-0.1,0.5-0.2,0.6S85.8,102.1,85.6,102.1z"/>
		<path fill="#3E3E3E" d="M91.5,102.1c-0.8,0-1.4-0.2-2-0.5c-0.6-0.3-1-0.8-1.3-1.4c-0.3-0.6-0.5-1.3-0.5-2.1c0-0.8,0.2-1.5,0.5-2.1
		c0.3-0.6,0.7-1.1,1.3-1.4c0.6-0.3,1.2-0.5,2-0.5c0.8,0,1.4,0.2,2,0.5c0.6,0.3,1,0.8,1.3,1.4c0.3,0.6,0.5,1.3,0.5,2.1
		c0,0.8-0.2,1.5-0.5,2.1c-0.3,0.6-0.7,1.1-1.3,1.4C93,101.9,92.3,102.1,91.5,102.1z M91.5,100.8c0.6,0,1.2-0.2,1.5-0.7
		c0.4-0.5,0.6-1.1,0.6-2c0-0.9-0.2-1.5-0.6-2c-0.4-0.5-0.9-0.7-1.5-0.7c-0.7,0-1.2,0.2-1.5,0.7c-0.4,0.4-0.5,1.1-0.5,2
		c0,0.9,0.2,1.5,0.6,2C90.4,100.5,90.9,100.8,91.5,100.8z"/>
		<path fill="#3E3E3E" d="M102.6,94.2c0.2,0,0.4,0.1,0.6,0.2c0.2,0.2,0.2,0.4,0.2,0.6v6.2c0,0.3-0.1,0.5-0.2,0.6
		c-0.1,0.2-0.3,0.2-0.6,0.2c-0.3,0-0.5-0.1-0.6-0.3l-3.7-4.7v4.1c0,0.3-0.1,0.5-0.2,0.6c-0.1,0.2-0.3,0.2-0.6,0.2
		c-0.2,0-0.4-0.1-0.6-0.2c-0.1-0.2-0.2-0.4-0.2-0.6V95c0-0.2,0.1-0.5,0.2-0.6c0.2-0.2,0.4-0.2,0.6-0.2c0.3,0,0.5,0.1,0.6,0.3
		l3.7,4.7V95c0-0.2,0.1-0.5,0.2-0.6C102.1,94.3,102.3,94.2,102.6,94.2z"/>
		<path fill="#3E3E3E" d="M107.7,102.1c-0.6,0-1.1-0.1-1.6-0.2c-0.5-0.1-0.9-0.3-1.2-0.6c-0.1-0.1-0.2-0.2-0.2-0.3
		c0-0.1-0.1-0.2-0.1-0.4c0-0.2,0.1-0.3,0.2-0.5c0.1-0.1,0.2-0.2,0.4-0.2c0.1,0,0.2,0,0.2,0c0.1,0,0.2,0.1,0.3,0.1
		c0.3,0.2,0.6,0.3,1,0.4c0.3,0.1,0.7,0.1,1.1,0.1c0.5,0,0.9-0.1,1.1-0.2c0.3-0.2,0.4-0.4,0.4-0.7c0-0.2-0.1-0.4-0.4-0.6
		c-0.2-0.1-0.7-0.3-1.3-0.4c-0.7-0.1-1.2-0.3-1.6-0.5c-0.4-0.2-0.7-0.4-0.9-0.7c-0.2-0.3-0.3-0.6-0.3-1.1c0-0.5,0.1-0.9,0.4-1.2
		c0.3-0.4,0.6-0.7,1.1-0.9c0.5-0.2,1-0.3,1.6-0.3c1,0,1.9,0.3,2.6,0.8c0.1,0.1,0.2,0.2,0.2,0.3c0.1,0.1,0.1,0.2,0.1,0.3
		c0,0.2-0.1,0.3-0.2,0.5c-0.1,0.1-0.2,0.2-0.4,0.2c-0.1,0-0.2,0-0.2,0c-0.1,0-0.2-0.1-0.3-0.1c-0.3-0.2-0.6-0.3-0.8-0.4
		c-0.2-0.1-0.6-0.1-1-0.1c-0.4,0-0.8,0.1-1.1,0.3c-0.3,0.2-0.4,0.4-0.4,0.7c0,0.2,0,0.3,0.1,0.4c0.1,0.1,0.3,0.2,0.5,0.3
		c0.2,0.1,0.6,0.2,1,0.3c1,0.2,1.7,0.5,2.1,0.8c0.4,0.3,0.7,0.8,0.7,1.4c0,0.5-0.1,0.9-0.4,1.2c-0.3,0.4-0.6,0.6-1.1,0.8
		C108.9,102,108.3,102.1,107.7,102.1z"/>
		<g>
		<path fill="#FFFFFF" d="M74.5,148.7c-0.3,0-0.7-0.1-1-0.3L11,112.3c-0.6-0.4-1-1-1-1.7V38.4c0-0.7,0.4-1.4,1-1.7L73.5,0.6
			c0.6-0.4,1.4-0.4,2,0L138,36.7c0.6,0.4,1,1,1,1.7v72.2c0,0.7-0.4,1.4-1,1.7l-62.5,36.1C75.2,148.6,74.8,148.7,74.5,148.7z M13,110
			l61.5,35.5L136,110V39L74.5,3.5L13,39V110z M74,3.2C74,3.2,74,3.2,74,3.2L74,3.2L74,3.2z"/>
	</g>
</g>
</svg>
