<?xml version="1.0" encoding="utf-8"?>
<!-- Generator: Adobe Illustrator 24.0.1, SVG Export Plug-In . SVG Version: 6.00 Build 0)  -->
<svg version="1.1" id="Layer_1" xmlns="http://www.w3.org/2000/svg" xmlns:xlink="http://www.w3.org/1999/xlink" x="0px" y="0px"
	 viewBox="0 0 149 153" enable-background="new 0 0 149 153" xml:space="preserve">
<g opacity="0.5">
	<path d="M77,17.6c0.6-0.4,1.4-0.4,2,0l50,28.8c0.6,0.4,1,1,1,1.7v57.7c0,0.7-0.4,1.4-1,1.7l-50,28.8c-0.6,0.4-1.4,0.4-2,0l-50-28.8
		c-0.6-0.4-1-1-1-1.7V48.2c0-0.7,0.4-1.4,1-1.7L77,17.6z"/>
	<g>
		<path d="M77.5,151.7c-0.3,0-0.7-0.1-1-0.3L14,115.3c-0.6-0.4-1-1-1-1.7V41.4c0-0.7,0.4-1.4,1-1.7L76.5,3.6l0,0l0,0h0.1l1.2-0.7
			l0.3,0.6c0.1,0,0.2,0.1,0.4,0.2l62.5,36c0.6,0.4,1,1,1,1.7v72.2c0,0.7-0.4,1.4-1,1.7l-62.5,36.1C78.2,151.6,77.8,151.7,77.5,151.7
			z M16,113l61.5,35.5L139,113V42L77.5,6.5L16,42V113z"/>
	</g>
</g>
<g>
	
		<linearGradient id="SVGID_1_" gradientUnits="userSpaceOnUse" x1="75.0003" y1="138.8898" x2="75.0003" y2="18.8898" gradientTransform="matrix(1 0 0 -1 0 153.8898)">
		<stop  offset="0" style="stop-color:#FFFFFF"/>
		<stop  offset="1" style="stop-color:#C4C4C4"/>
	</linearGradient>
	<path fill="url(#SVGID_1_)" d="M74,15.58c0.62-0.36,1.38-0.36,2,0l49.96,28.85c0.62,0.36,1,1.02,1,1.73v57.69
		c0,0.71-0.38,1.38-1,1.73L76,134.42c-0.62,0.36-1.38,0.36-2,0l-49.96-28.85c-0.62-0.36-1-1.02-1-1.73V46.15
		c0-0.71,0.38-1.37,1-1.73L74,15.58z"/>
	<path fill="#5CB3E2" stroke="#005888" stroke-miterlimit="10" d="M57.27,42.63v26.74c0,1.3,7.49,2.36,16.72,2.36
		c9.23,0,16.72-1.06,16.72-2.36V42.63H57.27z"/>
	<path fill="#005888" d="M74.85,42.79h1.3V71.7c0.54,0,1.11-0.03,1.63-0.05V42.79h1.3v28.83c0.57-0.03,1.11-0.05,1.63-0.08V42.79
		h1.3v28.64c0.57-0.05,1.11-0.08,1.63-0.14v-28.5h1.3v28.34c0.57-0.08,1.14-0.16,1.63-0.24v-28.1h1.3v27.88
		c0.65-0.14,1.19-0.3,1.63-0.46V42.79h1.11v-0.16H57.27v0.16h1.22v27.45c0.43,0.16,0.98,0.3,1.63,0.43V42.76h1.3v28.13
		c0.52,0.08,1.06,0.16,1.63,0.22V42.79h1.3v28.5c0.52,0.05,1.06,0.11,1.63,0.14V42.79h1.3v28.75c0.54,0.03,1.09,0.05,1.63,0.08
		V42.79h1.3v28.88c0.54,0.03,1.09,0.03,1.63,0.03V42.79h1.3v28.94c0.24,0,0.52,0,0.76,0c0.3,0,0.57,0,0.87,0V42.79H74.85z"/>
	<path fill="#5CB3E2" stroke="#005888" stroke-miterlimit="10" d="M73.99,44.99c9.23,0,16.72-1.06,16.72-2.36s-7.48-2.36-16.72-2.36
		s-16.72,1.06-16.72,2.36S64.76,44.99,73.99,44.99z"/>
	<path fill="#5CB3E2" stroke="#005888" stroke-miterlimit="10" d="M73.99,43.52c3.46,0,6.27-0.4,6.27-0.89
		c0-0.49-2.81-0.89-6.27-0.89s-6.27,0.4-6.27,0.89C67.72,43.12,70.52,43.52,73.99,43.52z"/>
	<g>
		<path fill="#FFFFFF" d="M74.5,148.69c-0.34,0-0.69-0.09-1-0.26l-62.52-36.1c-0.62-0.36-1-1.02-1-1.73V38.4
			c0-0.71,0.38-1.38,1-1.73L73.5,0.58c0.62-0.36,1.38-0.36,2,0l62.52,36.1c0.62,0.35,1,1.02,1,1.73v72.19c0,0.71-0.38,1.38-1,1.73
			l-62.52,36.1C75.19,148.6,74.84,148.69,74.5,148.69z M12.98,110.02l61.52,35.52l61.52-35.52V38.98L74.5,3.46L12.98,38.98V110.02z
			 M74,3.18C74,3.18,74,3.18,74,3.18L74,3.18L74,3.18z"/>
	</g>
	<path fill="#3E3E3E" d="M39.63,88.1c-0.76,0-1.43-0.16-2-0.48s-1.01-0.78-1.32-1.39c-0.31-0.6-0.46-1.31-0.46-2.11
		c0-0.81,0.15-1.51,0.46-2.1c0.31-0.6,0.75-1.06,1.32-1.39s1.24-0.48,2-0.48c0.96,0,1.79,0.26,2.49,0.79
		c0.11,0.09,0.19,0.18,0.23,0.26c0.04,0.09,0.07,0.2,0.07,0.33c0,0.19-0.06,0.36-0.17,0.5c-0.1,0.13-0.23,0.2-0.38,0.2
		c-0.1,0-0.19-0.01-0.28-0.03c-0.07-0.03-0.16-0.08-0.25-0.14c-0.29-0.19-0.56-0.33-0.81-0.41c-0.25-0.09-0.52-0.13-0.8-0.13
		c-0.7,0-1.24,0.22-1.6,0.66c-0.35,0.43-0.53,1.08-0.53,1.95c0,1.75,0.71,2.62,2.12,2.62c0.27,0,0.53-0.04,0.77-0.12
		c0.24-0.09,0.52-0.23,0.85-0.42c0.11-0.07,0.2-0.11,0.27-0.13c0.07-0.03,0.16-0.04,0.25-0.04c0.15,0,0.28,0.07,0.38,0.21
		c0.11,0.13,0.17,0.29,0.17,0.48c0,0.13-0.03,0.25-0.08,0.34c-0.04,0.09-0.12,0.17-0.22,0.25C41.42,87.83,40.59,88.1,39.63,88.1z"/>
	<path fill="#3E3E3E" d="M50.64,86.95c0.06,0.13,0.09,0.25,0.09,0.35c0,0.21-0.08,0.38-0.25,0.53c-0.16,0.14-0.35,0.21-0.56,0.21
		c-0.14,0-0.27-0.04-0.4-0.11c-0.12-0.08-0.22-0.2-0.29-0.35l-0.58-1.3h-3.73l-0.58,1.3c-0.07,0.15-0.16,0.27-0.29,0.35
		c-0.12,0.07-0.25,0.11-0.4,0.11c-0.21,0-0.4-0.07-0.57-0.21c-0.17-0.15-0.25-0.32-0.25-0.53c0-0.1,0.03-0.22,0.09-0.35l2.97-6.24
		c0.08-0.18,0.2-0.31,0.36-0.4c0.16-0.1,0.33-0.14,0.52-0.14c0.19,0,0.37,0.05,0.53,0.14c0.16,0.1,0.29,0.23,0.37,0.4L50.64,86.95z
		 M45.51,84.99h2.56l-1.28-2.86L45.51,84.99z"/>
	<path fill="#3E3E3E" d="M58.04,86.91c0.11,0.16,0.17,0.32,0.17,0.47c0,0.21-0.08,0.37-0.25,0.51c-0.16,0.13-0.35,0.2-0.57,0.2
		c-0.14,0-0.28-0.03-0.41-0.1s-0.24-0.17-0.33-0.31l-1.45-2.16c-0.12-0.19-0.26-0.33-0.4-0.41c-0.14-0.09-0.32-0.13-0.53-0.13h-0.89
		v2.22c0,0.26-0.08,0.47-0.23,0.63c-0.15,0.15-0.35,0.23-0.6,0.23c-0.26,0-0.47-0.08-0.63-0.23s-0.23-0.36-0.23-0.63v-6.16
		c0-0.26,0.07-0.45,0.21-0.59c0.14-0.14,0.34-0.21,0.59-0.21h2.76c0.91,0,1.59,0.2,2.06,0.6c0.47,0.4,0.7,0.97,0.7,1.73
		c0,0.59-0.16,1.09-0.49,1.48c-0.33,0.4-0.8,0.66-1.4,0.78c0.22,0.04,0.41,0.13,0.58,0.26c0.18,0.12,0.34,0.31,0.51,0.55
		L58.04,86.91z M54.99,83.69c0.49,0,0.85-0.08,1.07-0.25c0.22-0.18,0.33-0.45,0.33-0.81c0-0.37-0.11-0.65-0.33-0.81
		s-0.58-0.25-1.07-0.25h-1.64v2.13H54.99z"/>
	<path fill="#3E3E3E" d="M64.37,83.98c0.45,0.13,0.79,0.36,1.03,0.69c0.25,0.32,0.37,0.72,0.37,1.2c0,0.65-0.24,1.17-0.73,1.55
		C64.58,87.81,63.92,88,63.08,88h-2.88c-0.26,0-0.45-0.07-0.59-0.21s-0.21-0.34-0.21-0.59v-6.15c0-0.26,0.07-0.45,0.21-0.59
		c0.14-0.14,0.34-0.21,0.59-0.21h2.77c0.81,0,1.44,0.18,1.91,0.54c0.48,0.36,0.71,0.85,0.71,1.47c0,0.4-0.11,0.76-0.33,1.07
		C65.05,83.63,64.75,83.85,64.37,83.98z M61.06,83.4h1.62c0.44,0,0.76-0.07,0.97-0.22c0.21-0.15,0.32-0.39,0.32-0.69
		c0-0.32-0.11-0.56-0.32-0.7c-0.21-0.15-0.53-0.23-0.97-0.23h-1.62V83.4z M62.88,86.69c0.45,0,0.78-0.08,0.99-0.23
		s0.31-0.4,0.31-0.75c0-0.34-0.1-0.6-0.31-0.76s-0.54-0.24-0.99-0.24h-1.81v1.98H62.88z"/>
	<path fill="#3E3E3E" d="M70.54,88.1c-0.77,0-1.44-0.16-2.01-0.48c-0.56-0.33-1-0.79-1.31-1.39c-0.31-0.6-0.46-1.31-0.46-2.11
		c0-0.81,0.15-1.51,0.46-2.1c0.31-0.6,0.74-1.06,1.31-1.39c0.57-0.32,1.24-0.48,2.01-0.48c0.77,0,1.44,0.16,2,0.48
		c0.57,0.32,1.01,0.78,1.32,1.39c0.31,0.59,0.46,1.29,0.46,2.1c0,0.81-0.15,1.51-0.46,2.11c-0.31,0.59-0.75,1.06-1.32,1.39
		C71.98,87.94,71.31,88.1,70.54,88.1z M70.54,86.77c0.65,0,1.15-0.23,1.52-0.68c0.37-0.45,0.56-1.11,0.56-1.97
		c0-0.86-0.18-1.51-0.55-1.96c-0.37-0.45-0.88-0.68-1.53-0.68s-1.16,0.23-1.53,0.68c-0.36,0.45-0.54,1.1-0.54,1.96
		c0,0.86,0.18,1.51,0.55,1.97C69.39,86.54,69.89,86.77,70.54,86.77z"/>
	<path fill="#3E3E3E" d="M81.55,80.19c0.24,0,0.44,0.08,0.58,0.24c0.15,0.15,0.23,0.36,0.23,0.61v6.17c0,0.26-0.08,0.47-0.23,0.63
		c-0.15,0.15-0.34,0.23-0.58,0.23c-0.26,0-0.48-0.1-0.64-0.29l-3.68-4.72v4.15c0,0.26-0.07,0.47-0.22,0.63
		c-0.14,0.15-0.33,0.23-0.57,0.23s-0.44-0.08-0.58-0.23c-0.15-0.16-0.22-0.37-0.22-0.63v-6.17c0-0.25,0.07-0.45,0.22-0.61
		c0.15-0.16,0.35-0.24,0.59-0.24c0.27,0,0.48,0.1,0.63,0.29l3.68,4.69v-4.13c0-0.25,0.07-0.45,0.22-0.61
		C81.13,80.27,81.32,80.19,81.55,80.19z"/>
	<path fill="#3E3E3E" d="M91.96,83.98c0.45,0.13,0.79,0.36,1.03,0.69c0.25,0.32,0.37,0.72,0.37,1.2c0,0.65-0.24,1.17-0.73,1.55
		C92.16,87.81,91.5,88,90.66,88h-2.88c-0.26,0-0.45-0.07-0.59-0.21c-0.14-0.14-0.21-0.34-0.21-0.59v-6.15
		c0-0.26,0.07-0.45,0.21-0.59c0.14-0.14,0.34-0.21,0.59-0.21h2.77c0.81,0,1.44,0.18,1.91,0.54c0.48,0.36,0.71,0.85,0.71,1.47
		c0,0.4-0.11,0.76-0.33,1.07C92.64,83.63,92.34,83.85,91.96,83.98z M88.65,83.4h1.62c0.44,0,0.76-0.07,0.97-0.22
		c0.21-0.15,0.32-0.39,0.32-0.69c0-0.32-0.11-0.56-0.32-0.7c-0.21-0.15-0.53-0.23-0.97-0.23h-1.62V83.4z M90.46,86.69
		c0.45,0,0.78-0.08,0.99-0.23c0.21-0.15,0.31-0.4,0.31-0.75c0-0.34-0.1-0.6-0.31-0.76c-0.21-0.16-0.54-0.24-0.99-0.24h-1.82v1.98
		H90.46z"/>
	<path fill="#3E3E3E" d="M95.36,88c-0.26,0-0.45-0.07-0.59-0.21c-0.14-0.14-0.21-0.34-0.21-0.59v-6.15c0-0.26,0.07-0.45,0.21-0.59
		c0.14-0.14,0.34-0.21,0.59-0.21h3.89c0.54,0,0.81,0.22,0.81,0.66c0,0.45-0.27,0.67-0.81,0.67h-3.03v1.82h2.81
		c0.54,0,0.81,0.22,0.81,0.67c0,0.44-0.27,0.66-0.81,0.66h-2.81v1.95h3.03c0.54,0,0.81,0.22,0.81,0.67c0,0.44-0.27,0.66-0.81,0.66
		H95.36z"/>
	<path fill="#3E3E3E" d="M101.88,88c-0.26,0-0.46-0.07-0.59-0.21c-0.14-0.14-0.21-0.34-0.21-0.59v-6.15c0-0.26,0.07-0.45,0.21-0.59
		c0.14-0.14,0.34-0.21,0.59-0.21h2.21c0.84,0,1.57,0.15,2.18,0.46s1.07,0.75,1.4,1.33s0.48,1.27,0.48,2.08
		c0,0.81-0.16,1.5-0.48,2.09c-0.31,0.58-0.78,1.02-1.39,1.33c-0.61,0.31-1.34,0.46-2.19,0.46H101.88z M103.97,86.61
		c1.65,0,2.47-0.83,2.47-2.5c0-1.66-0.82-2.49-2.47-2.49h-1.18v4.98H103.97z"/>
	<path fill="#3E3E3E" d="M52.78,103.1c-0.76,0-1.43-0.16-2-0.48c-0.57-0.32-1.01-0.78-1.32-1.39c-0.31-0.6-0.46-1.31-0.46-2.11
		c0-0.81,0.15-1.51,0.46-2.1c0.31-0.6,0.75-1.06,1.32-1.39s1.24-0.48,2-0.48c0.96,0,1.79,0.26,2.49,0.79
		c0.11,0.09,0.19,0.18,0.23,0.26c0.04,0.09,0.07,0.2,0.07,0.33c0,0.19-0.06,0.36-0.17,0.5c-0.1,0.13-0.23,0.2-0.38,0.2
		c-0.1,0-0.19-0.01-0.28-0.03c-0.07-0.03-0.16-0.08-0.25-0.14c-0.29-0.19-0.56-0.33-0.81-0.41c-0.25-0.09-0.52-0.13-0.8-0.13
		c-0.7,0-1.24,0.22-1.6,0.66c-0.35,0.43-0.53,1.08-0.53,1.95c0,1.75,0.71,2.62,2.12,2.62c0.27,0,0.53-0.04,0.77-0.12
		c0.24-0.09,0.52-0.23,0.85-0.42c0.11-0.07,0.2-0.11,0.27-0.13c0.07-0.03,0.16-0.04,0.25-0.04c0.15,0,0.28,0.07,0.38,0.21
		c0.11,0.13,0.17,0.29,0.17,0.48c0,0.13-0.03,0.25-0.08,0.34c-0.04,0.09-0.12,0.17-0.22,0.25C54.57,102.83,53.74,103.1,52.78,103.1z
		"/>
	<path fill="#3E3E3E" d="M62.76,95.19c0.26,0,0.46,0.08,0.62,0.23s0.23,0.36,0.23,0.62v6.17c0,0.26-0.08,0.47-0.23,0.63
		c-0.15,0.15-0.36,0.23-0.62,0.23c-0.26,0-0.46-0.08-0.62-0.23c-0.15-0.15-0.22-0.36-0.22-0.63v-2.46h-3.58v2.46
		c0,0.26-0.08,0.47-0.23,0.63c-0.15,0.15-0.36,0.23-0.6,0.23c-0.26,0-0.46-0.08-0.62-0.23s-0.23-0.36-0.23-0.63v-6.17
		c0-0.26,0.08-0.46,0.23-0.62s0.36-0.23,0.62-0.23c0.26,0,0.46,0.08,0.6,0.23c0.15,0.15,0.23,0.36,0.23,0.62v2.34h3.58v-2.34
		c0-0.26,0.07-0.46,0.22-0.62C62.3,95.27,62.5,95.19,62.76,95.19z"/>
	<path fill="#3E3E3E" d="M72.38,101.95c0.06,0.13,0.09,0.25,0.09,0.35c0,0.21-0.08,0.38-0.25,0.53c-0.16,0.14-0.35,0.21-0.56,0.21
		c-0.14,0-0.27-0.04-0.4-0.11c-0.12-0.08-0.22-0.2-0.29-0.35l-0.58-1.3h-3.73l-0.58,1.3c-0.07,0.15-0.16,0.27-0.29,0.35
		c-0.12,0.07-0.25,0.11-0.4,0.11c-0.21,0-0.4-0.07-0.57-0.21c-0.17-0.15-0.25-0.32-0.25-0.53c0-0.1,0.03-0.22,0.09-0.35l2.97-6.24
		c0.08-0.18,0.2-0.31,0.36-0.4c0.16-0.1,0.33-0.14,0.52-0.14c0.19,0,0.37,0.05,0.53,0.14s0.29,0.23,0.37,0.4L72.38,101.95z
		 M67.24,99.99h2.56l-1.28-2.86L67.24,99.99z"/>
	<path fill="#3E3E3E" d="M79.33,95.19c0.24,0,0.44,0.08,0.58,0.24c0.15,0.15,0.23,0.36,0.23,0.61v6.17c0,0.26-0.08,0.47-0.23,0.63
		c-0.15,0.15-0.34,0.23-0.58,0.23c-0.26,0-0.48-0.1-0.64-0.29l-3.68-4.72v4.15c0,0.26-0.07,0.47-0.22,0.63
		c-0.14,0.15-0.33,0.23-0.57,0.23s-0.44-0.08-0.58-0.23c-0.15-0.16-0.22-0.37-0.22-0.63v-6.17c0-0.25,0.07-0.45,0.22-0.61
		c0.15-0.16,0.35-0.24,0.59-0.24c0.27,0,0.48,0.1,0.63,0.29l3.68,4.69v-4.13c0-0.25,0.07-0.45,0.22-0.61
		C78.91,95.27,79.1,95.19,79.33,95.19z"/>
	<path fill="#3E3E3E" d="M87.68,98.72c0.21,0,0.37,0.06,0.48,0.18c0.12,0.11,0.19,0.26,0.19,0.46v2.14c0,0.29-0.03,0.52-0.08,0.68
		c-0.04,0.16-0.12,0.29-0.24,0.39c-0.12,0.1-0.29,0.18-0.53,0.24c-0.29,0.09-0.62,0.16-0.99,0.21c-0.37,0.05-0.72,0.08-1.04,0.08
		c-0.82,0-1.53-0.16-2.13-0.47c-0.6-0.32-1.06-0.78-1.39-1.38c-0.32-0.6-0.48-1.31-0.48-2.13c0-0.81,0.16-1.51,0.47-2.1
		c0.32-0.6,0.78-1.06,1.38-1.39c0.59-0.32,1.29-0.48,2.08-0.48c1.02,0,1.86,0.26,2.53,0.79c0.11,0.09,0.19,0.18,0.23,0.26
		c0.04,0.09,0.07,0.2,0.07,0.33c0,0.19-0.06,0.36-0.17,0.5c-0.1,0.13-0.23,0.2-0.37,0.2c-0.1,0-0.18-0.01-0.26-0.04
		c-0.07-0.03-0.17-0.08-0.28-0.14c-0.31-0.19-0.59-0.33-0.85-0.41c-0.26-0.08-0.54-0.12-0.85-0.12c-1.5,0-2.24,0.87-2.24,2.61
		c0,0.9,0.19,1.56,0.58,2c0.39,0.44,0.98,0.66,1.76,0.66c0.43,0,0.85-0.06,1.26-0.17v-1.71H85.8c-0.21,0-0.38-0.05-0.49-0.15
		c-0.12-0.1-0.18-0.25-0.18-0.44c0-0.19,0.06-0.34,0.18-0.44c0.12-0.1,0.28-0.15,0.49-0.15H87.68z"/>
	<path fill="#3E3E3E" d="M90.61,103c-0.26,0-0.45-0.07-0.59-0.21s-0.21-0.34-0.21-0.59v-6.15c0-0.26,0.07-0.45,0.21-0.59
		c0.14-0.14,0.34-0.21,0.59-0.21h3.89c0.54,0,0.81,0.22,0.81,0.66c0,0.45-0.27,0.67-0.81,0.67h-3.03v1.82h2.81
		c0.54,0,0.81,0.22,0.81,0.67c0,0.44-0.27,0.66-0.81,0.66h-2.81v1.95h3.03c0.54,0,0.81,0.22,0.81,0.67c0,0.44-0.27,0.66-0.81,0.66
		H90.61z"/>
</g>
</svg>
