<svg width="19" height="18" viewBox="0 0 19 18" fill="none" xmlns="http://www.w3.org/2000/svg">
<path d="M15.4286 14.5714V15.4286H0V14.5714L1.71429 12.8571V7.71429C1.71429 5.05714 3.45429 2.71714 6 1.96286C6 1.87714 6 1.8 6 1.71429C6 1.25963 6.18061 0.823594 6.5021 0.502103C6.82359 0.180612 7.25963 0 7.71429 0C8.16894 0 8.60498 0.180612 8.92647 0.502103C9.24796 0.823594 9.42857 1.25963 9.42857 1.71429C9.42857 1.8 9.42857 1.87714 9.42857 1.96286C11.9743 2.71714 13.7143 5.05714 13.7143 7.71429V12.8571L15.4286 14.5714ZM9.42857 16.2857C9.42857 16.7404 9.24796 17.1764 8.92647 17.4979C8.60498 17.8194 8.16894 18 7.71429 18C7.25963 18 6.82359 17.8194 6.5021 17.4979C6.18061 17.1764 6 16.7404 6 16.2857" fill="#5CB3E2"/>
<circle cx="13" cy="7" r="5.5" fill="#DD594E" stroke="#24282D"/>
</svg>
