<?xml version="1.0" encoding="utf-8"?>
<!-- Generator: Adobe Illustrator 24.0.1, SVG Export Plug-In . SVG Version: 6.00 Build 0)  -->
<svg version="1.1" id="Layer_1" xmlns="http://www.w3.org/2000/svg" xmlns:xlink="http://www.w3.org/1999/xlink" x="0px" y="0px"
    viewBox="0 0 149 153" enable-background="new 0 0 149 153" xml:space="preserve">
<g opacity="0.5">
	<path d="M77,17.6c0.6-0.4,1.4-0.4,2,0l50,28.8c0.6,0.4,1,1,1,1.7v57.7c0,0.7-0.4,1.4-1,1.7l-50,28.8c-0.6,0.4-1.4,0.4-2,0l-50-28.8
		c-0.6-0.4-1-1-1-1.7V48.2c0-0.7,0.4-1.4,1-1.7L77,17.6z"/>
    <g>
		<path d="M77.5,151.7c-0.3,0-0.7-0.1-1-0.3L14,115.3c-0.6-0.4-1-1-1-1.7V41.4c0-0.7,0.4-1.4,1-1.7L76.5,3.6l0,0l0,0h0.1l1.2-0.7
			l0.3,0.6c0.1,0,0.2,0.1,0.4,0.2l62.5,36c0.6,0.4,1,1,1,1.7v72.2c0,0.7-0.4,1.4-1,1.7l-62.5,36.1C78.2,151.6,77.8,151.7,77.5,151.7
			z M16,113l61.5,35.5L139,113V42L77.5,6.5L16,42V113z"/>
	</g>
</g>
    <g>

		<linearGradient id="SVGID_1_" gradientUnits="userSpaceOnUse" x1="75.0003" y1="139.8898" x2="75.0003" y2="19.8898" gradientTransform="matrix(1 0 0 -1 0 153.8898)">
		<stop  offset="0" style="stop-color:#FFFFFF"/>
            <stop  offset="1" style="stop-color:#C4C4C4"/>
	</linearGradient>
        <path fill="url(#SVGID_1_)" d="M74,14.6c0.6-0.4,1.4-0.4,2,0l50,28.8c0.6,0.4,1,1,1,1.7v57.7c0,0.7-0.4,1.4-1,1.7l-50,28.8
		c-0.6,0.4-1.4,0.4-2,0l-50-28.8c-0.6-0.4-1-1-1-1.7V45.2c0-0.7,0.4-1.4,1-1.7L74,14.6z"/>
        <path fill="#FFFFFF" d="M79,50.5c2.6-2.6,2.6-6.7,0-9.3s-6.8-2.6-9.4,0s-2.6,6.7,0,9.3S76.4,53.1,79,50.5z"/>
        <path fill="#5CB3E2" d="M66.5,50.5c0.1,0.2,0.2,0.4,0.3,0.6l-1.2,2l2.8,2.7l2.1-1.2c0.5,0.2,0.9,0.4,1.4,0.6l0.6,2.3h3.9l0.6-2.3
		c0.5-0.2,0.9-0.3,1.4-0.6l2.1,1.2l2.8-2.7l-1.2-2c0.1-0.2,0.2-0.4,0.3-0.6c0.1-0.3,0.2-0.5,0.3-0.8l2.3-0.6v-3.4l-2.3-0.6
		c-0.1-0.3-0.2-0.5-0.3-0.8c-0.1-0.2-0.2-0.4-0.3-0.6l1.2-2l-2.8-2.7l-2.1,1.2c-0.4-0.2-0.9-0.4-1.4-0.6l-0.6-2.3h-3.9l-0.6,2.3
		c-0.5,0.2-1,0.3-1.4,0.6l-2.1-1.2l-2.8,2.7l1.2,2c-0.1,0.2-0.2,0.4-0.3,0.6c-0.1,0.3-0.2,0.5-0.3,0.8l-2.3,0.6v3.4l2.3,0.6
		C66.3,50,66.4,50.2,66.5,50.5z M74.4,43.2c2.3,0,4.3,1.9,4.3,4.2c0,2.3-1.9,4.2-4.3,4.2c-2.3,0-4.3-1.9-4.3-4.2
		C70.2,45.1,72.1,43.2,74.4,43.2z"/>
        <path fill="#005888" d="M71.7,55.8c-0.4-0.1-0.8-0.3-1.1-0.5l-2.2,1.2l-3.2-3.2l1.3-2.1c-0.1-0.2-0.2-0.3-0.2-0.5
		c-0.1-0.2-0.2-0.4-0.3-0.7l-2.4-0.6v-4l2.4-0.6c0.1-0.2,0.2-0.4,0.3-0.7c0.1-0.2,0.1-0.3,0.2-0.5l-1.3-2.1l3.2-3.2l2.2,1.2
		c0.4-0.2,0.7-0.3,1.1-0.5l0.6-2.4h4.6l0.6,2.4c0.4,0.1,0.7,0.3,1,0.4l2.2-1.2l3.2,3.2l-1.3,2.1c0.1,0.2,0.2,0.3,0.2,0.5
		c0.1,0.2,0.2,0.4,0.3,0.7l2.4,0.6v4l-2.4,0.6c-0.1,0.2-0.2,0.4-0.3,0.7c-0.1,0.2-0.1,0.3-0.2,0.5l1.3,2.1l-3.2,3.2l-2.2-1.2
		c-0.3,0.2-0.7,0.3-1,0.4l-0.6,2.4h-4.6L71.7,55.8z M76.8,55.2l0.2-0.1c0.4-0.1,0.9-0.3,1.3-0.5l0.2-0.1l2,1.2l2.4-2.4l-1.2-2
		l0.1-0.2c0.1-0.2,0.2-0.4,0.3-0.6c0.1-0.3,0.2-0.5,0.3-0.8l0.1-0.2l2.2-0.6v-2.8l-2.2-0.6l-0.1-0.2c-0.1-0.3-0.2-0.5-0.3-0.8
		c-0.1-0.2-0.2-0.4-0.3-0.6l-0.1-0.2l1.2-2l-2.4-2.4l-2,1.2l-0.2-0.1c-0.4-0.2-0.9-0.4-1.3-0.5l-0.2-0.1l-0.6-2.2h-3.4l-0.6,2.2
		l-0.2,0.1c-0.5,0.1-0.9,0.3-1.4,0.6l-0.2,0.1l-2-1.1l-2.4,2.4l1.2,2l-0.1,0.2c-0.1,0.2-0.2,0.4-0.3,0.6c-0.1,0.3-0.2,0.5-0.3,0.8
		l-0.1,0.2l-2.2,0.6v2.8l2.2,0.6l0.1,0.2c0.1,0.3,0.2,0.5,0.3,0.8c0.1,0.2,0.2,0.4,0.3,0.6l0.1,0.2l-1.2,2l2.4,2.4l2-1.2l0.2,0.1
		c0.4,0.2,0.9,0.4,1.4,0.6l0.2,0.1l0.6,2.2h3.4L76.8,55.2z M69.9,47.5c0-2.5,2.1-4.6,4.7-4.6c2.6,0,4.7,2.1,4.7,4.6
		c0,2.5-2.1,4.6-4.7,4.6C72,52.1,69.9,50.1,69.9,47.5z M70.6,47.5c0,2.1,1.8,3.9,3.9,3.9c2.2,0,3.9-1.7,3.9-3.9
		c0-2.1-1.8-3.9-3.9-3.9C72.4,43.6,70.6,45.4,70.6,47.5z"/>
        <path fill="#5CB3E2" d="M63.2,55.1l11-10.2c0.1-0.1,0.3-0.1,0.4,0l11,10.2c0.2,0.2,0.1,0.5-0.2,0.5h-2c-0.2,0-0.3,0.1-0.3,0.3v12.1
		c0,0.2-0.1,0.3-0.3,0.3h-17c-0.2,0-0.3-0.1-0.3-0.3V55.8c0-0.2-0.1-0.3-0.3-0.3h-2C63.2,55.5,63,55.2,63.2,55.1z"/>
        <path fill="#005888" d="M65.3,67.9v-12h-1.9c-0.3,0-0.5-0.2-0.6-0.4c-0.1-0.3,0-0.5,0.2-0.7l11-10.2c0.3-0.2,0.7-0.2,0.9,0l11,10.2
		c0.2,0.2,0.3,0.5,0.2,0.7c-0.1,0.3-0.3,0.4-0.6,0.4h-1.9v12c0,0.4-0.3,0.7-0.7,0.7h-17C65.6,68.6,65.3,68.3,65.3,67.9z M82.9,55.8
		c0-0.4,0.3-0.7,0.7-0.7h1.7l-10.8-9.9l-10.8,9.9h1.7c0.4,0,0.7,0.3,0.7,0.7v12h16.8V55.8z"/>
        <path fill="#FFFFFF" d="M74.9,57.8h4.3v-4.3h-4.3V57.8z"/>
        <path fill="#FFFFFF" d="M74.9,62.8h4.3v-4.3h-4.3V62.8z"/>
        <path fill="#FFFFFF" d="M69.7,62.8h4.3v-4.3h-4.3V62.8z"/>
        <path fill="#FFFFFF" d="M69.7,57.8h4.3v-4.3h-4.3V57.8z"/>
        <g>
		<path fill="#FFFFFF" d="M74.5,148.7c-0.3,0-0.7-0.1-1-0.3L11,112.3c-0.6-0.4-1-1-1-1.7V38.4c0-0.7,0.4-1.4,1-1.7L73.5,0.6
			c0.6-0.4,1.4-0.4,2,0L138,36.7c0.6,0.4,1,1,1,1.7v72.2c0,0.7-0.4,1.4-1,1.7l-62.5,36.1C75.2,148.6,74.8,148.7,74.5,148.7z M13,110
			l61.5,35.5L136,110V39L74.5,3.5L13,39V110z M74,3.2C74,3.2,74,3.2,74,3.2L74,3.2L74,3.2z"/>
	</g>
        <path fill="#3E3E3E" d="M43.5,89.1c-0.8,0-1.4-0.2-2-0.5c-0.6-0.3-1-0.8-1.3-1.4c-0.3-0.6-0.5-1.3-0.5-2.1c0-0.8,0.2-1.5,0.5-2.1
		c0.3-0.6,0.7-1.1,1.3-1.4c0.6-0.3,1.2-0.5,2-0.5c0.8,0,1.4,0.2,2,0.5c0.6,0.3,1,0.8,1.3,1.4c0.3,0.6,0.5,1.3,0.5,2.1
		c0,0.8-0.2,1.5-0.5,2.1c-0.3,0.6-0.7,1.1-1.3,1.4C45,88.9,44.3,89.1,43.5,89.1z M43.5,87.8c0.6,0,1.2-0.2,1.5-0.7
		c0.4-0.5,0.6-1.1,0.6-2c0-0.9-0.2-1.5-0.5-2c-0.4-0.5-0.9-0.7-1.5-0.7c-0.7,0-1.2,0.2-1.5,0.7c-0.4,0.4-0.5,1.1-0.5,2
		c0,0.9,0.2,1.5,0.5,2C42.4,87.5,42.9,87.8,43.5,87.8z"/>
        <path fill="#3E3E3E" d="M49.5,89.1c-0.3,0-0.5-0.1-0.6-0.2s-0.2-0.4-0.2-0.6V82c0-0.3,0.1-0.5,0.2-0.6c0.1-0.1,0.3-0.2,0.6-0.2h2.8
		c0.8,0,1.5,0.2,2,0.6c0.5,0.4,0.7,1,0.7,1.8c0,0.8-0.2,1.4-0.7,1.8c-0.5,0.4-1.1,0.6-2,0.6h-1.8v2.1c0,0.3-0.1,0.5-0.2,0.6
		C50,89,49.8,89.1,49.5,89.1z M52,84.8c0.9,0,1.3-0.4,1.3-1.1c0-0.7-0.4-1.1-1.3-1.1h-1.6v2.2H52z"/>
        <path fill="#3E3E3E" d="M56.8,89c-0.3,0-0.5-0.1-0.6-0.2C56,88.7,56,88.5,56,88.2V82c0-0.3,0.1-0.5,0.2-0.6
		c0.1-0.1,0.3-0.2,0.6-0.2h3.9c0.5,0,0.8,0.2,0.8,0.7c0,0.4-0.3,0.7-0.8,0.7h-3v1.8h2.8c0.5,0,0.8,0.2,0.8,0.7
		c0,0.4-0.3,0.7-0.8,0.7h-2.8v1.9h3c0.5,0,0.8,0.2,0.8,0.7c0,0.4-0.3,0.7-0.8,0.7H56.8z"/>
        <path fill="#3E3E3E" d="M68.9,87.9c0.1,0.2,0.2,0.3,0.2,0.5c0,0.2-0.1,0.4-0.3,0.5c-0.2,0.1-0.4,0.2-0.6,0.2c-0.1,0-0.3,0-0.4-0.1
		c-0.1-0.1-0.2-0.2-0.3-0.3L66,86.5c-0.1-0.2-0.3-0.3-0.4-0.4C65.5,86,65.3,86,65.1,86h-0.9v2.2c0,0.3-0.1,0.5-0.2,0.6
		c-0.1,0.2-0.3,0.2-0.6,0.2c-0.3,0-0.5-0.1-0.6-0.2s-0.2-0.4-0.2-0.6V82c0-0.3,0.1-0.5,0.2-0.6c0.1-0.1,0.3-0.2,0.6-0.2h2.8
		c0.9,0,1.6,0.2,2.1,0.6c0.5,0.4,0.7,1,0.7,1.7c0,0.6-0.2,1.1-0.5,1.5c-0.3,0.4-0.8,0.7-1.4,0.8c0.2,0,0.4,0.1,0.6,0.3
		c0.2,0.1,0.3,0.3,0.5,0.5L68.9,87.9z M65.8,84.7c0.5,0,0.8-0.1,1.1-0.3c0.2-0.2,0.3-0.4,0.3-0.8c0-0.4-0.1-0.6-0.3-0.8
		s-0.6-0.3-1.1-0.3h-1.6v2.1H65.8z"/>
        <path fill="#3E3E3E" d="M77.3,88c0.1,0.1,0.1,0.2,0.1,0.4c0,0.2-0.1,0.4-0.3,0.5C77,89,76.8,89,76.6,89c-0.1,0-0.3,0-0.4-0.1
		c-0.1-0.1-0.2-0.2-0.3-0.4l-0.6-1.3h-3.7L71,88.6c-0.1,0.2-0.2,0.3-0.3,0.4C70.6,89,70.5,89,70.3,89c-0.2,0-0.4-0.1-0.6-0.2
		c-0.2-0.1-0.3-0.3-0.3-0.5c0-0.1,0-0.2,0.1-0.4l3-6.2c0.1-0.2,0.2-0.3,0.4-0.4c0.2-0.1,0.3-0.1,0.5-0.1c0.2,0,0.4,0,0.5,0.1
		c0.2,0.1,0.3,0.2,0.4,0.4L77.3,88z M72.2,86h2.6l-1.3-2.9L72.2,86z"/>
        <path fill="#3E3E3E" d="M80,89.1c-0.3,0-0.5-0.1-0.6-0.2c-0.2-0.2-0.2-0.4-0.2-0.6v-5.6h-1.8c-0.5,0-0.8-0.2-0.8-0.7
		c0-0.5,0.3-0.7,0.8-0.7h5.3c0.5,0,0.8,0.2,0.8,0.7c0,0.5-0.3,0.7-0.8,0.7h-1.8v5.6c0,0.3-0.1,0.5-0.2,0.6S80.3,89.1,80,89.1z"/>
        <path fill="#3E3E3E" d="M85.1,89.1c-0.3,0-0.5-0.1-0.6-0.2s-0.2-0.4-0.2-0.6V82c0-0.3,0.1-0.5,0.2-0.6s0.4-0.2,0.6-0.2
		s0.5,0.1,0.6,0.2c0.2,0.2,0.2,0.4,0.2,0.6v6.2c0,0.3-0.1,0.5-0.2,0.6C85.5,89,85.3,89.1,85.1,89.1z"/>
        <path fill="#3E3E3E" d="M91,89.1c-0.8,0-1.4-0.2-2-0.5c-0.6-0.3-1-0.8-1.3-1.4c-0.3-0.6-0.5-1.3-0.5-2.1c0-0.8,0.2-1.5,0.5-2.1
		c0.3-0.6,0.7-1.1,1.3-1.4c0.6-0.3,1.2-0.5,2-0.5c0.8,0,1.4,0.2,2,0.5c0.6,0.3,1,0.8,1.3,1.4c0.3,0.6,0.5,1.3,0.5,2.1
		c0,0.8-0.2,1.5-0.5,2.1c-0.3,0.6-0.7,1.1-1.3,1.4C92.5,88.9,91.8,89.1,91,89.1z M91,87.8c0.6,0,1.2-0.2,1.5-0.7
		c0.4-0.5,0.6-1.1,0.6-2c0-0.9-0.2-1.5-0.6-2c-0.4-0.5-0.9-0.7-1.5-0.7c-0.7,0-1.2,0.2-1.5,0.7c-0.4,0.4-0.5,1.1-0.5,2
		c0,0.9,0.2,1.5,0.6,2C89.9,87.5,90.4,87.8,91,87.8z"/>
        <path fill="#3E3E3E" d="M102.1,81.2c0.2,0,0.4,0.1,0.6,0.2c0.2,0.2,0.2,0.4,0.2,0.6v6.2c0,0.3-0.1,0.5-0.2,0.6
		c-0.1,0.2-0.3,0.2-0.6,0.2c-0.3,0-0.5-0.1-0.6-0.3l-3.7-4.7v4.1c0,0.3-0.1,0.5-0.2,0.6c-0.1,0.2-0.3,0.2-0.6,0.2
		c-0.2,0-0.4-0.1-0.6-0.2c-0.1-0.2-0.2-0.4-0.2-0.6V82c0-0.2,0.1-0.5,0.2-0.6c0.2-0.2,0.4-0.2,0.6-0.2c0.3,0,0.5,0.1,0.6,0.3
		l3.7,4.7V82c0-0.2,0.1-0.5,0.2-0.6C101.6,81.3,101.8,81.2,102.1,81.2z"/>
        <path fill="#3E3E3E" d="M107.2,89.1c-0.6,0-1.1-0.1-1.6-0.2c-0.5-0.1-0.9-0.3-1.2-0.6c-0.1-0.1-0.2-0.2-0.2-0.3
		c0-0.1-0.1-0.2-0.1-0.4c0-0.2,0.1-0.3,0.2-0.5c0.1-0.1,0.3-0.2,0.4-0.2c0.1,0,0.2,0,0.2,0c0.1,0,0.2,0.1,0.3,0.1
		c0.3,0.2,0.6,0.3,1,0.4c0.3,0.1,0.7,0.1,1.1,0.1c0.5,0,0.9-0.1,1.1-0.2c0.3-0.2,0.4-0.4,0.4-0.7c0-0.2-0.1-0.4-0.4-0.6
		c-0.2-0.1-0.7-0.3-1.3-0.4c-0.7-0.1-1.2-0.3-1.6-0.5c-0.4-0.2-0.7-0.4-0.9-0.7c-0.2-0.3-0.3-0.6-0.3-1.1c0-0.5,0.1-0.9,0.4-1.2
		c0.3-0.4,0.6-0.7,1.1-0.9c0.5-0.2,1-0.3,1.6-0.3c1,0,1.9,0.3,2.6,0.8c0.1,0.1,0.2,0.2,0.2,0.3c0.1,0.1,0.1,0.2,0.1,0.3
		c0,0.2-0.1,0.3-0.2,0.5c-0.1,0.1-0.2,0.2-0.4,0.2c-0.1,0-0.2,0-0.2,0c-0.1,0-0.2-0.1-0.3-0.1c-0.3-0.2-0.6-0.3-0.8-0.4
		c-0.2-0.1-0.6-0.1-1-0.1c-0.4,0-0.8,0.1-1.1,0.3c-0.3,0.2-0.4,0.4-0.4,0.7c0,0.2,0,0.3,0.1,0.4c0.1,0.1,0.3,0.2,0.5,0.3
		c0.2,0.1,0.6,0.2,1,0.3c1,0.2,1.7,0.5,2.1,0.8c0.4,0.3,0.7,0.8,0.7,1.4c0,0.5-0.1,0.9-0.4,1.2c-0.3,0.4-0.6,0.6-1.1,0.8
		C108.4,89,107.8,89.1,107.2,89.1z"/>
        <path fill="#3E3E3E" d="M43.7,96.2c0.3,0,0.5,0.1,0.6,0.2s0.2,0.4,0.2,0.6v6.2c0,0.3-0.1,0.5-0.2,0.6c-0.2,0.2-0.4,0.2-0.6,0.2
		c-0.3,0-0.5-0.1-0.6-0.2c-0.1-0.2-0.2-0.4-0.2-0.6v-2.5h-3.6v2.5c0,0.3-0.1,0.5-0.2,0.6c-0.2,0.2-0.4,0.2-0.6,0.2
		c-0.3,0-0.5-0.1-0.6-0.2s-0.2-0.4-0.2-0.6V97c0-0.3,0.1-0.5,0.2-0.6s0.4-0.2,0.6-0.2s0.5,0.1,0.6,0.2c0.2,0.2,0.2,0.4,0.2,0.6v2.3
		h3.6V97c0-0.3,0.1-0.5,0.2-0.6C43.3,96.3,43.5,96.2,43.7,96.2z"/>
        <path fill="#3E3E3E" d="M46.9,104c-0.3,0-0.5-0.1-0.6-0.2c-0.1-0.1-0.2-0.3-0.2-0.6V97c0-0.3,0.1-0.5,0.2-0.6
		c0.1-0.1,0.3-0.2,0.6-0.2h3.9c0.5,0,0.8,0.2,0.8,0.7c0,0.4-0.3,0.7-0.8,0.7h-3v1.8h2.8c0.5,0,0.8,0.2,0.8,0.7
		c0,0.4-0.3,0.7-0.8,0.7h-2.8v1.9h3c0.5,0,0.8,0.2,0.8,0.7c0,0.4-0.3,0.7-0.8,0.7H46.9z"/>
        <path fill="#3E3E3E" d="M59.8,103c0.1,0.1,0.1,0.2,0.1,0.4c0,0.2-0.1,0.4-0.3,0.5c-0.2,0.1-0.3,0.2-0.6,0.2c-0.1,0-0.3,0-0.4-0.1
		c-0.1-0.1-0.2-0.2-0.3-0.4l-0.6-1.3H54l-0.6,1.3c-0.1,0.2-0.2,0.3-0.3,0.4c-0.1,0.1-0.2,0.1-0.4,0.1c-0.2,0-0.4-0.1-0.6-0.2
		c-0.2-0.1-0.3-0.3-0.3-0.5c0-0.1,0-0.2,0.1-0.4l3-6.2c0.1-0.2,0.2-0.3,0.4-0.4c0.2-0.1,0.3-0.1,0.5-0.1c0.2,0,0.4,0,0.5,0.1
		c0.2,0.1,0.3,0.2,0.4,0.4L59.8,103z M54.6,101h2.6l-1.3-2.9L54.6,101z"/>
        <path fill="#3E3E3E" d="M65.6,96.6c0.1-0.2,0.2-0.3,0.3-0.3c0.1-0.1,0.3-0.1,0.4-0.1c0.2,0,0.4,0.1,0.6,0.2
		c0.2,0.1,0.3,0.3,0.3,0.5c0,0.1,0,0.2-0.1,0.3l-3,6.3c-0.1,0.2-0.2,0.3-0.4,0.4c-0.2,0.1-0.3,0.1-0.5,0.1c-0.2,0-0.4,0-0.5-0.1
		c-0.2-0.1-0.3-0.2-0.4-0.4l-3-6.3c-0.1-0.1-0.1-0.2-0.1-0.3c0-0.2,0.1-0.4,0.3-0.5c0.2-0.1,0.4-0.2,0.6-0.2c0.2,0,0.3,0,0.4,0.1
		c0.1,0.1,0.2,0.2,0.3,0.3l2.4,5.1L65.6,96.6z"/>
        <path fill="#3E3E3E" d="M73.1,96.5c0.2-0.2,0.4-0.3,0.6-0.3c0.2,0,0.4,0.1,0.6,0.2c0.2,0.2,0.3,0.3,0.3,0.5c0,0.2-0.1,0.4-0.2,0.5
		l-2.4,2.9v2.9c0,0.3-0.1,0.5-0.2,0.6c-0.2,0.1-0.4,0.2-0.6,0.2c-0.3,0-0.5-0.1-0.6-0.2c-0.2-0.1-0.2-0.4-0.2-0.6v-2.9l-2.4-2.9
		c-0.1-0.1-0.2-0.3-0.2-0.5c0-0.2,0.1-0.4,0.2-0.5c0.2-0.2,0.3-0.2,0.5-0.2c0.2,0,0.4,0.1,0.6,0.3L71,99L73.1,96.5z"/>
        <path fill="#3E3E3E" d="M80.9,104.1c-0.3,0-0.5-0.1-0.6-0.2c-0.2-0.2-0.2-0.4-0.2-0.6v-5.6h-1.8c-0.5,0-0.8-0.2-0.8-0.7
		c0-0.5,0.3-0.7,0.8-0.7h5.3c0.5,0,0.8,0.2,0.8,0.7c0,0.5-0.3,0.7-0.8,0.7h-1.8v5.6c0,0.3-0.1,0.5-0.2,0.6S81.2,104.1,80.9,104.1z"
        />
        <path fill="#3E3E3E" d="M91.4,103c0.1,0.1,0.1,0.2,0.1,0.4c0,0.2-0.1,0.4-0.3,0.5c-0.2,0.1-0.3,0.2-0.6,0.2c-0.1,0-0.3,0-0.4-0.1
		c-0.1-0.1-0.2-0.2-0.3-0.4l-0.6-1.3h-3.7l-0.6,1.3c-0.1,0.2-0.2,0.3-0.3,0.4c-0.1,0.1-0.2,0.1-0.4,0.1c-0.2,0-0.4-0.1-0.6-0.2
		c-0.2-0.1-0.3-0.3-0.3-0.5c0-0.1,0-0.2,0.1-0.4l3-6.2c0.1-0.2,0.2-0.3,0.4-0.4c0.2-0.1,0.3-0.1,0.5-0.1c0.2,0,0.4,0,0.5,0.1
		c0.2,0.1,0.3,0.2,0.4,0.4L91.4,103z M86.2,101h2.6l-1.3-2.9L86.2,101z"/>
        <path fill="#3E3E3E" d="M95.1,104.1c-0.6,0-1.1-0.1-1.6-0.2c-0.5-0.1-0.9-0.3-1.2-0.6c-0.1-0.1-0.2-0.2-0.2-0.3
		c0-0.1-0.1-0.2-0.1-0.4c0-0.2,0.1-0.3,0.2-0.5c0.1-0.1,0.2-0.2,0.4-0.2c0.1,0,0.2,0,0.2,0c0.1,0,0.2,0.1,0.3,0.1
		c0.3,0.2,0.6,0.3,1,0.4c0.3,0.1,0.7,0.1,1.1,0.1c0.5,0,0.9-0.1,1.1-0.2c0.3-0.2,0.4-0.4,0.4-0.7c0-0.2-0.1-0.4-0.4-0.6
		c-0.2-0.1-0.7-0.3-1.3-0.4c-0.7-0.1-1.2-0.3-1.6-0.5c-0.4-0.2-0.7-0.4-0.9-0.7c-0.2-0.3-0.3-0.6-0.3-1.1c0-0.5,0.1-0.9,0.4-1.2
		c0.3-0.4,0.6-0.7,1.1-0.9c0.5-0.2,1-0.3,1.6-0.3c1,0,1.9,0.3,2.6,0.8c0.1,0.1,0.2,0.2,0.2,0.3c0.1,0.1,0.1,0.2,0.1,0.3
		c0,0.2-0.1,0.3-0.2,0.5c-0.1,0.1-0.2,0.2-0.4,0.2c-0.1,0-0.2,0-0.2,0c-0.1,0-0.2-0.1-0.3-0.1c-0.3-0.2-0.6-0.3-0.8-0.4
		c-0.2-0.1-0.6-0.1-1-0.1c-0.4,0-0.8,0.1-1.1,0.3c-0.3,0.2-0.4,0.4-0.4,0.7c0,0.2,0,0.3,0.1,0.4c0.1,0.1,0.3,0.2,0.5,0.3
		c0.2,0.1,0.6,0.2,1,0.3c1,0.2,1.7,0.5,2.1,0.8c0.4,0.3,0.7,0.8,0.7,1.4c0,0.5-0.1,0.9-0.4,1.2c-0.3,0.4-0.6,0.6-1.1,0.8
		C96.3,104,95.7,104.1,95.1,104.1z"/>
        <path fill="#3E3E3E" d="M105.7,102.7c0.2,0.2,0.3,0.4,0.3,0.6c0,0.2-0.1,0.4-0.2,0.5c-0.2,0.2-0.3,0.2-0.5,0.2
		c-0.2,0-0.4-0.1-0.6-0.3l-3.4-3.3v2.8c0,0.3-0.1,0.5-0.2,0.6c-0.2,0.2-0.4,0.2-0.6,0.2s-0.5-0.1-0.6-0.2c-0.2-0.2-0.2-0.4-0.2-0.6
		V97c0-0.3,0.1-0.5,0.2-0.6c0.2-0.2,0.4-0.2,0.6-0.2s0.5,0.1,0.6,0.2c0.2,0.2,0.2,0.4,0.2,0.6v2.6l3.3-3.2c0.2-0.2,0.3-0.2,0.6-0.2
		c0.2,0,0.4,0.1,0.5,0.2c0.2,0.1,0.2,0.3,0.2,0.5c0,0.2-0.1,0.4-0.3,0.6l-2.6,2.5L105.7,102.7z"/>
        <path fill="#3E3E3E" d="M109.5,104.1c-0.6,0-1.1-0.1-1.6-0.2c-0.5-0.1-0.9-0.3-1.2-0.6c-0.1-0.1-0.2-0.2-0.2-0.3
		c0-0.1-0.1-0.2-0.1-0.4c0-0.2,0.1-0.3,0.2-0.5c0.1-0.1,0.3-0.2,0.4-0.2c0.1,0,0.2,0,0.2,0c0.1,0,0.2,0.1,0.3,0.1
		c0.3,0.2,0.6,0.3,1,0.4c0.3,0.1,0.7,0.1,1.1,0.1c0.5,0,0.9-0.1,1.1-0.2c0.3-0.2,0.4-0.4,0.4-0.7c0-0.2-0.1-0.4-0.4-0.6
		c-0.2-0.1-0.7-0.3-1.3-0.4c-0.7-0.1-1.2-0.3-1.6-0.5c-0.4-0.2-0.7-0.4-0.9-0.7c-0.2-0.3-0.3-0.6-0.3-1.1c0-0.5,0.1-0.9,0.4-1.2
		c0.3-0.4,0.6-0.7,1.1-0.9c0.5-0.2,1-0.3,1.6-0.3c1,0,1.9,0.3,2.6,0.8c0.1,0.1,0.2,0.2,0.2,0.3c0.1,0.1,0.1,0.2,0.1,0.3
		c0,0.2-0.1,0.3-0.2,0.5c-0.1,0.1-0.2,0.2-0.4,0.2c-0.1,0-0.2,0-0.2,0c-0.1,0-0.2-0.1-0.3-0.1c-0.3-0.2-0.6-0.3-0.8-0.4
		c-0.2-0.1-0.6-0.1-1-0.1c-0.4,0-0.8,0.1-1.1,0.3c-0.3,0.2-0.4,0.4-0.4,0.7c0,0.2,0,0.3,0.1,0.4c0.1,0.1,0.3,0.2,0.5,0.3
		c0.2,0.1,0.6,0.2,1,0.3c1,0.2,1.7,0.5,2.1,0.8c0.4,0.3,0.7,0.8,0.7,1.4c0,0.5-0.1,0.9-0.4,1.2c-0.3,0.4-0.6,0.6-1.1,0.8
		C110.7,104,110.2,104.1,109.5,104.1z"/>
</g>
</svg>
