<?xml version="1.0" encoding="utf-8"?>
<!-- Generator: Adobe Illustrator 24.0.1, SVG Export Plug-In . SVG Version: 6.00 Build 0)  -->
<svg version="1.1" id="Layer_1" xmlns="http://www.w3.org/2000/svg" xmlns:xlink="http://www.w3.org/1999/xlink" x="0px" y="0px"
    viewBox="0 0 149 153" enable-background="new 0 0 149 153" xml:space="preserve">
<g opacity="0.5">
	<path d="M77,17.6c0.6-0.4,1.4-0.4,2,0l50,28.8c0.6,0.4,1,1,1,1.7v57.7c0,0.7-0.4,1.4-1,1.7l-50,28.8c-0.6,0.4-1.4,0.4-2,0l-50-28.8
		c-0.6-0.4-1-1-1-1.7V48.2c0-0.7,0.4-1.4,1-1.7L77,17.6z"/>
    <g>
		<path d="M77.5,151.7c-0.3,0-0.7-0.1-1-0.3L14,115.3c-0.6-0.4-1-1-1-1.7V41.4c0-0.7,0.4-1.4,1-1.7L76.5,3.6l0,0l0,0h0.1l1.2-0.7
			l0.3,0.6c0.1,0,0.2,0.1,0.4,0.2l62.5,36c0.6,0.4,1,1,1,1.7v72.2c0,0.7-0.4,1.4-1,1.7l-62.5,36.1C78.2,151.6,77.8,151.7,77.5,151.7
			z M16,113l61.5,35.5L139,113V42L77.5,6.5L16,42V113z"/>
	</g>
</g>
    <g>

		<linearGradient id="SVGID_1_" gradientUnits="userSpaceOnUse" x1="75" y1="701.9999" x2="75" y2="821.9999" gradientTransform="matrix(1 0 0 1 0 -688)">
		<stop  offset="0" style="stop-color:#FFFFFF"/>
            <stop  offset="1" style="stop-color:#C4C4C4"/>
	</linearGradient>
        <path fill="url(#SVGID_1_)" d="M74,14.6c0.6-0.4,1.4-0.4,2,0l50,28.8c0.6,0.4,1,1,1,1.7v57.7c0,0.7-0.4,1.4-1,1.7l-50,28.8
		c-0.6,0.4-1.4,0.4-2,0l-50-28.8c-0.6-0.4-1-1-1-1.7V45.2c0-0.7,0.4-1.4,1-1.7L74,14.6z"/>
        <path fill="#005888" d="M104.3,49.7h-8.7c-1.4,0-2.7-1.2-2.7-2.7c0-1.4,1.3-2.7,2.7-2.7h8.7c1.4,0,2.7,1.2,2.7,2.7
		S105.8,49.7,104.3,49.7z"/>
        <path fill="#5CB3E2" stroke="#005888" stroke-width="2" d="M83.2,74.3L83.2,74.3L83.2,74.3c0.4,1-0.2,1.7-0.9,1.7H59
		c-0.9,0-1.5-0.9-1.2-1.7l3.9-9.9h17.7L83.2,74.3z"/>
        <path fill="#005888" d="M53.6,58.8H42.2c-1.4,0-2.7-1.1-2.7-2.7c0-1.4,1.3-2.7,2.7-2.7h11.4V58.8z"/>
        <path fill="#7AC4EC" stroke="#005888" stroke-width="2" d="M85.2,52.3H84l0.2,1.2c0.2,0.9,0.3,1.9,0.3,2.8
		c0,7.8-6.3,14.3-14.4,14.3c-7.9,0-14.4-6.3-14.4-14.3c0-7.8,6.3-14.2,14.2-14.3h23c1.6,0,2.8,1.3,2.8,2.7v4.8
		c0,1.6-1.2,2.7-2.8,2.7h-7.7V52.3z"/>
        <path fill="#5CB3E2" stroke="#005888" stroke-width="2" d="M70.7,61H52.9c-0.9,0-1.5-0.6-1.5-1.5v-6.8c0-0.9,0.6-1.5,1.5-1.5h17.7
		c2.7,0,4.9,2.2,4.9,4.9C75.5,58.8,73.4,61,70.7,61z"/>
        <g>
		<path fill="#FFFFFF" d="M74.5,148.7c-0.3,0-0.7-0.1-1-0.3L11,112.3c-0.6-0.4-1-1-1-1.7V38.4c0-0.7,0.4-1.4,1-1.7L73.5,0.6l0,0l0,0
			h0.1l1.2-0.7l0.3,0.6c0.1,0,0.2,0.1,0.4,0.2l62.5,36c0.6,0.4,1,1,1,1.7v72.2c0,0.7-0.4,1.4-1,1.7l-62.5,36.1
			C75.2,148.6,74.8,148.7,74.5,148.7z M13,110l61.5,35.5L136,110V39L74.5,3.5L13,39V110z"/>
	</g>
        <path fill="#3E3E3E" d="M60.6,101.1c-0.3,0-0.5-0.1-0.6-0.2s-0.2-0.4-0.2-0.6V94c0-0.3,0.1-0.5,0.2-0.6c0.1-0.1,0.3-0.2,0.6-0.2
		h2.8c0.8,0,1.5,0.2,2,0.6s0.7,1,0.7,1.8s-0.2,1.4-0.7,1.8s-1.1,0.6-2,0.6h-1.8v2.1c0,0.3-0.1,0.5-0.2,0.6
		C61.1,101,60.8,101.1,60.6,101.1z M63.1,96.8c0.9,0,1.3-0.4,1.3-1.1s-0.4-1.1-1.3-1.1h-1.6v2.2H63.1z"/>
        <path fill="#3E3E3E" d="M70.4,101.1c-1.1,0-1.9-0.3-2.5-0.8c-0.6-0.6-0.8-1.4-0.8-2.5V94c0-0.3,0.1-0.5,0.2-0.6s0.4-0.2,0.6-0.2
		c0.3,0,0.5,0.1,0.6,0.2c0.2,0.2,0.2,0.4,0.2,0.6v3.8c0,0.6,0.1,1.1,0.4,1.4s0.7,0.5,1.2,0.5s0.9-0.2,1.2-0.5
		c0.3-0.3,0.4-0.8,0.4-1.4V94c0-0.3,0.1-0.5,0.2-0.6c0.2-0.2,0.4-0.2,0.6-0.2c0.3,0,0.5,0.1,0.6,0.2c0.2,0.2,0.2,0.4,0.2,0.6v3.8
		c0,1.1-0.3,1.9-0.9,2.5C72.3,100.8,71.4,101.1,70.4,101.1z"/>
        <path fill="#3E3E3E" d="M82.1,93.2c0.2,0,0.4,0.1,0.6,0.2c0.2,0.2,0.2,0.4,0.2,0.6v6.2c0,0.2-0.1,0.4-0.2,0.6
		c-0.1,0.1-0.3,0.2-0.5,0.2s-0.4-0.1-0.5-0.2s-0.2-0.3-0.2-0.6v-3.9l-1.6,2.9c-0.1,0.2-0.2,0.3-0.3,0.4c-0.1,0.1-0.3,0.1-0.4,0.1
		c-0.2,0-0.3,0-0.4-0.1s-0.2-0.2-0.3-0.4l-1.6-2.9v3.8c0,0.2-0.1,0.4-0.2,0.6c-0.1,0.1-0.3,0.2-0.6,0.2c-0.2,0-0.4-0.1-0.5-0.2
		s-0.2-0.3-0.2-0.6V94c0-0.2,0.1-0.5,0.2-0.6c0.2-0.2,0.4-0.2,0.6-0.2c0.4,0,0.6,0.2,0.8,0.6l2.2,4.2l2.2-4.2
		C81.5,93.4,81.8,93.2,82.1,93.2z"/>
        <path fill="#3E3E3E" d="M85.3,101.1c-0.3,0-0.5-0.1-0.6-0.2s-0.2-0.4-0.2-0.6V94c0-0.3,0.1-0.5,0.2-0.6s0.3-0.2,0.6-0.2H88
		c0.8,0,1.5,0.2,2,0.6s0.7,1,0.7,1.8S90.5,97,90,97.4S88.9,98,88,98h-1.8v2.1c0,0.3-0.1,0.5-0.2,0.6S85.6,101.1,85.3,101.1z
		 M87.8,96.8c0.9,0,1.3-0.4,1.3-1.1s-0.4-1.1-1.3-1.1h-1.6v2.2H87.8z"/>
</g>
</svg>
