<?xml version="1.0" encoding="utf-8"?>
<!-- Generator: Adobe Illustrator 24.0.1, SVG Export Plug-In . SVG Version: 6.00 Build 0)  -->
<svg version="1.1" id="Layer_1" xmlns="http://www.w3.org/2000/svg" xmlns:xlink="http://www.w3.org/1999/xlink" x="0px" y="0px"
    viewBox="0 0 60 60" enable-background="new 0 0 60 60" xml:space="preserve">
<g id="small_icon_scan">
	<g id="Polygon_26">
		<g>
			<g>
				<path fill="#FFFFFF" d="M27.5,1.4c1.5-0.9,3.5-0.9,5,0l21,12.1C55,14.4,56,16,56,17.8V42c0,1.8-1,3.4-2.5,4.3l-21,12.1
					c-1.5,0.9-3.5,0.9-5,0l-21-12.1C5,45.6,4,43.9,4,42.1V17.9c0-1.8,1-3.4,2.5-4.3L27.5,1.4z"/>
			</g>
		</g>
        <g>

				<linearGradient id="SVGID_1_" gradientUnits="userSpaceOnUse" x1="10.0855" y1="788.3737" x2="46.311" y2="831.3915" gradientTransform="matrix(1 0 0 1 0 -782)">
				<stop  offset="0" style="stop-color:#005888"/>
                    <stop  offset="1" style="stop-color:#5CB3E2"/>
			</linearGradient>
            <path fill="url(#SVGID_1_)" d="M30,59.2c-0.9,0-1.7-0.2-2.5-0.7l-21-12.1C5,45.6,4,43.9,4,42.1V17.9c0-1.8,1-3.4,2.5-4.3l21-12.1
				c1.5-0.9,3.5-0.9,5,0l21,12.1c1.5,0.9,2.5,2.5,2.5,4.3v24.2c0,1.8-1,3.4-2.5,4.3l-21,12.1C31.7,59,30.9,59.2,30,59.2z M28.5,3.2
				l-21,12.1C6.6,15.8,6,16.8,6,17.9v24.2c0,1.1,0.6,2.1,1.5,2.6l21,12.1c0.9,0.5,2.1,0.5,3,0l21-12.1c0.9-0.5,1.5-1.5,1.5-2.6V17.9
				c0-1.1-0.6-2.1-1.5-2.6l-21-12.1C30.6,2.6,29.4,2.6,28.5,3.2L28.5,3.2z"/>
		</g>
	</g>
    <g id="Vector">
		<path fill="#005888" d="M22.1,22.1H28V28h-5.9V22.1z M37.9,22.1V28H32v-5.9H37.9z M32,33h2v-2h-2v-2h2v2h2v-2h2v2h-2v2h2v3h-2v2
			h-2v-2h-3v2h-2v-4h3V33z M34,33v3h2v-3H34z M22.1,37.9V32H28v5.9H22.1z M24.1,24.1v2h2v-2H24.1z M34,24.1v2h2v-2H34z M24.1,34v2h2
			v-2H24.1z M22.1,29h2v2h-2V29z M27,29h4v4h-2v-2h-2V29z M29,24.1h2v4h-2V24.1z M20.1,20.1v4h-2v-4c0-0.5,0.2-1,0.6-1.4
			s0.9-0.6,1.4-0.6h4v2H20.1z M39.9,18.1c0.5,0,1,0.2,1.4,0.6s0.6,0.9,0.6,1.4v4h-2v-4h-4v-2H39.9z M20.1,35.9v4h4v2h-4
			c-0.5,0-1-0.2-1.4-0.6c-0.4-0.4-0.6-0.9-0.6-1.4v-4H20.1z M39.9,39.9v-4h2v4c0,0.5-0.2,1-0.6,1.4c-0.4,0.4-0.9,0.6-1.4,0.6h-4v-2
			H39.9z"/>
	</g>
</g>
</svg>
