<?xml version="1.0" encoding="utf-8"?>
<!-- Generator: Adobe Illustrator 24.0.1, SVG Export Plug-In . SVG Version: 6.00 Build 0)  -->
<svg version="1.1" id="Layer_1" xmlns="http://www.w3.org/2000/svg" xmlns:xlink="http://www.w3.org/1999/xlink" x="0px" y="0px"
    viewBox="0 0 149 153" enable-background="new 0 0 149 153" xml:space="preserve">
<g opacity="0.5">
	<path d="M77,17.6c0.6-0.4,1.4-0.4,2,0l50,28.8c0.6,0.4,1,1,1,1.7v57.7c0,0.7-0.4,1.4-1,1.7l-50,28.8c-0.6,0.4-1.4,0.4-2,0l-50-28.8
		c-0.6-0.4-1-1-1-1.7V48.2c0-0.7,0.4-1.4,1-1.7L77,17.6z"/>
    <g>
		<path d="M77.5,151.7c-0.3,0-0.7-0.1-1-0.3L14,115.3c-0.6-0.4-1-1-1-1.7V41.4c0-0.7,0.4-1.4,1-1.7L76.5,3.6l0,0l0,0h0.1l1.2-0.7
			l0.3,0.6c0.1,0,0.2,0.1,0.4,0.2l62.5,36c0.6,0.4,1,1,1,1.7v72.2c0,0.7-0.4,1.4-1,1.7l-62.5,36.1C78.2,151.6,77.8,151.7,77.5,151.7
			z M16,113l61.5,35.5L139,113V42L77.5,6.5L16,42V113z"/>
	</g>
</g>
    <g>

		<linearGradient id="SVGID_1_" gradientUnits="userSpaceOnUse" x1="75" y1="701.9999" x2="75" y2="821.9999" gradientTransform="matrix(1 0 0 1 0 -688)">
		<stop  offset="0" style="stop-color:#FFFFFF"/>
            <stop  offset="1" style="stop-color:#C4C4C4"/>
	</linearGradient>
        <path fill="url(#SVGID_1_)" d="M74,14.6c0.6-0.4,1.4-0.4,2,0l50,28.8c0.6,0.4,1,1,1,1.7v57.7c0,0.7-0.4,1.4-1,1.7l-50,28.8
		c-0.6,0.4-1.4,0.4-2,0l-50-28.8c-0.6-0.4-1-1-1-1.7V45.2c0-0.7,0.4-1.4,1-1.7L74,14.6z"/>
        <path fill="#005888" d="M50.1,53.2c-0.7,0-1.3-0.6-1.3-1.3v-5c0-0.7,0.6-1.3,1.3-1.3s1.3,0.6,1.3,1.3v4.9
		C51.4,52.6,50.8,53.2,50.1,53.2z"/>
        <path fill="#005888" d="M53.9,46.3c0,0.7-0.6,1.3-1.3,1.3h-4.9c-0.7,0-1.3-0.6-1.3-1.3S47,45,47.7,45h4.9
		C53.3,45,53.9,45.6,53.9,46.3z"/>
        <path fill="#005888" d="M67.4,53.2c-0.7,0-1.3-0.6-1.3-1.3v-5c0-0.7,0.6-1.3,1.3-1.3c0.7,0,1.3,0.6,1.3,1.3v4.9
		C68.8,52.6,68.1,53.2,67.4,53.2z"/>
        <path fill="#005888" d="M71.2,46.3c0,0.7-0.6,1.3-1.3,1.3H65c-0.7,0-1.3-0.6-1.3-1.3C63.6,45.6,64.2,45,65,45h4.9
		C70.6,45,71.2,45.6,71.2,46.3z"/>
        <path fill="#005888" d="M50.1,70c0.7,0,1.3,0.6,1.3,1.3v4.9c0,0.7-0.6,1.3-1.3,1.3s-1.3-0.6-1.3-1.3v-4.9
		C48.7,70.6,49.3,70,50.1,70z"/>
        <path fill="#005888" d="M46.3,76.8c0-0.7,0.6-1.3,1.3-1.3h4.9c0.7,0,1.3,0.6,1.3,1.3c0,0.7-0.6,1.3-1.3,1.3h-4.9
		C46.9,78.1,46.3,77.5,46.3,76.8z"/>
        <path fill="#005888" d="M84.6,70c0.7,0,1.3,0.6,1.3,1.3v4.9c0,0.7-0.6,1.3-1.3,1.3s-1.3-0.6-1.3-1.3v-4.9
		C83.3,70.6,83.9,70,84.6,70z"/>
        <path fill="#005888" d="M80.8,76.8c0-0.7,0.6-1.3,1.3-1.3H87c0.7,0,1.3,0.6,1.3,1.3c0,0.7-0.6,1.3-1.3,1.3h-4.9
		C81.4,78.1,80.8,77.5,80.8,76.8z"/>
        <path fill="none" stroke="#005888" stroke-width="2" stroke-linecap="round" stroke-miterlimit="10" d="M55.8,48.4v28"/>
        <path fill="none" stroke="#005888" stroke-width="2" stroke-linecap="round" stroke-miterlimit="10" d="M61.5,48.4v28"/>
        <path fill="#7AC4EC" stroke="#005888" stroke-width="2" stroke-miterlimit="10" d="M35,61.7c0,5.6,4.6,10.2,10.2,10.2h10.5V51.4
		H45.2C39.6,51.4,35,56,35,61.7z"/>
        <path fill="#7AC4EC" stroke="#005888" stroke-width="2" stroke-miterlimit="10" d="M103.7,51.4H98v20.5h5.7
		c5.6,0,10.2-4.6,10.2-10.2C113.9,56,109.3,51.4,103.7,51.4z"/>
        <path fill="#7AC4EC" stroke="#005888" stroke-width="2" stroke-miterlimit="10" d="M92.2,51.4H61.5v20.5h30.7V51.4z"/>
        <path fill="none" stroke="#005888" stroke-width="2" stroke-linecap="round" stroke-miterlimit="10" d="M92.2,48.4v28"/>
        <path fill="none" stroke="#005888" stroke-width="2" stroke-linecap="round" stroke-miterlimit="10" d="M98,48.4v28"/>
        <g>
		<path fill="#FFFFFF" d="M74.5,148.7c-0.3,0-0.7-0.1-1-0.3L11,112.3c-0.6-0.4-1-1-1-1.7V38.4c0-0.7,0.4-1.4,1-1.7L73.5,0.6l0,0l0,0
			h0.1l1.2-0.7l0.3,0.6c0.1,0,0.2,0.1,0.4,0.2l62.5,36c0.6,0.4,1,1,1,1.7v72.2c0,0.7-0.4,1.4-1,1.7l-62.5,36.1
			C75.2,148.6,74.8,148.7,74.5,148.7z M13,110l61.5,35.5L136,110V39L74.5,3.5L13,39V110z"/>
	</g>
        <path fill="#3E3E3E" d="M57.1,93.6c0.1-0.2,0.2-0.3,0.3-0.3c0.1-0.1,0.3-0.1,0.4-0.1c0.2,0,0.4,0.1,0.6,0.2
		c0.2,0.1,0.3,0.3,0.3,0.5c0,0.1,0,0.2-0.1,0.3l-3,6.3c-0.1,0.2-0.2,0.3-0.4,0.4s-0.3,0.1-0.5,0.1s-0.4,0-0.5-0.1
		c-0.2-0.1-0.3-0.2-0.4-0.4l-3-6.3c-0.1-0.1-0.1-0.2-0.1-0.3c0-0.2,0.1-0.4,0.3-0.5s0.4-0.2,0.6-0.2c0.2,0,0.3,0,0.4,0.1
		c0.1,0.1,0.2,0.2,0.3,0.3l2.4,5.1L57.1,93.6z"/>
        <path fill="#3E3E3E" d="M60.3,101c-0.3,0-0.5-0.1-0.6-0.2s-0.2-0.3-0.2-0.6V94c0-0.3,0.1-0.5,0.2-0.6c0.1-0.1,0.3-0.2,0.6-0.2h3.9
		c0.5,0,0.8,0.2,0.8,0.7c0,0.4-0.3,0.7-0.8,0.7h-3v1.8H64c0.5,0,0.8,0.2,0.8,0.7c0,0.4-0.3,0.7-0.8,0.7h-2.8v1.9h3
		c0.5,0,0.8,0.2,0.8,0.7c0,0.4-0.3,0.7-0.8,0.7h-3.9V101z"/>
        <path fill="#3E3E3E" d="M68.7,101.1c-0.6,0-1.1-0.1-1.6-0.2s-0.9-0.3-1.2-0.6c-0.1-0.1-0.2-0.2-0.2-0.3c0-0.1-0.1-0.2-0.1-0.4
		c0-0.2,0.1-0.3,0.2-0.5c0.1-0.1,0.2-0.2,0.4-0.2c0.1,0,0.2,0,0.2,0c0.1,0,0.2,0.1,0.3,0.1c0.3,0.2,0.6,0.3,1,0.4
		c0.3,0.1,0.7,0.1,1.1,0.1c0.5,0,0.9-0.1,1.1-0.2s0.4-0.4,0.4-0.7c0-0.2-0.1-0.4-0.4-0.6c-0.2-0.1-0.7-0.3-1.3-0.4
		c-0.7-0.1-1.2-0.3-1.6-0.5s-0.7-0.4-0.9-0.7c-0.2-0.3-0.3-0.6-0.3-1.1s0.1-0.9,0.4-1.2c0.3-0.4,0.6-0.7,1.1-0.9
		c0.5-0.2,1-0.3,1.6-0.3c1,0,1.9,0.3,2.6,0.8c0.1,0.1,0.2,0.2,0.2,0.3c0.1,0.1,0.1,0.2,0.1,0.3c0,0.2-0.1,0.3-0.2,0.5
		c-0.1,0.1-0.2,0.2-0.4,0.2c-0.1,0-0.2,0-0.2,0c-0.1,0-0.2-0.1-0.3-0.1c-0.3-0.2-0.6-0.3-0.8-0.4c-0.2-0.1-0.6-0.1-1-0.1
		s-0.8,0.1-1.1,0.3c-0.3,0.2-0.4,0.4-0.4,0.7c0,0.2,0,0.3,0.1,0.4s0.3,0.2,0.5,0.3c0.2,0.1,0.6,0.2,1,0.3c1,0.2,1.7,0.5,2.1,0.8
		s0.7,0.8,0.7,1.4c0,0.5-0.1,0.9-0.4,1.2c-0.3,0.4-0.6,0.6-1.1,0.8C69.9,101,69.3,101.1,68.7,101.1z"/>
        <path fill="#3E3E3E" d="M75.9,101.1c-0.6,0-1.1-0.1-1.6-0.2s-0.9-0.3-1.2-0.6c-0.1-0.1-0.2-0.2-0.2-0.3c0-0.1-0.1-0.2-0.1-0.4
		c0-0.2,0.1-0.3,0.2-0.5c0.1-0.1,0.2-0.2,0.4-0.2c0.1,0,0.2,0,0.2,0c0.1,0,0.2,0.1,0.3,0.1c0.3,0.2,0.6,0.3,1,0.4
		c0.3,0.1,0.7,0.1,1.1,0.1c0.5,0,0.9-0.1,1.1-0.2c0.3-0.2,0.4-0.4,0.4-0.7c0-0.2-0.1-0.4-0.4-0.6c-0.2-0.1-0.7-0.3-1.3-0.4
		c-0.7-0.1-1.2-0.3-1.6-0.5s-0.7-0.4-0.9-0.7c-0.2-0.3-0.3-0.6-0.3-1.1s0.1-0.9,0.4-1.2c0.3-0.4,0.6-0.7,1.1-0.9
		c0.5-0.2,1-0.3,1.6-0.3c1,0,1.9,0.3,2.6,0.8c0.1,0.1,0.2,0.2,0.2,0.3c0.1,0.1,0.1,0.2,0.1,0.3c0,0.2-0.1,0.3-0.2,0.5
		c-0.1,0.1-0.2,0.2-0.4,0.2c-0.1,0-0.2,0-0.2,0c-0.1,0-0.2-0.1-0.3-0.1c-0.3-0.2-0.6-0.3-0.8-0.4c-0.2-0.1-0.6-0.1-1-0.1
		s-0.8,0.1-1.1,0.3c-0.3,0.2-0.4,0.4-0.4,0.7c0,0.2,0,0.3,0.1,0.4s0.3,0.2,0.5,0.3c0.2,0.1,0.6,0.2,1,0.3c1,0.2,1.7,0.5,2.1,0.8
		S79,98,79,98.6c0,0.5-0.1,0.9-0.4,1.2c-0.3,0.4-0.6,0.6-1.1,0.8C77.1,101,76.5,101.1,75.9,101.1z"/>
        <path fill="#3E3E3E" d="M81.1,101c-0.3,0-0.5-0.1-0.6-0.2s-0.2-0.3-0.2-0.6V94c0-0.3,0.1-0.5,0.2-0.6s0.3-0.2,0.6-0.2H85
		c0.5,0,0.8,0.2,0.8,0.7c0,0.4-0.3,0.7-0.8,0.7h-3v1.8h2.8c0.5,0,0.8,0.2,0.8,0.7c0,0.4-0.3,0.7-0.8,0.7H82v1.9h3
		c0.5,0,0.8,0.2,0.8,0.7c0,0.4-0.3,0.7-0.8,0.7h-3.9V101z"/>
        <path fill="#3E3E3E" d="M87.6,101c-0.3,0-0.5-0.1-0.6-0.2s-0.2-0.3-0.2-0.6V94c0-0.3,0.1-0.5,0.2-0.6s0.4-0.2,0.6-0.2
		s0.5,0.1,0.6,0.2s0.2,0.4,0.2,0.6v5.6h2.8c0.5,0,0.8,0.2,0.8,0.7s-0.3,0.7-0.8,0.7C91.2,101,87.6,101,87.6,101z"/>
        <path fill="#3E3E3E" d="M95.7,101.1c-0.6,0-1.1-0.1-1.6-0.2s-0.9-0.3-1.2-0.6c-0.1-0.1-0.2-0.2-0.2-0.3c0-0.1-0.1-0.2-0.1-0.4
		c0-0.2,0.1-0.3,0.2-0.5c0.1-0.1,0.2-0.2,0.4-0.2c0.1,0,0.2,0,0.2,0c0.1,0,0.2,0.1,0.3,0.1c0.3,0.2,0.6,0.3,1,0.4
		c0.3,0.1,0.7,0.1,1.1,0.1c0.5,0,0.9-0.1,1.1-0.2c0.3-0.2,0.4-0.4,0.4-0.7c0-0.2-0.1-0.4-0.4-0.6c-0.2-0.1-0.7-0.3-1.3-0.4
		c-0.7-0.1-1.2-0.3-1.6-0.5s-0.7-0.4-0.9-0.7c-0.2-0.3-0.3-0.6-0.3-1.1s0.1-0.9,0.4-1.2c0.3-0.4,0.6-0.7,1.1-0.9
		c0.5-0.2,1-0.3,1.6-0.3c1,0,1.9,0.3,2.6,0.8c0.1,0.1,0.2,0.2,0.2,0.3c0.1,0.1,0.1,0.2,0.1,0.3c0,0.2-0.1,0.3-0.2,0.5
		c-0.1,0.1-0.2,0.2-0.4,0.2c-0.1,0-0.2,0-0.2,0c-0.1,0-0.2-0.1-0.3-0.1c-0.3-0.2-0.6-0.3-0.8-0.4c-0.2-0.1-0.6-0.1-1-0.1
		s-0.8,0.1-1.1,0.3c-0.3,0.2-0.4,0.4-0.4,0.7c0,0.2,0,0.3,0.1,0.4s0.3,0.2,0.5,0.3c0.2,0.1,0.6,0.2,1,0.3c1,0.2,1.7,0.5,2.1,0.8
		s0.7,0.8,0.7,1.4c0,0.5-0.1,0.9-0.4,1.2c-0.3,0.4-0.6,0.6-1.1,0.8C96.8,101,96.3,101.1,95.7,101.1z"/>
</g>
</svg>
